<?xml version="1.0" encoding="utf-8"?>
<!-- Generator: Adobe Illustrator 18.1.1, SVG Export Plug-In . SVG Version: 6.00 Build 0)  -->
<svg version="1.1" id="Layer_1" xmlns="http://www.w3.org/2000/svg" xmlns:xlink="http://www.w3.org/1999/xlink" x="0px" y="0px"
	 viewBox="0 0 153 306" enable-background="new 0 0 153 306" xml:space="preserve">
<g>
	<path fill="#889096" d="M151.4,65V24.3c0-13.3-10.9-24.3-24.3-24.3H25.4C12.1,0,1.2,10.9,1.2,24.3v15c-0.7,0.4-1.2,1.1-1.2,2v7.5
		c0,0.9,0.5,1.6,1.2,2V65C0.5,65.4,0,66.2,0,67v18.4c0,0.9,0.5,1.6,1.2,2v5.8c-0.7,0.4-1.2,1.1-1.2,2v18.4c0,0.9,0.5,1.6,1.2,2
		v166.1c0,13.3,10.9,24.3,24.3,24.3h101.7c13.3,0,24.3-10.9,24.3-24.3V87.4c0.7-0.4,1.1-1.1,1.1-2V67
		C152.5,66.2,152.1,65.4,151.4,65z"/>
	<g>
		<path fill="#010101" d="M127.4,303.7H25.2c-11.9,0-21.6-9.7-21.6-21.6V24.1c0-12,9.8-21.8,21.8-21.8h101.8
			c12,0,21.8,9.8,21.8,21.8v257.9C149,294,139.2,303.7,127.4,303.7z"/>
	</g>
	<rect x="11.9" y="38" fill="#585D64" width="128.8" height="229.6"/>
	<path fill="#585D64" d="M86.2,21.6H66.3c-0.7,0-1.2-0.6-1.2-1.2v0c0-0.7,0.6-1.2,1.2-1.2h19.9c0.7,0,1.2,0.6,1.2,1.2v0
		C87.5,21,86.9,21.6,86.2,21.6z"/>
	<path fill="#393C40" d="M55,23.3L55,23.3c-1.6,0-3-1.3-3-3v0c0-1.6,1.3-3,3-3h0c1.6,0,3,1.3,3,3v0C58,22,56.7,23.3,55,23.3z"/>
	<path fill="#385E96" d="M55,22.1L55,22.1c-1,0-1.8-0.8-1.8-1.8v0c0-1,0.8-1.8,1.8-1.8h0c1,0,1.8,0.8,1.8,1.8v0
		C56.8,21.3,56,22.1,55,22.1z"/>
	<circle fill="#585D64" cx="76.3" cy="285" r="12"/>
	<circle fill="#0E1316" cx="76.3" cy="285" r="10.2"/>
</g>
</svg>
