<?xml version="1.0" encoding="utf-8"?>
<!-- Generator: Adobe Illustrator 18.1.1, SVG Export Plug-In . SVG Version: 6.00 Build 0)  -->
<svg version="1.1" id="Layer_1" xmlns="http://www.w3.org/2000/svg" xmlns:xlink="http://www.w3.org/1999/xlink" x="0px" y="0px"
	 viewBox="0 0 697 398" enable-background="new 0 0 697 398" xml:space="preserve">
<g enable-background="new    ">
	<path fill="#010101" d="M629.6,377.9c0.9,0,2.3-0.9,2.3-1.8c0.9-2.3,1.4-4.6,1.4-6.8V21.9C633.3,10,623.7,0,611.4,0H84.7
		C72.8,0,62.8,9.6,62.8,21.9v347.4c0,2.3,0.5,4.6,1.4,6.8c0.5,0.9,1.4,1.8,2.3,1.8H629.6L629.6,377.9z"/>
	<path fill="#889096" d="M629.6,379.7h-1.4l0,0H66.9c-1.8,0-3.2-0.9-3.6-2.3c-0.9-2.3-1.4-5-1.4-7.3V22.8C61.9,10,72.4,0,84.7,0
		h526.7c12.7,0,22.8,10.5,22.8,22.8v347.4c0,2.3-0.5,5-1.4,7.3C632.8,378.8,631,379.7,629.6,379.7z M84.7,2.3
		c-11.4,0-20.5,9.1-20.5,20.5v347.4c0,2.3,0.5,4.1,1.4,6.4c0,0.5,0.9,0.9,1.4,0.9l0,0h563.2c0.5,0,0.5-0.5,0.9-0.9
		c0.9-2.3,1.4-4.1,1.4-6.4V22.8c0-11.4-9.1-20.5-20.5-20.5L84.7,2.3L84.7,2.3z"/>
	<rect x="82.9" y="22.8" fill="#585D64" width="530.4" height="331.9"/>
	<path fill="#C4CED1" d="M0.9,377h695.2c0.5,0,0.9,0.5,0.9,0.9v11.4c0,0.5-0.5,0.9-0.9,0.5H0.9c-0.5,0-0.9,0-0.9-0.5v-11.4
		C0,377.4,0.5,377,0.9,377z"/>
	<path fill="#A4AEB3" d="M0.5,389.2h695.6c0,0-6.4,4.6-15,6.4c-8.2,2.3-18.2,1.8-18.2,1.8H33.7c0,0-9.6,0-17.8-1.8
		C7.3,393.8,0.5,389.2,0.5,389.2z"/>
	<path fill="#E2E6E8" d="M313.7,377h69.7H397c0,4.6-3.2,8.2-6.8,8.2h-0.5h-82.4h-0.5c-3.6,0-6.8-3.6-6.8-8.2H313.7z"/>
	<path fill="#2D3033" d="M348.3,8.2c1.4,0,2.7,1.4,2.7,2.7s-1.4,2.7-2.7,2.7c-1.4,0-2.7-1.4-2.7-2.7C345.5,10,346.5,8.2,348.3,8.2z"
		/>
</g>
</svg>
