<svg xmlns="http://www.w3.org/2000/svg" id="Layer_1" viewBox="0 0 574.2 323"><style>.st0{fill:url(#SVGID_1_);}</style><radialGradient id="SVGID_1_" cx="287.115" cy="161.495" r="232.933" gradientUnits="userSpaceOnUse"><stop offset="0" stop-color="#2A75A3"/><stop offset="1" stop-color="#1F577B"/></radialGradient><path d="M574.2 323H0V0h574.2v323zm0-323H0v323h574.2V0zM0 63.4c0 2.1 1.7 3.7 3.7 3.7s3.7-1.7 3.7-3.7-1.7-3.7-3.7-3.7S0 61.4 0 63.4zm0 17.1c0 2.1 1.7 3.7 3.7 3.7s3.7-1.7 3.7-3.7-1.7-3.7-3.7-3.7S0 78.4 0 80.5zm0 25.6c0 2.1 1.7 3.7 3.7 3.7s3.7-1.7 3.7-3.7-1.7-3.7-3.7-3.7S0 104 0 106.1zm8.5-51.2c0 2.1 1.7 3.7 3.7 3.7s3.7-1.7 3.7-3.7-1.7-3.7-3.7-3.7-3.7 1.6-3.7 3.7zm0 8.5c0 2.1 1.7 3.7 3.7 3.7s3.7-1.7 3.7-3.7-1.7-3.7-3.7-3.7-3.7 1.7-3.7 3.7zm0 8.6c0 2.1 1.7 3.7 3.7 3.7s3.7-1.7 3.7-3.7-1.7-3.7-3.7-3.7-3.7 1.6-3.7 3.7zm0 8.5c0 2.1 1.7 3.7 3.7 3.7s3.7-1.7 3.7-3.7-1.7-3.7-3.7-3.7-3.7 1.6-3.7 3.7zm0 8.5c0 2.1 1.7 3.7 3.7 3.7s3.7-1.7 3.7-3.7-1.7-3.7-3.7-3.7-3.7 1.6-3.7 3.7zm0 8.5c0 2.1 1.7 3.7 3.7 3.7s3.7-1.7 3.7-3.7-1.7-3.7-3.7-3.7-3.7 1.7-3.7 3.7zm0 68.3c0 2.1 1.7 3.7 3.7 3.7s3.7-1.7 3.7-3.7-1.7-3.7-3.7-3.7-3.7 1.6-3.7 3.7zm8.4-110.9c0 2.1 1.7 3.7 3.7 3.7s3.7-1.7 3.7-3.7-1.7-3.7-3.7-3.7-3.7 1.6-3.7 3.7zm0 8.5c0 2.1 1.7 3.7 3.7 3.7s3.7-1.7 3.7-3.7-1.7-3.7-3.7-3.7-3.7 1.7-3.7 3.7zm0 8.6c0 2.1 1.7 3.7 3.7 3.7s3.7-1.7 3.7-3.7-1.7-3.7-3.7-3.7-3.7 1.6-3.7 3.7zm0 8.5c0 2.1 1.7 3.7 3.7 3.7s3.7-1.7 3.7-3.7-1.7-3.7-3.7-3.7-3.7 1.6-3.7 3.7zm0 8.5c0 2.1 1.7 3.7 3.7 3.7s3.7-1.7 3.7-3.7-1.7-3.7-3.7-3.7-3.7 1.6-3.7 3.7zm0 76.8c0 2.1 1.7 3.7 3.7 3.7s3.7-1.7 3.7-3.7-1.7-3.7-3.7-3.7-3.7 1.6-3.7 3.7zm8.5-110.9c0 2.1 1.7 3.7 3.7 3.7s3.7-1.7 3.7-3.7-1.7-3.7-3.7-3.7-3.7 1.6-3.7 3.7zm0 8.5c0 2.1 1.7 3.7 3.7 3.7s3.7-1.7 3.7-3.7-1.7-3.7-3.7-3.7-3.7 1.7-3.7 3.7zm0 8.6c0 2.1 1.7 3.7 3.7 3.7s3.7-1.7 3.7-3.7-1.7-3.7-3.7-3.7-3.7 1.6-3.7 3.7zm0 8.5c0 2.1 1.7 3.7 3.7 3.7s3.7-1.7 3.7-3.7-1.7-3.7-3.7-3.7-3.7 1.6-3.7 3.7zm0 8.5c0 2.1 1.7 3.7 3.7 3.7s3.7-1.7 3.7-3.7-1.7-3.7-3.7-3.7-3.7 1.6-3.7 3.7zm8.4-34.1c0 2.1 1.7 3.7 3.7 3.7s3.7-1.7 3.7-3.7-1.7-3.7-3.7-3.7-3.7 1.6-3.7 3.7zm0 8.5c0 2.1 1.7 3.7 3.7 3.7s3.7-1.7 3.7-3.7-1.7-3.7-3.7-3.7-3.7 1.7-3.7 3.7zm0 8.6c0 2.1 1.7 3.7 3.7 3.7s3.7-1.7 3.7-3.7-1.7-3.7-3.7-3.7-3.7 1.6-3.7 3.7zm0 8.5c0 2.1 1.7 3.7 3.7 3.7s3.7-1.7 3.7-3.7-1.7-3.7-3.7-3.7-3.7 1.6-3.7 3.7zm8.5-25.6c0 2.1 1.7 3.7 3.7 3.7s3.7-1.7 3.7-3.7-1.7-3.7-3.7-3.7-3.7 1.6-3.7 3.7zm0 8.5c0 2.1 1.7 3.7 3.7 3.7s3.7-1.7 3.7-3.7-1.7-3.7-3.7-3.7-3.7 1.7-3.7 3.7zm0 8.6c0 2.1 1.7 3.7 3.7 3.7s3.7-1.7 3.7-3.7-1.7-3.7-3.7-3.7-3.7 1.6-3.7 3.7zm0 8.5c0 2.1 1.7 3.7 3.7 3.7s3.7-1.7 3.7-3.7-1.7-3.7-3.7-3.7-3.7 1.6-3.7 3.7zm8.5-25.6c0 2.1 1.7 3.7 3.7 3.7s3.7-1.7 3.7-3.7-1.7-3.7-3.7-3.7-3.7 1.6-3.7 3.7zm0 8.5c0 2.1 1.7 3.7 3.7 3.7s3.7-1.7 3.7-3.7-1.7-3.7-3.7-3.7-3.7 1.7-3.7 3.7zm0 8.6c0 2.1 1.7 3.7 3.7 3.7s3.7-1.7 3.7-3.7-1.7-3.7-3.7-3.7-3.7 1.6-3.7 3.7zm0 8.5c0 2.1 1.7 3.7 3.7 3.7s3.7-1.7 3.7-3.7-1.7-3.7-3.7-3.7-3.7 1.6-3.7 3.7zm0 8.5c0 2.1 1.7 3.7 3.7 3.7s3.7-1.7 3.7-3.7-1.7-3.7-3.7-3.7-3.7 1.6-3.7 3.7zm0 8.5c0 2.1 1.7 3.7 3.7 3.7s3.7-1.7 3.7-3.7-1.7-3.7-3.7-3.7-3.7 1.7-3.7 3.7zm8.4-42.6c0 2.1 1.7 3.7 3.7 3.7 2.1 0 3.7-1.7 3.7-3.7S65 51.2 63 51.2c-2.1 0-3.8 1.6-3.8 3.7zm0 8.5c0 2.1 1.7 3.7 3.7 3.7 2.1 0 3.7-1.7 3.7-3.7S65 59.7 63 59.7c-2.1 0-3.8 1.7-3.8 3.7zm0 8.6c0 2.1 1.7 3.7 3.7 3.7 2.1 0 3.7-1.7 3.7-3.7S65 68.2 63 68.2c-2.1 0-3.8 1.7-3.8 3.8zm0 8.5c0 2.1 1.7 3.7 3.7 3.7 2.1 0 3.7-1.7 3.7-3.7S65 76.8 63 76.8c-2.1 0-3.8 1.6-3.8 3.7zm0 8.5c0 2.1 1.7 3.7 3.7 3.7 2.1 0 3.7-1.7 3.7-3.7S65 85.3 63 85.3c-2.1 0-3.8 1.6-3.8 3.7zm0 8.5c0 2.1 1.7 3.7 3.7 3.7 2.1 0 3.7-1.7 3.7-3.7S65 93.8 63 93.8c-2.1 0-3.8 1.7-3.8 3.7zm0 8.6c0 2.1 1.7 3.7 3.7 3.7 2.1 0 3.7-1.7 3.7-3.7s-1.7-3.7-3.7-3.7c-2-.1-3.7 1.6-3.7 3.7zm8.5-59.7c0 2.1 1.7 3.7 3.7 3.7s3.7-1.7 3.7-3.7-1.7-3.7-3.7-3.7-3.7 1.6-3.7 3.7zm0 8.5c0 2.1 1.7 3.7 3.7 3.7s3.7-1.7 3.7-3.7-1.7-3.7-3.7-3.7-3.7 1.6-3.7 3.7zm0 8.5c0 2.1 1.7 3.7 3.7 3.7s3.7-1.7 3.7-3.7-1.7-3.7-3.7-3.7-3.7 1.7-3.7 3.7zm0 8.6c0 2.1 1.7 3.7 3.7 3.7s3.7-1.7 3.7-3.7-1.7-3.7-3.7-3.7-3.7 1.6-3.7 3.7zm0 8.5c0 2.1 1.7 3.7 3.7 3.7s3.7-1.7 3.7-3.7-1.7-3.7-3.7-3.7-3.7 1.6-3.7 3.7zm0 8.5c0 2.1 1.7 3.7 3.7 3.7s3.7-1.7 3.7-3.7-1.7-3.7-3.7-3.7-3.7 1.6-3.7 3.7zm0 8.5c0 2.1 1.7 3.7 3.7 3.7s3.7-1.7 3.7-3.7-1.7-3.7-3.7-3.7-3.7 1.7-3.7 3.7zm0 8.6c0 2.1 1.7 3.7 3.7 3.7s3.7-1.7 3.7-3.7-1.7-3.7-3.7-3.7-3.7 1.6-3.7 3.7zm0 8.5c0 2.1 1.7 3.7 3.7 3.7s3.7-1.7 3.7-3.7-1.7-3.7-3.7-3.7-3.7 1.6-3.7 3.7zm0 8.5c0 2.1 1.7 3.7 3.7 3.7s3.7-1.7 3.7-3.7-1.7-3.7-3.7-3.7-3.7 1.7-3.7 3.7zm0 8.5c0 2.1 1.7 3.7 3.7 3.7s3.7-1.7 3.7-3.7-1.7-3.7-3.7-3.7-3.7 1.7-3.7 3.7zm8.4-93.8c0 2.1 1.7 3.7 3.7 3.7s3.7-1.7 3.7-3.7-1.7-3.7-3.7-3.7-3.7 1.7-3.7 3.7zm0 8.6c0 2.1 1.7 3.7 3.7 3.7s3.7-1.7 3.7-3.7-1.7-3.7-3.7-3.7-3.7 1.6-3.7 3.7zm0 8.5c0 2.1 1.7 3.7 3.7 3.7s3.7-1.7 3.7-3.7-1.7-3.7-3.7-3.7-3.7 1.6-3.7 3.7zm0 8.5c0 2.1 1.7 3.7 3.7 3.7s3.7-1.7 3.7-3.7-1.7-3.7-3.7-3.7-3.7 1.7-3.7 3.7zm0 8.6c0 2.1 1.7 3.7 3.7 3.7s3.7-1.7 3.7-3.7-1.7-3.7-3.7-3.7-3.7 1.6-3.7 3.7zm0 8.5c0 2.1 1.7 3.7 3.7 3.7s3.7-1.7 3.7-3.7-1.7-3.7-3.7-3.7-3.7 1.6-3.7 3.7zm0 8.5c0 2.1 1.7 3.7 3.7 3.7s3.7-1.7 3.7-3.7-1.7-3.7-3.7-3.7-3.7 1.6-3.7 3.7zm0 8.5c0 2.1 1.7 3.7 3.7 3.7s3.7-1.7 3.7-3.7-1.7-3.7-3.7-3.7-3.7 1.7-3.7 3.7zm0 8.6c0 2.1 1.7 3.7 3.7 3.7s3.7-1.7 3.7-3.7-1.7-3.7-3.7-3.7-3.7 1.6-3.7 3.7zm0 8.5c0 2.1 1.7 3.7 3.7 3.7s3.7-1.7 3.7-3.7-1.7-3.7-3.7-3.7-3.7 1.6-3.7 3.7zm0 8.5c0 2.1 1.7 3.7 3.7 3.7s3.7-1.7 3.7-3.7-1.7-3.7-3.7-3.7-3.7 1.7-3.7 3.7zm0 8.5c0 2.1 1.7 3.7 3.7 3.7s3.7-1.7 3.7-3.7-1.7-3.7-3.7-3.7-3.7 1.7-3.7 3.7zm0 8.6c0 2.1 1.7 3.7 3.7 3.7s3.7-1.7 3.7-3.7-1.7-3.7-3.7-3.7-3.7 1.6-3.7 3.7zm8.5-110.9c0 2.1 1.7 3.7 3.7 3.7s3.7-1.7 3.7-3.7-1.7-3.7-3.7-3.7-3.7 1.7-3.7 3.7zm0 8.5c0 2.1 1.7 3.7 3.7 3.7s3.7-1.7 3.7-3.7-1.7-3.7-3.7-3.7-3.7 1.7-3.7 3.7zm0 8.6c0 2.1 1.7 3.7 3.7 3.7s3.7-1.7 3.7-3.7-1.7-3.7-3.7-3.7-3.7 1.6-3.7 3.7zm0 8.5c0 2.1 1.7 3.7 3.7 3.7s3.7-1.7 3.7-3.7-1.7-3.7-3.7-3.7-3.7 1.6-3.7 3.7zm0 8.5c0 2.1 1.7 3.7 3.7 3.7s3.7-1.7 3.7-3.7-1.7-3.7-3.7-3.7-3.7 1.7-3.7 3.7zm0 8.6c0 2.1 1.7 3.7 3.7 3.7S92 74 92 72s-1.7-3.7-3.7-3.7-3.7 1.6-3.7 3.7zm0 8.5c0 2.1 1.7 3.7 3.7 3.7s3.7-1.7 3.7-3.7-1.7-3.7-3.7-3.7-3.7 1.6-3.7 3.7zm0 8.5c0 2.1 1.7 3.7 3.7 3.7S92 91 92 89s-1.7-3.7-3.7-3.7-3.7 1.6-3.7 3.7zm0 8.5c0 2.1 1.7 3.7 3.7 3.7s3.7-1.7 3.7-3.7-1.7-3.7-3.7-3.7-3.7 1.7-3.7 3.7zm0 8.6c0 2.1 1.7 3.7 3.7 3.7s3.7-1.7 3.7-3.7-1.7-3.7-3.7-3.7-3.7 1.6-3.7 3.7zm0 8.5c0 2.1 1.7 3.7 3.7 3.7s3.7-1.7 3.7-3.7-1.7-3.7-3.7-3.7-3.7 1.6-3.7 3.7zm0 8.5c0 2.1 1.7 3.7 3.7 3.7s3.7-1.7 3.7-3.7-1.7-3.7-3.7-3.7-3.7 1.7-3.7 3.7zm0 8.5c0 2.1 1.7 3.7 3.7 3.7s3.7-1.7 3.7-3.7-1.7-3.7-3.7-3.7-3.7 1.7-3.7 3.7zm0 8.6c0 2.1 1.7 3.7 3.7 3.7s3.7-1.7 3.7-3.7-1.7-3.7-3.7-3.7-3.7 1.6-3.7 3.7zm0 8.5c0 2.1 1.7 3.7 3.7 3.7s3.7-1.7 3.7-3.7-1.7-3.7-3.7-3.7-3.7 1.6-3.7 3.7zm0 8.5c0 2.1 1.7 3.7 3.7 3.7s3.7-1.7 3.7-3.7-1.7-3.7-3.7-3.7-3.7 1.7-3.7 3.7zm8.5-127.9c0 2.1 1.7 3.7 3.7 3.7s3.7-1.7 3.7-3.7-1.7-3.7-3.7-3.7-3.7 1.7-3.7 3.7zm0 17.1c0 2.1 1.7 3.7 3.7 3.7s3.7-1.7 3.7-3.7-1.7-3.7-3.7-3.7-3.7 1.6-3.7 3.7zm0 8.5c0 2.1 1.7 3.7 3.7 3.7s3.7-1.7 3.7-3.7-1.7-3.7-3.7-3.7-3.7 1.6-3.7 3.7zm0 8.5c0 2.1 1.7 3.7 3.7 3.7s3.7-1.7 3.7-3.7-1.7-3.7-3.7-3.7-3.7 1.7-3.7 3.7zm0 8.6c0 2.1 1.7 3.7 3.7 3.7s3.7-1.7 3.7-3.7-1.7-3.7-3.7-3.7-3.7 1.6-3.7 3.7zm0 8.5c0 2.1 1.7 3.7 3.7 3.7s3.7-1.7 3.7-3.7-1.7-3.7-3.7-3.7-3.7 1.6-3.7 3.7zm0 8.5c0 2.1 1.7 3.7 3.7 3.7s3.7-1.7 3.7-3.7-1.7-3.7-3.7-3.7-3.7 1.6-3.7 3.7zm0 8.5c0 2.1 1.7 3.7 3.7 3.7s3.7-1.7 3.7-3.7-1.7-3.7-3.7-3.7-3.7 1.7-3.7 3.7zm0 8.6c0 2.1 1.7 3.7 3.7 3.7s3.7-1.7 3.7-3.7-1.7-3.7-3.7-3.7-3.7 1.6-3.7 3.7zm0 8.5c0 2.1 1.7 3.7 3.7 3.7s3.7-1.7 3.7-3.7-1.7-3.7-3.7-3.7-3.7 1.6-3.7 3.7zm0 8.5c0 2.1 1.7 3.7 3.7 3.7s3.7-1.7 3.7-3.7-1.7-3.7-3.7-3.7-3.7 1.7-3.7 3.7zm0 8.5c0 2.1 1.7 3.7 3.7 3.7s3.7-1.7 3.7-3.7-1.7-3.7-3.7-3.7-3.7 1.7-3.7 3.7zm0 8.6c0 2.1 1.7 3.7 3.7 3.7s3.7-1.7 3.7-3.7-1.7-3.7-3.7-3.7-3.7 1.6-3.7 3.7zm0 8.5c0 2.1 1.7 3.7 3.7 3.7s3.7-1.7 3.7-3.7-1.7-3.7-3.7-3.7-3.7 1.6-3.7 3.7zm0 8.5c0 2.1 1.7 3.7 3.7 3.7s3.7-1.7 3.7-3.7-1.7-3.7-3.7-3.7-3.7 1.7-3.7 3.7zm8.4-127.9c0 2.1 1.7 3.7 3.7 3.7s3.7-1.7 3.7-3.7-1.7-3.7-3.7-3.7-3.7 1.7-3.7 3.7zm0 25.6c0 2.1 1.7 3.7 3.7 3.7s3.7-1.7 3.7-3.7-1.7-3.7-3.7-3.7-3.7 1.6-3.7 3.7zm0 8.5c0 2.1 1.7 3.7 3.7 3.7s3.7-1.7 3.7-3.7-1.7-3.7-3.7-3.7-3.7 1.7-3.7 3.7zm0 8.6c0 2.1 1.7 3.7 3.7 3.7S109 74 109 72s-1.7-3.7-3.7-3.7-3.8 1.6-3.8 3.7zm0 8.5c0 2.1 1.7 3.7 3.7 3.7s3.7-1.7 3.7-3.7-1.7-3.7-3.7-3.7-3.7 1.6-3.7 3.7zm0 8.5c0 2.1 1.7 3.7 3.7 3.7s3.7-1.7 3.7-3.7-1.7-3.7-3.7-3.7-3.7 1.6-3.7 3.7zm0 8.5c0 2.1 1.7 3.7 3.7 3.7s3.7-1.7 3.7-3.7-1.7-3.7-3.7-3.7-3.7 1.7-3.7 3.7zm0 8.6c0 2.1 1.7 3.7 3.7 3.7s3.7-1.7 3.7-3.7-1.7-3.7-3.7-3.7-3.7 1.6-3.7 3.7zm0 8.5c0 2.1 1.7 3.7 3.7 3.7s3.7-1.7 3.7-3.7-1.7-3.7-3.7-3.7-3.7 1.6-3.7 3.7zm0 8.5c0 2.1 1.7 3.7 3.7 3.7s3.7-1.7 3.7-3.7-1.7-3.7-3.7-3.7-3.7 1.7-3.7 3.7zm0 8.5c0 2.1 1.7 3.7 3.7 3.7s3.7-1.7 3.7-3.7-1.7-3.7-3.7-3.7-3.7 1.7-3.7 3.7zm0 8.6c0 2.1 1.7 3.7 3.7 3.7s3.7-1.7 3.7-3.7-1.7-3.7-3.7-3.7-3.7 1.6-3.7 3.7zm0 8.5c0 2.1 1.7 3.7 3.7 3.7s3.7-1.7 3.7-3.7-1.7-3.7-3.7-3.7-3.7 1.6-3.7 3.7zm0 8.5c0 2.1 1.7 3.7 3.7 3.7s3.7-1.7 3.7-3.7-1.7-3.7-3.7-3.7-3.7 1.7-3.7 3.7zm0 8.6c0 2.1 1.7 3.7 3.7 3.7s3.7-1.7 3.7-3.7-1.7-3.7-3.7-3.7-3.7 1.6-3.7 3.7zm0 8.5c0 2.1 1.7 3.7 3.7 3.7s3.7-1.7 3.7-3.7-1.7-3.7-3.7-3.7-3.7 1.6-3.7 3.7zM110 37.8c0 2.1 1.7 3.7 3.7 3.7s3.7-1.7 3.7-3.7-1.7-3.7-3.7-3.7-3.7 1.7-3.7 3.7zm0 8.6c0 2.1 1.7 3.7 3.7 3.7s3.7-1.7 3.7-3.7-1.7-3.7-3.7-3.7-3.7 1.6-3.7 3.7zm0 8.5c0 2.1 1.7 3.7 3.7 3.7s3.7-1.7 3.7-3.7-1.7-3.7-3.7-3.7-3.7 1.6-3.7 3.7zm0 8.5c0 2.1 1.7 3.7 3.7 3.7s3.7-1.7 3.7-3.7-1.7-3.7-3.7-3.7-3.7 1.7-3.7 3.7zm0 8.6c0 2.1 1.7 3.7 3.7 3.7s3.7-1.7 3.7-3.7-1.7-3.7-3.7-3.7-3.7 1.6-3.7 3.7zm0 8.5c0 2.1 1.7 3.7 3.7 3.7s3.7-1.7 3.7-3.7-1.7-3.7-3.7-3.7-3.7 1.6-3.7 3.7zm0 8.5c0 2.1 1.7 3.7 3.7 3.7s3.7-1.7 3.7-3.7-1.7-3.7-3.7-3.7-3.7 1.6-3.7 3.7zm0 8.5c0 2.1 1.7 3.7 3.7 3.7s3.7-1.7 3.7-3.7-1.7-3.7-3.7-3.7-3.7 1.7-3.7 3.7zm0 8.6c0 2.1 1.7 3.7 3.7 3.7s3.7-1.7 3.7-3.7-1.7-3.7-3.7-3.7-3.7 1.6-3.7 3.7zm0 8.5c0 2.1 1.7 3.7 3.7 3.7s3.7-1.7 3.7-3.7-1.7-3.7-3.7-3.7-3.7 1.6-3.7 3.7zm0 8.5c0 2.1 1.7 3.7 3.7 3.7s3.7-1.7 3.7-3.7-1.7-3.7-3.7-3.7-3.7 1.7-3.7 3.7zm0 8.5c0 2.1 1.7 3.7 3.7 3.7s3.7-1.7 3.7-3.7-1.7-3.7-3.7-3.7-3.7 1.7-3.7 3.7zm0 8.6c0 2.1 1.7 3.7 3.7 3.7s3.7-1.7 3.7-3.7-1.7-3.7-3.7-3.7-3.7 1.6-3.7 3.7zm0 8.5c0 2.1 1.7 3.7 3.7 3.7s3.7-1.7 3.7-3.7-1.7-3.7-3.7-3.7-3.7 1.6-3.7 3.7zm0 8.5c0 2.1 1.7 3.7 3.7 3.7s3.7-1.7 3.7-3.7-1.7-3.7-3.7-3.7-3.7 1.7-3.7 3.7zm0 8.6c0 2.1 1.7 3.7 3.7 3.7s3.7-1.7 3.7-3.7-1.7-3.7-3.7-3.7-3.7 1.6-3.7 3.7zm0 8.5c0 2.1 1.7 3.7 3.7 3.7s3.7-1.7 3.7-3.7-1.7-3.7-3.7-3.7-3.7 1.6-3.7 3.7zm8.4-153.5c0 2.1 1.7 3.7 3.7 3.7s3.7-1.7 3.7-3.7-1.7-3.7-3.7-3.7-3.7 1.6-3.7 3.7zm0 17c0 2.1 1.7 3.7 3.7 3.7s3.7-1.7 3.7-3.7-1.7-3.7-3.7-3.7-3.7 1.7-3.7 3.7zm0 17.1c0 2.1 1.7 3.7 3.7 3.7s3.7-1.7 3.7-3.7-1.7-3.7-3.7-3.7-3.7 1.6-3.7 3.7zm0 8.5c0 2.1 1.7 3.7 3.7 3.7s3.7-1.7 3.7-3.7-1.7-3.7-3.7-3.7-3.7 1.7-3.7 3.7zm0 8.6c0 2.1 1.7 3.7 3.7 3.7s3.7-1.7 3.7-3.7-1.7-3.7-3.7-3.7-3.7 1.6-3.7 3.7zm0 8.5c0 2.1 1.7 3.7 3.7 3.7s3.7-1.7 3.7-3.7-1.7-3.7-3.7-3.7-3.7 1.6-3.7 3.7zm0 8.5c0 2.1 1.7 3.7 3.7 3.7s3.7-1.7 3.7-3.7-1.7-3.7-3.7-3.7-3.7 1.6-3.7 3.7zm0 8.5c0 2.1 1.7 3.7 3.7 3.7s3.7-1.7 3.7-3.7-1.7-3.7-3.7-3.7-3.7 1.7-3.7 3.7zm0 8.6c0 2.1 1.7 3.7 3.7 3.7s3.7-1.7 3.7-3.7-1.7-3.7-3.7-3.7-3.7 1.6-3.7 3.7zm0 8.5c0 2.1 1.7 3.7 3.7 3.7s3.7-1.7 3.7-3.7-1.7-3.7-3.7-3.7-3.7 1.6-3.7 3.7zm0 8.5c0 2.1 1.7 3.7 3.7 3.7s3.7-1.7 3.7-3.7-1.7-3.7-3.7-3.7-3.7 1.7-3.7 3.7zm0 8.5c0 2.1 1.7 3.7 3.7 3.7s3.7-1.7 3.7-3.7-1.7-3.7-3.7-3.7-3.7 1.7-3.7 3.7zm0 8.6c0 2.1 1.7 3.7 3.7 3.7s3.7-1.7 3.7-3.7-1.7-3.7-3.7-3.7-3.7 1.6-3.7 3.7zm0 8.5c0 2.1 1.7 3.7 3.7 3.7s3.7-1.7 3.7-3.7-1.7-3.7-3.7-3.7-3.7 1.6-3.7 3.7zm0 25.6c0 2.1 1.7 3.7 3.7 3.7s3.7-1.7 3.7-3.7-1.7-3.7-3.7-3.7-3.7 1.6-3.7 3.7zm8.5-153.5c0 2.1 1.7 3.7 3.7 3.7s3.7-1.7 3.7-3.7-1.7-3.7-3.7-3.7-3.7 1.6-3.7 3.7zm0 8.5c0 2.1 1.7 3.7 3.7 3.7s3.7-1.7 3.7-3.7-1.7-3.7-3.7-3.7-3.7 1.7-3.7 3.7zm0 8.5c0 2.1 1.7 3.7 3.7 3.7s3.7-1.7 3.7-3.7-1.7-3.7-3.7-3.7-3.7 1.7-3.7 3.7zm0 8.6c0 2.1 1.7 3.7 3.7 3.7s3.7-1.7 3.7-3.7-1.7-3.7-3.7-3.7-3.7 1.6-3.7 3.7zm0 8.5c0 2.1 1.7 3.7 3.7 3.7s3.7-1.7 3.7-3.7-1.7-3.7-3.7-3.7-3.7 1.6-3.7 3.7zm0 8.5c0 2.1 1.7 3.7 3.7 3.7s3.7-1.7 3.7-3.7-1.7-3.7-3.7-3.7-3.7 1.7-3.7 3.7zm0 8.6c0 2.1 1.7 3.7 3.7 3.7s3.7-1.7 3.7-3.7-1.7-3.7-3.7-3.7-3.7 1.6-3.7 3.7zm0 25.5c0 2.1 1.7 3.7 3.7 3.7s3.7-1.7 3.7-3.7-1.7-3.7-3.7-3.7-3.7 1.7-3.7 3.7zm0 8.6c0 2.1 1.7 3.7 3.7 3.7s3.7-1.7 3.7-3.7-1.7-3.7-3.7-3.7-3.7 1.6-3.7 3.7zm0 8.5c0 2.1 1.7 3.7 3.7 3.7s3.7-1.7 3.7-3.7-1.7-3.7-3.7-3.7-3.7 1.6-3.7 3.7zm0 8.5c0 2.1 1.7 3.7 3.7 3.7s3.7-1.7 3.7-3.7-1.7-3.7-3.7-3.7-3.7 1.7-3.7 3.7zm0 8.5c0 2.1 1.7 3.7 3.7 3.7s3.7-1.7 3.7-3.7-1.7-3.7-3.7-3.7-3.7 1.7-3.7 3.7zm0 8.6c0 2.1 1.7 3.7 3.7 3.7s3.7-1.7 3.7-3.7-1.7-3.7-3.7-3.7-3.7 1.6-3.7 3.7zm0 8.5c0 2.1 1.7 3.7 3.7 3.7s3.7-1.7 3.7-3.7-1.7-3.7-3.7-3.7-3.7 1.6-3.7 3.7zm0 17.1c0 2.1 1.7 3.7 3.7 3.7s3.7-1.7 3.7-3.7-1.7-3.7-3.7-3.7-3.7 1.6-3.7 3.7zm0 8.5c0 2.1 1.7 3.7 3.7 3.7s3.7-1.7 3.7-3.7-1.7-3.7-3.7-3.7-3.7 1.6-3.7 3.7zm0 8.5c0 2.1 1.7 3.7 3.7 3.7s3.7-1.7 3.7-3.7-1.7-3.7-3.7-3.7-3.7 1.6-3.7 3.7zm0 8.5c0 2.1 1.7 3.7 3.7 3.7s3.7-1.7 3.7-3.7-1.7-3.7-3.7-3.7-3.7 1.7-3.7 3.7zm8.4-179c0 2.1 1.7 3.7 3.7 3.7s3.7-1.7 3.7-3.7-1.7-3.7-3.7-3.7-3.7 1.6-3.7 3.7zm0 8.5c0 2.1 1.7 3.7 3.7 3.7s3.7-1.7 3.7-3.7-1.7-3.7-3.7-3.7-3.7 1.6-3.7 3.7zm0 8.5c0 2.1 1.7 3.7 3.7 3.7s3.7-1.7 3.7-3.7-1.7-3.7-3.7-3.7-3.7 1.7-3.7 3.7zm0 8.5c0 2.1 1.7 3.7 3.7 3.7s3.7-1.7 3.7-3.7-1.7-3.7-3.7-3.7-3.7 1.7-3.7 3.7zm0 8.6c0 2.1 1.7 3.7 3.7 3.7s3.7-1.7 3.7-3.7-1.7-3.7-3.7-3.7-3.7 1.6-3.7 3.7zm0 8.5c0 2.1 1.7 3.7 3.7 3.7s3.7-1.7 3.7-3.7-1.7-3.7-3.7-3.7-3.7 1.6-3.7 3.7zm0 8.5c0 2.1 1.7 3.7 3.7 3.7s3.7-1.7 3.7-3.7-1.7-3.7-3.7-3.7-3.7 1.7-3.7 3.7zm0 8.6c0 2.1 1.7 3.7 3.7 3.7s3.7-1.7 3.7-3.7-1.7-3.7-3.7-3.7-3.7 1.6-3.7 3.7zm0 25.5c0 2.1 1.7 3.7 3.7 3.7s3.7-1.7 3.7-3.7-1.7-3.7-3.7-3.7-3.7 1.7-3.7 3.7zm0 8.6c0 2.1 1.7 3.7 3.7 3.7s3.7-1.7 3.7-3.7-1.7-3.7-3.7-3.7-3.7 1.6-3.7 3.7zm0 8.5c0 2.1 1.7 3.7 3.7 3.7s3.7-1.7 3.7-3.7-1.7-3.7-3.7-3.7-3.7 1.6-3.7 3.7zm0 8.5c0 2.1 1.7 3.7 3.7 3.7s3.7-1.7 3.7-3.7-1.7-3.7-3.7-3.7-3.7 1.7-3.7 3.7zm0 8.5c0 2.1 1.7 3.7 3.7 3.7s3.7-1.7 3.7-3.7-1.7-3.7-3.7-3.7-3.7 1.7-3.7 3.7zm0 8.6c0 2.1 1.7 3.7 3.7 3.7s3.7-1.7 3.7-3.7-1.7-3.7-3.7-3.7-3.7 1.6-3.7 3.7zm0 8.5c0 2.1 1.7 3.7 3.7 3.7s3.7-1.7 3.7-3.7-1.7-3.7-3.7-3.7-3.7 1.6-3.7 3.7zm0 8.5c0 2.1 1.7 3.7 3.7 3.7s3.7-1.7 3.7-3.7-1.7-3.7-3.7-3.7-3.7 1.7-3.7 3.7zm0 8.6c0 2.1 1.7 3.7 3.7 3.7s3.7-1.7 3.7-3.7-1.7-3.7-3.7-3.7-3.7 1.6-3.7 3.7zm0 17c0 2.1 1.7 3.7 3.7 3.7s3.7-1.7 3.7-3.7-1.7-3.7-3.7-3.7-3.7 1.6-3.7 3.7zm0 8.5c0 2.1 1.7 3.7 3.7 3.7s3.7-1.7 3.7-3.7-1.7-3.7-3.7-3.7-3.7 1.7-3.7 3.7zm0 8.6c0 2.1 1.7 3.7 3.7 3.7s3.7-1.7 3.7-3.7-1.7-3.7-3.7-3.7-3.7 1.6-3.7 3.7zm0 8.5c0 2.1 1.7 3.7 3.7 3.7s3.7-1.7 3.7-3.7-1.7-3.7-3.7-3.7-3.7 1.6-3.7 3.7zm0 8.5c0 2.1 1.7 3.7 3.7 3.7s3.7-1.7 3.7-3.7-1.7-3.7-3.7-3.7-3.7 1.7-3.7 3.7zm8.5-204.6c0 2.1 1.7 3.7 3.7 3.7s3.7-1.7 3.7-3.7-1.7-3.7-3.7-3.7-3.7 1.6-3.7 3.7zm0 8.5c0 2.1 1.7 3.7 3.7 3.7s3.7-1.7 3.7-3.7-1.7-3.7-3.7-3.7-3.7 1.6-3.7 3.7zm0 25.6c0 2.1 1.7 3.7 3.7 3.7s3.7-1.7 3.7-3.7-1.7-3.7-3.7-3.7-3.7 1.6-3.7 3.7zm0 8.5c0 2.1 1.7 3.7 3.7 3.7s3.7-1.7 3.7-3.7-1.7-3.7-3.7-3.7-3.7 1.6-3.7 3.7zm0 17.1c0 2.1 1.7 3.7 3.7 3.7s3.7-1.7 3.7-3.7-1.7-3.7-3.7-3.7-3.7 1.6-3.7 3.7zm0 8.5c0 2.1 1.7 3.7 3.7 3.7s3.7-1.7 3.7-3.7-1.7-3.7-3.7-3.7-3.7 1.6-3.7 3.7zm0 8.5c0 2.1 1.7 3.7 3.7 3.7s3.7-1.7 3.7-3.7-1.7-3.7-3.7-3.7-3.7 1.6-3.7 3.7zm0 8.5c0 2.1 1.7 3.7 3.7 3.7s3.7-1.7 3.7-3.7-1.7-3.7-3.7-3.7-3.7 1.7-3.7 3.7zm0 8.6c0 2.1 1.7 3.7 3.7 3.7s3.7-1.7 3.7-3.7-1.7-3.7-3.7-3.7-3.7 1.6-3.7 3.7zm0 8.5c0 2.1 1.7 3.7 3.7 3.7s3.7-1.7 3.7-3.7-1.7-3.7-3.7-3.7-3.7 1.6-3.7 3.7zm0 8.5c0 2.1 1.7 3.7 3.7 3.7s3.7-1.7 3.7-3.7-1.7-3.7-3.7-3.7-3.7 1.7-3.7 3.7zm0 8.5c0 2.1 1.7 3.7 3.7 3.7s3.7-1.7 3.7-3.7-1.7-3.7-3.7-3.7-3.7 1.7-3.7 3.7zm0 8.6c0 2.1 1.7 3.7 3.7 3.7s3.7-1.7 3.7-3.7-1.7-3.7-3.7-3.7-3.7 1.6-3.7 3.7zm0 34.1c0 2.1 1.7 3.7 3.7 3.7s3.7-1.7 3.7-3.7-1.7-3.7-3.7-3.7-3.7 1.6-3.7 3.7zm0 17c0 2.1 1.7 3.7 3.7 3.7s3.7-1.7 3.7-3.7-1.7-3.7-3.7-3.7-3.7 1.7-3.7 3.7zm0 8.6c0 2.1 1.7 3.7 3.7 3.7s3.7-1.7 3.7-3.7-1.7-3.7-3.7-3.7-3.7 1.6-3.7 3.7zm0 8.5c0 2.1 1.7 3.7 3.7 3.7s3.7-1.7 3.7-3.7-1.7-3.7-3.7-3.7-3.7 1.6-3.7 3.7zm0 8.5c0 2.1 1.7 3.7 3.7 3.7s3.7-1.7 3.7-3.7-1.7-3.7-3.7-3.7-3.7 1.7-3.7 3.7zm0 8.5c0 2.1 1.7 3.7 3.7 3.7s3.7-1.7 3.7-3.7-1.7-3.7-3.7-3.7-3.7 1.7-3.7 3.7zm0 8.6c0 2.1 1.7 3.7 3.7 3.7s3.7-1.7 3.7-3.7-1.7-3.7-3.7-3.7-3.7 1.6-3.7 3.7zm8.5-221.7c0 2.1 1.7 3.7 3.7 3.7s3.7-1.7 3.7-3.7-1.7-3.7-3.7-3.7-3.7 1.6-3.7 3.7zm0 8.5c0 2.1 1.7 3.7 3.7 3.7s3.7-1.7 3.7-3.7-1.7-3.7-3.7-3.7-3.7 1.6-3.7 3.7zm0 34.1c0 2.1 1.7 3.7 3.7 3.7s3.7-1.7 3.7-3.7-1.7-3.7-3.7-3.7-3.7 1.6-3.7 3.7zm0 8.5c0 2.1 1.7 3.7 3.7 3.7s3.7-1.7 3.7-3.7-1.7-3.7-3.7-3.7-3.7 1.7-3.7 3.7zm0 8.6c0 2.1 1.7 3.7 3.7 3.7s3.7-1.7 3.7-3.7-1.7-3.7-3.7-3.7-3.7 1.6-3.7 3.7zm0 8.5c0 2.1 1.7 3.7 3.7 3.7s3.7-1.7 3.7-3.7-1.7-3.7-3.7-3.7-3.7 1.6-3.7 3.7zm0 8.5c0 2.1 1.7 3.7 3.7 3.7s3.7-1.7 3.7-3.7-1.7-3.7-3.7-3.7-3.7 1.6-3.7 3.7zm0 8.5c0 2.1 1.7 3.7 3.7 3.7s3.7-1.7 3.7-3.7-1.7-3.7-3.7-3.7-3.7 1.7-3.7 3.7zm0 8.6c0 2.1 1.7 3.7 3.7 3.7s3.7-1.7 3.7-3.7-1.7-3.7-3.7-3.7-3.7 1.6-3.7 3.7zm0 8.5c0 2.1 1.7 3.7 3.7 3.7s3.7-1.7 3.7-3.7-1.7-3.7-3.7-3.7-3.7 1.6-3.7 3.7zm0 8.5c0 2.1 1.7 3.7 3.7 3.7s3.7-1.7 3.7-3.7-1.7-3.7-3.7-3.7-3.7 1.7-3.7 3.7zm0 8.5c0 2.1 1.7 3.7 3.7 3.7s3.7-1.7 3.7-3.7-1.7-3.7-3.7-3.7-3.7 1.7-3.7 3.7zm0 42.7c0 2.1 1.7 3.7 3.7 3.7s3.7-1.7 3.7-3.7-1.7-3.7-3.7-3.7-3.7 1.6-3.7 3.7zm0 17c0 2.1 1.7 3.7 3.7 3.7s3.7-1.7 3.7-3.7-1.7-3.7-3.7-3.7-3.7 1.7-3.7 3.7zm0 8.6c0 2.1 1.7 3.7 3.7 3.7s3.7-1.7 3.7-3.7-1.7-3.7-3.7-3.7-3.7 1.6-3.7 3.7zm0 8.5c0 2.1 1.7 3.7 3.7 3.7s3.7-1.7 3.7-3.7-1.7-3.7-3.7-3.7-3.7 1.6-3.7 3.7zm0 8.5c0 2.1 1.7 3.7 3.7 3.7s3.7-1.7 3.7-3.7-1.7-3.7-3.7-3.7-3.7 1.7-3.7 3.7zm0 8.5c0 2.1 1.7 3.7 3.7 3.7s3.7-1.7 3.7-3.7-1.7-3.7-3.7-3.7-3.7 1.7-3.7 3.7zm0 8.6c0 2.1 1.7 3.7 3.7 3.7s3.7-1.7 3.7-3.7-1.7-3.7-3.7-3.7-3.7 1.6-3.7 3.7zm0 8.5c0 2.1 1.7 3.7 3.7 3.7s3.7-1.7 3.7-3.7-1.7-3.7-3.7-3.7-3.7 1.6-3.7 3.7zm0 8.5c0 2.1 1.7 3.7 3.7 3.7s3.7-1.7 3.7-3.7-1.7-3.7-3.7-3.7-3.7 1.7-3.7 3.7zm0 8.6c0 2.1 1.7 3.7 3.7 3.7s3.7-1.7 3.7-3.7-1.7-3.7-3.7-3.7-3.7 1.6-3.7 3.7zm0 8.5c0 2.1 1.7 3.7 3.7 3.7s3.7-1.7 3.7-3.7-1.7-3.7-3.7-3.7-3.7 1.6-3.7 3.7zm0 8.5c0 2.1 1.7 3.7 3.7 3.7s3.7-1.7 3.7-3.7-1.7-3.7-3.7-3.7-3.7 1.6-3.7 3.7zm0 8.5c0 2.1 1.7 3.7 3.7 3.7s3.7-1.7 3.7-3.7-1.7-3.7-3.7-3.7-3.7 1.7-3.7 3.7zm0 8.6c0 2.1 1.7 3.7 3.7 3.7s3.7-1.7 3.7-3.7-1.7-3.7-3.7-3.7-3.7 1.6-3.7 3.7zm0 8.5c0 2.1 1.7 3.7 3.7 3.7s3.7-1.7 3.7-3.7-1.7-3.7-3.7-3.7-3.7 1.6-3.7 3.7zm0 8.5c0 2.1 1.7 3.7 3.7 3.7s3.7-1.7 3.7-3.7-1.7-3.7-3.7-3.7-3.7 1.7-3.7 3.7zm8.4-298.4c0 2.1 1.7 3.7 3.7 3.7s3.7-1.7 3.7-3.7-1.7-3.7-3.7-3.7-3.7 1.6-3.7 3.7zm0 17c0 2.1 1.7 3.7 3.7 3.7s3.7-1.7 3.7-3.7-1.7-3.7-3.7-3.7-3.7 1.7-3.7 3.7zm0 8.5c0 2.1 1.7 3.7 3.7 3.7s3.7-1.7 3.7-3.7-1.7-3.7-3.7-3.7-3.7 1.7-3.7 3.7zm0 25.6c0 2.1 1.7 3.7 3.7 3.7s3.7-1.7 3.7-3.7-1.7-3.7-3.7-3.7-3.7 1.7-3.7 3.7zm0 8.6c0 2.1 1.7 3.7 3.7 3.7s3.7-1.7 3.7-3.7-1.7-3.7-3.7-3.7-3.7 1.6-3.7 3.7zm0 8.5c0 2.1 1.7 3.7 3.7 3.7s3.7-1.7 3.7-3.7-1.7-3.7-3.7-3.7-3.7 1.6-3.7 3.7zm0 8.5c0 2.1 1.7 3.7 3.7 3.7s3.7-1.7 3.7-3.7-1.7-3.7-3.7-3.7-3.7 1.6-3.7 3.7zm0 8.5c0 2.1 1.7 3.7 3.7 3.7s3.7-1.7 3.7-3.7-1.7-3.7-3.7-3.7-3.7 1.7-3.7 3.7zm0 8.6c0 2.1 1.7 3.7 3.7 3.7s3.7-1.7 3.7-3.7-1.7-3.7-3.7-3.7-3.7 1.6-3.7 3.7zm0 8.5c0 2.1 1.7 3.7 3.7 3.7s3.7-1.7 3.7-3.7-1.7-3.7-3.7-3.7-3.7 1.6-3.7 3.7zm0 8.5c0 2.1 1.7 3.7 3.7 3.7s3.7-1.7 3.7-3.7-1.7-3.7-3.7-3.7-3.7 1.7-3.7 3.7zm0 68.2c0 2.1 1.7 3.7 3.7 3.7s3.7-1.7 3.7-3.7-1.7-3.7-3.7-3.7-3.7 1.7-3.7 3.7zm0 8.6c0 2.1 1.7 3.7 3.7 3.7s3.7-1.7 3.7-3.7-1.7-3.7-3.7-3.7-3.7 1.6-3.7 3.7zm0 8.5c0 2.1 1.7 3.7 3.7 3.7s3.7-1.7 3.7-3.7-1.7-3.7-3.7-3.7-3.7 1.6-3.7 3.7zm0 8.5c0 2.1 1.7 3.7 3.7 3.7s3.7-1.7 3.7-3.7-1.7-3.7-3.7-3.7-3.7 1.7-3.7 3.7zm0 8.5c0 2.1 1.7 3.7 3.7 3.7s3.7-1.7 3.7-3.7-1.7-3.7-3.7-3.7-3.7 1.7-3.7 3.7zm0 8.6c0 2.1 1.7 3.7 3.7 3.7s3.7-1.7 3.7-3.7-1.7-3.7-3.7-3.7-3.7 1.6-3.7 3.7zm0 8.5c0 2.1 1.7 3.7 3.7 3.7s3.7-1.7 3.7-3.7-1.7-3.7-3.7-3.7-3.7 1.6-3.7 3.7zm0 8.5c0 2.1 1.7 3.7 3.7 3.7s3.7-1.7 3.7-3.7-1.7-3.7-3.7-3.7-3.7 1.7-3.7 3.7zm0 8.6c0 2.1 1.7 3.7 3.7 3.7s3.7-1.7 3.7-3.7-1.7-3.7-3.7-3.7-3.7 1.6-3.7 3.7zm0 8.5c0 2.1 1.7 3.7 3.7 3.7s3.7-1.7 3.7-3.7-1.7-3.7-3.7-3.7-3.7 1.6-3.7 3.7zm0 8.5c0 2.1 1.7 3.7 3.7 3.7s3.7-1.7 3.7-3.7-1.7-3.7-3.7-3.7-3.7 1.6-3.7 3.7zm0 8.5c0 2.1 1.7 3.7 3.7 3.7s3.7-1.7 3.7-3.7-1.7-3.7-3.7-3.7-3.7 1.7-3.7 3.7zm0 8.6c0 2.1 1.7 3.7 3.7 3.7s3.7-1.7 3.7-3.7-1.7-3.7-3.7-3.7-3.7 1.6-3.7 3.7zm0 8.5c0 2.1 1.7 3.7 3.7 3.7s3.7-1.7 3.7-3.7-1.7-3.7-3.7-3.7-3.7 1.6-3.7 3.7zm0 8.5c0 2.1 1.7 3.7 3.7 3.7s3.7-1.7 3.7-3.7-1.7-3.7-3.7-3.7-3.7 1.7-3.7 3.7zm0 8.5c0 2.1 1.7 3.7 3.7 3.7s3.7-1.7 3.7-3.7-1.7-3.7-3.7-3.7-3.7 1.7-3.7 3.7zm8.5-298.4c0 2.1 1.7 3.7 3.7 3.7s3.7-1.7 3.7-3.7-1.7-3.7-3.7-3.7-3.7 1.6-3.7 3.7zm0 8.5c0 2.1 1.7 3.7 3.7 3.7s3.7-1.7 3.7-3.7-1.7-3.7-3.7-3.7-3.7 1.7-3.7 3.7zm0 8.5c0 2.1 1.7 3.7 3.7 3.7s3.7-1.7 3.7-3.7-1.7-3.7-3.7-3.7-3.7 1.7-3.7 3.7zm0 59.7c0 2.1 1.7 3.7 3.7 3.7s3.7-1.7 3.7-3.7-1.7-3.7-3.7-3.7-3.7 1.7-3.7 3.7zm0 8.6c0 2.1 1.7 3.7 3.7 3.7s3.7-1.7 3.7-3.7-1.7-3.7-3.7-3.7-3.7 1.6-3.7 3.7zm0 8.5c0 2.1 1.7 3.7 3.7 3.7s3.7-1.7 3.7-3.7-1.7-3.7-3.7-3.7-3.7 1.6-3.7 3.7zm0 8.5c0 2.1 1.7 3.7 3.7 3.7s3.7-1.7 3.7-3.7-1.7-3.7-3.7-3.7-3.7 1.7-3.7 3.7zm0 68.2c0 2.1 1.7 3.7 3.7 3.7s3.7-1.7 3.7-3.7-1.7-3.7-3.7-3.7-3.7 1.7-3.7 3.7zm0 8.6c0 2.1 1.7 3.7 3.7 3.7s3.7-1.7 3.7-3.7-1.7-3.7-3.7-3.7-3.7 1.6-3.7 3.7zm0 8.5c0 2.1 1.7 3.7 3.7 3.7s3.7-1.7 3.7-3.7-1.7-3.7-3.7-3.7-3.7 1.6-3.7 3.7zm0 8.5c0 2.1 1.7 3.7 3.7 3.7s3.7-1.7 3.7-3.7-1.7-3.7-3.7-3.7-3.7 1.7-3.7 3.7zm0 8.5c0 2.1 1.7 3.7 3.7 3.7s3.7-1.7 3.7-3.7-1.7-3.7-3.7-3.7-3.7 1.7-3.7 3.7zm0 8.6c0 2.1 1.7 3.7 3.7 3.7s3.7-1.7 3.7-3.7-1.7-3.7-3.7-3.7-3.7 1.6-3.7 3.7zm0 8.5c0 2.1 1.7 3.7 3.7 3.7s3.7-1.7 3.7-3.7-1.7-3.7-3.7-3.7-3.7 1.6-3.7 3.7zm0 8.5c0 2.1 1.7 3.7 3.7 3.7s3.7-1.7 3.7-3.7-1.7-3.7-3.7-3.7-3.7 1.7-3.7 3.7zm0 8.6c0 2.1 1.7 3.7 3.7 3.7s3.7-1.7 3.7-3.7-1.7-3.7-3.7-3.7-3.7 1.6-3.7 3.7zm0 8.5c0 2.1 1.7 3.7 3.7 3.7s3.7-1.7 3.7-3.7-1.7-3.7-3.7-3.7-3.7 1.6-3.7 3.7zm0 8.5c0 2.1 1.7 3.7 3.7 3.7s3.7-1.7 3.7-3.7-1.7-3.7-3.7-3.7-3.7 1.6-3.7 3.7zm0 34.1c0 2.1 1.7 3.7 3.7 3.7s3.7-1.7 3.7-3.7-1.7-3.7-3.7-3.7-3.7 1.7-3.7 3.7zm8.4-298.4c0 2.1 1.7 3.7 3.7 3.7s3.7-1.7 3.7-3.7-1.7-3.7-3.7-3.7-3.7 1.6-3.7 3.7zm0 8.5c0 2.1 1.7 3.7 3.7 3.7s3.7-1.7 3.7-3.7-1.7-3.7-3.7-3.7-3.7 1.6-3.7 3.7zm0 8.5c0 2.1 1.7 3.7 3.7 3.7s3.7-1.7 3.7-3.7-1.7-3.7-3.7-3.7-3.7 1.7-3.7 3.7zm0 8.5c0 2.1 1.7 3.7 3.7 3.7s3.7-1.7 3.7-3.7-1.7-3.7-3.7-3.7-3.7 1.7-3.7 3.7zm0 8.6c0 2.1 1.7 3.7 3.7 3.7s3.7-1.7 3.7-3.7-1.7-3.7-3.7-3.7-3.7 1.6-3.7 3.7zm0 8.5c0 2.1 1.7 3.7 3.7 3.7s3.7-1.7 3.7-3.7-1.7-3.7-3.7-3.7-3.7 1.6-3.7 3.7zm0 51.2c0 2.1 1.7 3.7 3.7 3.7s3.7-1.7 3.7-3.7-1.7-3.7-3.7-3.7-3.7 1.6-3.7 3.7zm0 8.5c0 2.1 1.7 3.7 3.7 3.7s3.7-1.7 3.7-3.7-1.7-3.7-3.7-3.7-3.7 1.6-3.7 3.7zm0 76.7c0 2.1 1.7 3.7 3.7 3.7s3.7-1.7 3.7-3.7-1.7-3.7-3.7-3.7-3.7 1.7-3.7 3.7zm0 8.6c0 2.1 1.7 3.7 3.7 3.7s3.7-1.7 3.7-3.7-1.7-3.7-3.7-3.7-3.7 1.6-3.7 3.7zm0 8.5c0 2.1 1.7 3.7 3.7 3.7s3.7-1.7 3.7-3.7-1.7-3.7-3.7-3.7-3.7 1.6-3.7 3.7zm0 8.5c0 2.1 1.7 3.7 3.7 3.7s3.7-1.7 3.7-3.7-1.7-3.7-3.7-3.7-3.7 1.7-3.7 3.7zm0 8.5c0 2.1 1.7 3.7 3.7 3.7s3.7-1.7 3.7-3.7-1.7-3.7-3.7-3.7-3.7 1.7-3.7 3.7zm0 8.6c0 2.1 1.7 3.7 3.7 3.7s3.7-1.7 3.7-3.7-1.7-3.7-3.7-3.7-3.7 1.6-3.7 3.7zm0 8.5c0 2.1 1.7 3.7 3.7 3.7s3.7-1.7 3.7-3.7-1.7-3.7-3.7-3.7-3.7 1.6-3.7 3.7zm0 8.5c0 2.1 1.7 3.7 3.7 3.7s3.7-1.7 3.7-3.7-1.7-3.7-3.7-3.7-3.7 1.7-3.7 3.7zm0 8.6c0 2.1 1.7 3.7 3.7 3.7s3.7-1.7 3.7-3.7-1.7-3.7-3.7-3.7-3.7 1.6-3.7 3.7zm0 8.5c0 2.1 1.7 3.7 3.7 3.7s3.7-1.7 3.7-3.7-1.7-3.7-3.7-3.7-3.7 1.6-3.7 3.7zm8.5-255.8c0 2.1 1.7 3.7 3.7 3.7s3.7-1.7 3.7-3.7-1.7-3.7-3.7-3.7-3.7 1.6-3.7 3.7zm0 8.5c0 2.1 1.7 3.7 3.7 3.7s3.7-1.7 3.7-3.7-1.7-3.7-3.7-3.7-3.7 1.6-3.7 3.7zm0 8.5c0 2.1 1.7 3.7 3.7 3.7s3.7-1.7 3.7-3.7-1.7-3.7-3.7-3.7-3.7 1.7-3.7 3.7zm0 8.5c0 2.1 1.7 3.7 3.7 3.7s3.7-1.7 3.7-3.7-1.7-3.7-3.7-3.7-3.7 1.7-3.7 3.7zm0 8.6c0 2.1 1.7 3.7 3.7 3.7s3.7-1.7 3.7-3.7-1.7-3.7-3.7-3.7-3.7 1.6-3.7 3.7zm0 8.5c0 2.1 1.7 3.7 3.7 3.7s3.7-1.7 3.7-3.7-1.7-3.7-3.7-3.7-3.7 1.6-3.7 3.7zm0 8.5c0 2.1 1.7 3.7 3.7 3.7s3.7-1.7 3.7-3.7-1.7-3.7-3.7-3.7-3.7 1.7-3.7 3.7zm0 8.6c0 2.1 1.7 3.7 3.7 3.7s3.7-1.7 3.7-3.7-1.7-3.7-3.7-3.7-3.7 1.6-3.7 3.7zm0 8.5c0 2.1 1.7 3.7 3.7 3.7s3.7-1.7 3.7-3.7-1.7-3.7-3.7-3.7-3.7 1.6-3.7 3.7zm0 119.4c0 2.1 1.7 3.7 3.7 3.7s3.7-1.7 3.7-3.7-1.7-3.7-3.7-3.7-3.7 1.6-3.7 3.7zm0 8.5c0 2.1 1.7 3.7 3.7 3.7s3.7-1.7 3.7-3.7-1.7-3.7-3.7-3.7-3.7 1.6-3.7 3.7zm0 8.5c0 2.1 1.7 3.7 3.7 3.7s3.7-1.7 3.7-3.7-1.7-3.7-3.7-3.7-3.7 1.7-3.7 3.7zm0 8.5c0 2.1 1.7 3.7 3.7 3.7s3.7-1.7 3.7-3.7-1.7-3.7-3.7-3.7-3.7 1.7-3.7 3.7zm0 8.6c0 2.1 1.7 3.7 3.7 3.7s3.7-1.7 3.7-3.7-1.7-3.7-3.7-3.7-3.7 1.6-3.7 3.7zm0 8.5c0 2.1 1.7 3.7 3.7 3.7s3.7-1.7 3.7-3.7-1.7-3.7-3.7-3.7-3.7 1.6-3.7 3.7zm0 8.5c0 2.1 1.7 3.7 3.7 3.7s3.7-1.7 3.7-3.7-1.7-3.7-3.7-3.7-3.7 1.7-3.7 3.7zm0 8.6c0 2.1 1.7 3.7 3.7 3.7s3.7-1.7 3.7-3.7-1.7-3.7-3.7-3.7-3.7 1.6-3.7 3.7zm8.5-247.3c0 2.1 1.7 3.7 3.7 3.7s3.7-1.7 3.7-3.7-1.7-3.7-3.7-3.7-3.7 1.6-3.7 3.7zm0 8.5c0 2.1 1.7 3.7 3.7 3.7s3.7-1.7 3.7-3.7-1.7-3.7-3.7-3.7-3.7 1.6-3.7 3.7zm0 8.5c0 2.1 1.7 3.7 3.7 3.7s3.7-1.7 3.7-3.7-1.7-3.7-3.7-3.7-3.7 1.7-3.7 3.7zm0 8.5c0 2.1 1.7 3.7 3.7 3.7s3.7-1.7 3.7-3.7-1.7-3.7-3.7-3.7-3.7 1.7-3.7 3.7zm0 8.6c0 2.1 1.7 3.7 3.7 3.7s3.7-1.7 3.7-3.7-1.7-3.7-3.7-3.7-3.7 1.6-3.7 3.7zm0 8.5c0 2.1 1.7 3.7 3.7 3.7s3.7-1.7 3.7-3.7-1.7-3.7-3.7-3.7-3.7 1.6-3.7 3.7zm0 8.5c0 2.1 1.7 3.7 3.7 3.7s3.7-1.7 3.7-3.7-1.7-3.7-3.7-3.7-3.7 1.7-3.7 3.7zm0 8.6c0 2.1 1.7 3.7 3.7 3.7S202 74 202 72s-1.7-3.7-3.7-3.7-3.7 1.6-3.7 3.7zm0 8.5c0 2.1 1.7 3.7 3.7 3.7s3.7-1.7 3.7-3.7-1.7-3.7-3.7-3.7-3.7 1.6-3.7 3.7zm0 8.5c0 2.1 1.7 3.7 3.7 3.7S202 91 202 89s-1.7-3.7-3.7-3.7-3.7 1.6-3.7 3.7zm0 119.4c0 2.1 1.7 3.7 3.7 3.7s3.7-1.7 3.7-3.7-1.7-3.7-3.7-3.7-3.7 1.6-3.7 3.7zm0 8.5c0 2.1 1.7 3.7 3.7 3.7s3.7-1.7 3.7-3.7-1.7-3.7-3.7-3.7-3.7 1.7-3.7 3.7zm0 8.5c0 2.1 1.7 3.7 3.7 3.7s3.7-1.7 3.7-3.7-1.7-3.7-3.7-3.7-3.7 1.7-3.7 3.7zm0 8.6c0 2.1 1.7 3.7 3.7 3.7s3.7-1.7 3.7-3.7-1.7-3.7-3.7-3.7-3.7 1.6-3.7 3.7zm0 8.5c0 2.1 1.7 3.7 3.7 3.7s3.7-1.7 3.7-3.7-1.7-3.7-3.7-3.7-3.7 1.6-3.7 3.7zm0 8.5c0 2.1 1.7 3.7 3.7 3.7s3.7-1.7 3.7-3.7-1.7-3.7-3.7-3.7-3.7 1.7-3.7 3.7zM203 3.7c0 2.1 1.7 3.7 3.7 3.7s3.7-1.7 3.7-3.7-1.6-3.7-3.6-3.7-3.8 1.7-3.8 3.7zm0 8.6c0 2.1 1.7 3.7 3.7 3.7s3.7-1.7 3.7-3.7-1.7-3.7-3.7-3.7-3.7 1.6-3.7 3.7zm0 8.5c0 2.1 1.7 3.7 3.7 3.7s3.7-1.7 3.7-3.7-1.7-3.7-3.7-3.7-3.7 1.6-3.7 3.7zm0 8.5c0 2.1 1.7 3.7 3.7 3.7s3.7-1.7 3.7-3.7-1.7-3.7-3.7-3.7-3.7 1.7-3.7 3.7zm0 8.5c0 2.1 1.7 3.7 3.7 3.7s3.7-1.7 3.7-3.7-1.7-3.7-3.7-3.7-3.7 1.7-3.7 3.7zm0 8.6c0 2.1 1.7 3.7 3.7 3.7s3.7-1.7 3.7-3.7-1.7-3.7-3.7-3.7-3.7 1.6-3.7 3.7zm0 8.5c0 2.1 1.7 3.7 3.7 3.7s3.7-1.7 3.7-3.7-1.7-3.7-3.7-3.7-3.7 1.6-3.7 3.7zm0 8.5c0 2.1 1.7 3.7 3.7 3.7s3.7-1.7 3.7-3.7-1.7-3.7-3.7-3.7-3.7 1.7-3.7 3.7zm0 8.6c0 2.1 1.7 3.7 3.7 3.7s3.7-1.7 3.7-3.7-1.7-3.7-3.7-3.7-3.7 1.6-3.7 3.7zm0 144.9c0 2.1 1.7 3.7 3.7 3.7s3.7-1.7 3.7-3.7-1.7-3.7-3.7-3.7-3.7 1.7-3.7 3.7zm0 8.5c0 2.1 1.7 3.7 3.7 3.7s3.7-1.7 3.7-3.7-1.7-3.7-3.7-3.7-3.7 1.7-3.7 3.7zm0 8.6c0 2.1 1.7 3.7 3.7 3.7s3.7-1.7 3.7-3.7-1.7-3.7-3.7-3.7-3.7 1.6-3.7 3.7zm0 8.5c0 2.1 1.7 3.7 3.7 3.7s3.7-1.7 3.7-3.7-1.7-3.7-3.7-3.7-3.7 1.6-3.7 3.7zm8.5-238.8c0 2.1 1.7 3.7 3.7 3.7s3.7-1.7 3.7-3.7-1.6-3.7-3.7-3.7-3.7 1.7-3.7 3.7zm0 8.6c0 2.1 1.7 3.7 3.7 3.7s3.7-1.7 3.7-3.7-1.7-3.7-3.7-3.7-3.7 1.6-3.7 3.7zm0 8.5c0 2.1 1.7 3.7 3.7 3.7s3.7-1.7 3.7-3.7-1.7-3.7-3.7-3.7-3.7 1.6-3.7 3.7zm0 8.5c0 2.1 1.7 3.7 3.7 3.7s3.7-1.7 3.7-3.7-1.7-3.7-3.7-3.7-3.7 1.7-3.7 3.7zm0 8.5c0 2.1 1.7 3.7 3.7 3.7s3.7-1.7 3.7-3.7-1.7-3.7-3.7-3.7-3.7 1.7-3.7 3.7zm0 8.6c0 2.1 1.7 3.7 3.7 3.7s3.7-1.7 3.7-3.7-1.7-3.7-3.7-3.7-3.7 1.6-3.7 3.7zm0 8.5c0 2.1 1.7 3.7 3.7 3.7s3.7-1.7 3.7-3.7-1.7-3.7-3.7-3.7-3.7 1.6-3.7 3.7zm0 8.5c0 2.1 1.7 3.7 3.7 3.7s3.7-1.7 3.7-3.7-1.7-3.7-3.7-3.7-3.7 1.7-3.7 3.7zm0 153.5c0 2.1 1.7 3.7 3.7 3.7s3.7-1.7 3.7-3.7-1.7-3.7-3.7-3.7-3.7 1.7-3.7 3.7zm0 8.5c0 2.1 1.7 3.7 3.7 3.7s3.7-1.7 3.7-3.7-1.7-3.7-3.7-3.7-3.7 1.7-3.7 3.7zm8.4-221.7c0 2.1 1.7 3.7 3.7 3.7s3.7-1.7 3.7-3.7-1.6-3.7-3.6-3.7-3.8 1.7-3.8 3.7zm0 8.6c0 2.1 1.7 3.7 3.7 3.7s3.7-1.7 3.7-3.7-1.7-3.7-3.7-3.7-3.7 1.6-3.7 3.7zm0 8.5c0 2.1 1.7 3.7 3.7 3.7s3.7-1.7 3.7-3.7-1.7-3.7-3.7-3.7-3.7 1.6-3.7 3.7zm0 8.5c0 2.1 1.7 3.7 3.7 3.7s3.7-1.7 3.7-3.7-1.7-3.7-3.7-3.7-3.7 1.7-3.7 3.7zm0 8.5c0 2.1 1.7 3.7 3.7 3.7s3.7-1.7 3.7-3.7-1.7-3.7-3.7-3.7-3.7 1.7-3.7 3.7zm0 8.6c0 2.1 1.7 3.7 3.7 3.7s3.7-1.7 3.7-3.7-1.7-3.7-3.7-3.7-3.7 1.6-3.7 3.7zm0 8.5c0 2.1 1.7 3.7 3.7 3.7s3.7-1.7 3.7-3.7-1.7-3.7-3.7-3.7-3.7 1.6-3.7 3.7zm0 8.5c0 2.1 1.7 3.7 3.7 3.7s3.7-1.7 3.7-3.7-1.7-3.7-3.7-3.7-3.7 1.7-3.7 3.7zm8.5-59.7c0 2.1 1.7 3.7 3.7 3.7s3.7-1.7 3.7-3.7-1.6-3.7-3.7-3.7-3.7 1.7-3.7 3.7zm0 8.6c0 2.1 1.7 3.7 3.7 3.7s3.7-1.7 3.7-3.7-1.7-3.7-3.7-3.7-3.7 1.6-3.7 3.7zm0 8.5c0 2.1 1.7 3.7 3.7 3.7s3.7-1.7 3.7-3.7-1.7-3.7-3.7-3.7-3.7 1.6-3.7 3.7zm0 8.5c0 2.1 1.7 3.7 3.7 3.7s3.7-1.7 3.7-3.7-1.7-3.7-3.7-3.7-3.7 1.7-3.7 3.7zm0 8.5c0 2.1 1.7 3.7 3.7 3.7s3.7-1.7 3.7-3.7-1.7-3.7-3.7-3.7-3.7 1.7-3.7 3.7zm0 8.6c0 2.1 1.7 3.7 3.7 3.7s3.7-1.7 3.7-3.7-1.7-3.7-3.7-3.7-3.7 1.6-3.7 3.7zm0 8.5c0 2.1 1.7 3.7 3.7 3.7s3.7-1.7 3.7-3.7-1.7-3.7-3.7-3.7-3.7 1.6-3.7 3.7zm0 17.1c0 2.1 1.7 3.7 3.7 3.7s3.7-1.7 3.7-3.7-1.7-3.7-3.7-3.7-3.7 1.6-3.7 3.7zm8.4-59.7c0 2.1 1.7 3.7 3.7 3.7s3.7-1.7 3.7-3.7-1.7-3.7-3.7-3.7-3.7 1.6-3.7 3.7zm0 8.5c0 2.1 1.7 3.7 3.7 3.7s3.7-1.7 3.7-3.7-1.7-3.7-3.7-3.7-3.7 1.6-3.7 3.7zm0 8.5c0 2.1 1.7 3.7 3.7 3.7s3.7-1.7 3.7-3.7-1.7-3.7-3.7-3.7-3.7 1.7-3.7 3.7zm0 8.5c0 2.1 1.7 3.7 3.7 3.7s3.7-1.7 3.7-3.7-1.7-3.7-3.7-3.7-3.7 1.7-3.7 3.7zm0 8.6c0 2.1 1.7 3.7 3.7 3.7s3.7-1.7 3.7-3.7-1.7-3.7-3.7-3.7-3.7 1.6-3.7 3.7zm0 25.6c0 2.1 1.7 3.7 3.7 3.7s3.7-1.7 3.7-3.7-1.7-3.7-3.7-3.7-3.7 1.6-3.7 3.7zm0 93.8c0 2.1 1.7 3.7 3.7 3.7s3.7-1.7 3.7-3.7-1.7-3.7-3.7-3.7-3.7 1.6-3.7 3.7zm0 8.5c0 2.1 1.7 3.7 3.7 3.7s3.7-1.7 3.7-3.7-1.7-3.7-3.7-3.7-3.7 1.6-3.7 3.7zm0 8.5c0 2.1 1.7 3.7 3.7 3.7s3.7-1.7 3.7-3.7-1.7-3.7-3.7-3.7-3.7 1.6-3.7 3.7zm8.5-170.5c0 2.1 1.7 3.7 3.7 3.7s3.7-1.7 3.7-3.7-1.7-3.7-3.7-3.7-3.7 1.6-3.7 3.7zm0 144.9c0 2.1 1.7 3.7 3.7 3.7s3.7-1.7 3.7-3.7-1.7-3.7-3.7-3.7-3.7 1.7-3.7 3.7zm0 8.6c0 2.1 1.7 3.7 3.7 3.7s3.7-1.7 3.7-3.7-1.7-3.7-3.7-3.7-3.7 1.6-3.7 3.7zm0 8.5c0 2.1 1.7 3.7 3.7 3.7s3.7-1.7 3.7-3.7-1.7-3.7-3.7-3.7-3.7 1.6-3.7 3.7zm0 8.5c0 2.1 1.7 3.7 3.7 3.7s3.7-1.7 3.7-3.7-1.7-3.7-3.7-3.7-3.7 1.6-3.7 3.7zm0 8.5c0 2.1 1.7 3.7 3.7 3.7s3.7-1.7 3.7-3.7-1.7-3.7-3.7-3.7-3.7 1.7-3.7 3.7zm8.5-93.8c0 2.1 1.7 3.7 3.7 3.7s3.7-1.7 3.7-3.7-1.7-3.7-3.7-3.7-3.7 1.7-3.7 3.7zm0 8.6c0 2.1 1.7 3.7 3.7 3.7s3.7-1.7 3.7-3.7-1.7-3.7-3.7-3.7-3.7 1.6-3.7 3.7zm0 25.5c0 2.1 1.7 3.7 3.7 3.7s3.7-1.7 3.7-3.7-1.7-3.7-3.7-3.7-3.7 1.7-3.7 3.7zm0 8.6c0 2.1 1.7 3.7 3.7 3.7s3.7-1.7 3.7-3.7-1.7-3.7-3.7-3.7-3.7 1.6-3.7 3.7zm0 8.5c0 2.1 1.7 3.7 3.7 3.7s3.7-1.7 3.7-3.7-1.7-3.7-3.7-3.7-3.7 1.6-3.7 3.7zm0 8.5c0 2.1 1.7 3.7 3.7 3.7s3.7-1.7 3.7-3.7-1.7-3.7-3.7-3.7-3.7 1.7-3.7 3.7zm0 8.6c0 2.1 1.7 3.7 3.7 3.7s3.7-1.7 3.7-3.7-1.7-3.7-3.7-3.7-3.7 1.6-3.7 3.7zm0 8.5c0 2.1 1.7 3.7 3.7 3.7s3.7-1.7 3.7-3.7-1.7-3.7-3.7-3.7-3.7 1.6-3.7 3.7zm0 8.5c0 2.1 1.7 3.7 3.7 3.7s3.7-1.7 3.7-3.7-1.7-3.7-3.7-3.7-3.7 1.6-3.7 3.7zm0 8.5c0 2.1 1.7 3.7 3.7 3.7s3.7-1.7 3.7-3.7-1.7-3.7-3.7-3.7-3.7 1.7-3.7 3.7zm0 8.6c0 2.1 1.7 3.7 3.7 3.7s3.7-1.7 3.7-3.7-1.7-3.7-3.7-3.7-3.7 1.6-3.7 3.7zM262.2 89c0 2.1 1.7 3.7 3.7 3.7s3.7-1.7 3.7-3.7-1.7-3.7-3.7-3.7-3.7 1.6-3.7 3.7zm0 8.5c0 2.1 1.7 3.7 3.7 3.7s3.7-1.7 3.7-3.7-1.7-3.7-3.7-3.7-3.7 1.7-3.7 3.7zm0 8.6c0 2.1 1.7 3.7 3.7 3.7s3.7-1.7 3.7-3.7-1.7-3.7-3.7-3.7-3.7 1.6-3.7 3.7zm0 8.5c0 2.1 1.7 3.7 3.7 3.7s3.7-1.7 3.7-3.7-1.7-3.7-3.7-3.7-3.7 1.6-3.7 3.7zm0 8.5c0 2.1 1.7 3.7 3.7 3.7s3.7-1.7 3.7-3.7-1.7-3.7-3.7-3.7-3.7 1.7-3.7 3.7zm0 8.5c0 2.1 1.7 3.7 3.7 3.7s3.7-1.7 3.7-3.7-1.7-3.7-3.7-3.7-3.7 1.7-3.7 3.7zm0 8.6c0 2.1 1.7 3.7 3.7 3.7s3.7-1.7 3.7-3.7-1.7-3.7-3.7-3.7-3.7 1.6-3.7 3.7zm0 8.5c0 2.1 1.7 3.7 3.7 3.7s3.7-1.7 3.7-3.7-1.6-3.7-3.6-3.7-3.8 1.6-3.8 3.7zm0 8.5c0 2.1 1.7 3.7 3.7 3.7s3.7-1.7 3.7-3.7-1.7-3.7-3.7-3.7-3.7 1.7-3.7 3.7zm0 8.6c0 2.1 1.7 3.7 3.7 3.7s3.7-1.7 3.7-3.7-1.6-3.8-3.6-3.8-3.8 1.7-3.8 3.8zm0 8.5c0 2.1 1.7 3.7 3.7 3.7s3.7-1.7 3.7-3.7-1.7-3.7-3.7-3.7-3.7 1.6-3.7 3.7zm0 8.5c0 2.1 1.7 3.7 3.7 3.7s3.7-1.7 3.7-3.7-1.7-3.7-3.7-3.7-3.7 1.6-3.7 3.7zm0 8.5c0 2.1 1.7 3.7 3.7 3.7s3.7-1.7 3.7-3.7-1.7-3.7-3.7-3.7-3.7 1.7-3.7 3.7zm0 8.6c0 2.1 1.7 3.7 3.7 3.7s3.7-1.7 3.7-3.7-1.7-3.7-3.7-3.7-3.7 1.6-3.7 3.7zm8.5-93.8c0 2.1 1.7 3.7 3.7 3.7s3.7-1.7 3.7-3.7-1.7-3.7-3.7-3.7-3.7 1.6-3.7 3.7zm0 8.5c0 2.1 1.7 3.7 3.7 3.7s3.7-1.7 3.7-3.7-1.7-3.7-3.7-3.7-3.7 1.6-3.7 3.7zm0 8.5c0 2.1 1.7 3.7 3.7 3.7s3.7-1.7 3.7-3.7-1.7-3.7-3.7-3.7-3.7 1.7-3.7 3.7zm0 8.5c0 2.1 1.7 3.7 3.7 3.7s3.7-1.7 3.7-3.7-1.7-3.7-3.7-3.7-3.7 1.7-3.7 3.7zm0 8.6c0 2.1 1.7 3.7 3.7 3.7s3.7-1.7 3.7-3.7-1.7-3.7-3.7-3.7-3.7 1.6-3.7 3.7zm0 8.5c0 2.1 1.7 3.7 3.7 3.7s3.7-1.7 3.7-3.7-1.7-3.7-3.7-3.7-3.7 1.6-3.7 3.7zm0 8.5c0 2.1 1.7 3.7 3.7 3.7s3.7-1.7 3.7-3.7-1.7-3.7-3.7-3.7-3.7 1.7-3.7 3.7zm0 8.6c0 2.1 1.7 3.7 3.7 3.7s3.7-1.7 3.7-3.7-1.7-3.7-3.7-3.7-3.7 1.6-3.7 3.7zm0 8.5c0 2.1 1.7 3.7 3.7 3.7s3.7-1.7 3.7-3.7-1.7-3.7-3.7-3.7-3.7 1.6-3.7 3.7zm0 8.5c0 2.1 1.7 3.7 3.7 3.7s3.7-1.7 3.7-3.7-1.7-3.7-3.7-3.7-3.7 1.6-3.7 3.7zm0 8.5c0 2.1 1.7 3.7 3.7 3.7s3.7-1.7 3.7-3.7-1.7-3.7-3.7-3.7-3.7 1.7-3.7 3.7zm0 8.6c0 2.1 1.7 3.7 3.7 3.7s3.7-1.7 3.7-3.7-1.7-3.7-3.7-3.7-3.7 1.6-3.7 3.7zm8.5-119.4c0 2.1 1.7 3.7 3.7 3.7s3.7-1.7 3.7-3.7-1.7-3.7-3.7-3.7-3.7 1.6-3.7 3.7zm0 8.5c0 2.1 1.7 3.7 3.7 3.7s3.7-1.7 3.7-3.7-1.7-3.7-3.7-3.7-3.7 1.6-3.7 3.7zm0 17.1c0 2.1 1.7 3.7 3.7 3.7s3.7-1.7 3.7-3.7-1.7-3.7-3.7-3.7-3.7 1.6-3.7 3.7zm0 8.5c0 2.1 1.7 3.7 3.7 3.7s3.7-1.7 3.7-3.7-1.7-3.7-3.7-3.7-3.7 1.6-3.7 3.7zm0 8.5c0 2.1 1.7 3.7 3.7 3.7s3.7-1.7 3.7-3.7-1.7-3.7-3.7-3.7-3.7 1.7-3.7 3.7zm0 17.1c0 2.1 1.7 3.7 3.7 3.7s3.7-1.7 3.7-3.7-1.7-3.7-3.7-3.7-3.7 1.6-3.7 3.7zm0 8.5c0 2.1 1.7 3.7 3.7 3.7s3.7-1.7 3.7-3.7-1.7-3.7-3.7-3.7-3.7 1.6-3.7 3.7zm0 8.5c0 2.1 1.7 3.7 3.7 3.7s3.7-1.7 3.7-3.7-1.7-3.7-3.7-3.7-3.7 1.7-3.7 3.7zm0 8.6c0 2.1 1.7 3.7 3.7 3.7s3.7-1.7 3.7-3.7-1.7-3.7-3.7-3.7-3.7 1.6-3.7 3.7zm0 8.5c0 2.1 1.7 3.7 3.7 3.7s3.7-1.7 3.7-3.7-1.7-3.7-3.7-3.7-3.7 1.6-3.7 3.7zm0 8.5c0 2.1 1.7 3.7 3.7 3.7s3.7-1.7 3.7-3.7-1.7-3.7-3.7-3.7-3.7 1.6-3.7 3.7zm0 8.5c0 2.1 1.7 3.7 3.7 3.7s3.7-1.7 3.7-3.7-1.7-3.7-3.7-3.7-3.7 1.7-3.7 3.7zm0 8.6c0 2.1 1.7 3.7 3.7 3.7s3.7-1.7 3.7-3.7-1.7-3.7-3.7-3.7-3.7 1.6-3.7 3.7zm0 8.5c0 2.1 1.7 3.7 3.7 3.7s3.7-1.7 3.7-3.7-1.7-3.7-3.7-3.7-3.7 1.6-3.7 3.7zm8.4-187.6c0 2.1 1.7 3.7 3.7 3.7s3.7-1.7 3.7-3.7-1.7-3.7-3.7-3.7-3.7 1.6-3.7 3.7zm0 8.5c0 2.1 1.7 3.7 3.7 3.7s3.7-1.7 3.7-3.7-1.7-3.7-3.7-3.7-3.7 1.7-3.7 3.7zm0 34.1c0 2.1 1.7 3.7 3.7 3.7s3.7-1.7 3.7-3.7-1.7-3.7-3.7-3.7-3.7 1.7-3.7 3.7zm0 8.6c0 2.1 1.7 3.7 3.7 3.7S295 74 295 72s-1.7-3.7-3.7-3.7-3.7 1.6-3.7 3.7zm0 8.5c0 2.1 1.7 3.7 3.7 3.7s3.7-1.7 3.7-3.7-1.7-3.7-3.7-3.7-3.7 1.6-3.7 3.7zm0 8.5c0 2.1 1.7 3.7 3.7 3.7S295 91 295 89s-1.7-3.7-3.7-3.7-3.7 1.6-3.7 3.7zm0 8.5c0 2.1 1.7 3.7 3.7 3.7s3.7-1.7 3.7-3.7-1.7-3.7-3.7-3.7-3.7 1.7-3.7 3.7zm0 8.6c0 2.1 1.7 3.7 3.7 3.7s3.7-1.7 3.7-3.7-1.7-3.7-3.7-3.7-3.7 1.6-3.7 3.7zm0 8.5c0 2.1 1.7 3.7 3.7 3.7s3.7-1.7 3.7-3.7-1.7-3.7-3.7-3.7-3.7 1.6-3.7 3.7zm0 8.5c0 2.1 1.7 3.7 3.7 3.7s3.7-1.7 3.7-3.7-1.7-3.7-3.7-3.7-3.7 1.7-3.7 3.7zm0 8.5c0 2.1 1.7 3.7 3.7 3.7s3.7-1.7 3.7-3.7-1.7-3.7-3.7-3.7-3.7 1.7-3.7 3.7zm0 17.1c0 2.1 1.7 3.7 3.7 3.7s3.7-1.7 3.7-3.7-1.7-3.7-3.7-3.7-3.7 1.6-3.7 3.7zm0 8.5c0 2.1 1.7 3.7 3.7 3.7s3.7-1.7 3.7-3.7-1.7-3.7-3.7-3.7-3.7 1.7-3.7 3.7zm0 8.6c0 2.1 1.7 3.7 3.7 3.7s3.7-1.7 3.7-3.7-1.7-3.7-3.7-3.7-3.7 1.6-3.7 3.7zm0 8.5c0 2.1 1.7 3.7 3.7 3.7s3.7-1.7 3.7-3.7-1.7-3.7-3.7-3.7-3.7 1.6-3.7 3.7zm0 8.5c0 2.1 1.7 3.7 3.7 3.7s3.7-1.7 3.7-3.7-1.7-3.7-3.7-3.7-3.7 1.6-3.7 3.7zm0 8.5c0 2.1 1.7 3.7 3.7 3.7s3.7-1.7 3.7-3.7-1.7-3.7-3.7-3.7-3.7 1.7-3.7 3.7zm0 8.6c0 2.1 1.7 3.7 3.7 3.7s3.7-1.7 3.7-3.7-1.7-3.7-3.7-3.7-3.7 1.6-3.7 3.7zm0 8.5c0 2.1 1.7 3.7 3.7 3.7s3.7-1.7 3.7-3.7-1.7-3.7-3.7-3.7-3.7 1.6-3.7 3.7zm0 8.5c0 2.1 1.7 3.7 3.7 3.7s3.7-1.7 3.7-3.7-1.7-3.7-3.7-3.7-3.7 1.7-3.7 3.7zm0 8.5c0 2.1 1.7 3.7 3.7 3.7s3.7-1.7 3.7-3.7-1.7-3.7-3.7-3.7-3.7 1.7-3.7 3.7zm0 8.6c0 2.1 1.7 3.7 3.7 3.7s3.7-1.7 3.7-3.7-1.7-3.7-3.7-3.7-3.7 1.6-3.7 3.7zm0 8.5c0 2.1 1.7 3.7 3.7 3.7s3.7-1.7 3.7-3.7-1.7-3.7-3.7-3.7-3.7 1.6-3.7 3.7zm0 8.5c0 2.1 1.7 3.7 3.7 3.7s3.7-1.7 3.7-3.7-1.7-3.7-3.7-3.7-3.7 1.7-3.7 3.7zm8.5-230.2c0 2.1 1.7 3.7 3.7 3.7s3.7-1.7 3.7-3.7-1.7-3.7-3.7-3.7-3.7 1.6-3.7 3.7zm0 8.5c0 2.1 1.7 3.7 3.7 3.7s3.7-1.7 3.7-3.7-1.7-3.7-3.7-3.7-3.7 1.7-3.7 3.7zm0 25.6c0 2.1 1.7 3.7 3.7 3.7s3.7-1.7 3.7-3.7-1.7-3.7-3.7-3.7-3.7 1.6-3.7 3.7zm0 8.5c0 2.1 1.7 3.7 3.7 3.7s3.7-1.7 3.7-3.7-1.7-3.7-3.7-3.7-3.7 1.7-3.7 3.7zm0 8.6c0 2.1 1.7 3.7 3.7 3.7s3.7-1.7 3.7-3.7-1.7-3.7-3.7-3.7-3.7 1.6-3.7 3.7zm0 25.5c0 2.1 1.7 3.7 3.7 3.7s3.7-1.7 3.7-3.7-1.7-3.7-3.7-3.7-3.7 1.7-3.7 3.7zm0 8.6c0 2.1 1.7 3.7 3.7 3.7s3.7-1.7 3.7-3.7-1.7-3.7-3.7-3.7-3.7 1.6-3.7 3.7zm0 8.5c0 2.1 1.7 3.7 3.7 3.7s3.7-1.7 3.7-3.7-1.7-3.7-3.7-3.7-3.7 1.6-3.7 3.7zm0 8.5c0 2.1 1.7 3.7 3.7 3.7s3.7-1.7 3.7-3.7-1.7-3.7-3.7-3.7-3.7 1.7-3.7 3.7zm0 8.5c0 2.1 1.7 3.7 3.7 3.7s3.7-1.7 3.7-3.7-1.7-3.7-3.7-3.7-3.7 1.7-3.7 3.7zm0 17.1c0 2.1 1.7 3.7 3.7 3.7s3.7-1.7 3.7-3.7-1.7-3.7-3.7-3.7-3.7 1.6-3.7 3.7zm0 8.5c0 2.1 1.7 3.7 3.7 3.7s3.7-1.7 3.7-3.7-1.7-3.7-3.7-3.7-3.7 1.7-3.7 3.7zm0 8.6c0 2.1 1.7 3.7 3.7 3.7s3.7-1.7 3.7-3.7-1.7-3.7-3.7-3.7-3.7 1.6-3.7 3.7zm0 8.5c0 2.1 1.7 3.7 3.7 3.7s3.7-1.7 3.7-3.7-1.7-3.7-3.7-3.7-3.7 1.6-3.7 3.7zm0 8.5c0 2.1 1.7 3.7 3.7 3.7s3.7-1.7 3.7-3.7-1.7-3.7-3.7-3.7-3.7 1.6-3.7 3.7zm0 8.5c0 2.1 1.7 3.7 3.7 3.7s3.7-1.7 3.7-3.7-1.7-3.7-3.7-3.7-3.7 1.7-3.7 3.7zm0 8.6c0 2.1 1.7 3.7 3.7 3.7s3.7-1.7 3.7-3.7-1.7-3.7-3.7-3.7-3.7 1.6-3.7 3.7zm0 8.5c0 2.1 1.7 3.7 3.7 3.7s3.7-1.7 3.7-3.7-1.7-3.7-3.7-3.7-3.7 1.6-3.7 3.7zm0 8.5c0 2.1 1.7 3.7 3.7 3.7s3.7-1.7 3.7-3.7-1.7-3.7-3.7-3.7-3.7 1.7-3.7 3.7zm0 8.5c0 2.1 1.7 3.7 3.7 3.7s3.7-1.7 3.7-3.7-1.7-3.7-3.7-3.7-3.7 1.7-3.7 3.7zm0 8.6c0 2.1 1.7 3.7 3.7 3.7s3.7-1.7 3.7-3.7-1.7-3.7-3.7-3.7-3.7 1.6-3.7 3.7zm0 8.5c0 2.1 1.7 3.7 3.7 3.7s3.7-1.7 3.7-3.7-1.7-3.7-3.7-3.7-3.7 1.6-3.7 3.7zm0 8.5c0 2.1 1.7 3.7 3.7 3.7s3.7-1.7 3.7-3.7-1.7-3.7-3.7-3.7-3.7 1.7-3.7 3.7zm0 8.6c0 2.1 1.7 3.7 3.7 3.7s3.7-1.7 3.7-3.7-1.7-3.7-3.7-3.7-3.7 1.6-3.7 3.7zm0 8.5c0 2.1 1.7 3.7 3.7 3.7s3.7-1.7 3.7-3.7-1.7-3.7-3.7-3.7-3.7 1.6-3.7 3.7zm8.4-247.3c0 2.1 1.7 3.7 3.7 3.7s3.7-1.7 3.7-3.7-1.7-3.7-3.7-3.7-3.7 1.6-3.7 3.7zm0 8.5c0 2.1 1.7 3.7 3.7 3.7s3.7-1.7 3.7-3.7-1.7-3.7-3.7-3.7-3.7 1.7-3.7 3.7zm0 25.6c0 2.1 1.7 3.7 3.7 3.7s3.7-1.7 3.7-3.7-1.7-3.7-3.7-3.7-3.7 1.6-3.7 3.7zm0 8.5c0 2.1 1.7 3.7 3.7 3.7s3.7-1.7 3.7-3.7-1.7-3.7-3.7-3.7-3.7 1.7-3.7 3.7zm0 8.6c0 2.1 1.7 3.7 3.7 3.7S312 74 312 72s-1.7-3.7-3.7-3.7-3.8 1.6-3.8 3.7zm0 8.5c0 2.1 1.7 3.7 3.7 3.7s3.7-1.7 3.7-3.7-1.7-3.7-3.7-3.7-3.7 1.6-3.7 3.7zm0 8.5c0 2.1 1.7 3.7 3.7 3.7s3.7-1.7 3.7-3.7-1.7-3.7-3.7-3.7-3.7 1.6-3.7 3.7zm0 8.5c0 2.1 1.7 3.7 3.7 3.7s3.7-1.7 3.7-3.7-1.7-3.7-3.7-3.7-3.7 1.7-3.7 3.7zm0 8.6c0 2.1 1.7 3.7 3.7 3.7s3.7-1.7 3.7-3.7-1.7-3.7-3.7-3.7-3.7 1.6-3.7 3.7zm0 8.5c0 2.1 1.7 3.7 3.7 3.7s3.7-1.7 3.7-3.7-1.7-3.7-3.7-3.7-3.7 1.6-3.7 3.7zm0 8.5c0 2.1 1.7 3.7 3.7 3.7s3.7-1.7 3.7-3.7-1.7-3.7-3.7-3.7-3.7 1.7-3.7 3.7zm0 8.5c0 2.1 1.7 3.7 3.7 3.7s3.7-1.7 3.7-3.7-1.7-3.7-3.7-3.7-3.7 1.7-3.7 3.7zm0 17.1c0 2.1 1.7 3.7 3.7 3.7s3.7-1.7 3.7-3.7-1.7-3.7-3.7-3.7-3.7 1.6-3.7 3.7zm0 8.5c0 2.1 1.7 3.7 3.7 3.7s3.7-1.7 3.7-3.7-1.7-3.7-3.7-3.7-3.7 1.7-3.7 3.7zm0 8.6c0 2.1 1.7 3.7 3.7 3.7s3.7-1.7 3.7-3.7-1.7-3.7-3.7-3.7-3.7 1.6-3.7 3.7zm0 8.5c0 2.1 1.7 3.7 3.7 3.7s3.7-1.7 3.7-3.7-1.7-3.7-3.7-3.7-3.7 1.6-3.7 3.7zm0 8.5c0 2.1 1.7 3.7 3.7 3.7s3.7-1.7 3.7-3.7-1.7-3.7-3.7-3.7-3.7 1.6-3.7 3.7zm0 8.5c0 2.1 1.7 3.7 3.7 3.7s3.7-1.7 3.7-3.7-1.7-3.7-3.7-3.7-3.7 1.7-3.7 3.7zm0 8.6c0 2.1 1.7 3.7 3.7 3.7s3.7-1.7 3.7-3.7-1.7-3.7-3.7-3.7-3.7 1.6-3.7 3.7zm0 8.5c0 2.1 1.7 3.7 3.7 3.7s3.7-1.7 3.7-3.7-1.7-3.7-3.7-3.7-3.7 1.6-3.7 3.7zm0 8.5c0 2.1 1.7 3.7 3.7 3.7s3.7-1.7 3.7-3.7-1.7-3.7-3.7-3.7-3.7 1.7-3.7 3.7zm0 8.5c0 2.1 1.7 3.7 3.7 3.7s3.7-1.7 3.7-3.7-1.7-3.7-3.7-3.7-3.7 1.7-3.7 3.7zm0 8.6c0 2.1 1.7 3.7 3.7 3.7s3.7-1.7 3.7-3.7-1.7-3.7-3.7-3.7-3.7 1.6-3.7 3.7zm0 8.5c0 2.1 1.7 3.7 3.7 3.7s3.7-1.7 3.7-3.7-1.7-3.7-3.7-3.7-3.7 1.6-3.7 3.7zm0 8.5c0 2.1 1.7 3.7 3.7 3.7s3.7-1.7 3.7-3.7-1.7-3.7-3.7-3.7-3.7 1.7-3.7 3.7zm0 8.6c0 2.1 1.7 3.7 3.7 3.7s3.7-1.7 3.7-3.7-1.7-3.7-3.7-3.7-3.7 1.6-3.7 3.7zm0 8.5c0 2.1 1.7 3.7 3.7 3.7s3.7-1.7 3.7-3.7-1.7-3.7-3.7-3.7-3.7 1.6-3.7 3.7zM313 20.8c0 2.1 1.7 3.7 3.7 3.7s3.7-1.7 3.7-3.7-1.7-3.7-3.7-3.7-3.7 1.6-3.7 3.7zm0 8.5c0 2.1 1.7 3.7 3.7 3.7s3.7-1.7 3.7-3.7-1.7-3.7-3.7-3.7-3.7 1.7-3.7 3.7zm0 25.6c0 2.1 1.7 3.7 3.7 3.7s3.7-1.7 3.7-3.7-1.7-3.7-3.7-3.7-3.7 1.6-3.7 3.7zm0 8.5c0 2.1 1.7 3.7 3.7 3.7s3.7-1.7 3.7-3.7-1.7-3.7-3.7-3.7-3.7 1.7-3.7 3.7zm0 8.6c0 2.1 1.7 3.7 3.7 3.7s3.7-1.7 3.7-3.7-1.7-3.7-3.7-3.7-3.7 1.6-3.7 3.7zm0 8.5c0 2.1 1.7 3.7 3.7 3.7s3.7-1.7 3.7-3.7-1.7-3.7-3.7-3.7-3.7 1.6-3.7 3.7zm0 8.5c0 2.1 1.7 3.7 3.7 3.7s3.7-1.7 3.7-3.7-1.7-3.7-3.7-3.7-3.7 1.6-3.7 3.7zm0 8.5c0 2.1 1.7 3.7 3.7 3.7s3.7-1.7 3.7-3.7-1.7-3.7-3.7-3.7-3.7 1.7-3.7 3.7zm0 8.6c0 2.1 1.7 3.7 3.7 3.7s3.7-1.7 3.7-3.7-1.7-3.7-3.7-3.7-3.7 1.6-3.7 3.7zm0 8.5c0 2.1 1.7 3.7 3.7 3.7s3.7-1.7 3.7-3.7-1.7-3.7-3.7-3.7-3.7 1.6-3.7 3.7zm0 17c0 2.1 1.7 3.7 3.7 3.7s3.7-1.7 3.7-3.7-1.7-3.7-3.7-3.7-3.7 1.7-3.7 3.7zm0 17.1c0 2.1 1.7 3.7 3.7 3.7s3.7-1.7 3.7-3.7-1.7-3.7-3.7-3.7-3.7 1.6-3.7 3.7zm0 8.5c0 2.1 1.7 3.7 3.7 3.7s3.7-1.7 3.7-3.7-1.7-3.7-3.7-3.7-3.7 1.7-3.7 3.7zm0 8.6c0 2.1 1.7 3.7 3.7 3.7s3.7-1.7 3.7-3.7-1.7-3.7-3.7-3.7-3.7 1.6-3.7 3.7zm0 8.5c0 2.1 1.7 3.7 3.7 3.7s3.7-1.7 3.7-3.7-1.7-3.7-3.7-3.7-3.7 1.6-3.7 3.7zm0 8.5c0 2.1 1.7 3.7 3.7 3.7s3.7-1.7 3.7-3.7-1.7-3.7-3.7-3.7-3.7 1.6-3.7 3.7zm0 8.5c0 2.1 1.7 3.7 3.7 3.7s3.7-1.7 3.7-3.7-1.7-3.7-3.7-3.7-3.7 1.7-3.7 3.7zm0 8.6c0 2.1 1.7 3.7 3.7 3.7s3.7-1.7 3.7-3.7-1.7-3.7-3.7-3.7-3.7 1.6-3.7 3.7zm0 8.5c0 2.1 1.7 3.7 3.7 3.7s3.7-1.7 3.7-3.7-1.7-3.7-3.7-3.7-3.7 1.6-3.7 3.7zm0 8.5c0 2.1 1.7 3.7 3.7 3.7s3.7-1.7 3.7-3.7-1.7-3.7-3.7-3.7-3.7 1.7-3.7 3.7zm0 8.5c0 2.1 1.7 3.7 3.7 3.7s3.7-1.7 3.7-3.7-1.7-3.7-3.7-3.7-3.7 1.7-3.7 3.7zm0 8.6c0 2.1 1.7 3.7 3.7 3.7s3.7-1.7 3.7-3.7-1.7-3.7-3.7-3.7-3.7 1.6-3.7 3.7zm0 8.5c0 2.1 1.7 3.7 3.7 3.7s3.7-1.7 3.7-3.7-1.7-3.7-3.7-3.7-3.7 1.6-3.7 3.7zm0 8.5c0 2.1 1.7 3.7 3.7 3.7s3.7-1.7 3.7-3.7-1.7-3.7-3.7-3.7-3.7 1.7-3.7 3.7zm0 8.6c0 2.1 1.7 3.7 3.7 3.7s3.7-1.7 3.7-3.7-1.7-3.7-3.7-3.7-3.7 1.6-3.7 3.7zm8.4-196.2c0 2.1 1.7 3.7 3.7 3.7s3.7-1.7 3.7-3.7-1.7-3.7-3.7-3.7-3.7 1.7-3.7 3.7zm0 8.6c0 2.1 1.7 3.7 3.7 3.7s3.7-1.7 3.7-3.7-1.7-3.7-3.7-3.7-3.7 1.6-3.7 3.7zm0 8.5c0 2.1 1.7 3.7 3.7 3.7s3.7-1.7 3.7-3.7-1.7-3.7-3.7-3.7-3.7 1.6-3.7 3.7zm0 8.5c0 2.1 1.7 3.7 3.7 3.7s3.7-1.7 3.7-3.7-1.7-3.7-3.7-3.7-3.7 1.6-3.7 3.7zm0 8.5c0 2.1 1.7 3.7 3.7 3.7s3.7-1.7 3.7-3.7-1.7-3.7-3.7-3.7-3.7 1.7-3.7 3.7zm0 8.6c0 2.1 1.7 3.7 3.7 3.7s3.7-1.7 3.7-3.7-1.7-3.7-3.7-3.7-3.7 1.6-3.7 3.7zm0 8.5c0 2.1 1.7 3.7 3.7 3.7s3.7-1.7 3.7-3.7-1.7-3.7-3.7-3.7-3.7 1.6-3.7 3.7zm0 17c0 2.1 1.7 3.7 3.7 3.7s3.7-1.7 3.7-3.7-1.7-3.7-3.7-3.7-3.7 1.7-3.7 3.7zm0 8.6c0 2.1 1.7 3.7 3.7 3.7s3.7-1.7 3.7-3.7-1.7-3.7-3.7-3.7-3.7 1.6-3.7 3.7zm0 8.5c0 2.1 1.7 3.7 3.7 3.7s3.7-1.7 3.7-3.7-1.7-3.7-3.7-3.7-3.7 1.6-3.7 3.7zm0 8.5c0 2.1 1.7 3.7 3.7 3.7s3.7-1.7 3.7-3.7-1.7-3.7-3.7-3.7-3.7 1.7-3.7 3.7zm0 8.6c0 2.1 1.7 3.7 3.7 3.7s3.7-1.7 3.7-3.7-1.7-3.7-3.7-3.7-3.7 1.6-3.7 3.7zm0 8.5c0 2.1 1.7 3.7 3.7 3.7s3.7-1.7 3.7-3.7-1.7-3.7-3.7-3.7-3.7 1.6-3.7 3.7zm0 8.5c0 2.1 1.7 3.7 3.7 3.7s3.7-1.7 3.7-3.7-1.7-3.7-3.7-3.7-3.7 1.6-3.7 3.7zm0 8.5c0 2.1 1.7 3.7 3.7 3.7s3.7-1.7 3.7-3.7-1.7-3.7-3.7-3.7-3.7 1.7-3.7 3.7zm0 8.6c0 2.1 1.7 3.7 3.7 3.7s3.7-1.7 3.7-3.7-1.7-3.7-3.7-3.7-3.7 1.6-3.7 3.7zm0 8.5c0 2.1 1.7 3.7 3.7 3.7s3.7-1.7 3.7-3.7-1.7-3.7-3.7-3.7-3.7 1.6-3.7 3.7zm0 8.5c0 2.1 1.7 3.7 3.7 3.7s3.7-1.7 3.7-3.7-1.7-3.7-3.7-3.7-3.7 1.7-3.7 3.7zm0 8.5c0 2.1 1.7 3.7 3.7 3.7s3.7-1.7 3.7-3.7-1.7-3.7-3.7-3.7-3.7 1.7-3.7 3.7zm0 8.6c0 2.1 1.7 3.7 3.7 3.7s3.7-1.7 3.7-3.7-1.7-3.7-3.7-3.7-3.7 1.6-3.7 3.7zm0 8.5c0 2.1 1.7 3.7 3.7 3.7s3.7-1.7 3.7-3.7-1.7-3.7-3.7-3.7-3.7 1.6-3.7 3.7zm0 8.5c0 2.1 1.7 3.7 3.7 3.7s3.7-1.7 3.7-3.7-1.7-3.7-3.7-3.7-3.7 1.7-3.7 3.7zm8.5-187.6c0 2.1 1.7 3.7 3.7 3.7s3.7-1.7 3.7-3.7-1.7-3.7-3.7-3.7-3.7 1.7-3.7 3.7zm0 8.6c0 2.1 1.7 3.7 3.7 3.7s3.7-1.7 3.7-3.7-1.7-3.7-3.7-3.7-3.7 1.6-3.7 3.7zm0 8.5c0 2.1 1.7 3.7 3.7 3.7s3.7-1.7 3.7-3.7-1.7-3.7-3.7-3.7-3.7 1.6-3.7 3.7zm0 8.5c0 2.1 1.7 3.7 3.7 3.7s3.7-1.7 3.7-3.7-1.7-3.7-3.7-3.7-3.7 1.6-3.7 3.7zm0 8.5c0 2.1 1.7 3.7 3.7 3.7s3.7-1.7 3.7-3.7-1.7-3.7-3.7-3.7-3.7 1.7-3.7 3.7zm0 8.6c0 2.1 1.7 3.7 3.7 3.7s3.7-1.7 3.7-3.7-1.7-3.7-3.7-3.7-3.7 1.6-3.7 3.7zm0 8.5c0 2.1 1.7 3.7 3.7 3.7s3.7-1.7 3.7-3.7-1.7-3.7-3.7-3.7-3.7 1.6-3.7 3.7zm0 8.5c0 2.1 1.7 3.7 3.7 3.7s3.7-1.7 3.7-3.7-1.7-3.7-3.7-3.7-3.7 1.7-3.7 3.7zm0 8.5c0 2.1 1.7 3.7 3.7 3.7s3.7-1.7 3.7-3.7-1.7-3.7-3.7-3.7-3.7 1.7-3.7 3.7zm0 8.6c0 2.1 1.7 3.7 3.7 3.7s3.7-1.7 3.7-3.7-1.7-3.7-3.7-3.7-3.7 1.6-3.7 3.7zm0 8.5c0 2.1 1.7 3.7 3.7 3.7s3.7-1.7 3.7-3.7-1.7-3.7-3.7-3.7-3.7 1.6-3.7 3.7zm0 8.5c0 2.1 1.7 3.7 3.7 3.7s3.7-1.7 3.7-3.7-1.7-3.7-3.7-3.7-3.7 1.7-3.7 3.7zm0 8.6c0 2.1 1.7 3.7 3.7 3.7s3.7-1.7 3.7-3.7-1.7-3.7-3.7-3.7-3.7 1.6-3.7 3.7zm0 8.5c0 2.1 1.7 3.7 3.7 3.7s3.7-1.7 3.7-3.7-1.7-3.7-3.7-3.7-3.7 1.6-3.7 3.7zm0 8.5c0 2.1 1.7 3.7 3.7 3.7s3.7-1.7 3.7-3.7-1.7-3.7-3.7-3.7-3.7 1.6-3.7 3.7zm0 8.5c0 2.1 1.7 3.7 3.7 3.7s3.7-1.7 3.7-3.7-1.7-3.7-3.7-3.7-3.7 1.7-3.7 3.7zm0 8.6c0 2.1 1.7 3.7 3.7 3.7s3.7-1.7 3.7-3.7-1.7-3.7-3.7-3.7-3.7 1.6-3.7 3.7zm0 8.5c0 2.1 1.7 3.7 3.7 3.7s3.7-1.7 3.7-3.7-1.7-3.7-3.7-3.7-3.7 1.6-3.7 3.7zm0 8.5c0 2.1 1.7 3.7 3.7 3.7s3.7-1.7 3.7-3.7-1.7-3.7-3.7-3.7-3.7 1.7-3.7 3.7zm0 8.5c0 2.1 1.7 3.7 3.7 3.7s3.7-1.7 3.7-3.7-1.7-3.7-3.7-3.7-3.7 1.7-3.7 3.7zm0 8.6c0 2.1 1.7 3.7 3.7 3.7s3.7-1.7 3.7-3.7-1.7-3.7-3.7-3.7-3.7 1.6-3.7 3.7zm8.5-162c0 2.1 1.7 3.7 3.7 3.7s3.7-1.7 3.7-3.7-1.7-3.7-3.7-3.7-3.7 1.6-3.7 3.7zm0 8.5c0 2.1 1.7 3.7 3.7 3.7s3.7-1.7 3.7-3.7-1.7-3.7-3.7-3.7-3.7 1.6-3.7 3.7zm0 8.5c0 2.1 1.7 3.7 3.7 3.7s3.7-1.7 3.7-3.7-1.7-3.7-3.7-3.7-3.7 1.6-3.7 3.7zm0 8.5c0 2.1 1.7 3.7 3.7 3.7s3.7-1.7 3.7-3.7-1.7-3.7-3.7-3.7-3.7 1.7-3.7 3.7zm0 8.6c0 2.1 1.7 3.7 3.7 3.7s3.7-1.7 3.7-3.7-1.7-3.7-3.7-3.7-3.7 1.6-3.7 3.7zm0 8.5c0 2.1 1.7 3.7 3.7 3.7s3.7-1.7 3.7-3.7-1.7-3.7-3.7-3.7-3.7 1.6-3.7 3.7zm0 8.5c0 2.1 1.7 3.7 3.7 3.7s3.7-1.7 3.7-3.7-1.7-3.7-3.7-3.7-3.7 1.7-3.7 3.7zm0 8.5c0 2.1 1.7 3.7 3.7 3.7s3.7-1.7 3.7-3.7-1.7-3.7-3.7-3.7-3.7 1.7-3.7 3.7zm0 8.6c0 2.1 1.7 3.7 3.7 3.7s3.7-1.7 3.7-3.7-1.7-3.7-3.7-3.7-3.7 1.6-3.7 3.7zm0 8.5c0 2.1 1.7 3.7 3.7 3.7s3.7-1.7 3.7-3.7-1.7-3.7-3.7-3.7-3.7 1.6-3.7 3.7zm0 8.5c0 2.1 1.7 3.7 3.7 3.7s3.7-1.7 3.7-3.7-1.7-3.7-3.7-3.7-3.7 1.7-3.7 3.7zm0 8.6c0 2.1 1.7 3.7 3.7 3.7s3.7-1.7 3.7-3.7-1.7-3.7-3.7-3.7-3.7 1.6-3.7 3.7zm0 8.5c0 2.1 1.7 3.7 3.7 3.7s3.7-1.7 3.7-3.7-1.7-3.7-3.7-3.7-3.7 1.6-3.7 3.7zm0 8.5c0 2.1 1.7 3.7 3.7 3.7s3.7-1.7 3.7-3.7-1.7-3.7-3.7-3.7-3.7 1.6-3.7 3.7zm0 8.5c0 2.1 1.7 3.7 3.7 3.7s3.7-1.7 3.7-3.7-1.7-3.7-3.7-3.7-3.7 1.7-3.7 3.7zm0 8.6c0 2.1 1.7 3.7 3.7 3.7s3.7-1.7 3.7-3.7-1.7-3.7-3.7-3.7-3.7 1.6-3.7 3.7zm0 34.1c0 2.1 1.7 3.7 3.7 3.7s3.7-1.7 3.7-3.7-1.7-3.7-3.7-3.7-3.7 1.6-3.7 3.7zm0 8.5c0 2.1 1.7 3.7 3.7 3.7s3.7-1.7 3.7-3.7-1.7-3.7-3.7-3.7-3.7 1.6-3.7 3.7zm0 8.5c0 2.1 1.7 3.7 3.7 3.7s3.7-1.7 3.7-3.7-1.7-3.7-3.7-3.7-3.7 1.7-3.7 3.7zm8.4-230.2c0 2.1 1.7 3.7 3.7 3.7s3.7-1.7 3.7-3.7-1.7-3.7-3.7-3.7-3.7 1.6-3.7 3.7zm0 42.6c0 2.1 1.7 3.7 3.7 3.7s3.7-1.7 3.7-3.7-1.7-3.7-3.7-3.7-3.7 1.7-3.7 3.7zm0 8.6c0 2.1 1.7 3.7 3.7 3.7s3.7-1.7 3.7-3.7-1.7-3.7-3.7-3.7-3.7 1.6-3.7 3.7zm0 8.5c0 2.1 1.7 3.7 3.7 3.7s3.7-1.7 3.7-3.7-1.7-3.7-3.7-3.7-3.7 1.6-3.7 3.7zm0 8.5c0 2.1 1.7 3.7 3.7 3.7s3.7-1.7 3.7-3.7-1.7-3.7-3.7-3.7-3.7 1.6-3.7 3.7zm0 8.5c0 2.1 1.7 3.7 3.7 3.7s3.7-1.7 3.7-3.7-1.7-3.7-3.7-3.7-3.7 1.7-3.7 3.7zm0 8.6c0 2.1 1.7 3.7 3.7 3.7s3.7-1.7 3.7-3.7-1.7-3.7-3.7-3.7-3.7 1.6-3.7 3.7zm0 8.5c0 2.1 1.7 3.7 3.7 3.7s3.7-1.7 3.7-3.7-1.7-3.7-3.7-3.7-3.7 1.6-3.7 3.7zm0 25.6c0 2.1 1.7 3.7 3.7 3.7s3.7-1.7 3.7-3.7-1.7-3.7-3.7-3.7-3.7 1.6-3.7 3.7zm0 8.5c0 2.1 1.7 3.7 3.7 3.7s3.7-1.7 3.7-3.7-1.7-3.7-3.7-3.7-3.7 1.6-3.7 3.7zm0 8.5c0 2.1 1.7 3.7 3.7 3.7s3.7-1.7 3.7-3.7-1.7-3.7-3.7-3.7-3.7 1.7-3.7 3.7zm0 8.6c0 2.1 1.7 3.7 3.7 3.7s3.7-1.7 3.7-3.7-1.7-3.7-3.7-3.7-3.7 1.6-3.7 3.7zm0 8.5c0 2.1 1.7 3.7 3.7 3.7s3.7-1.7 3.7-3.7-1.7-3.7-3.7-3.7-3.7 1.6-3.7 3.7zm0 17c0 2.1 1.7 3.7 3.7 3.7s3.7-1.7 3.7-3.7-1.7-3.7-3.7-3.7-3.7 1.7-3.7 3.7zm8.5-170.5c0 2.1 1.7 3.7 3.7 3.7s3.7-1.7 3.7-3.7-1.7-3.7-3.7-3.7-3.7 1.6-3.7 3.7zm0 17c0 2.1 1.7 3.7 3.7 3.7s3.7-1.7 3.7-3.7-1.7-3.7-3.7-3.7-3.7 1.7-3.7 3.7zm0 8.6c0 2.1 1.7 3.7 3.7 3.7s3.7-1.7 3.7-3.7-1.7-3.7-3.7-3.7-3.7 1.6-3.7 3.7zm0 17c0 2.1 1.7 3.7 3.7 3.7s3.7-1.7 3.7-3.7-1.7-3.7-3.7-3.7-3.7 1.7-3.7 3.7zm0 8.6c0 2.1 1.7 3.7 3.7 3.7s3.7-1.7 3.7-3.7-1.7-3.7-3.7-3.7-3.7 1.6-3.7 3.7zm0 8.5c0 2.1 1.7 3.7 3.7 3.7s3.7-1.7 3.7-3.7-1.7-3.7-3.7-3.7-3.7 1.6-3.7 3.7zm0 8.5c0 2.1 1.7 3.7 3.7 3.7s3.7-1.7 3.7-3.7-1.7-3.7-3.7-3.7-3.7 1.6-3.7 3.7zm0 8.5c0 2.1 1.7 3.7 3.7 3.7s3.7-1.7 3.7-3.7-1.7-3.7-3.7-3.7-3.7 1.7-3.7 3.7zm0 8.6c0 2.1 1.7 3.7 3.7 3.7s3.7-1.7 3.7-3.7-1.7-3.7-3.7-3.7-3.7 1.6-3.7 3.7zm0 8.5c0 2.1 1.7 3.7 3.7 3.7s3.7-1.7 3.7-3.7-1.7-3.7-3.7-3.7-3.7 1.6-3.7 3.7zm0 8.5c0 2.1 1.7 3.7 3.7 3.7s3.7-1.7 3.7-3.7-1.7-3.7-3.7-3.7-3.7 1.7-3.7 3.7zm0 8.5c0 2.1 1.7 3.7 3.7 3.7s3.7-1.7 3.7-3.7-1.7-3.7-3.7-3.7-3.7 1.7-3.7 3.7zm0 8.6c0 2.1 1.7 3.7 3.7 3.7s3.7-1.7 3.7-3.7-1.7-3.7-3.7-3.7-3.7 1.6-3.7 3.7zm0 8.5c0 2.1 1.7 3.7 3.7 3.7s3.7-1.7 3.7-3.7-1.7-3.7-3.7-3.7-3.7 1.6-3.7 3.7zm0 8.5c0 2.1 1.7 3.7 3.7 3.7s3.7-1.7 3.7-3.7-1.7-3.7-3.7-3.7-3.7 1.7-3.7 3.7zm0 8.6c0 2.1 1.7 3.7 3.7 3.7s3.7-1.7 3.7-3.7-1.7-3.7-3.7-3.7-3.7 1.6-3.7 3.7zm0 8.5c0 2.1 1.7 3.7 3.7 3.7s3.7-1.7 3.7-3.7-1.7-3.7-3.7-3.7-3.7 1.6-3.7 3.7zm8.4-153.5c0 2.1 1.7 3.7 3.7 3.7s3.7-1.7 3.7-3.7-1.7-3.7-3.7-3.7-3.7 1.6-3.7 3.7zm0 17c0 2.1 1.7 3.7 3.7 3.7s3.7-1.7 3.7-3.7-1.7-3.7-3.7-3.7-3.7 1.7-3.7 3.7zm0 17.1c0 2.1 1.7 3.7 3.7 3.7s3.7-1.7 3.7-3.7-1.7-3.7-3.7-3.7-3.7 1.6-3.7 3.7zm0 8.5c0 2.1 1.7 3.7 3.7 3.7s3.7-1.7 3.7-3.7-1.7-3.7-3.7-3.7-3.7 1.7-3.7 3.7zm0 8.6c0 2.1 1.7 3.7 3.7 3.7s3.7-1.7 3.7-3.7-1.7-3.7-3.7-3.7-3.7 1.6-3.7 3.7zm0 8.5c0 2.1 1.7 3.7 3.7 3.7s3.7-1.7 3.7-3.7-1.7-3.7-3.7-3.7-3.7 1.6-3.7 3.7zm0 8.5c0 2.1 1.7 3.7 3.7 3.7s3.7-1.7 3.7-3.7-1.7-3.7-3.7-3.7-3.7 1.6-3.7 3.7zm0 8.5c0 2.1 1.7 3.7 3.7 3.7s3.7-1.7 3.7-3.7-1.7-3.7-3.7-3.7-3.7 1.7-3.7 3.7zm0 8.6c0 2.1 1.7 3.7 3.7 3.7s3.7-1.7 3.7-3.7-1.7-3.7-3.7-3.7-3.7 1.6-3.7 3.7zm0 8.5c0 2.1 1.7 3.7 3.7 3.7s3.7-1.7 3.7-3.7-1.7-3.7-3.7-3.7-3.7 1.6-3.7 3.7zm0 8.5c0 2.1 1.7 3.7 3.7 3.7s3.7-1.7 3.7-3.7-1.7-3.7-3.7-3.7-3.7 1.7-3.7 3.7zm0 8.5c0 2.1 1.7 3.7 3.7 3.7s3.7-1.7 3.7-3.7-1.7-3.7-3.7-3.7-3.7 1.7-3.7 3.7zm0 8.6c0 2.1 1.7 3.7 3.7 3.7s3.7-1.7 3.7-3.7-1.7-3.7-3.7-3.7-3.7 1.6-3.7 3.7zm0 8.5c0 2.1 1.7 3.7 3.7 3.7s3.7-1.7 3.7-3.7-1.7-3.7-3.7-3.7-3.7 1.6-3.7 3.7zm0 8.5c0 2.1 1.7 3.7 3.7 3.7s3.7-1.7 3.7-3.7-1.7-3.7-3.7-3.7-3.7 1.7-3.7 3.7zm8.5-119.4c0 2.1 1.7 3.7 3.7 3.7s3.7-1.7 3.7-3.7-1.7-3.7-3.7-3.7-3.7 1.7-3.7 3.7zm0 17.1c0 2.1 1.7 3.7 3.7 3.7s3.7-1.7 3.7-3.7-1.7-3.7-3.7-3.7-3.7 1.6-3.7 3.7zm0 8.5c0 2.1 1.7 3.7 3.7 3.7s3.7-1.7 3.7-3.7-1.7-3.7-3.7-3.7-3.7 1.7-3.7 3.7zm0 8.6c0 2.1 1.7 3.7 3.7 3.7s3.7-1.7 3.7-3.7-1.7-3.7-3.7-3.7-3.7 1.6-3.7 3.7zm0 8.5c0 2.1 1.7 3.7 3.7 3.7s3.7-1.7 3.7-3.7-1.7-3.7-3.7-3.7-3.7 1.6-3.7 3.7zm0 8.5c0 2.1 1.7 3.7 3.7 3.7s3.7-1.7 3.7-3.7-1.7-3.7-3.7-3.7-3.7 1.6-3.7 3.7zm0 8.5c0 2.1 1.7 3.7 3.7 3.7s3.7-1.7 3.7-3.7-1.7-3.7-3.7-3.7-3.7 1.7-3.7 3.7zm0 8.6c0 2.1 1.7 3.7 3.7 3.7s3.7-1.7 3.7-3.7-1.7-3.7-3.7-3.7-3.7 1.6-3.7 3.7zm0 8.5c0 2.1 1.7 3.7 3.7 3.7s3.7-1.7 3.7-3.7-1.7-3.7-3.7-3.7-3.7 1.6-3.7 3.7zm0 8.5c0 2.1 1.7 3.7 3.7 3.7s3.7-1.7 3.7-3.7-1.7-3.7-3.7-3.7-3.7 1.7-3.7 3.7zm0 8.5c0 2.1 1.7 3.7 3.7 3.7s3.7-1.7 3.7-3.7-1.7-3.7-3.7-3.7-3.7 1.7-3.7 3.7zm0 8.6c0 2.1 1.7 3.7 3.7 3.7s3.7-1.7 3.7-3.7-1.7-3.7-3.7-3.7-3.7 1.6-3.7 3.7zm0 8.5c0 2.1 1.7 3.7 3.7 3.7s3.7-1.7 3.7-3.7-1.7-3.7-3.7-3.7-3.7 1.6-3.7 3.7zm0 8.5c0 2.1 1.7 3.7 3.7 3.7s3.7-1.7 3.7-3.7-1.7-3.7-3.7-3.7-3.7 1.7-3.7 3.7zm8.5-110.8c0 2.1 1.7 3.7 3.7 3.7s3.7-1.7 3.7-3.7-1.7-3.7-3.7-3.7-3.7 1.6-3.7 3.7zm0 8.5c0 2.1 1.7 3.7 3.7 3.7s3.7-1.7 3.7-3.7-1.7-3.7-3.7-3.7-3.7 1.6-3.7 3.7zm0 8.5c0 2.1 1.7 3.7 3.7 3.7s3.7-1.7 3.7-3.7-1.7-3.7-3.7-3.7-3.7 1.7-3.7 3.7zm0 8.6c0 2.1 1.7 3.7 3.7 3.7s3.7-1.7 3.7-3.7-1.7-3.7-3.7-3.7-3.7 1.6-3.7 3.7zm0 8.5c0 2.1 1.7 3.7 3.7 3.7s3.7-1.7 3.7-3.7-1.7-3.7-3.7-3.7-3.7 1.6-3.7 3.7zm0 8.5c0 2.1 1.7 3.7 3.7 3.7s3.7-1.7 3.7-3.7-1.7-3.7-3.7-3.7-3.7 1.6-3.7 3.7zm0 8.5c0 2.1 1.7 3.7 3.7 3.7s3.7-1.7 3.7-3.7-1.7-3.7-3.7-3.7-3.7 1.7-3.7 3.7zm0 8.6c0 2.1 1.7 3.7 3.7 3.7s3.7-1.7 3.7-3.7-1.7-3.7-3.7-3.7-3.7 1.6-3.7 3.7zm0 8.5c0 2.1 1.7 3.7 3.7 3.7s3.7-1.7 3.7-3.7-1.7-3.7-3.7-3.7-3.7 1.6-3.7 3.7zm0 8.5c0 2.1 1.7 3.7 3.7 3.7s3.7-1.7 3.7-3.7-1.7-3.7-3.7-3.7-3.7 1.7-3.7 3.7zm0 8.5c0 2.1 1.7 3.7 3.7 3.7s3.7-1.7 3.7-3.7-1.7-3.7-3.7-3.7-3.7 1.7-3.7 3.7zm0 8.6c0 2.1 1.7 3.7 3.7 3.7s3.7-1.7 3.7-3.7-1.7-3.7-3.7-3.7-3.7 1.6-3.7 3.7zm0 8.5c0 2.1 1.7 3.7 3.7 3.7s3.7-1.7 3.7-3.7-1.7-3.7-3.7-3.7-3.7 1.6-3.7 3.7zm0 8.5c0 2.1 1.7 3.7 3.7 3.7s3.7-1.7 3.7-3.7-1.7-3.7-3.7-3.7-3.7 1.7-3.7 3.7zm0 8.6c0 2.1 1.7 3.7 3.7 3.7s3.7-1.7 3.7-3.7-1.7-3.7-3.7-3.7-3.7 1.6-3.7 3.7zm0 8.5c0 2.1 1.7 3.7 3.7 3.7s3.7-1.7 3.7-3.7-1.7-3.7-3.7-3.7-3.7 1.6-3.7 3.7zm8.4-127.9c0 2.1 1.7 3.7 3.7 3.7s3.7-1.7 3.7-3.7-1.7-3.7-3.7-3.7-3.7 1.6-3.7 3.7zm0 8.5c0 2.1 1.7 3.7 3.7 3.7s3.7-1.7 3.7-3.7-1.7-3.7-3.7-3.7-3.7 1.6-3.7 3.7zm0 8.5c0 2.1 1.7 3.7 3.7 3.7s3.7-1.7 3.7-3.7-1.7-3.7-3.7-3.7-3.7 1.7-3.7 3.7zm0 8.6c0 2.1 1.7 3.7 3.7 3.7s3.7-1.7 3.7-3.7-1.7-3.7-3.7-3.7-3.7 1.6-3.7 3.7zm0 8.5c0 2.1 1.7 3.7 3.7 3.7s3.7-1.7 3.7-3.7-1.7-3.7-3.7-3.7-3.7 1.6-3.7 3.7zm0 8.5c0 2.1 1.7 3.7 3.7 3.7s3.7-1.7 3.7-3.7-1.7-3.7-3.7-3.7-3.7 1.6-3.7 3.7zm0 8.5c0 2.1 1.7 3.7 3.7 3.7s3.7-1.7 3.7-3.7-1.7-3.7-3.7-3.7-3.7 1.7-3.7 3.7zm0 8.6c0 2.1 1.7 3.7 3.7 3.7s3.7-1.7 3.7-3.7-1.7-3.7-3.7-3.7-3.7 1.6-3.7 3.7zm0 8.5c0 2.1 1.7 3.7 3.7 3.7s3.7-1.7 3.7-3.7-1.7-3.7-3.7-3.7-3.7 1.6-3.7 3.7zm0 8.5c0 2.1 1.7 3.7 3.7 3.7s3.7-1.7 3.7-3.7-1.7-3.7-3.7-3.7-3.7 1.7-3.7 3.7zm0 8.5c0 2.1 1.7 3.7 3.7 3.7s3.7-1.7 3.7-3.7-1.7-3.7-3.7-3.7-3.7 1.7-3.7 3.7zm0 8.6c0 2.1 1.7 3.7 3.7 3.7s3.7-1.7 3.7-3.7-1.7-3.7-3.7-3.7-3.7 1.6-3.7 3.7zm0 8.5c0 2.1 1.7 3.7 3.7 3.7s3.7-1.7 3.7-3.7-1.7-3.7-3.7-3.7-3.7 1.6-3.7 3.7zm0 8.5c0 2.1 1.7 3.7 3.7 3.7s3.7-1.7 3.7-3.7-1.7-3.7-3.7-3.7-3.7 1.7-3.7 3.7zm0 8.6c0 2.1 1.7 3.7 3.7 3.7s3.7-1.7 3.7-3.7-1.7-3.7-3.7-3.7-3.7 1.6-3.7 3.7zm0 8.5c0 2.1 1.7 3.7 3.7 3.7s3.7-1.7 3.7-3.7-1.7-3.7-3.7-3.7-3.7 1.6-3.7 3.7zm0 8.5c0 2.1 1.7 3.7 3.7 3.7s3.7-1.7 3.7-3.7-1.7-3.7-3.7-3.7-3.7 1.6-3.7 3.7zm0 8.5c0 2.1 1.7 3.7 3.7 3.7s3.7-1.7 3.7-3.7-1.7-3.7-3.7-3.7-3.7 1.7-3.7 3.7zm8.5-144.9c0 2.1 1.7 3.7 3.7 3.7s3.7-1.7 3.7-3.7-1.7-3.7-3.7-3.7-3.7 1.6-3.7 3.7zm0 8.5c0 2.1 1.7 3.7 3.7 3.7s3.7-1.7 3.7-3.7-1.7-3.7-3.7-3.7-3.7 1.6-3.7 3.7zm0 8.5c0 2.1 1.7 3.7 3.7 3.7s3.7-1.7 3.7-3.7-1.7-3.7-3.7-3.7-3.7 1.7-3.7 3.7zm0 8.6c0 2.1 1.7 3.7 3.7 3.7S405 74 405 72s-1.7-3.7-3.7-3.7-3.7 1.6-3.7 3.7zm0 8.5c0 2.1 1.7 3.7 3.7 3.7s3.7-1.7 3.7-3.7-1.7-3.7-3.7-3.7-3.7 1.6-3.7 3.7zm0 8.5c0 2.1 1.7 3.7 3.7 3.7S405 91 405 89s-1.7-3.7-3.7-3.7-3.7 1.6-3.7 3.7zm0 8.5c0 2.1 1.7 3.7 3.7 3.7s3.7-1.7 3.7-3.7-1.7-3.7-3.7-3.7-3.7 1.7-3.7 3.7zm0 8.6c0 2.1 1.7 3.7 3.7 3.7s3.7-1.7 3.7-3.7-1.7-3.7-3.7-3.7-3.7 1.6-3.7 3.7zm0 8.5c0 2.1 1.7 3.7 3.7 3.7s3.7-1.7 3.7-3.7-1.7-3.7-3.7-3.7-3.7 1.6-3.7 3.7zm0 8.5c0 2.1 1.7 3.7 3.7 3.7s3.7-1.7 3.7-3.7-1.7-3.7-3.7-3.7-3.7 1.7-3.7 3.7zm0 8.5c0 2.1 1.7 3.7 3.7 3.7s3.7-1.7 3.7-3.7-1.7-3.7-3.7-3.7-3.7 1.7-3.7 3.7zm0 8.6c0 2.1 1.7 3.7 3.7 3.7s3.7-1.7 3.7-3.7-1.7-3.7-3.7-3.7-3.7 1.6-3.7 3.7zm0 8.5c0 2.1 1.7 3.7 3.7 3.7s3.7-1.7 3.7-3.7-1.7-3.7-3.7-3.7-3.7 1.6-3.7 3.7zm0 8.5c0 2.1 1.7 3.7 3.7 3.7s3.7-1.7 3.7-3.7-1.7-3.7-3.7-3.7-3.7 1.7-3.7 3.7zm0 8.6c0 2.1 1.7 3.7 3.7 3.7s3.7-1.7 3.7-3.7-1.7-3.7-3.7-3.7-3.7 1.6-3.7 3.7zm0 8.5c0 2.1 1.7 3.7 3.7 3.7s3.7-1.7 3.7-3.7-1.7-3.7-3.7-3.7-3.7 1.6-3.7 3.7zm0 25.6c0 2.1 1.7 3.7 3.7 3.7s3.7-1.7 3.7-3.7-1.7-3.7-3.7-3.7-3.7 1.6-3.7 3.7zM406 37.8c0 2.1 1.7 3.7 3.7 3.7s3.7-1.7 3.7-3.7-1.7-3.7-3.7-3.7-3.7 1.7-3.7 3.7zm0 8.6c0 2.1 1.7 3.7 3.7 3.7s3.7-1.7 3.7-3.7-1.7-3.7-3.7-3.7-3.7 1.6-3.7 3.7zm0 8.5c0 2.1 1.7 3.7 3.7 3.7s3.7-1.7 3.7-3.7-1.7-3.7-3.7-3.7-3.7 1.6-3.7 3.7zm0 8.5c0 2.1 1.7 3.7 3.7 3.7s3.7-1.7 3.7-3.7-1.7-3.7-3.7-3.7-3.7 1.7-3.7 3.7zm0 8.6c0 2.1 1.7 3.7 3.7 3.7s3.7-1.7 3.7-3.7-1.7-3.7-3.7-3.7-3.7 1.6-3.7 3.7zm0 8.5c0 2.1 1.7 3.7 3.7 3.7s3.7-1.7 3.7-3.7-1.7-3.7-3.7-3.7-3.7 1.6-3.7 3.7zm0 8.5c0 2.1 1.7 3.7 3.7 3.7s3.7-1.7 3.7-3.7-1.7-3.7-3.7-3.7-3.7 1.6-3.7 3.7zm0 8.5c0 2.1 1.7 3.7 3.7 3.7s3.7-1.7 3.7-3.7-1.7-3.7-3.7-3.7-3.7 1.7-3.7 3.7zm0 8.6c0 2.1 1.7 3.7 3.7 3.7s3.7-1.7 3.7-3.7-1.7-3.7-3.7-3.7-3.7 1.6-3.7 3.7zm0 8.5c0 2.1 1.7 3.7 3.7 3.7s3.7-1.7 3.7-3.7-1.7-3.7-3.7-3.7-3.7 1.6-3.7 3.7zm0 8.5c0 2.1 1.7 3.7 3.7 3.7s3.7-1.7 3.7-3.7-1.7-3.7-3.7-3.7-3.7 1.7-3.7 3.7zm0 8.5c0 2.1 1.7 3.7 3.7 3.7s3.7-1.7 3.7-3.7-1.7-3.7-3.7-3.7-3.7 1.7-3.7 3.7zm0 8.6c0 2.1 1.7 3.7 3.7 3.7s3.7-1.7 3.7-3.7-1.7-3.7-3.7-3.7-3.7 1.6-3.7 3.7zm0 8.5c0 2.1 1.7 3.7 3.7 3.7s3.7-1.7 3.7-3.7-1.7-3.7-3.7-3.7-3.7 1.6-3.7 3.7zm0 8.5c0 2.1 1.7 3.7 3.7 3.7s3.7-1.7 3.7-3.7-1.7-3.7-3.7-3.7-3.7 1.7-3.7 3.7zm0 8.6c0 2.1 1.7 3.7 3.7 3.7s3.7-1.7 3.7-3.7-1.7-3.7-3.7-3.7-3.7 1.6-3.7 3.7zm8.5-145c0 2.1 1.7 3.7 3.7 3.7s3.7-1.7 3.7-3.7-1.7-3.7-3.7-3.7-3.7 1.6-3.7 3.7zm0 17c0 2.1 1.7 3.7 3.7 3.7s3.7-1.7 3.7-3.7-1.7-3.7-3.7-3.7-3.7 1.7-3.7 3.7zm0 8.6c0 2.1 1.7 3.7 3.7 3.7s3.7-1.7 3.7-3.7-1.7-3.7-3.7-3.7-3.7 1.6-3.7 3.7zm0 8.5c0 2.1 1.7 3.7 3.7 3.7s3.7-1.7 3.7-3.7-1.7-3.7-3.7-3.7-3.7 1.6-3.7 3.7zm0 8.5c0 2.1 1.7 3.7 3.7 3.7s3.7-1.7 3.7-3.7-1.7-3.7-3.7-3.7-3.7 1.7-3.7 3.7zm0 8.6c0 2.1 1.7 3.7 3.7 3.7S422 74 422 72s-1.7-3.7-3.7-3.7-3.8 1.6-3.8 3.7zm0 8.5c0 2.1 1.7 3.7 3.7 3.7s3.7-1.7 3.7-3.7-1.7-3.7-3.7-3.7-3.7 1.6-3.7 3.7zm0 8.5c0 2.1 1.7 3.7 3.7 3.7s3.7-1.7 3.7-3.7-1.7-3.7-3.7-3.7-3.7 1.6-3.7 3.7zm0 8.5c0 2.1 1.7 3.7 3.7 3.7s3.7-1.7 3.7-3.7-1.7-3.7-3.7-3.7-3.7 1.7-3.7 3.7zm0 8.6c0 2.1 1.7 3.7 3.7 3.7s3.7-1.7 3.7-3.7-1.7-3.7-3.7-3.7-3.7 1.6-3.7 3.7zm0 8.5c0 2.1 1.7 3.7 3.7 3.7s3.7-1.7 3.7-3.7-1.7-3.7-3.7-3.7-3.7 1.6-3.7 3.7zm0 8.5c0 2.1 1.7 3.7 3.7 3.7s3.7-1.7 3.7-3.7-1.7-3.7-3.7-3.7-3.7 1.7-3.7 3.7zm0 8.5c0 2.1 1.7 3.7 3.7 3.7s3.7-1.7 3.7-3.7-1.7-3.7-3.7-3.7-3.7 1.7-3.7 3.7zm0 8.6c0 2.1 1.7 3.7 3.7 3.7s3.7-1.7 3.7-3.7-1.7-3.7-3.7-3.7-3.7 1.6-3.7 3.7zm0 8.5c0 2.1 1.7 3.7 3.7 3.7s3.7-1.7 3.7-3.7-1.7-3.7-3.7-3.7-3.7 1.6-3.7 3.7zm0 8.5c0 2.1 1.7 3.7 3.7 3.7s3.7-1.7 3.7-3.7-1.7-3.7-3.7-3.7-3.7 1.7-3.7 3.7zm0 8.6c0 2.1 1.7 3.7 3.7 3.7s3.7-1.7 3.7-3.7-1.7-3.7-3.7-3.7-3.7 1.6-3.7 3.7zm0 8.5c0 2.1 1.7 3.7 3.7 3.7s3.7-1.7 3.7-3.7-1.7-3.7-3.7-3.7-3.7 1.6-3.7 3.7zM423 20.8c0 2.1 1.7 3.7 3.7 3.7s3.7-1.7 3.7-3.7-1.7-3.7-3.7-3.7-3.7 1.6-3.7 3.7zm0 8.5c0 2.1 1.7 3.7 3.7 3.7s3.7-1.7 3.7-3.7-1.7-3.7-3.7-3.7-3.7 1.7-3.7 3.7zm0 8.5c0 2.1 1.7 3.7 3.7 3.7s3.7-1.7 3.7-3.7-1.7-3.7-3.7-3.7-3.7 1.7-3.7 3.7zm0 8.6c0 2.1 1.7 3.7 3.7 3.7s3.7-1.7 3.7-3.7-1.7-3.7-3.7-3.7-3.7 1.6-3.7 3.7zm0 8.5c0 2.1 1.7 3.7 3.7 3.7s3.7-1.7 3.7-3.7-1.7-3.7-3.7-3.7-3.7 1.6-3.7 3.7zm0 8.5c0 2.1 1.7 3.7 3.7 3.7s3.7-1.7 3.7-3.7-1.7-3.7-3.7-3.7-3.7 1.7-3.7 3.7zm0 8.6c0 2.1 1.7 3.7 3.7 3.7s3.7-1.7 3.7-3.7-1.7-3.7-3.7-3.7-3.7 1.6-3.7 3.7zm0 8.5c0 2.1 1.7 3.7 3.7 3.7s3.7-1.7 3.7-3.7-1.7-3.7-3.7-3.7-3.7 1.6-3.7 3.7zm0 8.5c0 2.1 1.7 3.7 3.7 3.7s3.7-1.7 3.7-3.7-1.7-3.7-3.7-3.7-3.7 1.6-3.7 3.7zm0 8.5c0 2.1 1.7 3.7 3.7 3.7s3.7-1.7 3.7-3.7-1.7-3.7-3.7-3.7-3.7 1.7-3.7 3.7zm0 8.6c0 2.1 1.7 3.7 3.7 3.7s3.7-1.7 3.7-3.7-1.7-3.7-3.7-3.7-3.7 1.6-3.7 3.7zm0 8.5c0 2.1 1.7 3.7 3.7 3.7s3.7-1.7 3.7-3.7-1.7-3.7-3.7-3.7-3.7 1.6-3.7 3.7zm0 8.5c0 2.1 1.7 3.7 3.7 3.7s3.7-1.7 3.7-3.7-1.7-3.7-3.7-3.7-3.7 1.7-3.7 3.7zm0 8.5c0 2.1 1.7 3.7 3.7 3.7s3.7-1.7 3.7-3.7-1.7-3.7-3.7-3.7-3.7 1.7-3.7 3.7zm0 8.6c0 2.1 1.7 3.7 3.7 3.7s3.7-1.7 3.7-3.7-1.7-3.7-3.7-3.7-3.7 1.6-3.7 3.7zm0 8.5c0 2.1 1.7 3.7 3.7 3.7s3.7-1.7 3.7-3.7-1.7-3.7-3.7-3.7-3.7 1.6-3.7 3.7zm0 8.5c0 2.1 1.7 3.7 3.7 3.7s3.7-1.7 3.7-3.7-1.7-3.7-3.7-3.7-3.7 1.7-3.7 3.7zm0 8.6c0 2.1 1.7 3.7 3.7 3.7s3.7-1.7 3.7-3.7-1.7-3.7-3.7-3.7-3.7 1.6-3.7 3.7zm0 8.5c0 2.1 1.7 3.7 3.7 3.7s3.7-1.7 3.7-3.7-1.7-3.7-3.7-3.7-3.7 1.6-3.7 3.7zm0 8.5c0 2.1 1.7 3.7 3.7 3.7s3.7-1.7 3.7-3.7-1.7-3.7-3.7-3.7-3.7 1.6-3.7 3.7zm0 17.1c0 2.1 1.7 3.7 3.7 3.7s3.7-1.7 3.7-3.7-1.7-3.7-3.7-3.7-3.7 1.6-3.7 3.7zm0 8.5c0 2.1 1.7 3.7 3.7 3.7s3.7-1.7 3.7-3.7-1.7-3.7-3.7-3.7-3.7 1.6-3.7 3.7zm8.4-179.1c0 2.1 1.7 3.7 3.7 3.7s3.7-1.7 3.7-3.7-1.7-3.7-3.7-3.7-3.7 1.7-3.7 3.7zm0 8.5c0 2.1 1.7 3.7 3.7 3.7s3.7-1.7 3.7-3.7-1.7-3.7-3.7-3.7-3.7 1.7-3.7 3.7zm0 8.6c0 2.1 1.7 3.7 3.7 3.7s3.7-1.7 3.7-3.7-1.7-3.7-3.7-3.7-3.7 1.6-3.7 3.7zm0 8.5c0 2.1 1.7 3.7 3.7 3.7s3.7-1.7 3.7-3.7-1.7-3.7-3.7-3.7-3.7 1.6-3.7 3.7zm0 8.5c0 2.1 1.7 3.7 3.7 3.7s3.7-1.7 3.7-3.7-1.7-3.7-3.7-3.7-3.7 1.7-3.7 3.7zm0 8.6c0 2.1 1.7 3.7 3.7 3.7s3.7-1.7 3.7-3.7-1.7-3.7-3.7-3.7-3.7 1.6-3.7 3.7zm0 8.5c0 2.1 1.7 3.7 3.7 3.7s3.7-1.7 3.7-3.7-1.7-3.7-3.7-3.7-3.7 1.6-3.7 3.7zm0 8.5c0 2.1 1.7 3.7 3.7 3.7s3.7-1.7 3.7-3.7-1.7-3.7-3.7-3.7-3.7 1.6-3.7 3.7zm0 8.5c0 2.1 1.7 3.7 3.7 3.7s3.7-1.7 3.7-3.7-1.7-3.7-3.7-3.7-3.7 1.7-3.7 3.7zm0 8.6c0 2.1 1.7 3.7 3.7 3.7s3.7-1.7 3.7-3.7-1.7-3.7-3.7-3.7-3.7 1.6-3.7 3.7zm0 8.5c0 2.1 1.7 3.7 3.7 3.7s3.7-1.7 3.7-3.7-1.7-3.7-3.7-3.7-3.7 1.6-3.7 3.7zm0 8.5c0 2.1 1.7 3.7 3.7 3.7s3.7-1.7 3.7-3.7-1.7-3.7-3.7-3.7-3.7 1.7-3.7 3.7zm0 8.5c0 2.1 1.7 3.7 3.7 3.7s3.7-1.7 3.7-3.7-1.7-3.7-3.7-3.7-3.7 1.7-3.7 3.7zm0 8.6c0 2.1 1.7 3.7 3.7 3.7s3.7-1.7 3.7-3.7-1.7-3.7-3.7-3.7-3.7 1.6-3.7 3.7zm0 8.5c0 2.1 1.7 3.7 3.7 3.7s3.7-1.7 3.7-3.7-1.7-3.7-3.7-3.7-3.7 1.6-3.7 3.7zm0 8.5c0 2.1 1.7 3.7 3.7 3.7s3.7-1.7 3.7-3.7-1.7-3.7-3.7-3.7-3.7 1.7-3.7 3.7zm0 8.6c0 2.1 1.7 3.7 3.7 3.7s3.7-1.7 3.7-3.7-1.7-3.7-3.7-3.7-3.7 1.6-3.7 3.7zm0 8.5c0 2.1 1.7 3.7 3.7 3.7s3.7-1.7 3.7-3.7-1.7-3.7-3.7-3.7-3.7 1.6-3.7 3.7zm0 8.5c0 2.1 1.7 3.7 3.7 3.7s3.7-1.7 3.7-3.7-1.7-3.7-3.7-3.7-3.7 1.6-3.7 3.7zm0 8.5c0 2.1 1.7 3.7 3.7 3.7s3.7-1.7 3.7-3.7-1.7-3.7-3.7-3.7-3.7 1.7-3.7 3.7zm0 17.1c0 2.1 1.7 3.7 3.7 3.7s3.7-1.7 3.7-3.7-1.7-3.7-3.7-3.7-3.7 1.6-3.7 3.7zm0 8.5c0 2.1 1.7 3.7 3.7 3.7s3.7-1.7 3.7-3.7-1.7-3.7-3.7-3.7-3.7 1.7-3.7 3.7zm8.5-179.1c0 2.1 1.7 3.7 3.7 3.7s3.7-1.7 3.7-3.7-1.7-3.7-3.7-3.7-3.7 1.7-3.7 3.7zm0 8.6c0 2.1 1.7 3.7 3.7 3.7s3.7-1.7 3.7-3.7-1.7-3.7-3.7-3.7-3.7 1.6-3.7 3.7zm0 8.5c0 2.1 1.7 3.7 3.7 3.7s3.7-1.7 3.7-3.7-1.7-3.7-3.7-3.7-3.7 1.6-3.7 3.7zm0 8.5c0 2.1 1.7 3.7 3.7 3.7s3.7-1.7 3.7-3.7-1.7-3.7-3.7-3.7-3.7 1.7-3.7 3.7zm0 8.6c0 2.1 1.7 3.7 3.7 3.7s3.7-1.7 3.7-3.7-1.7-3.7-3.7-3.7-3.7 1.6-3.7 3.7zm0 8.5c0 2.1 1.7 3.7 3.7 3.7s3.7-1.7 3.7-3.7-1.7-3.7-3.7-3.7-3.7 1.6-3.7 3.7zm0 8.5c0 2.1 1.7 3.7 3.7 3.7s3.7-1.7 3.7-3.7-1.7-3.7-3.7-3.7-3.7 1.6-3.7 3.7zm0 8.5c0 2.1 1.7 3.7 3.7 3.7s3.7-1.7 3.7-3.7-1.7-3.7-3.7-3.7-3.7 1.7-3.7 3.7zm0 8.6c0 2.1 1.7 3.7 3.7 3.7s3.7-1.7 3.7-3.7-1.7-3.7-3.7-3.7-3.7 1.6-3.7 3.7zm0 8.5c0 2.1 1.7 3.7 3.7 3.7s3.7-1.7 3.7-3.7-1.7-3.7-3.7-3.7-3.7 1.6-3.7 3.7zm0 8.5c0 2.1 1.7 3.7 3.7 3.7s3.7-1.7 3.7-3.7-1.7-3.7-3.7-3.7-3.7 1.7-3.7 3.7zm0 8.5c0 2.1 1.7 3.7 3.7 3.7s3.7-1.7 3.7-3.7-1.7-3.7-3.7-3.7-3.7 1.7-3.7 3.7zm0 8.6c0 2.1 1.7 3.7 3.7 3.7s3.7-1.7 3.7-3.7-1.7-3.7-3.7-3.7-3.7 1.6-3.7 3.7zm0 8.5c0 2.1 1.7 3.7 3.7 3.7s3.7-1.7 3.7-3.7-1.7-3.7-3.7-3.7-3.7 1.6-3.7 3.7zm0 8.5c0 2.1 1.7 3.7 3.7 3.7s3.7-1.7 3.7-3.7-1.7-3.7-3.7-3.7-3.7 1.7-3.7 3.7zm0 8.6c0 2.1 1.7 3.7 3.7 3.7s3.7-1.7 3.7-3.7-1.7-3.7-3.7-3.7-3.7 1.6-3.7 3.7zm0 17c0 2.1 1.7 3.7 3.7 3.7s3.7-1.7 3.7-3.7-1.7-3.7-3.7-3.7-3.7 1.6-3.7 3.7zm0 25.6c0 2.1 1.7 3.7 3.7 3.7s3.7-1.7 3.7-3.7-1.7-3.7-3.7-3.7-3.7 1.6-3.7 3.7zm0 8.5c0 2.1 1.7 3.7 3.7 3.7s3.7-1.7 3.7-3.7-1.7-3.7-3.7-3.7-3.7 1.7-3.7 3.7zm8.4-179.1c0 2.1 1.7 3.7 3.7 3.7s3.7-1.7 3.7-3.7-1.7-3.7-3.7-3.7-3.7 1.7-3.7 3.7zm0 8.6c0 2.1 1.7 3.7 3.7 3.7s3.7-1.7 3.7-3.7-1.7-3.7-3.7-3.7-3.7 1.6-3.7 3.7zm0 8.5c0 2.1 1.7 3.7 3.7 3.7s3.7-1.7 3.7-3.7-1.7-3.7-3.7-3.7-3.7 1.6-3.7 3.7zm0 8.5c0 2.1 1.7 3.7 3.7 3.7s3.7-1.7 3.7-3.7-1.7-3.7-3.7-3.7-3.7 1.7-3.7 3.7zm0 8.6c0 2.1 1.7 3.7 3.7 3.7s3.7-1.7 3.7-3.7-1.7-3.7-3.7-3.7-3.7 1.6-3.7 3.7zm0 8.5c0 2.1 1.7 3.7 3.7 3.7s3.7-1.7 3.7-3.7-1.7-3.7-3.7-3.7-3.7 1.6-3.7 3.7zm0 8.5c0 2.1 1.7 3.7 3.7 3.7s3.7-1.7 3.7-3.7-1.7-3.7-3.7-3.7-3.7 1.6-3.7 3.7zm0 8.5c0 2.1 1.7 3.7 3.7 3.7s3.7-1.7 3.7-3.7-1.7-3.7-3.7-3.7-3.7 1.7-3.7 3.7zm0 8.6c0 2.1 1.7 3.7 3.7 3.7s3.7-1.7 3.7-3.7-1.7-3.7-3.7-3.7-3.7 1.6-3.7 3.7zm0 8.5c0 2.1 1.7 3.7 3.7 3.7s3.7-1.7 3.7-3.7-1.7-3.7-3.7-3.7-3.7 1.6-3.7 3.7zm0 8.5c0 2.1 1.7 3.7 3.7 3.7s3.7-1.7 3.7-3.7-1.7-3.7-3.7-3.7-3.7 1.7-3.7 3.7zm0 8.5c0 2.1 1.7 3.7 3.7 3.7s3.7-1.7 3.7-3.7-1.7-3.7-3.7-3.7-3.7 1.7-3.7 3.7zm0 8.6c0 2.1 1.7 3.7 3.7 3.7s3.7-1.7 3.7-3.7-1.7-3.7-3.7-3.7-3.7 1.6-3.7 3.7zm0 8.5c0 2.1 1.7 3.7 3.7 3.7s3.7-1.7 3.7-3.7-1.7-3.7-3.7-3.7-3.7 1.6-3.7 3.7zm0 8.5c0 2.1 1.7 3.7 3.7 3.7s3.7-1.7 3.7-3.7-1.7-3.7-3.7-3.7-3.7 1.7-3.7 3.7zm0 8.6c0 2.1 1.7 3.7 3.7 3.7s3.7-1.7 3.7-3.7-1.7-3.7-3.7-3.7-3.7 1.6-3.7 3.7zm0 34.1c0 2.1 1.7 3.7 3.7 3.7s3.7-1.7 3.7-3.7-1.7-3.7-3.7-3.7-3.7 1.6-3.7 3.7zm0 8.5c0 2.1 1.7 3.7 3.7 3.7s3.7-1.7 3.7-3.7-1.7-3.7-3.7-3.7-3.7 1.6-3.7 3.7zm0 17c0 2.1 1.7 3.7 3.7 3.7s3.7-1.7 3.7-3.7-1.7-3.7-3.7-3.7-3.7 1.7-3.7 3.7zm0 25.6c0 2.1 1.7 3.7 3.7 3.7s3.7-1.7 3.7-3.7-1.7-3.7-3.7-3.7-3.7 1.7-3.7 3.7zm0 8.6c0 2.1 1.7 3.7 3.7 3.7s3.7-1.7 3.7-3.7-1.7-3.7-3.7-3.7-3.7 1.6-3.7 3.7zm0 8.5c0 2.1 1.7 3.7 3.7 3.7s3.7-1.7 3.7-3.7-1.7-3.7-3.7-3.7-3.7 1.6-3.7 3.7zm8.5-221.7c0 2.1 1.7 3.7 3.7 3.7s3.7-1.7 3.7-3.7-1.7-3.7-3.7-3.7-3.7 1.6-3.7 3.7zm0 8.5c0 2.1 1.7 3.7 3.7 3.7s3.7-1.7 3.7-3.7-1.7-3.7-3.7-3.7-3.7 1.6-3.7 3.7zm0 8.5c0 2.1 1.7 3.7 3.7 3.7s3.7-1.7 3.7-3.7-1.7-3.7-3.7-3.7-3.7 1.7-3.7 3.7zm0 8.6c0 2.1 1.7 3.7 3.7 3.7s3.7-1.7 3.7-3.7-1.7-3.7-3.7-3.7-3.7 1.6-3.7 3.7zm0 8.5c0 2.1 1.7 3.7 3.7 3.7s3.7-1.7 3.7-3.7-1.7-3.7-3.7-3.7-3.7 1.6-3.7 3.7zm0 8.5c0 2.1 1.7 3.7 3.7 3.7s3.7-1.7 3.7-3.7-1.7-3.7-3.7-3.7-3.7 1.6-3.7 3.7zm0 8.5c0 2.1 1.7 3.7 3.7 3.7s3.7-1.7 3.7-3.7-1.7-3.7-3.7-3.7-3.7 1.7-3.7 3.7zm0 8.6c0 2.1 1.7 3.7 3.7 3.7s3.7-1.7 3.7-3.7-1.7-3.7-3.7-3.7-3.7 1.6-3.7 3.7zm0 8.5c0 2.1 1.7 3.7 3.7 3.7s3.7-1.7 3.7-3.7-1.7-3.7-3.7-3.7-3.7 1.6-3.7 3.7zm0 8.5c0 2.1 1.7 3.7 3.7 3.7s3.7-1.7 3.7-3.7-1.7-3.7-3.7-3.7-3.7 1.7-3.7 3.7zm0 8.5c0 2.1 1.7 3.7 3.7 3.7s3.7-1.7 3.7-3.7-1.7-3.7-3.7-3.7-3.7 1.7-3.7 3.7zm0 8.6c0 2.1 1.7 3.7 3.7 3.7s3.7-1.7 3.7-3.7-1.7-3.7-3.7-3.7-3.7 1.6-3.7 3.7zm0 8.5c0 2.1 1.7 3.7 3.7 3.7s3.7-1.7 3.7-3.7-1.7-3.7-3.7-3.7-3.7 1.6-3.7 3.7zm0 8.5c0 2.1 1.7 3.7 3.7 3.7s3.7-1.7 3.7-3.7-1.7-3.7-3.7-3.7-3.7 1.7-3.7 3.7zm0 8.6c0 2.1 1.7 3.7 3.7 3.7s3.7-1.7 3.7-3.7-1.7-3.7-3.7-3.7-3.7 1.6-3.7 3.7zm0 8.5c0 2.1 1.7 3.7 3.7 3.7s3.7-1.7 3.7-3.7-1.7-3.7-3.7-3.7-3.7 1.6-3.7 3.7zm0 8.5c0 2.1 1.7 3.7 3.7 3.7s3.7-1.7 3.7-3.7-1.7-3.7-3.7-3.7-3.7 1.6-3.7 3.7zm0 8.5c0 2.1 1.7 3.7 3.7 3.7s3.7-1.7 3.7-3.7-1.7-3.7-3.7-3.7-3.7 1.7-3.7 3.7zm0 17.1c0 2.1 1.7 3.7 3.7 3.7s3.7-1.7 3.7-3.7-1.7-3.7-3.7-3.7-3.7 1.6-3.7 3.7zm0 8.5c0 2.1 1.7 3.7 3.7 3.7s3.7-1.7 3.7-3.7-1.7-3.7-3.7-3.7-3.7 1.7-3.7 3.7zm0 25.6c0 2.1 1.7 3.7 3.7 3.7s3.7-1.7 3.7-3.7-1.7-3.7-3.7-3.7-3.7 1.6-3.7 3.7zm0 8.5c0 2.1 1.7 3.7 3.7 3.7s3.7-1.7 3.7-3.7-1.7-3.7-3.7-3.7-3.7 1.7-3.7 3.7zm0 8.6c0 2.1 1.7 3.7 3.7 3.7s3.7-1.7 3.7-3.7-1.7-3.7-3.7-3.7-3.7 1.6-3.7 3.7zm0 8.5c0 2.1 1.7 3.7 3.7 3.7s3.7-1.7 3.7-3.7-1.7-3.7-3.7-3.7-3.7 1.6-3.7 3.7zm8.4-221.7c0 2.1 1.7 3.7 3.7 3.7s3.7-1.7 3.7-3.7-1.7-3.7-3.7-3.7-3.7 1.6-3.7 3.7zm0 8.5c0 2.1 1.7 3.7 3.7 3.7s3.7-1.7 3.7-3.7-1.7-3.7-3.7-3.7-3.7 1.6-3.7 3.7zm0 8.5c0 2.1 1.7 3.7 3.7 3.7s3.7-1.7 3.7-3.7-1.7-3.7-3.7-3.7-3.7 1.7-3.7 3.7zm0 8.6c0 2.1 1.7 3.7 3.7 3.7s3.7-1.7 3.7-3.7-1.7-3.7-3.7-3.7-3.7 1.6-3.7 3.7zm0 8.5c0 2.1 1.7 3.7 3.7 3.7s3.7-1.7 3.7-3.7-1.7-3.7-3.7-3.7-3.7 1.6-3.7 3.7zm0 8.5c0 2.1 1.7 3.7 3.7 3.7s3.7-1.7 3.7-3.7-1.7-3.7-3.7-3.7-3.7 1.6-3.7 3.7zm0 8.5c0 2.1 1.7 3.7 3.7 3.7s3.7-1.7 3.7-3.7-1.7-3.7-3.7-3.7-3.7 1.7-3.7 3.7zm0 8.6c0 2.1 1.7 3.7 3.7 3.7s3.7-1.7 3.7-3.7-1.7-3.7-3.7-3.7-3.7 1.6-3.7 3.7zm0 8.5c0 2.1 1.7 3.7 3.7 3.7s3.7-1.7 3.7-3.7-1.7-3.7-3.7-3.7-3.7 1.6-3.7 3.7zm0 8.5c0 2.1 1.7 3.7 3.7 3.7s3.7-1.7 3.7-3.7-1.7-3.7-3.7-3.7-3.7 1.7-3.7 3.7zm0 8.5c0 2.1 1.7 3.7 3.7 3.7s3.7-1.7 3.7-3.7-1.7-3.7-3.7-3.7-3.7 1.7-3.7 3.7zm0 8.6c0 2.1 1.7 3.7 3.7 3.7s3.7-1.7 3.7-3.7-1.7-3.7-3.7-3.7-3.7 1.6-3.7 3.7zm0 42.6c0 2.1 1.7 3.7 3.7 3.7s3.7-1.7 3.7-3.7-1.7-3.7-3.7-3.7-3.7 1.6-3.7 3.7zm0 8.5c0 2.1 1.7 3.7 3.7 3.7s3.7-1.7 3.7-3.7-1.7-3.7-3.7-3.7-3.7 1.7-3.7 3.7zm0 8.6c0 2.1 1.7 3.7 3.7 3.7s3.7-1.7 3.7-3.7-1.7-3.7-3.7-3.7-3.7 1.6-3.7 3.7zm0 8.5c0 2.1 1.7 3.7 3.7 3.7s3.7-1.7 3.7-3.7-1.7-3.7-3.7-3.7-3.7 1.6-3.7 3.7zm0 25.6c0 2.1 1.7 3.7 3.7 3.7s3.7-1.7 3.7-3.7-1.7-3.7-3.7-3.7-3.7 1.6-3.7 3.7zm0 8.5c0 2.1 1.7 3.7 3.7 3.7s3.7-1.7 3.7-3.7-1.7-3.7-3.7-3.7-3.7 1.6-3.7 3.7zm0 8.5c0 2.1 1.7 3.7 3.7 3.7s3.7-1.7 3.7-3.7-1.7-3.7-3.7-3.7-3.7 1.7-3.7 3.7zm0 8.6c0 2.1 1.7 3.7 3.7 3.7s3.7-1.7 3.7-3.7-1.7-3.7-3.7-3.7-3.7 1.6-3.7 3.7zm0 8.5c0 2.1 1.7 3.7 3.7 3.7s3.7-1.7 3.7-3.7-1.7-3.7-3.7-3.7-3.7 1.6-3.7 3.7zm8.5-213.2c0 2.1 1.7 3.7 3.7 3.7s3.7-1.7 3.7-3.7-1.7-3.7-3.7-3.7-3.7 1.6-3.7 3.7zm0 8.5c0 2.1 1.7 3.7 3.7 3.7s3.7-1.7 3.7-3.7-1.7-3.7-3.7-3.7-3.7 1.7-3.7 3.7zm0 8.6c0 2.1 1.7 3.7 3.7 3.7s3.7-1.7 3.7-3.7-1.7-3.7-3.7-3.7-3.7 1.6-3.7 3.7zm0 8.5c0 2.1 1.7 3.7 3.7 3.7s3.7-1.7 3.7-3.7-1.7-3.7-3.7-3.7-3.7 1.6-3.7 3.7zm0 8.5c0 2.1 1.7 3.7 3.7 3.7s3.7-1.7 3.7-3.7-1.7-3.7-3.7-3.7-3.7 1.6-3.7 3.7zm0 8.5c0 2.1 1.7 3.7 3.7 3.7s3.7-1.7 3.7-3.7-1.7-3.7-3.7-3.7-3.7 1.7-3.7 3.7zm0 8.6c0 2.1 1.7 3.7 3.7 3.7s3.7-1.7 3.7-3.7-1.7-3.7-3.7-3.7-3.7 1.6-3.7 3.7zm0 8.5c0 2.1 1.7 3.7 3.7 3.7s3.7-1.7 3.7-3.7-1.7-3.7-3.7-3.7-3.7 1.6-3.7 3.7zm0 8.5c0 2.1 1.7 3.7 3.7 3.7s3.7-1.7 3.7-3.7-1.7-3.7-3.7-3.7-3.7 1.7-3.7 3.7zm0 17.1c0 2.1 1.7 3.7 3.7 3.7s3.7-1.7 3.7-3.7-1.7-3.7-3.7-3.7-3.7 1.6-3.7 3.7zm0 8.5c0 2.1 1.7 3.7 3.7 3.7s3.7-1.7 3.7-3.7-1.7-3.7-3.7-3.7-3.7 1.6-3.7 3.7zm0 59.7c0 2.1 1.7 3.7 3.7 3.7s3.7-1.7 3.7-3.7-1.7-3.7-3.7-3.7-3.7 1.6-3.7 3.7zm0 17c0 2.1 1.7 3.7 3.7 3.7s3.7-1.7 3.7-3.7-1.7-3.7-3.7-3.7-3.7 1.7-3.7 3.7zm0 8.6c0 2.1 1.7 3.7 3.7 3.7s3.7-1.7 3.7-3.7-1.7-3.7-3.7-3.7-3.7 1.6-3.7 3.7zm0 8.5c0 2.1 1.7 3.7 3.7 3.7s3.7-1.7 3.7-3.7-1.7-3.7-3.7-3.7-3.7 1.6-3.7 3.7zm0 8.5c0 2.1 1.7 3.7 3.7 3.7s3.7-1.7 3.7-3.7-1.7-3.7-3.7-3.7-3.7 1.7-3.7 3.7zm0 8.6c0 2.1 1.7 3.7 3.7 3.7s3.7-1.7 3.7-3.7-1.7-3.7-3.7-3.7-3.7 1.6-3.7 3.7zm0 8.5c0 2.1 1.7 3.7 3.7 3.7s3.7-1.7 3.7-3.7-1.7-3.7-3.7-3.7-3.7 1.6-3.7 3.7zm8.5-230.3c0 2.1 1.7 3.7 3.7 3.7s3.7-1.7 3.7-3.7-1.7-3.7-3.7-3.7-3.7 1.7-3.7 3.7zm0 17.1c0 2.1 1.7 3.7 3.7 3.7s3.7-1.7 3.7-3.7-1.7-3.7-3.7-3.7-3.7 1.6-3.7 3.7zm0 8.5c0 2.1 1.7 3.7 3.7 3.7s3.7-1.7 3.7-3.7-1.7-3.7-3.7-3.7-3.7 1.7-3.7 3.7zm0 8.6c0 2.1 1.7 3.7 3.7 3.7s3.7-1.7 3.7-3.7-1.7-3.7-3.7-3.7-3.7 1.6-3.7 3.7zm0 8.5c0 2.1 1.7 3.7 3.7 3.7s3.7-1.7 3.7-3.7-1.7-3.7-3.7-3.7-3.7 1.6-3.7 3.7zm0 8.5c0 2.1 1.7 3.7 3.7 3.7s3.7-1.7 3.7-3.7-1.7-3.7-3.7-3.7-3.7 1.6-3.7 3.7zm0 8.5c0 2.1 1.7 3.7 3.7 3.7s3.7-1.7 3.7-3.7-1.7-3.7-3.7-3.7-3.7 1.7-3.7 3.7zm0 8.6c0 2.1 1.7 3.7 3.7 3.7s3.7-1.7 3.7-3.7-1.7-3.7-3.7-3.7-3.7 1.6-3.7 3.7zm0 8.5c0 2.1 1.7 3.7 3.7 3.7s3.7-1.7 3.7-3.7-1.7-3.7-3.7-3.7-3.7 1.6-3.7 3.7zm0 8.5c0 2.1 1.7 3.7 3.7 3.7s3.7-1.7 3.7-3.7-1.7-3.7-3.7-3.7-3.7 1.7-3.7 3.7zm0 17.1c0 2.1 1.7 3.7 3.7 3.7s3.7-1.7 3.7-3.7-1.7-3.7-3.7-3.7-3.7 1.6-3.7 3.7zm0 68.2c0 2.1 1.7 3.7 3.7 3.7s3.7-1.7 3.7-3.7-1.7-3.7-3.7-3.7-3.7 1.6-3.7 3.7zm0 8.5c0 2.1 1.7 3.7 3.7 3.7s3.7-1.7 3.7-3.7-1.7-3.7-3.7-3.7-3.7 1.7-3.7 3.7zm0 17.1c0 2.1 1.7 3.7 3.7 3.7s3.7-1.7 3.7-3.7-1.7-3.7-3.7-3.7-3.7 1.6-3.7 3.7zm0 8.5c0 2.1 1.7 3.7 3.7 3.7s3.7-1.7 3.7-3.7-1.7-3.7-3.7-3.7-3.7 1.6-3.7 3.7zm0 8.5c0 2.1 1.7 3.7 3.7 3.7s3.7-1.7 3.7-3.7-1.7-3.7-3.7-3.7-3.7 1.7-3.7 3.7zm0 8.6c0 2.1 1.7 3.7 3.7 3.7s3.7-1.7 3.7-3.7-1.7-3.7-3.7-3.7-3.7 1.6-3.7 3.7zm0 8.5c0 2.1 1.7 3.7 3.7 3.7s3.7-1.7 3.7-3.7-1.7-3.7-3.7-3.7-3.7 1.6-3.7 3.7zm8.4-230.3c0 2.1 1.7 3.7 3.7 3.7s3.7-1.7 3.7-3.7-1.7-3.7-3.7-3.7-3.7 1.7-3.7 3.7zm0 8.6c0 2.1 1.7 3.7 3.7 3.7s3.7-1.7 3.7-3.7-1.7-3.7-3.7-3.7-3.7 1.6-3.7 3.7zm0 8.5c0 2.1 1.7 3.7 3.7 3.7s3.7-1.7 3.7-3.7-1.7-3.7-3.7-3.7-3.7 1.6-3.7 3.7zm0 8.5c0 2.1 1.7 3.7 3.7 3.7s3.7-1.7 3.7-3.7-1.7-3.7-3.7-3.7-3.7 1.7-3.7 3.7zm0 8.6c0 2.1 1.7 3.7 3.7 3.7S498 74 498 72s-1.7-3.7-3.7-3.7-3.7 1.6-3.7 3.7zm0 8.5c0 2.1 1.7 3.7 3.7 3.7s3.7-1.7 3.7-3.7-1.7-3.7-3.7-3.7-3.7 1.6-3.7 3.7zm0 8.5c0 2.1 1.7 3.7 3.7 3.7S498 91 498 89s-1.7-3.7-3.7-3.7-3.7 1.6-3.7 3.7zm0 8.5c0 2.1 1.7 3.7 3.7 3.7s3.7-1.7 3.7-3.7-1.7-3.7-3.7-3.7-3.7 1.7-3.7 3.7zm0 8.6c0 2.1 1.7 3.7 3.7 3.7s3.7-1.7 3.7-3.7-1.7-3.7-3.7-3.7-3.7 1.6-3.7 3.7zm0 8.5c0 2.1 1.7 3.7 3.7 3.7s3.7-1.7 3.7-3.7-1.7-3.7-3.7-3.7-3.7 1.6-3.7 3.7zm0 8.5c0 2.1 1.7 3.7 3.7 3.7s3.7-1.7 3.7-3.7-1.7-3.7-3.7-3.7-3.7 1.7-3.7 3.7zm0 8.5c0 2.1 1.7 3.7 3.7 3.7s3.7-1.7 3.7-3.7-1.7-3.7-3.7-3.7-3.7 1.7-3.7 3.7zm0 8.6c0 2.1 1.7 3.7 3.7 3.7s3.7-1.7 3.7-3.7-1.7-3.7-3.7-3.7-3.7 1.6-3.7 3.7zm0 76.7c0 2.1 1.7 3.7 3.7 3.7s3.7-1.7 3.7-3.7-1.7-3.7-3.7-3.7-3.7 1.7-3.7 3.7zm0 8.5c0 2.1 1.7 3.7 3.7 3.7s3.7-1.7 3.7-3.7-1.7-3.7-3.7-3.7-3.7 1.7-3.7 3.7zm0 8.6c0 2.1 1.7 3.7 3.7 3.7s3.7-1.7 3.7-3.7-1.7-3.7-3.7-3.7-3.7 1.6-3.7 3.7zm0 8.5c0 2.1 1.7 3.7 3.7 3.7s3.7-1.7 3.7-3.7-1.7-3.7-3.7-3.7-3.7 1.6-3.7 3.7zm0 8.5c0 2.1 1.7 3.7 3.7 3.7s3.7-1.7 3.7-3.7-1.7-3.7-3.7-3.7-3.7 1.7-3.7 3.7zm0 8.6c0 2.1 1.7 3.7 3.7 3.7s3.7-1.7 3.7-3.7-1.7-3.7-3.7-3.7-3.7 1.6-3.7 3.7zm0 8.5c0 2.1 1.7 3.7 3.7 3.7s3.7-1.7 3.7-3.7-1.7-3.7-3.7-3.7-3.7 1.6-3.7 3.7zm0 8.5c0 2.1 1.7 3.7 3.7 3.7s3.7-1.7 3.7-3.7-1.7-3.7-3.7-3.7-3.7 1.6-3.7 3.7zm8.5-238.8c0 2.1 1.7 3.7 3.7 3.7s3.7-1.7 3.7-3.7-1.7-3.7-3.7-3.7-3.7 1.7-3.7 3.7zm0 17.1c0 2.1 1.7 3.7 3.7 3.7s3.7-1.7 3.7-3.7-1.7-3.7-3.7-3.7-3.7 1.6-3.7 3.7zm0 8.5c0 2.1 1.7 3.7 3.7 3.7s3.7-1.7 3.7-3.7-1.7-3.7-3.7-3.7-3.7 1.7-3.7 3.7zm0 8.6c0 2.1 1.7 3.7 3.7 3.7s3.7-1.7 3.7-3.7-1.7-3.7-3.7-3.7-3.7 1.6-3.7 3.7zm0 8.5c0 2.1 1.7 3.7 3.7 3.7s3.7-1.7 3.7-3.7-1.7-3.7-3.7-3.7-3.7 1.6-3.7 3.7zm0 8.5c0 2.1 1.7 3.7 3.7 3.7s3.7-1.7 3.7-3.7-1.7-3.7-3.7-3.7-3.7 1.6-3.7 3.7zm0 34.1c0 2.1 1.7 3.7 3.7 3.7s3.7-1.7 3.7-3.7-1.7-3.7-3.7-3.7-3.7 1.7-3.7 3.7zm0 93.8c0 2.1 1.7 3.7 3.7 3.7s3.7-1.7 3.7-3.7-1.7-3.7-3.7-3.7-3.7 1.7-3.7 3.7zm0 8.5c0 2.1 1.7 3.7 3.7 3.7s3.7-1.7 3.7-3.7-1.7-3.7-3.7-3.7-3.7 1.7-3.7 3.7zm0 17.1c0 2.1 1.7 3.7 3.7 3.7s3.7-1.7 3.7-3.7-1.7-3.7-3.7-3.7-3.7 1.6-3.7 3.7zm0 8.5c0 2.1 1.7 3.7 3.7 3.7s3.7-1.7 3.7-3.7-1.7-3.7-3.7-3.7-3.7 1.7-3.7 3.7zm0 8.6c0 2.1 1.7 3.7 3.7 3.7s3.7-1.7 3.7-3.7-1.7-3.7-3.7-3.7-3.7 1.6-3.7 3.7zm0 8.5c0 2.1 1.7 3.7 3.7 3.7s3.7-1.7 3.7-3.7-1.7-3.7-3.7-3.7-3.7 1.6-3.7 3.7zm0 8.5c0 2.1 1.7 3.7 3.7 3.7s3.7-1.7 3.7-3.7-1.7-3.7-3.7-3.7-3.7 1.6-3.7 3.7zm0 17.1c0 2.1 1.7 3.7 3.7 3.7s3.7-1.7 3.7-3.7-1.7-3.7-3.7-3.7-3.7 1.6-3.7 3.7zm8.4-238.8c0 2.1 1.7 3.7 3.7 3.7 2.1 0 3.7-1.7 3.7-3.7s-1.7-3.7-3.7-3.7-3.7 1.6-3.7 3.7zm0 8.5c0 2.1 1.7 3.7 3.7 3.7 2.1 0 3.7-1.7 3.7-3.7s-1.7-3.7-3.7-3.7-3.7 1.7-3.7 3.7zm0 8.6c0 2.1 1.7 3.7 3.7 3.7 2.1 0 3.7-1.7 3.7-3.7s-1.7-3.7-3.7-3.7c-2-.1-3.7 1.6-3.7 3.7zm0 8.5c0 2.1 1.7 3.7 3.7 3.7 2.1 0 3.7-1.7 3.7-3.7s-1.7-3.7-3.7-3.7-3.7 1.6-3.7 3.7zm0 136.4c0 2.1 1.7 3.7 3.7 3.7 2.1 0 3.7-1.7 3.7-3.7s-1.7-3.7-3.7-3.7-3.7 1.7-3.7 3.7zm0 34.1c0 2.1 1.7 3.7 3.7 3.7 2.1 0 3.7-1.7 3.7-3.7s-1.7-3.7-3.7-3.7-3.7 1.7-3.7 3.7zm0 8.6c0 2.1 1.7 3.7 3.7 3.7 2.1 0 3.7-1.7 3.7-3.7s-1.7-3.7-3.7-3.7c-2-.1-3.7 1.6-3.7 3.7zm0 8.5c0 2.1 1.7 3.7 3.7 3.7 2.1 0 3.7-1.7 3.7-3.7s-1.7-3.7-3.7-3.7-3.7 1.6-3.7 3.7zm0 8.5c0 2.1 1.7 3.7 3.7 3.7 2.1 0 3.7-1.7 3.7-3.7s-1.7-3.7-3.7-3.7-3.7 1.6-3.7 3.7zM516 54.9c0 2.1 1.7 3.7 3.7 3.7s3.7-1.7 3.7-3.7-1.7-3.7-3.7-3.7-3.7 1.6-3.7 3.7zm0 8.5c0 2.1 1.7 3.7 3.7 3.7s3.7-1.7 3.7-3.7-1.7-3.7-3.7-3.7-3.7 1.7-3.7 3.7zm0 8.6c0 2.1 1.7 3.7 3.7 3.7s3.7-1.7 3.7-3.7-1.7-3.7-3.7-3.7-3.7 1.6-3.7 3.7zm0 8.5c0 2.1 1.7 3.7 3.7 3.7s3.7-1.7 3.7-3.7-1.7-3.7-3.7-3.7-3.7 1.6-3.7 3.7zm0 8.5c0 2.1 1.7 3.7 3.7 3.7s3.7-1.7 3.7-3.7-1.7-3.7-3.7-3.7-3.7 1.6-3.7 3.7zm0 8.5c0 2.1 1.7 3.7 3.7 3.7s3.7-1.7 3.7-3.7-1.7-3.7-3.7-3.7-3.7 1.7-3.7 3.7zm0 8.6c0 2.1 1.7 3.7 3.7 3.7s3.7-1.7 3.7-3.7-1.7-3.7-3.7-3.7-3.7 1.6-3.7 3.7zm0 8.5c0 2.1 1.7 3.7 3.7 3.7s3.7-1.7 3.7-3.7-1.7-3.7-3.7-3.7-3.7 1.6-3.7 3.7zm0 102.3c0 2.1 1.7 3.7 3.7 3.7s3.7-1.7 3.7-3.7-1.7-3.7-3.7-3.7-3.7 1.7-3.7 3.7zm8.5-153.5c0 2.1 1.7 3.7 3.7 3.7s3.7-1.7 3.7-3.7-1.7-3.7-3.7-3.7-3.7 1.7-3.7 3.7zm0 8.6c0 2.1 1.7 3.7 3.7 3.7s3.7-1.7 3.7-3.7-1.7-3.7-3.7-3.7-3.7 1.6-3.7 3.7zm0 8.5c0 2.1 1.7 3.7 3.7 3.7s3.7-1.7 3.7-3.7-1.7-3.7-3.7-3.7-3.7 1.6-3.7 3.7zm0 8.5c0 2.1 1.7 3.7 3.7 3.7s3.7-1.7 3.7-3.7-1.7-3.7-3.7-3.7-3.7 1.6-3.7 3.7zm0 8.5c0 2.1 1.7 3.7 3.7 3.7s3.7-1.7 3.7-3.7-1.7-3.7-3.7-3.7-3.7 1.7-3.7 3.7zm0 127.9c0 2.1 1.7 3.7 3.7 3.7s3.7-1.7 3.7-3.7-1.7-3.7-3.7-3.7-3.7 1.7-3.7 3.7zm8.4-170.5c0 2.1 1.7 3.7 3.7 3.7s3.7-1.7 3.7-3.7-1.7-3.7-3.7-3.7-3.7 1.6-3.7 3.7zm0 8.5c0 2.1 1.7 3.7 3.7 3.7s3.7-1.7 3.7-3.7-1.7-3.7-3.7-3.7-3.7 1.7-3.7 3.7zm0 8.6c0 2.1 1.7 3.7 3.7 3.7s3.7-1.7 3.7-3.7-1.7-3.7-3.7-3.7-3.7 1.6-3.7 3.7zm0 8.5c0 2.1 1.7 3.7 3.7 3.7s3.7-1.7 3.7-3.7-1.7-3.7-3.7-3.7-3.7 1.6-3.7 3.7zm0 213.2c0 2.1 1.7 3.7 3.7 3.7s3.7-1.7 3.7-3.7-1.7-3.7-3.7-3.7-3.7 1.6-3.7 3.7zm8.5-238.8c0 2.1 1.7 3.7 3.7 3.7s3.7-1.7 3.7-3.7-1.7-3.7-3.7-3.7-3.7 1.6-3.7 3.7zm0 8.5c0 2.1 1.7 3.7 3.7 3.7s3.7-1.7 3.7-3.7-1.7-3.7-3.7-3.7-3.7 1.7-3.7 3.7zm0 8.6c0 2.1 1.7 3.7 3.7 3.7s3.7-1.7 3.7-3.7-1.7-3.7-3.7-3.7-3.7 1.6-3.7 3.7zm0 8.5c0 2.1 1.7 3.7 3.7 3.7s3.7-1.7 3.7-3.7-1.7-3.7-3.7-3.7-3.7 1.6-3.7 3.7zm0 196.1c0 2.1 1.7 3.7 3.7 3.7s3.7-1.7 3.7-3.7-1.7-3.7-3.7-3.7-3.7 1.6-3.7 3.7zm0 8.5c0 2.1 1.7 3.7 3.7 3.7s3.7-1.7 3.7-3.7-1.7-3.7-3.7-3.7-3.7 1.7-3.7 3.7zm8.4-230.2c0 2.1 1.7 3.7 3.7 3.7s3.7-1.7 3.7-3.7-1.7-3.7-3.7-3.7-3.7 1.6-3.7 3.7zm0 8.5c0 2.1 1.7 3.7 3.7 3.7s3.7-1.7 3.7-3.7-1.7-3.7-3.7-3.7-3.7 1.7-3.7 3.7zm0 8.6c0 2.1 1.7 3.7 3.7 3.7s3.7-1.7 3.7-3.7-1.7-3.7-3.7-3.7-3.7 1.6-3.7 3.7zm0 204.6c0 2.1 1.7 3.7 3.7 3.7s3.7-1.7 3.7-3.7-1.7-3.7-3.7-3.7-3.7 1.6-3.7 3.7zm8.5-213.2c0 2.1 1.7 3.7 3.7 3.7s3.7-1.7 3.7-3.7-1.7-3.7-3.7-3.7-3.7 1.7-3.7 3.7zm0 8.6c0 2.1 1.7 3.7 3.7 3.7s3.7-1.7 3.7-3.7-1.7-3.7-3.7-3.7-3.7 1.6-3.7 3.7zm8.5 0c0 2.1 1.7 3.7 3.7 3.7s3.7-1.7 3.7-3.7-1.7-3.7-3.7-3.7-3.7 1.6-3.7 3.7zm0 8.5c0 2.1 1.7 3.7 3.7 3.7s3.7-1.7 3.7-3.7-1.7-3.7-3.7-3.7-3.7 1.6-3.7 3.7z" class="st0"/></svg>