<svg xmlns="http://www.w3.org/2000/svg" viewBox="0 0 122 61"><defs><style>.a{fill:#95bf47;}.b{fill:#5e8e3e;}.c{fill:#fff;}</style></defs><title>integrations</title><path class="a" d="M26.24,16.92a.32.32,0,0,0-.3-.27l-2.74-.21s-1.83-1.8-2-2a.73.73,0,0,0-.73-.09l-1,.3c-.61-1.74-1.68-3.35-3.56-3.35h-.15a2.34,2.34,0,0,0-1.77-1c-4.39,0-6.49,5.48-7.13,8.26-1.71.52-2.92.91-3.08.94-.94.3-1,.34-1.1,1.22L.07,40.65l19.37,3.63L30,42S26.27,17.1,26.24,16.92ZM18.38,15l-1.65.52v-.37a8,8,0,0,0-.4-2.65C17.32,12.63,18,13.72,18.38,15Zm-3.23-2.28a8,8,0,0,1,.46,3v.18c-1.07.34-2.22.7-3.38,1C12.84,14.39,14.09,13.18,15.15,12.72ZM13.84,11.5a1,1,0,0,1,.55.18c-1.4.67-2.92,2.32-3.53,5.64-.94.27-1.83.58-2.68.82C8.94,15.61,10.7,11.5,13.84,11.5Z"/><path class="b" d="M26,16.65l-2.74-.21s-1.83-1.8-2-2a.45.45,0,0,0-.27-.12l-1.46,30L30,42s-3.69-24.92-3.72-25.1A.48.48,0,0,0,26,16.65Z"/><path class="c" d="M15.88,22.47,14.57,26.3A5.89,5.89,0,0,0,12,25.7c-2,0-2.13,1.28-2.13,1.61,0,1.77,4.6,2.44,4.6,6.55,0,3.23-2,5.33-4.84,5.33a6.73,6.73,0,0,1-5-2.07l.88-3a6.32,6.32,0,0,0,3.23,1.49,1.31,1.31,0,0,0,1.37-1.31c0-2.28-3.78-2.41-3.78-6.15,0-3.17,2.28-6.24,6.88-6.24A5.46,5.46,0,0,1,15.88,22.47Z"/><path d="M42.2,29.69c-1-.58-1.58-1-1.58-1.71,0-.85.76-1.37,1.92-1.37a6.55,6.55,0,0,1,2.56.58L46,24.26s-.88-.7-3.47-.7c-3.59,0-6.09,2.07-6.09,5,0,1.65,1.16,2.89,2.71,3.81,1.25.73,1.71,1.22,1.71,2s-.64,1.4-1.8,1.4a8.18,8.18,0,0,1-3.38-.88l-1,2.92a7.91,7.91,0,0,0,4.08,1c3.72,0,6.37-1.83,6.37-5.12C45.16,31.85,43.82,30.6,42.2,29.69Z"/><path d="M57,23.5a5.48,5.48,0,0,0-4.36,2.19l-.06,0,1.58-8.29H50L46,38.49h4.14l1.37-7.22c.55-2.71,1.95-4.39,3.26-4.39.91,0,1.28.64,1.28,1.52a9.3,9.3,0,0,1-.18,1.83L54.3,38.49h4.14L60.06,30a15.06,15.06,0,0,0,.3-2.68C60.36,24.93,59.14,23.5,57,23.5Z"/><path d="M69.71,23.5c-5,0-8.26,4.48-8.26,9.47,0,3.2,2,5.79,5.7,5.79,4.87,0,8.16-4.36,8.16-9.47C75.29,26.34,73.55,23.5,69.71,23.5Zm-2,12.09c-1.4,0-2-1.19-2-2.68,0-2.38,1.22-6.21,3.47-6.21,1.46,0,1.95,1.25,1.95,2.5C71.08,31.73,69.86,35.6,67.67,35.6Z"/><path d="M85.86,23.5A5.65,5.65,0,0,0,81.5,26h-.06l.24-2.22H78c-.18,1.49-.52,3.78-.85,5.48L74.31,44.34h4.14l1.13-6.09h.09a4.79,4.79,0,0,0,2.44.55c4.84,0,8-5,8-10C90.12,26,88.87,23.5,85.86,23.5ZM81.93,35.66A2.62,2.62,0,0,1,80.22,35l.7-3.87c.49-2.56,1.83-4.26,3.26-4.26,1.25,0,1.65,1.16,1.65,2.28C85.8,31.85,84.21,35.66,81.93,35.66Z"/><path d="M96,17.59A2.37,2.37,0,0,0,93.63,20a1.92,1.92,0,0,0,1.95,2.07h.06a2.34,2.34,0,0,0,2.44-2.41A2,2,0,0,0,96,17.59Z"/><polygon points="90.25 38.49 94.36 38.49 97.19 23.84 93.02 23.84 90.25 38.49"/><path d="M107.67,23.81h-2.86l.15-.7c.24-1.4,1.07-2.65,2.47-2.65a4.2,4.2,0,0,1,1.31.21l.82-3.23a5.47,5.47,0,0,0-2.25-.37,6.27,6.27,0,0,0-4.05,1.37,7.87,7.87,0,0,0-2.41,4.66l-.12.7H98.81l-.61,3.11h1.92L97.92,38.46h4.14l2.19-11.55h2.83Z"/><path d="M117.63,23.84s-2.59,6.52-3.75,10.05h-.06c-.09-1.16-1-10.05-1-10.05h-4.33L111,37.27a.89.89,0,0,1-.09.7,7.28,7.28,0,0,1-2.25,2.5,8.78,8.78,0,0,1-2.35,1.16l1.13,3.5a9.33,9.33,0,0,0,4.05-2.25c1.89-1.77,3.63-4.48,5.42-8.19l5-10.84Z"/></svg>