<svg xmlns="http://www.w3.org/2000/svg" viewBox="0 0 131 61"><defs><style>.a{fill:#97bb4d;}.b{fill:#434343;}.c{fill:#767674;}</style></defs><title>integrations</title><path class="a" d="M115.55,32.2a6,6,0,1,1-6-6A6,6,0,0,1,115.55,32.2Zm-6-2.75a2.75,2.75,0,1,0,2.75,2.75A2.74,2.74,0,0,0,109.51,29.45Z"/><polygon class="a" points="111 28.06 108.01 28.06 108.28 24.25 110.73 24.25 111 28.06"/><polygon class="a" points="108.01 36.34 111 36.34 110.73 40.15 108.28 40.15 108.01 36.34"/><polygon class="a" points="113.64 33.7 113.64 30.7 117.45 30.98 117.45 33.42 113.64 33.7"/><polygon class="a" points="105.37 30.7 105.37 33.7 101.56 33.42 101.56 30.98 105.37 30.7"/><polygon class="a" points="113.51 30.32 111.38 28.2 114.27 25.7 116.01 27.44 113.51 30.32"/><polygon class="a" points="105.53 34.05 107.66 36.17 104.77 38.68 103.03 36.94 105.53 34.05"/><polygon class="a" points="111.38 36.17 113.51 34.05 116.01 36.94 114.27 38.68 111.38 36.17"/><polygon class="a" points="107.66 28.2 105.53 30.32 103.03 27.44 104.77 25.7 107.66 28.2"/><path class="b" d="M9.12,21.34c-3.95,0-6.88,1.74-6.88,5.36C2.23,29,3.57,30.1,4.9,31s3,1.61,3,2.86-1,2-2.72,2A9.89,9.89,0,0,1,1,34.51L.19,37.64A8.11,8.11,0,0,0,5,38.89c3.24,0,7-1.42,7-5.33,0-2.94-2.45-4.08-3.54-4.76s-2.23-1.36-2.23-2.67,1.31-1.8,2.91-1.8a7.92,7.92,0,0,1,3.32,1l.82-3A8.36,8.36,0,0,0,9.12,21.34Z"/><path class="c" d="M57.91,21.34C54,21.34,51,23.08,51,26.73c0,2.29,1.33,3.4,2.67,4.27s3,1.61,3,2.86-1,2-2.72,2a9.89,9.89,0,0,1-4.19-1.33L49,37.67a8.11,8.11,0,0,0,4.82,1.25c3.24,0,7-1.42,7-5.33,0-2.94-2.45-4.08-3.54-4.76S55,27.47,55,26.16s1.31-1.8,2.91-1.8a7.92,7.92,0,0,1,3.32,1l.84-3A9.25,9.25,0,0,0,57.91,21.34Z"/><path class="b" d="M17,20.83,13.26,38.68h3.84s1.25-5.69,1.52-6.94,1.61-2.91,2.94-2.91,1.2,1.66.93,3-1.39,6.8-1.39,6.8h3.78l1.77-8.57A3.15,3.15,0,0,0,23.54,26a6,6,0,0,0-4.19,1.85l1.55-7Z"/><path class="c" d="M119.87,26.27l-2.56,12.41h3.84s1.25-5.69,1.52-6.94,1.61-2.91,2.94-2.91,1.2,1.66.93,3-1.39,6.8-1.39,6.8h3.78l1.77-8.57A3.15,3.15,0,0,0,127.6,26a6.27,6.27,0,0,0-4.6,2.18l.22-1.93h-3.35Z"/><path class="b" d="M30.13,26.19s-1.33,6.26-1.77,8.49.16,4,3.18,4a5.27,5.27,0,0,0,2.29-.27l.46-2.67s-2.75,1-2-2.34,1.61-7.24,1.61-7.24Z"/><path class="b" d="M34.73,22.78a2.16,2.16,0,0,1-2.18,1.88,1.75,1.75,0,0,1-1.85-1.88,2.16,2.16,0,0,1,2.18-1.88A1.81,1.81,0,0,1,34.73,22.78Z"/><path class="c" d="M97,26.19s-1.33,6.26-1.77,8.49.16,4,3.18,4a5.27,5.27,0,0,0,2.29-.27l.46-2.67s-2.75,1-2-2.34,1.61-7.24,1.61-7.24Z"/><path class="c" d="M101.67,22.78a2.16,2.16,0,0,1-2.18,1.88,1.75,1.75,0,0,1-1.85-1.88,2.16,2.16,0,0,1,2.18-1.88A1.76,1.76,0,0,1,101.67,22.78Z"/><path class="b" d="M40.9,26.19l-.24,2A5.73,5.73,0,0,1,44.85,26c1.66,0,3.92.79,3.92,4.54,0,6.75-5.5,8.38-7.32,8.38A4.43,4.43,0,0,1,39,38.46l-1.06,5.22H34S36.6,31.27,36.9,30s.6-3.81.6-3.81Zm.38,10.18c1.61,0,3.46-2.61,3.46-5.17,0-.79,0-2.31-1.5-2.31s-2.37,1.58-2.78,2.64a35.07,35.07,0,0,0-.93,4.25S40,36.36,41.28,36.36Z"/><path class="c" d="M65.39,24l-.46,2.26H63.24l-.57,2.61h1.71s-.84,3.86-1.2,5.82-.35,4.22,3.21,4.22a6.52,6.52,0,0,0,2.23-.24L69.12,36s-2.61.68-2.07-1.9,1.09-5.2,1.09-5.2H71l.6-2.61H68.74l.71-3.35Z"/><path class="c" d="M88.74,24l-.46,2.26H86.59L86,28.85h1.71s-.84,3.86-1.2,5.82-.35,4.22,3.18,4.22A6.52,6.52,0,0,0,92,38.65L92.44,36s-2.61.68-2.07-1.9,1.09-5.2,1.09-5.2h2.83l.6-2.61H92.06l.71-3.35Z"/><path class="c" d="M84.63,26.78s-1.2,4.9-1.61,7.29a28.75,28.75,0,0,0-.38,4.6H79.22s0-.52,0-.93.11-1.47.11-1.47-1.77,2.64-4.16,2.64-4-1.36-4-4.35c0-4.71,2.56-8.38,9.25-8.38A12.88,12.88,0,0,1,84.63,26.78Zm-5.31,2c-1.88,0-4.14,1.74-4.14,5.2,0,1.85.84,2.1,1.52,2.1s2.15-.73,2.75-3,.9-4.05.9-4.05A2.65,2.65,0,0,0,79.33,28.8Z"/></svg>