<svg xmlns="http://www.w3.org/2000/svg" viewBox="0 0 144 61"><defs><style>.a{fill:#2ca01c;}.b{fill:#fff;}.c{fill:#4d4d4d;}</style></defs><title>integrations</title><circle class="a" cx="16.55" cy="30.3" r="16.15"/><path class="b" d="M15.79,39.85H13.52V26.16h-2a4.15,4.15,0,0,0,0,8.31h.56v2.27h-.56a6.42,6.42,0,0,1,0-12.85h4.29v16Z"/><path class="b" d="M21.52,36.71H17.23v-16H19.5V34.44h2a4.15,4.15,0,0,0,0-8.31H21V23.86h.56a6.42,6.42,0,0,1,0,12.85Z"/><path class="c" d="M53.88,30.36a7.38,7.38,0,0,1-4,6.53H54v1.56h-8.5a8,8,0,0,1-8-8.26,7.91,7.91,0,0,1,8.16-8A8.16,8.16,0,0,1,53.88,30.36ZM45.62,23.9a6.3,6.3,0,0,0-6.13,6.44c0,3.08,2.48,6.41,6,6.41a6.2,6.2,0,0,0,6.36-6.2A6.35,6.35,0,0,0,45.62,23.9Z"/><path class="c" d="M55.51,27.95v6.44c0,2.46,1.14,4.35,4,4.35a3.58,3.58,0,0,0,3.57-2.08v1.8h1.66V27.95H63v5.18c0,2.13-1.09,4-3.12,4s-2.61-1.28-2.61-3.46V27.95S55.51,28,55.51,27.95Z"/><rect class="c" x="66.58" y="27.96" width="1.73" height="10.51"/><path class="c" d="M75.28,27.7a5.34,5.34,0,0,0-5.42,5.61,5.24,5.24,0,0,0,5.47,5.45,5.11,5.11,0,0,0,3.93-1.7L78,35.86a3.31,3.31,0,0,1-2.61,1.29,3.62,3.62,0,0,1-3.66-3.92c0-2.44,1.46-4,3.63-4a3.39,3.39,0,0,1,2.59,1.28l1.36-1.19A5.13,5.13,0,0,0,75.28,27.7Z"/><polygon class="c" points="80.41 22.58 80.41 38.47 82.11 38.47 82.11 32.97 87.33 38.45 89.87 38.45 84.35 32.77 89.42 27.97 86.89 27.97 82.13 32.57 82.13 22.58 80.41 22.58"/><polygon class="c" points="126.49 22.58 126.49 38.47 128.2 38.47 128.2 32.97 133.42 38.45 135.96 38.45 130.43 32.77 135.51 27.97 132.98 27.97 128.21 32.57 128.21 22.58 126.49 22.58"/><path class="c" d="M95.51,22.58c1.9,0,5.05.8,5.05,3.81a3.84,3.84,0,0,1-2.85,3.71s3.66.42,3.66,4c0,2.54-2.22,4.33-5.75,4.33h-5.2V22.58ZM92.3,29.29h3.58a2.62,2.62,0,0,0,2.65-2.61c0-1-.73-2.34-2.79-2.34H92.3Zm0,7.41h4a3,3,0,0,0,3-2.94c0-1.13-.8-2.65-3.12-2.65H92.32Z"/><path class="c" d="M113.42,33.19a5.62,5.62,0,1,1-5.62-5.54A5.58,5.58,0,0,1,113.42,33.19Zm-5.62-3.93a3.94,3.94,0,1,0,3.77,3.94A3.86,3.86,0,0,0,107.8,29.27Z"/><path class="c" d="M125.49,33.19a5.62,5.62,0,1,1-5.62-5.54A5.58,5.58,0,0,1,125.49,33.19Zm-5.62-3.93a3.94,3.94,0,1,0,3.77,3.94A3.86,3.86,0,0,0,119.87,29.27Z"/><path class="c" d="M139.72,27.65c-2.13,0-4,1.19-4,3.18s1.7,2.54,3.34,2.91,2.61.76,2.61,1.82-1.23,1.58-2.4,1.58a3.14,3.14,0,0,1-2.59-1.4l-1.42,1.05a4.24,4.24,0,0,0,3.78,1.93c3,0,4.52-1.16,4.52-3.36s-2-2.77-3.53-3.09-2.59-.72-2.59-1.53.87-1.46,2.17-1.46a2.73,2.73,0,0,1,2.14,1.22l1.47-.94A4.1,4.1,0,0,0,139.72,27.65Z"/></svg>