<svg xmlns="http://www.w3.org/2000/svg" viewBox="0 0 134 61"><defs><style>.a{fill:#9b5c8f;}.b{fill:#fff;}</style></defs><title>integrations</title><path class="a" d="M4.55,20.41H41.31a4.2,4.2,0,0,1,4.2,4.2v14a4.2,4.2,0,0,1-4.2,4.2H28.11l1.8,4.43L22,42.87H4.55a4.23,4.23,0,0,1-4.2-4.23v-14A4.18,4.18,0,0,1,4.55,20.41Z"/><path class="b" d="M2.62,24.24a1.42,1.42,0,0,1,1.17-.57A1.35,1.35,0,0,1,5.38,25c.57,3.87,1.2,7.13,1.87,9.8l4-7.7a1.74,1.74,0,0,1,1.4-1.1c.8-.07,1.3.47,1.5,1.57a34.4,34.4,0,0,0,1.77,6.3c.47-4.7,1.3-8.06,2.43-10.16a1.34,1.34,0,0,1,1.23-.8,1.68,1.68,0,0,1,1.17.37,1.37,1.37,0,0,1,.57,1.07,1.44,1.44,0,0,1-.2.9,22.57,22.57,0,0,0-1.8,6.66,35,35,0,0,0-.53,7,2.16,2.16,0,0,1-.23,1.23,1.23,1.23,0,0,1-1,.67,2,2,0,0,1-1.47-.67,17.8,17.8,0,0,1-4.07-7.86c-1.2,2.37-2.1,4.13-2.67,5.33-1.1,2.1-2,3.17-2.8,3.2-.5,0-.93-.4-1.3-1.27-.9-2.5-1.93-7.16-3-14.1A1.54,1.54,0,0,1,2.62,24.24Z"/><path class="b" d="M42.31,27.14a4.18,4.18,0,0,0-3-2.13,5.35,5.35,0,0,0-1-.1A5,5,0,0,0,34,27.67a9.69,9.69,0,0,0-1.43,5.2,7.12,7.12,0,0,0,.9,3.67,4.18,4.18,0,0,0,3,2.13,5.35,5.35,0,0,0,1,.1A4.93,4.93,0,0,0,41.77,36a9.89,9.89,0,0,0,1.43-5.23,7.6,7.6,0,0,0-.9-3.63ZM40,32.24A5,5,0,0,1,38.57,35a1.91,1.91,0,0,1-1.5.6c-.43-.1-.8-.47-1.1-1.2a4.37,4.37,0,0,1-.33-1.67,5.65,5.65,0,0,1,.13-1.33,5.86,5.86,0,0,1,1-2.2c.6-.9,1.27-1.27,1.93-1.13.43.1.8.47,1.1,1.2a4.37,4.37,0,0,1,.33,1.67A9,9,0,0,1,40,32.24Z"/><path class="b" d="M30.71,27.14a4.25,4.25,0,0,0-3-2.13,5.35,5.35,0,0,0-1-.1,5,5,0,0,0-4.33,2.77A9.69,9.69,0,0,0,21,32.87a7.12,7.12,0,0,0,.9,3.67,4.18,4.18,0,0,0,3,2.13,5.35,5.35,0,0,0,1,.1A4.93,4.93,0,0,0,30.18,36a9.89,9.89,0,0,0,1.43-5.23,6.91,6.91,0,0,0-.9-3.63Zm-2.33,5.1A5,5,0,0,1,27,35a1.91,1.91,0,0,1-1.5.6c-.43-.1-.8-.47-1.1-1.2A4.37,4.37,0,0,1,24,32.7a5.65,5.65,0,0,1,.13-1.33,5.86,5.86,0,0,1,1-2.2c.6-.9,1.27-1.27,1.93-1.13.43.1.8.47,1.1,1.2a4.37,4.37,0,0,1,.33,1.67,6,6,0,0,1-.13,1.33Z"/><path d="M50.17,27a6.28,6.28,0,0,0-1.83,4.67,6.66,6.66,0,0,0,1.83,4.9,6.43,6.43,0,0,0,4.77,1.87,7.2,7.2,0,0,0,1.93-.3v-3a5.54,5.54,0,0,1-1.67.27,3,3,0,0,1-2.33-1,3.85,3.85,0,0,1-.9-2.67,3.88,3.88,0,0,1,.87-2.6,2.8,2.8,0,0,1,2.2-1,7.61,7.61,0,0,1,1.83.27v-3a7.65,7.65,0,0,0-2-.23A6.2,6.2,0,0,0,50.17,27ZM63,25.14a5,5,0,0,0-4,1.7,7,7,0,0,0-1.43,4.73,7.68,7.68,0,0,0,1.43,5,5.06,5.06,0,0,0,4.13,1.77,4.86,4.86,0,0,0,4-1.77,7.66,7.66,0,0,0,1.43-4.9,7.31,7.31,0,0,0-1.43-4.87A5.23,5.23,0,0,0,63,25.14Zm1.43,9.6A1.61,1.61,0,0,1,63,35.5a1.46,1.46,0,0,1-1.33-.77,7.14,7.14,0,0,1-.47-3.13c0-2.43.6-3.63,1.83-3.63s2,1.23,2,3.67A6.4,6.4,0,0,1,64.43,34.74Zm13.3-9.26-.67,2.83c-.17.73-.33,1.47-.47,2.2l-.37,2c-.37-2-.83-4.3-1.43-7H70.5l-1.63,12.6h3.2l.87-8.66,2.2,8.66h2.3l2.1-8.63.9,8.63H83.8L82.1,25.51l-4.37,0Zm15.36,0-.67,2.83c-.17.73-.33,1.47-.47,2.2l-.37,2c-.37-2-.83-4.3-1.43-7h-4.3l-1.6,12.6h3.2l.87-8.66,2.2,8.66h2.3l2.1-8.63.9,8.63h3.37l-1.7-12.56h-4.4Zm10.46,7.63h3V30.5h-3v-2.3H107V25.54h-6.86V38.07h6.9V35.4h-3.5Zm13-2a3.21,3.21,0,0,0,.53-1.77,3.28,3.28,0,0,0-1.4-2.8,6.42,6.42,0,0,0-3.8-1h-4V38.07h3.4V32.34h.07l2.77,5.73h3.57l-2.7-5.67A3.29,3.29,0,0,0,116.59,31.1Zm-5.2-.2v-3a3.15,3.15,0,0,1,1.73.4,1.43,1.43,0,0,1,.53,1.27C113.65,30.44,112.89,30.87,111.39,30.9ZM119.12,27a6.28,6.28,0,0,0-1.83,4.67,6.66,6.66,0,0,0,1.83,4.9,6.43,6.43,0,0,0,4.77,1.87,7.2,7.2,0,0,0,1.93-.3v-3a5.54,5.54,0,0,1-1.67.27,3,3,0,0,1-2.33-1,3.85,3.85,0,0,1-.9-2.67,3.88,3.88,0,0,1,.87-2.6,2.8,2.8,0,0,1,2.2-1,7.61,7.61,0,0,1,1.83.27v-3a7.65,7.65,0,0,0-2-.23A6.2,6.2,0,0,0,119.12,27Zm11,8.4v-2.3h3v-2.6h-3v-2.3h3.5V25.51h-6.86V38.07h6.86V35.4l-3.5,0Z"/></svg>