<svg xmlns="http://www.w3.org/2000/svg" viewBox="0 0 61 61"><defs><style>.a{fill:#00b7e3;}.b{fill:#fff;}</style></defs><title>integrations</title><path class="a" d="M30.5,60.66A30.16,30.16,0,1,0,.34,30.5,30.16,30.16,0,0,0,30.5,60.66"/><path class="b" d="M14.78,30.42l5.15-5.16a.93.93,0,0,0,.27-.65.92.92,0,0,0-.92-.92.87.87,0,0,0-.65.28L13.49,29.1,8.3,23.95a.93.93,0,0,0-.65-.27.92.92,0,0,0-.92.92.87.87,0,0,0,.28.65l5.15,5.15L7,35.56a.92.92,0,0,0,.64,1.58.93.93,0,0,0,.65-.27l5.16-5.15,5.14,5.13a.91.91,0,0,0,.66.29.92.92,0,0,0,.92-.92,1,1,0,0,0-.27-.65Z"/><path class="b" d="M45.38,30.42a1.68,1.68,0,1,0,1.68-1.68,1.67,1.67,0,0,0-1.68,1.68"/><path class="b" d="M42.2,30.42a4.85,4.85,0,1,1,4.85,4.85,4.85,4.85,0,0,1-4.85-4.85m-1.92,0a6.77,6.77,0,1,0,6.77-6.77,6.76,6.76,0,0,0-6.77,6.77"/><path class="b" d="M39.81,23.77h-.29a3.83,3.83,0,0,0-2.36.8.93.93,0,0,0-.9-.72.92.92,0,0,0-.92.92V36.15a.92.92,0,0,0,1.83,0v-7c0-2.33.22-3.28,2.21-3.52a3.42,3.42,0,0,1,.39,0,.92.92,0,0,0,.94-.9.88.88,0,0,0-.89-.93"/><path class="b" d="M22.1,29.29v-.07a4.88,4.88,0,0,1,9.48.08H22.1Zm11.38-.17a6.73,6.73,0,0,0-3-4.42A6.77,6.77,0,0,0,20.1,30.46a6.28,6.28,0,0,0,.21,1.63A6.84,6.84,0,0,0,26,37.15,6.68,6.68,0,0,0,28.49,37a6.79,6.79,0,0,0,2-.86,7.14,7.14,0,0,0,1.73-1.64l0,0A1,1,0,0,0,32.16,33a.93.93,0,0,0-1.36.21c-.1.13-.21.28-.33.42a5.39,5.39,0,0,1-1.33,1.07,4.79,4.79,0,0,1-2.27.57,5,5,0,0,1-4.63-3.23,5.59,5.59,0,0,1-.21-.77.59.59,0,0,1,0-.14h9.63a1.72,1.72,0,0,0,1.82-2"/></svg>