<svg xmlns="http://www.w3.org/2000/svg" viewBox="0 0 81 61"><defs><style>.a{fill:#0f9bd7;}.b{fill:#fff;}</style></defs><title>integrations</title><path class="a" d="M33.73,9.77A14.16,14.16,0,0,1,44,5.36a14.32,14.32,0,0,1,12.48,7.4,17.26,17.26,0,0,1,7.05-1.51,17.59,17.59,0,0,1,0,35.18,17.71,17.71,0,0,1-3.43-.34A12.72,12.72,0,0,1,49,52.62a12.44,12.44,0,0,1-5.57-1.29,14.53,14.53,0,0,1-27-.65A14,14,0,0,1,13.6,51,13.66,13.66,0,0,1,6.82,25.53,15.7,15.7,0,0,1,21.23,3.6,15.7,15.7,0,0,1,33.73,9.77"/><path class="b" d="M11.79,33c-.05.13,0,.16,0,.18s.31.18.45.27a4.9,4.9,0,0,0,2.41.56c1.65,0,2.68-.89,2.68-2.3v0c0-1.31-1.16-1.8-2.25-2.14l-.15,0c-.82-.27-1.52-.49-1.52-1v0c0-.47.42-.8,1.05-.8a4.7,4.7,0,0,1,2.1.54s.16.11.22-.05.31-.83.34-.91A.14.14,0,0,0,17.1,27a4.67,4.67,0,0,0-2.38-.63h-.16A2.32,2.32,0,0,0,12,28.59v0c0,1.38,1.16,1.83,2.27,2.14l.18.05c.8.25,1.49.45,1.49,1v0c0,.51-.45.89-1.16.89a3.88,3.88,0,0,1-2.14-.62c-.11-.07-.18-.11-.27-.18a.13.13,0,0,0-.22.07Z"/><path class="b" d="M36.07,33c-.05.13,0,.16,0,.18s.31.18.45.27A4.9,4.9,0,0,0,39,34c1.65,0,2.68-.89,2.68-2.3v0c0-1.31-1.16-1.8-2.25-2.14l-.15,0c-.82-.27-1.52-.49-1.52-1v0c0-.47.42-.8,1.05-.8a4.7,4.7,0,0,1,2.1.54s.16.11.22-.05.31-.83.34-.91a.14.14,0,0,0-.07-.18A4.67,4.67,0,0,0,39,26.36h-.16a2.32,2.32,0,0,0-2.57,2.23v0c0,1.38,1.18,1.83,2.27,2.14l.18.05c.8.25,1.49.45,1.49,1v0c0,.51-.45.89-1.16.89a3.88,3.88,0,0,1-2.14-.62c-.11-.07-.18-.11-.27-.18a.14.14,0,0,0-.22.07Z"/><path class="b" d="M54,28.68a3,3,0,0,0-.63-1.2,3,3,0,0,0-1.07-.82,3.46,3.46,0,0,0-1.49-.29,3.75,3.75,0,0,0-1.49.29,3.17,3.17,0,0,0-1.07.82,3.45,3.45,0,0,0-.63,1.2,5.64,5.64,0,0,0,0,3,3,3,0,0,0,.63,1.2,2.77,2.77,0,0,0,1.07.8,3.46,3.46,0,0,0,1.49.29,3.51,3.51,0,0,0,1.49-.29,3.37,3.37,0,0,0,1.07-.8,3.45,3.45,0,0,0,.63-1.2,5.56,5.56,0,0,0,.2-1.49,4.41,4.41,0,0,0-.2-1.49m-1.38,1.49a3.34,3.34,0,0,1-.45,1.89,1.71,1.71,0,0,1-2.68,0,3.5,3.5,0,0,1-.44-1.89,3.39,3.39,0,0,1,.44-1.87,1.71,1.71,0,0,1,2.68,0,3.23,3.23,0,0,1,.45,1.87"/><path class="b" d="M65.39,32.49c0-.13-.18-.09-.18-.09a3.43,3.43,0,0,1-.65.18,5,5,0,0,1-.76.05,2.08,2.08,0,0,1-1.58-.6,2.67,2.67,0,0,1-.6-1.89,3.05,3.05,0,0,1,.53-1.83,1.8,1.8,0,0,1,1.54-.67,4.63,4.63,0,0,1,1.47.22s.11.05.16-.09c.13-.34.22-.58.34-.94,0-.11-.05-.15-.09-.16a5.63,5.63,0,0,0-.92-.24,8.39,8.39,0,0,0-1-.07,4,4,0,0,0-1.54.29,3.39,3.39,0,0,0-1.12.82,3.52,3.52,0,0,0-.67,1.2,4.91,4.91,0,0,0-.22,1.49A4,4,0,0,0,61,32.91a3.5,3.5,0,0,0,2.74,1,5.81,5.81,0,0,0,2-.34.12.12,0,0,0,.05-.16Z"/><path class="b" d="M72.48,28.43A2.82,2.82,0,0,0,71,26.67a3.73,3.73,0,0,0-2.88,0,3.07,3.07,0,0,0-1.09.82,3.38,3.38,0,0,0-.63,1.21,5.47,5.47,0,0,0,0,3,3.24,3.24,0,0,0,.67,1.2,3.19,3.19,0,0,0,1.18.78,5.84,5.84,0,0,0,4.06-.2c.05,0,.11-.07,0-.22L72,32.43a.14.14,0,0,0-.18-.07,4.58,4.58,0,0,1-1.92.34,2.22,2.22,0,0,1-1.6-.54,2.18,2.18,0,0,1-.54-1.56h4.68a.15.15,0,0,0,.15-.13,5.18,5.18,0,0,0-.15-2m-4.66,1a2.65,2.65,0,0,1,.38-1.11,1.51,1.51,0,0,1,1.34-.69,1.42,1.42,0,0,1,1.31.69,2.27,2.27,0,0,1,.31,1.11Z"/><path class="b" d="M34.94,28.43a2.82,2.82,0,0,0-1.49-1.76,3.73,3.73,0,0,0-2.88,0,3.07,3.07,0,0,0-1.09.82,3.38,3.38,0,0,0-.63,1.21,5.47,5.47,0,0,0,0,3,3.25,3.25,0,0,0,.67,1.2,3.19,3.19,0,0,0,1.18.78,4.8,4.8,0,0,0,1.7.27,4.77,4.77,0,0,0,2.36-.47c.05,0,.11-.07,0-.22l-.31-.85a.14.14,0,0,0-.18-.07,4.58,4.58,0,0,1-1.92.34,2.22,2.22,0,0,1-1.6-.54,2.18,2.18,0,0,1-.54-1.56h4.68a.15.15,0,0,0,.15-.13,5.18,5.18,0,0,0-.15-2m-4.66,1a2.65,2.65,0,0,1,.38-1.11A1.51,1.51,0,0,1,32,27.61a1.42,1.42,0,0,1,1.31.69,2.27,2.27,0,0,1,.31,1.11Z"/><path class="b" d="M22,29.17c-.18,0-.44,0-.73,0a4.84,4.84,0,0,0-1.16.15,3,3,0,0,0-1,.45,2.14,2.14,0,0,0-.67.78,2.3,2.3,0,0,0-.25,1.09,2.39,2.39,0,0,0,.22,1.07,1.84,1.84,0,0,0,.62.73,2.75,2.75,0,0,0,1,.42,5.16,5.16,0,0,0,1.23.13,7.52,7.52,0,0,0,1.43-.13c.45-.07,1-.2,1.18-.24l.33-.09a.16.16,0,0,0,.11-.15V29.08A2.64,2.64,0,0,0,23.56,27a3.16,3.16,0,0,0-2.16-.65,9.44,9.44,0,0,0-1.25.11A4.72,4.72,0,0,0,18.7,27a.14.14,0,0,0,0,.18l.33.89c0,.11.16.07.16.07l.07,0a4.77,4.77,0,0,1,2-.47,1.92,1.92,0,0,1,1.16.31c.25.2.38.49.38,1.12v.2l-.8-.09m-1.87,3.3a.91.91,0,0,1-.27-.27,1.15,1.15,0,0,1-.15-.62,1,1,0,0,1,.42-.91,2.16,2.16,0,0,1,1.36-.34,8,8,0,0,1,1.27.11v2.14a9.32,9.32,0,0,1-1.27.16,2.16,2.16,0,0,1-1.36-.27"/><path class="b" d="M59.82,26.76c0-.11,0-.16-.07-.16a3.56,3.56,0,0,0-.78-.13,2.19,2.19,0,0,0-1.21.2,2.16,2.16,0,0,0-.8.58v-.58a.14.14,0,0,0-.13-.15h-1.2a.13.13,0,0,0-.13.15v7a.14.14,0,0,0,.15.15h1.23a.14.14,0,0,0,.15-.15v-3.5a3.9,3.9,0,0,1,.16-1.23,1.71,1.71,0,0,1,.42-.69,1.27,1.27,0,0,1,.58-.34,2.06,2.06,0,0,1,.63-.09,2.12,2.12,0,0,1,.51.07c.09,0,.15-.05.18-.13s.27-.87.31-1"/><path class="b" d="M48.27,23.51a3,3,0,0,0-.47-.11,3.31,3.31,0,0,0-.63-.05,2.63,2.63,0,0,0-2,.71,3.85,3.85,0,0,0-.94,2.12l-.05.33H43.12a.18.18,0,0,0-.16.15l-.18,1c0,.09,0,.15.15.15h1L42.9,33.63c-.09.47-.18.85-.27,1.16a2.57,2.57,0,0,1-.33.67.87.87,0,0,1-.44.33,1.72,1.72,0,0,1-.54.07,2.71,2.71,0,0,1-.38,0c-.11,0-.16-.05-.25-.07a.12.12,0,0,0-.16.07l-.34,1a.13.13,0,0,0,.07.18,4.47,4.47,0,0,0,.44.13,3.3,3.3,0,0,0,.69.07A3.15,3.15,0,0,0,42.52,37a2.34,2.34,0,0,0,.87-.6A3.16,3.16,0,0,0,44,35.34a8.94,8.94,0,0,0,.42-1.58l1.05-6H47a.18.18,0,0,0,.16-.15l.18-1c0-.09,0-.15-.15-.15H45.71A5,5,0,0,1,46,25.47a1.53,1.53,0,0,1,.33-.51,1.15,1.15,0,0,1,.4-.25,1.43,1.43,0,0,1,.51-.07,2.26,2.26,0,0,1,.38,0l.24.05c.15.05.18,0,.2-.07l.36-1c0-.09-.09-.15-.11-.16"/><path class="b" d="M27.33,33.65a.14.14,0,0,1-.13.15H25.95a.14.14,0,0,1-.13-.15v-10a.14.14,0,0,1,.13-.15H27.2a.13.13,0,0,1,.13.15Z"/></svg>