<svg class="svg-icon" xmlns="http://www.w3.org/2000/svg" viewBox="0 0 80 80"><path d="M62.9 36.3c-4.9 5.3-12.3 5-16.7 0.6 -4.5-4.5-4.6-11.7 0.6-16.7 4.5-4.4 13.5-9 25.2-9C66 17.1 67.3 31.7 62.9 36.3z"/><path d="M24.2 19.2c2.2 2.2 6.4 2.2 8.6 0 2.2-2.2 1.7-5.9-0.5-8.1 -2.2-2.2-7-4.2-12.9-4.2C22.4 9.9 22 17 24.2 19.2z"/><path d="M32.1 19.8c7 8.9 10.7 28.3 10.7 28.3s4.3-14.4 15.7-25.8"/><path d="M8.1 67.1H16c0 0 3.8-15.1 4.5-22.4 -2.2-2.1-12.4-2.2-12.4-2.2"/><path d="M51.8 60.4l8.5-1.7c6.6-1.7 10 0.7 11.6 3.9l-15.7 6.7c-11.8 4.8-12.3 4.4-17.9 2.2l-21.5-8.1"/><path d="M24.4 48.1l20.6 5.1c3.8 0.9 6.7 3.4 6.7 7.3l-3.4 1.1c-1.2 0.3-2.1 0.2-3.4 0l-13.4-3.4"/></svg>
