<svg class="svg-icon" xmlns="http://www.w3.org/2000/svg" viewBox="0 0 60 60"><path d="M27.7 6h17.1c1.8 0 3.2 1.4 3.2 3.2v41.5c0 1.8-1.4 3.2-3.2 3.2H15.2c-1.8 0-3.2-1.4-3.2-3.2V21.6"/><polyline points=" 12.6 17.6 23.5 17.6 23.5 6.7"/><line x1="18" y1="32.1" x2="31.2" y2="32.1"/><line x1="18" y1="38.9" x2="31.2" y2="38.9"/><path d="M32.2 21c0.1 1.2 1.7 2.1 3.6 2.1 2 0 3.6-1 3.6-2.3 0-1.9-3-2.2-3.6-2.3 -0.6-0.1-3.6-0.4-3.6-2.3 0-1.3 1.6-2.3 3.6-2.3 1.9 0 3.5 0.9 3.6 2.1"/><line x1="35.8" y1="12.2" x2="35.8" y2="24.9"/><line x1="18" y1="45.6" x2="31.2" y2="45.6"/><line x1="38" y1="32.1" x2="42" y2="32.1"/><line x1="38" y1="38.9" x2="42" y2="38.9"/><line x1="38" y1="45.6" x2="42" y2="45.6"/><line x1="12.6" y1="17.6" x2="23.5" y2="6.7"/></svg>
