<svg class="svg-icon" xmlns="http://www.w3.org/2000/svg" viewBox="0 0 60 60"><path d="M26.1 26.5l-9.1 4c-0.6 0.3-1.4 0.3-2 0l-9.1-4c-0.9-0.4-1.5-1.3-1.5-2.3v-9.7c0-1 0.6-1.9 1.5-2.3l9.1-4c0.6-0.3 1.4-0.3 2 0l9.1 4c0.9 0.4 1.5 1.3 1.5 2.3v9.7C27.6 25.2 27 26.1 26.1 26.5z"/><polyline points=" 8.2 15.6 16 18.9 23.8 15.6"/><line x1="16" y1="18.9" x2="16" y2="26.9"/><path d="M54.1 26.5l-9.1 4c-0.6 0.3-1.4 0.3-2 0l-9.1-4c-0.9-0.4-1.5-1.3-1.5-2.3v-9.7c0-1 0.6-1.9 1.5-2.3l9.1-4c0.6-0.3 1.4-0.3 2 0l9.1 4c0.9 0.4 1.5 1.3 1.5 2.3v9.7C55.6 25.2 55 26.1 54.1 26.5z"/><polyline points=" 36.2 15.6 44 18.9 51.8 15.6"/><line x1="44" y1="18.9" x2="44" y2="26.9"/><path d="M40.1 47.8l-9.1 4c-0.6 0.3-1.4 0.3-2 0l-9.1-4c-0.9-0.4-1.5-1.3-1.5-2.3v-9.7c0-1 0.6-1.9 1.5-2.3l9.1-4c0.6-0.3 1.4-0.3 2 0l9.1 4c0.9 0.4 1.5 1.3 1.5 2.3v9.7C41.6 46.5 41 47.4 40.1 47.8z"/><polyline points=" 22.2 36.9 30 40.2 37.8 36.9"/><line x1="30" y1="40.2" x2="30" y2="48.2"/></svg>
