<svg class="svg-icon" xmlns="http://www.w3.org/2000/svg" viewBox="0 0 80 80"><line x1="43.6" y1="10.8" x2="43.6" y2="16.9"/><line x1="36.4" y1="16.9" x2="36.4" y2="10.8"/><circle cx="40" cy="47.2" r="30.4"/><path d="M45.9 10.8H34.1c-1.7 0-3-1.4-3-3V5.4c0-1.7 1.4-3 3-3h11.9c1.7 0 3 1.4 3 3v2.4C48.9 9.5 47.6 10.8 45.9 10.8z"/><path d="M40 43.7L40 43.7c-1.9 0-3.5 1.6-3.5 3.5v0c0 1.9 1.6 3.5 3.5 3.5h0c1.9 0 3.5-1.6 3.5-3.5v0C43.5 45.3 41.9 43.7 40 43.7z"/><line x1="40" y1="43.7" x2="40" y2="23.3"/><line x1="27.5" y1="25.6" x2="29.3" y2="28.7"/><line x1="18.3" y1="34.7" x2="21.4" y2="36.5"/><line x1="15" y1="47.2" x2="18.6" y2="47.2"/><line x1="18.3" y1="59.7" x2="21.4" y2="58"/><line x1="27.5" y1="68.9" x2="29.3" y2="65.8"/><line x1="40" y1="72.3" x2="40" y2="68.7"/><line x1="52.5" y1="68.9" x2="50.7" y2="65.8"/><line x1="61.7" y1="59.7" x2="58.6" y2="58"/><line x1="65" y1="47.2" x2="61.4" y2="47.2"/><line x1="61.7" y1="34.7" x2="58.6" y2="36.5"/><line x1="52.5" y1="25.6" x2="50.7" y2="28.7"/><path d="M67 25.9l1.4-1.4c1.8-1.8 1.8-4.6 0-6.4 -1.8-1.8-4.6-1.8-6.4 0l-1.4 1.4"/></svg>
