<svg class="svg-icon" xmlns="http://www.w3.org/2000/svg" viewBox="0 0 60 60"><path d="M36.16,39.265a11.932,11.932,0,0,0,.124-1.645,12.58,12.58,0,0,0-.124-1.669l3.681-2.806a.839.839,0,0,0,.2-1.088L36.558,26.2a.893.893,0,0,0-1.07-.363L31.16,27.532a12.874,12.874,0,0,0-2.935-1.669l-.647-4.475a.9.9,0,0,0-.87-.7H19.745a.9.9,0,0,0-.87.726l-.647,4.475a13.429,13.429,0,0,0-2.935,1.669l-4.328-1.693a.892.892,0,0,0-1.07.363L6.414,32.08a.839.839,0,0,0,.2,1.089l3.681,2.806a11.928,11.928,0,0,0-.124,1.645,12.584,12.584,0,0,0,.124,1.669L6.613,42.1a.839.839,0,0,0-.2,1.089L9.9,49.038a.892.892,0,0,0,1.07.363l4.328-1.693a12.868,12.868,0,0,0,2.935,1.669l.647,4.475a.9.9,0,0,0,.87.7h6.964a.9.9,0,0,0,.87-.726l.647-4.475a13.42,13.42,0,0,0,2.935-1.669l4.328,1.693a.892.892,0,0,0,1.07-.363l3.482-5.854a.839.839,0,0,0-.2-1.089ZM28.307,37.62a5.08,5.08,0,1,1-5.08-5.08A5.08,5.08,0,0,1,28.307,37.62Z"/><path d="M53.533,17.219l-2.045-1.546a7.051,7.051,0,0,0,.077-.913,4.769,4.769,0,0,0-.077-.913L53.514,12.3a.475.475,0,0,0,.115-.6L51.717,8.482a.491.491,0,0,0-.593-.2l-2.37.931A6.585,6.585,0,0,0,47.129,8.3l-.363-2.459a.453.453,0,0,0-.459-.391H42.484a.487.487,0,0,0-.478.391L41.644,8.3a7.691,7.691,0,0,0-1.625.913l-2.37-.931a.507.507,0,0,0-.593.2L35.145,11.7a.454.454,0,0,0,.115.6l2.026,1.546a7.306,7.306,0,0,0,0,1.825l-2.026,1.546a.475.475,0,0,0-.115.6l1.911,3.222a.491.491,0,0,0,.593.2l2.37-.931a6.585,6.585,0,0,0,1.625.913l.363,2.459a.472.472,0,0,0,.478.391h3.823a.487.487,0,0,0,.478-.391l.363-2.459a7.112,7.112,0,0,0,1.606-.913l2.389.931a.507.507,0,0,0,.593-.2l1.911-3.222A.475.475,0,0,0,53.533,17.219Zm-6.6-2.459a2.54,2.54,0,1,1-2.54-2.54A2.54,2.54,0,0,1,46.934,14.76Z"/></svg>
