<svg class="svg-icon" xmlns="http://www.w3.org/2000/svg" viewBox="0 0 80 80"><path d="M21.5 56.6c-10-3.7-17.1-13.2-17.1-24.3 0-14.3 11.7-26 26.2-26 14.5 0 26.2 11.6 26.2 26 0 9.2-4.9 17.3-12.2 22"/><polyline points=" 75.5 37.2 46.3 66 33.2 53 12.3 73.8 "/><polyline points=" 75.5 48.7 75.5 37.2 64 37.2 "/><path d="M21.6 37.1c0.3 2.8 4 5 8.5 5 4.7 0 8.6-2.4 8.6-5.3 0-4.4-7.1-5.1-8.5-5.3 -1.5-0.3-8.6-1-8.6-5.4 0-3 3.8-5.3 8.6-5.3 4.6 0 8.3 2.2 8.5 5"/><line x1="30.1" y1="16.4" x2="30.1" y2="46.4"/></svg>
