<svg class="svg-icon" xmlns="http://www.w3.org/2000/svg" viewBox="0 0 60 60"><path d="M35.235,28.525c7.368,7.4,13.851,13.862,13.95,13.763l3.84,9.985L43.808,49.2,29.189,34.574"/><path d="M24.74,30.071,9.664,15.041c-1.583-1.583-1.523-3.908.349-5.78h0c1.128-1.128,3.8-2.367,5.376-.768,3.357,3.4,9.375,9.485,15.307,15.463"/><line x1="43.04" y1="48.432" x2="49.185" y2="42.288"/><line x1="14.622" y1="20.014" x2="20.767" y2="13.87"/><path d="M20.348,34.579,45.625,8.632a3.336,3.336,0,0,1,5.061.6,2.734,2.734,0,0,1,0,3.84L23.8,39.955"/><path d="M23.8,41.492c0,3.713-4.188,7.675-9.217,9.217-13.777,4.224-4.656-.96-4.608-9.217.021-3.711,3.96-7.681,7.681-7.681S23.8,37.78,23.8,41.492Z"/><path d="M10.748,39.955C15.356,39.187,15.56,46.1,21.5,46.1"/><line x1="29.181" y1="26.898" x2="32.253" y2="29.971"/></svg>
