<svg class="svg-icon" xmlns="http://www.w3.org/2000/svg" viewBox="0 0 80 80"><circle cx="38.9" cy="40" r="5.1"/><path d="M46.6 11.8c-0.4 0.2-0.9 0.3-1.4 0.3 -2.1 0-3.8-1.7-3.8-3.8 0-0.9 0.4-1.8 0.9-2.4 -1.1-0.9-2.3-1.4-3.4-1.4 -7 0-12.7 15.9-12.7 35.5s5.7 35.5 12.7 35.5c7 0 12.7-15.9 12.7-35.5C51.6 28.5 49.6 18.3 46.6 11.8z"/><circle cx="45.2" cy="8.3" r="3.8"/><path d="M59.4 60.8c0.1-0.4 0.2-0.9 0.5-1.3 1.1-1.8 3.4-2.4 5.2-1.4 0.8 0.5 1.4 1.2 1.7 2 1.3-0.5 2.3-1.3 2.9-2.3 3.5-6.1-7.4-18.9-24.4-28.8 -17-9.8-33.6-12.8-37.1-6.8C4.6 28.3 15.5 41.2 32.5 51 42.5 56.7 52.3 60.1 59.4 60.8z"/><circle cx="63.2" cy="61.4" r="3.8"/><path d="M20.6 59.5c-0.1-0.4-0.2-0.9-0.5-1.3 -1.1-1.8-3.4-2.4-5.2-1.4 -0.8 0.5-1.4 1.2-1.7 2 -1.3-0.5-2.3-1.3-2.9-2.3 -3.5-6.1 7.4-18.9 24.4-28.8 17-9.8 33.6-12.8 37.1-6.8 3.5 6.1-7.4 18.9-24.4 28.8C37.5 55.4 27.7 58.8 20.6 59.5z"/><circle cx="16.8" cy="60.1" r="3.8"/></svg>
