<?xml version="1.0" encoding="utf-8"?>
<!-- Generator: Adobe Illustrator 20.1.0, SVG Export Plug-In . SVG Version: 6.00 Build 0)  -->
<svg version="1.1" id="Layer_1" xmlns="http://www.w3.org/2000/svg" xmlns:xlink="http://www.w3.org/1999/xlink" x="0px" y="0px"
	 viewBox="0 0 574.2 323" style="enable-background:new 0 0 574.2 323;" xml:space="preserve">
<style type="text/css">
	.st0{fill:url(#SVGID_1_);}
</style>
<radialGradient id="SVGID_1_" cx="287.115" cy="161.495" r="232.9331" gradientUnits="userSpaceOnUse">
	<stop  offset="0" style="stop-color:#2A75A3"/>
	<stop  offset="1" style="stop-color:#1F577B"/>
</radialGradient>
<path class="st0" d="M574.2,323H0V0h574.2V323z M574.2,0H0v323h574.2V0z M0,63.4c0,2.1,1.7,3.7,3.7,3.7s3.7-1.7,3.7-3.7
	s-1.7-3.7-3.7-3.7S0,61.4,0,63.4z M0,80.5c0,2.1,1.7,3.7,3.7,3.7s3.7-1.7,3.7-3.7s-1.7-3.7-3.7-3.7S0,78.4,0,80.5z M0,106.1
	c0,2.1,1.7,3.7,3.7,3.7s3.7-1.7,3.7-3.7s-1.7-3.7-3.7-3.7S0,104,0,106.1z M8.5,54.9c0,2.1,1.7,3.7,3.7,3.7s3.7-1.7,3.7-3.7
	s-1.7-3.7-3.7-3.7S8.5,52.8,8.5,54.9z M8.5,63.4c0,2.1,1.7,3.7,3.7,3.7s3.7-1.7,3.7-3.7s-1.7-3.7-3.7-3.7S8.5,61.4,8.5,63.4z
	 M8.5,72c0,2.1,1.7,3.7,3.7,3.7s3.7-1.7,3.7-3.7s-1.7-3.7-3.7-3.7S8.5,69.9,8.5,72z M8.5,80.5c0,2.1,1.7,3.7,3.7,3.7
	s3.7-1.7,3.7-3.7s-1.7-3.7-3.7-3.7S8.5,78.4,8.5,80.5z M8.5,89c0,2.1,1.7,3.7,3.7,3.7s3.7-1.7,3.7-3.7s-1.7-3.7-3.7-3.7
	S8.5,86.9,8.5,89z M8.5,97.5c0,2.1,1.7,3.7,3.7,3.7s3.7-1.7,3.7-3.7s-1.7-3.7-3.7-3.7S8.5,95.5,8.5,97.5z M8.5,165.8
	c0,2.1,1.7,3.7,3.7,3.7s3.7-1.7,3.7-3.7s-1.7-3.7-3.7-3.7S8.5,163.7,8.5,165.8z M16.9,54.9c0,2.1,1.7,3.7,3.7,3.7s3.7-1.7,3.7-3.7
	s-1.7-3.7-3.7-3.7S16.9,52.8,16.9,54.9z M16.9,63.4c0,2.1,1.7,3.7,3.7,3.7s3.7-1.7,3.7-3.7s-1.7-3.7-3.7-3.7S16.9,61.4,16.9,63.4z
	 M16.9,72c0,2.1,1.7,3.7,3.7,3.7s3.7-1.7,3.7-3.7s-1.7-3.7-3.7-3.7S16.9,69.9,16.9,72z M16.9,80.5c0,2.1,1.7,3.7,3.7,3.7
	s3.7-1.7,3.7-3.7s-1.7-3.7-3.7-3.7S16.9,78.4,16.9,80.5z M16.9,89c0,2.1,1.7,3.7,3.7,3.7s3.7-1.7,3.7-3.7s-1.7-3.7-3.7-3.7
	S16.9,86.9,16.9,89z M16.9,165.8c0,2.1,1.7,3.7,3.7,3.7s3.7-1.7,3.7-3.7s-1.7-3.7-3.7-3.7S16.9,163.7,16.9,165.8z M25.4,54.9
	c0,2.1,1.7,3.7,3.7,3.7s3.7-1.7,3.7-3.7s-1.7-3.7-3.7-3.7S25.4,52.8,25.4,54.9z M25.4,63.4c0,2.1,1.7,3.7,3.7,3.7s3.7-1.7,3.7-3.7
	s-1.7-3.7-3.7-3.7S25.4,61.4,25.4,63.4z M25.4,72c0,2.1,1.7,3.7,3.7,3.7s3.7-1.7,3.7-3.7s-1.7-3.7-3.7-3.7S25.4,69.9,25.4,72z
	 M25.4,80.5c0,2.1,1.7,3.7,3.7,3.7s3.7-1.7,3.7-3.7s-1.7-3.7-3.7-3.7S25.4,78.4,25.4,80.5z M25.4,89c0,2.1,1.7,3.7,3.7,3.7
	s3.7-1.7,3.7-3.7s-1.7-3.7-3.7-3.7S25.4,86.9,25.4,89z M33.8,54.9c0,2.1,1.7,3.7,3.7,3.7s3.7-1.7,3.7-3.7s-1.7-3.7-3.7-3.7
	S33.8,52.8,33.8,54.9z M33.8,63.4c0,2.1,1.7,3.7,3.7,3.7s3.7-1.7,3.7-3.7s-1.7-3.7-3.7-3.7S33.8,61.4,33.8,63.4z M33.8,72
	c0,2.1,1.7,3.7,3.7,3.7s3.7-1.7,3.7-3.7s-1.7-3.7-3.7-3.7S33.8,69.9,33.8,72z M33.8,80.5c0,2.1,1.7,3.7,3.7,3.7s3.7-1.7,3.7-3.7
	s-1.7-3.7-3.7-3.7S33.8,78.4,33.8,80.5z M42.3,54.9c0,2.1,1.7,3.7,3.7,3.7s3.7-1.7,3.7-3.7s-1.7-3.7-3.7-3.7S42.3,52.8,42.3,54.9z
	 M42.3,63.4c0,2.1,1.7,3.7,3.7,3.7s3.7-1.7,3.7-3.7s-1.7-3.7-3.7-3.7S42.3,61.4,42.3,63.4z M42.3,72c0,2.1,1.7,3.7,3.7,3.7
	s3.7-1.7,3.7-3.7s-1.7-3.7-3.7-3.7S42.3,69.9,42.3,72z M42.3,80.5c0,2.1,1.7,3.7,3.7,3.7s3.7-1.7,3.7-3.7s-1.7-3.7-3.7-3.7
	S42.3,78.4,42.3,80.5z M50.8,54.9c0,2.1,1.7,3.7,3.7,3.7s3.7-1.7,3.7-3.7s-1.7-3.7-3.7-3.7S50.8,52.8,50.8,54.9z M50.8,63.4
	c0,2.1,1.7,3.7,3.7,3.7s3.7-1.7,3.7-3.7s-1.7-3.7-3.7-3.7S50.8,61.4,50.8,63.4z M50.8,72c0,2.1,1.7,3.7,3.7,3.7s3.7-1.7,3.7-3.7
	s-1.7-3.7-3.7-3.7S50.8,69.9,50.8,72z M50.8,80.5c0,2.1,1.7,3.7,3.7,3.7s3.7-1.7,3.7-3.7s-1.7-3.7-3.7-3.7S50.8,78.4,50.8,80.5z
	 M50.8,89c0,2.1,1.7,3.7,3.7,3.7s3.7-1.7,3.7-3.7s-1.7-3.7-3.7-3.7S50.8,86.9,50.8,89z M50.8,97.5c0,2.1,1.7,3.7,3.7,3.7
	s3.7-1.7,3.7-3.7s-1.7-3.7-3.7-3.7S50.8,95.5,50.8,97.5z M59.2,54.9c0,2.1,1.7,3.7,3.7,3.7c2.1,0,3.7-1.7,3.7-3.7S65,51.2,63,51.2
	C60.9,51.2,59.2,52.8,59.2,54.9z M59.2,63.4c0,2.1,1.7,3.7,3.7,3.7c2.1,0,3.7-1.7,3.7-3.7S65,59.7,63,59.7
	C60.9,59.7,59.2,61.4,59.2,63.4z M59.2,72c0,2.1,1.7,3.7,3.7,3.7c2.1,0,3.7-1.7,3.7-3.7S65,68.2,63,68.2
	C60.9,68.2,59.2,69.9,59.2,72z M59.2,80.5c0,2.1,1.7,3.7,3.7,3.7c2.1,0,3.7-1.7,3.7-3.7S65,76.8,63,76.8
	C60.9,76.8,59.2,78.4,59.2,80.5z M59.2,89c0,2.1,1.7,3.7,3.7,3.7c2.1,0,3.7-1.7,3.7-3.7S65,85.3,63,85.3
	C60.9,85.3,59.2,86.9,59.2,89z M59.2,97.5c0,2.1,1.7,3.7,3.7,3.7c2.1,0,3.7-1.7,3.7-3.7S65,93.8,63,93.8
	C60.9,93.8,59.2,95.5,59.2,97.5z M59.2,106.1c0,2.1,1.7,3.7,3.7,3.7c2.1,0,3.7-1.7,3.7-3.7s-1.7-3.7-3.7-3.7
	C60.9,102.3,59.2,104,59.2,106.1z M67.7,46.4c0,2.1,1.7,3.7,3.7,3.7s3.7-1.7,3.7-3.7s-1.7-3.7-3.7-3.7S67.7,44.3,67.7,46.4z
	 M67.7,54.9c0,2.1,1.7,3.7,3.7,3.7s3.7-1.7,3.7-3.7s-1.7-3.7-3.7-3.7S67.7,52.8,67.7,54.9z M67.7,63.4c0,2.1,1.7,3.7,3.7,3.7
	s3.7-1.7,3.7-3.7s-1.7-3.7-3.7-3.7S67.7,61.4,67.7,63.4z M67.7,72c0,2.1,1.7,3.7,3.7,3.7s3.7-1.7,3.7-3.7s-1.7-3.7-3.7-3.7
	S67.7,69.9,67.7,72z M67.7,80.5c0,2.1,1.7,3.7,3.7,3.7s3.7-1.7,3.7-3.7s-1.7-3.7-3.7-3.7S67.7,78.4,67.7,80.5z M67.7,89
	c0,2.1,1.7,3.7,3.7,3.7s3.7-1.7,3.7-3.7s-1.7-3.7-3.7-3.7S67.7,86.9,67.7,89z M67.7,97.5c0,2.1,1.7,3.7,3.7,3.7s3.7-1.7,3.7-3.7
	s-1.7-3.7-3.7-3.7S67.7,95.5,67.7,97.5z M67.7,106.1c0,2.1,1.7,3.7,3.7,3.7s3.7-1.7,3.7-3.7s-1.7-3.7-3.7-3.7S67.7,104,67.7,106.1z
	 M67.7,114.6c0,2.1,1.7,3.7,3.7,3.7s3.7-1.7,3.7-3.7s-1.7-3.7-3.7-3.7S67.7,112.5,67.7,114.6z M67.7,123.1c0,2.1,1.7,3.7,3.7,3.7
	s3.7-1.7,3.7-3.7s-1.7-3.7-3.7-3.7S67.7,121.1,67.7,123.1z M67.7,131.6c0,2.1,1.7,3.7,3.7,3.7s3.7-1.7,3.7-3.7s-1.7-3.7-3.7-3.7
	S67.7,129.6,67.7,131.6z M76.1,37.8c0,2.1,1.7,3.7,3.7,3.7s3.7-1.7,3.7-3.7s-1.7-3.7-3.7-3.7S76.1,35.8,76.1,37.8z M76.1,46.4
	c0,2.1,1.7,3.7,3.7,3.7s3.7-1.7,3.7-3.7s-1.7-3.7-3.7-3.7S76.1,44.3,76.1,46.4z M76.1,54.9c0,2.1,1.7,3.7,3.7,3.7s3.7-1.7,3.7-3.7
	s-1.7-3.7-3.7-3.7S76.1,52.8,76.1,54.9z M76.1,63.4c0,2.1,1.7,3.7,3.7,3.7s3.7-1.7,3.7-3.7s-1.7-3.7-3.7-3.7S76.1,61.4,76.1,63.4z
	 M76.1,72c0,2.1,1.7,3.7,3.7,3.7s3.7-1.7,3.7-3.7s-1.7-3.7-3.7-3.7S76.1,69.9,76.1,72z M76.1,80.5c0,2.1,1.7,3.7,3.7,3.7
	s3.7-1.7,3.7-3.7s-1.7-3.7-3.7-3.7S76.1,78.4,76.1,80.5z M76.1,89c0,2.1,1.7,3.7,3.7,3.7s3.7-1.7,3.7-3.7s-1.7-3.7-3.7-3.7
	S76.1,86.9,76.1,89z M76.1,97.5c0,2.1,1.7,3.7,3.7,3.7s3.7-1.7,3.7-3.7s-1.7-3.7-3.7-3.7S76.1,95.5,76.1,97.5z M76.1,106.1
	c0,2.1,1.7,3.7,3.7,3.7s3.7-1.7,3.7-3.7s-1.7-3.7-3.7-3.7S76.1,104,76.1,106.1z M76.1,114.6c0,2.1,1.7,3.7,3.7,3.7s3.7-1.7,3.7-3.7
	s-1.7-3.7-3.7-3.7S76.1,112.5,76.1,114.6z M76.1,123.1c0,2.1,1.7,3.7,3.7,3.7s3.7-1.7,3.7-3.7s-1.7-3.7-3.7-3.7
	S76.1,121.1,76.1,123.1z M76.1,131.6c0,2.1,1.7,3.7,3.7,3.7s3.7-1.7,3.7-3.7s-1.7-3.7-3.7-3.7S76.1,129.6,76.1,131.6z M76.1,140.2
	c0,2.1,1.7,3.7,3.7,3.7s3.7-1.7,3.7-3.7s-1.7-3.7-3.7-3.7S76.1,138.1,76.1,140.2z M84.6,29.3c0,2.1,1.7,3.7,3.7,3.7s3.7-1.7,3.7-3.7
	s-1.7-3.7-3.7-3.7S84.6,27.3,84.6,29.3z M84.6,37.8c0,2.1,1.7,3.7,3.7,3.7s3.7-1.7,3.7-3.7s-1.7-3.7-3.7-3.7S84.6,35.8,84.6,37.8z
	 M84.6,46.4c0,2.1,1.7,3.7,3.7,3.7s3.7-1.7,3.7-3.7s-1.7-3.7-3.7-3.7S84.6,44.3,84.6,46.4z M84.6,54.9c0,2.1,1.7,3.7,3.7,3.7
	s3.7-1.7,3.7-3.7s-1.7-3.7-3.7-3.7S84.6,52.8,84.6,54.9z M84.6,63.4c0,2.1,1.7,3.7,3.7,3.7s3.7-1.7,3.7-3.7s-1.7-3.7-3.7-3.7
	S84.6,61.4,84.6,63.4z M84.6,72c0,2.1,1.7,3.7,3.7,3.7s3.7-1.7,3.7-3.7s-1.7-3.7-3.7-3.7S84.6,69.9,84.6,72z M84.6,80.5
	c0,2.1,1.7,3.7,3.7,3.7s3.7-1.7,3.7-3.7s-1.7-3.7-3.7-3.7S84.6,78.4,84.6,80.5z M84.6,89c0,2.1,1.7,3.7,3.7,3.7s3.7-1.7,3.7-3.7
	s-1.7-3.7-3.7-3.7S84.6,86.9,84.6,89z M84.6,97.5c0,2.1,1.7,3.7,3.7,3.7s3.7-1.7,3.7-3.7s-1.7-3.7-3.7-3.7S84.6,95.5,84.6,97.5z
	 M84.6,106.1c0,2.1,1.7,3.7,3.7,3.7s3.7-1.7,3.7-3.7s-1.7-3.7-3.7-3.7S84.6,104,84.6,106.1z M84.6,114.6c0,2.1,1.7,3.7,3.7,3.7
	s3.7-1.7,3.7-3.7s-1.7-3.7-3.7-3.7S84.6,112.5,84.6,114.6z M84.6,123.1c0,2.1,1.7,3.7,3.7,3.7s3.7-1.7,3.7-3.7s-1.7-3.7-3.7-3.7
	S84.6,121.1,84.6,123.1z M84.6,131.6c0,2.1,1.7,3.7,3.7,3.7s3.7-1.7,3.7-3.7s-1.7-3.7-3.7-3.7S84.6,129.6,84.6,131.6z M84.6,140.2
	c0,2.1,1.7,3.7,3.7,3.7s3.7-1.7,3.7-3.7s-1.7-3.7-3.7-3.7S84.6,138.1,84.6,140.2z M84.6,148.7c0,2.1,1.7,3.7,3.7,3.7
	s3.7-1.7,3.7-3.7s-1.7-3.7-3.7-3.7S84.6,146.6,84.6,148.7z M84.6,157.2c0,2.1,1.7,3.7,3.7,3.7s3.7-1.7,3.7-3.7s-1.7-3.7-3.7-3.7
	S84.6,155.2,84.6,157.2z M93.1,29.3c0,2.1,1.7,3.7,3.7,3.7s3.7-1.7,3.7-3.7s-1.7-3.7-3.7-3.7S93.1,27.3,93.1,29.3z M93.1,46.4
	c0,2.1,1.7,3.7,3.7,3.7s3.7-1.7,3.7-3.7s-1.7-3.7-3.7-3.7S93.1,44.3,93.1,46.4z M93.1,54.9c0,2.1,1.7,3.7,3.7,3.7s3.7-1.7,3.7-3.7
	s-1.7-3.7-3.7-3.7S93.1,52.8,93.1,54.9z M93.1,63.4c0,2.1,1.7,3.7,3.7,3.7s3.7-1.7,3.7-3.7s-1.7-3.7-3.7-3.7S93.1,61.4,93.1,63.4z
	 M93.1,72c0,2.1,1.7,3.7,3.7,3.7s3.7-1.7,3.7-3.7s-1.7-3.7-3.7-3.7S93.1,69.9,93.1,72z M93.1,80.5c0,2.1,1.7,3.7,3.7,3.7
	s3.7-1.7,3.7-3.7s-1.7-3.7-3.7-3.7S93.1,78.4,93.1,80.5z M93.1,89c0,2.1,1.7,3.7,3.7,3.7s3.7-1.7,3.7-3.7s-1.7-3.7-3.7-3.7
	S93.1,86.9,93.1,89z M93.1,97.5c0,2.1,1.7,3.7,3.7,3.7s3.7-1.7,3.7-3.7s-1.7-3.7-3.7-3.7S93.1,95.5,93.1,97.5z M93.1,106.1
	c0,2.1,1.7,3.7,3.7,3.7s3.7-1.7,3.7-3.7s-1.7-3.7-3.7-3.7S93.1,104,93.1,106.1z M93.1,114.6c0,2.1,1.7,3.7,3.7,3.7s3.7-1.7,3.7-3.7
	s-1.7-3.7-3.7-3.7S93.1,112.5,93.1,114.6z M93.1,123.1c0,2.1,1.7,3.7,3.7,3.7s3.7-1.7,3.7-3.7s-1.7-3.7-3.7-3.7
	S93.1,121.1,93.1,123.1z M93.1,131.6c0,2.1,1.7,3.7,3.7,3.7s3.7-1.7,3.7-3.7s-1.7-3.7-3.7-3.7S93.1,129.6,93.1,131.6z M93.1,140.2
	c0,2.1,1.7,3.7,3.7,3.7s3.7-1.7,3.7-3.7s-1.7-3.7-3.7-3.7S93.1,138.1,93.1,140.2z M93.1,148.7c0,2.1,1.7,3.7,3.7,3.7
	s3.7-1.7,3.7-3.7s-1.7-3.7-3.7-3.7S93.1,146.6,93.1,148.7z M93.1,157.2c0,2.1,1.7,3.7,3.7,3.7s3.7-1.7,3.7-3.7s-1.7-3.7-3.7-3.7
	S93.1,155.2,93.1,157.2z M101.5,29.3c0,2.1,1.7,3.7,3.7,3.7s3.7-1.7,3.7-3.7s-1.7-3.7-3.7-3.7S101.5,27.3,101.5,29.3z M101.5,54.9
	c0,2.1,1.7,3.7,3.7,3.7s3.7-1.7,3.7-3.7s-1.7-3.7-3.7-3.7S101.5,52.8,101.5,54.9z M101.5,63.4c0,2.1,1.7,3.7,3.7,3.7
	s3.7-1.7,3.7-3.7s-1.7-3.7-3.7-3.7S101.5,61.4,101.5,63.4z M101.5,72c0,2.1,1.7,3.7,3.7,3.7S109,74,109,72s-1.7-3.7-3.7-3.7
	S101.5,69.9,101.5,72z M101.5,80.5c0,2.1,1.7,3.7,3.7,3.7s3.7-1.7,3.7-3.7s-1.7-3.7-3.7-3.7S101.5,78.4,101.5,80.5z M101.5,89
	c0,2.1,1.7,3.7,3.7,3.7s3.7-1.7,3.7-3.7s-1.7-3.7-3.7-3.7S101.5,86.9,101.5,89z M101.5,97.5c0,2.1,1.7,3.7,3.7,3.7s3.7-1.7,3.7-3.7
	s-1.7-3.7-3.7-3.7S101.5,95.5,101.5,97.5z M101.5,106.1c0,2.1,1.7,3.7,3.7,3.7s3.7-1.7,3.7-3.7s-1.7-3.7-3.7-3.7
	S101.5,104,101.5,106.1z M101.5,114.6c0,2.1,1.7,3.7,3.7,3.7s3.7-1.7,3.7-3.7s-1.7-3.7-3.7-3.7S101.5,112.5,101.5,114.6z
	 M101.5,123.1c0,2.1,1.7,3.7,3.7,3.7s3.7-1.7,3.7-3.7s-1.7-3.7-3.7-3.7S101.5,121.1,101.5,123.1z M101.5,131.6
	c0,2.1,1.7,3.7,3.7,3.7s3.7-1.7,3.7-3.7s-1.7-3.7-3.7-3.7S101.5,129.6,101.5,131.6z M101.5,140.2c0,2.1,1.7,3.7,3.7,3.7
	s3.7-1.7,3.7-3.7s-1.7-3.7-3.7-3.7S101.5,138.1,101.5,140.2z M101.5,148.7c0,2.1,1.7,3.7,3.7,3.7s3.7-1.7,3.7-3.7s-1.7-3.7-3.7-3.7
	S101.5,146.6,101.5,148.7z M101.5,157.2c0,2.1,1.7,3.7,3.7,3.7s3.7-1.7,3.7-3.7s-1.7-3.7-3.7-3.7S101.5,155.2,101.5,157.2z
	 M101.5,165.8c0,2.1,1.7,3.7,3.7,3.7s3.7-1.7,3.7-3.7s-1.7-3.7-3.7-3.7S101.5,163.7,101.5,165.8z M101.5,174.3
	c0,2.1,1.7,3.7,3.7,3.7s3.7-1.7,3.7-3.7s-1.7-3.7-3.7-3.7S101.5,172.2,101.5,174.3z M110,37.8c0,2.1,1.7,3.7,3.7,3.7
	s3.7-1.7,3.7-3.7s-1.7-3.7-3.7-3.7S110,35.8,110,37.8z M110,46.4c0,2.1,1.7,3.7,3.7,3.7s3.7-1.7,3.7-3.7s-1.7-3.7-3.7-3.7
	S110,44.3,110,46.4z M110,54.9c0,2.1,1.7,3.7,3.7,3.7s3.7-1.7,3.7-3.7s-1.7-3.7-3.7-3.7S110,52.8,110,54.9z M110,63.4
	c0,2.1,1.7,3.7,3.7,3.7s3.7-1.7,3.7-3.7s-1.7-3.7-3.7-3.7S110,61.4,110,63.4z M110,72c0,2.1,1.7,3.7,3.7,3.7s3.7-1.7,3.7-3.7
	s-1.7-3.7-3.7-3.7S110,69.9,110,72z M110,80.5c0,2.1,1.7,3.7,3.7,3.7s3.7-1.7,3.7-3.7s-1.7-3.7-3.7-3.7S110,78.4,110,80.5z M110,89
	c0,2.1,1.7,3.7,3.7,3.7s3.7-1.7,3.7-3.7s-1.7-3.7-3.7-3.7S110,86.9,110,89z M110,97.5c0,2.1,1.7,3.7,3.7,3.7s3.7-1.7,3.7-3.7
	s-1.7-3.7-3.7-3.7S110,95.5,110,97.5z M110,106.1c0,2.1,1.7,3.7,3.7,3.7s3.7-1.7,3.7-3.7s-1.7-3.7-3.7-3.7S110,104,110,106.1z
	 M110,114.6c0,2.1,1.7,3.7,3.7,3.7s3.7-1.7,3.7-3.7s-1.7-3.7-3.7-3.7S110,112.5,110,114.6z M110,123.1c0,2.1,1.7,3.7,3.7,3.7
	s3.7-1.7,3.7-3.7s-1.7-3.7-3.7-3.7S110,121.1,110,123.1z M110,131.6c0,2.1,1.7,3.7,3.7,3.7s3.7-1.7,3.7-3.7s-1.7-3.7-3.7-3.7
	S110,129.6,110,131.6z M110,140.2c0,2.1,1.7,3.7,3.7,3.7s3.7-1.7,3.7-3.7s-1.7-3.7-3.7-3.7S110,138.1,110,140.2z M110,148.7
	c0,2.1,1.7,3.7,3.7,3.7s3.7-1.7,3.7-3.7s-1.7-3.7-3.7-3.7S110,146.6,110,148.7z M110,157.2c0,2.1,1.7,3.7,3.7,3.7s3.7-1.7,3.7-3.7
	s-1.7-3.7-3.7-3.7S110,155.2,110,157.2z M110,165.8c0,2.1,1.7,3.7,3.7,3.7s3.7-1.7,3.7-3.7s-1.7-3.7-3.7-3.7S110,163.7,110,165.8z
	 M110,174.3c0,2.1,1.7,3.7,3.7,3.7s3.7-1.7,3.7-3.7s-1.7-3.7-3.7-3.7S110,172.2,110,174.3z M118.4,20.8c0,2.1,1.7,3.7,3.7,3.7
	s3.7-1.7,3.7-3.7s-1.7-3.7-3.7-3.7S118.4,18.7,118.4,20.8z M118.4,37.8c0,2.1,1.7,3.7,3.7,3.7s3.7-1.7,3.7-3.7s-1.7-3.7-3.7-3.7
	S118.4,35.8,118.4,37.8z M118.4,54.9c0,2.1,1.7,3.7,3.7,3.7s3.7-1.7,3.7-3.7s-1.7-3.7-3.7-3.7S118.4,52.8,118.4,54.9z M118.4,63.4
	c0,2.1,1.7,3.7,3.7,3.7s3.7-1.7,3.7-3.7s-1.7-3.7-3.7-3.7S118.4,61.4,118.4,63.4z M118.4,72c0,2.1,1.7,3.7,3.7,3.7s3.7-1.7,3.7-3.7
	s-1.7-3.7-3.7-3.7S118.4,69.9,118.4,72z M118.4,80.5c0,2.1,1.7,3.7,3.7,3.7s3.7-1.7,3.7-3.7s-1.7-3.7-3.7-3.7S118.4,78.4,118.4,80.5
	z M118.4,89c0,2.1,1.7,3.7,3.7,3.7s3.7-1.7,3.7-3.7s-1.7-3.7-3.7-3.7S118.4,86.9,118.4,89z M118.4,97.5c0,2.1,1.7,3.7,3.7,3.7
	s3.7-1.7,3.7-3.7s-1.7-3.7-3.7-3.7S118.4,95.5,118.4,97.5z M118.4,106.1c0,2.1,1.7,3.7,3.7,3.7s3.7-1.7,3.7-3.7s-1.7-3.7-3.7-3.7
	S118.4,104,118.4,106.1z M118.4,114.6c0,2.1,1.7,3.7,3.7,3.7s3.7-1.7,3.7-3.7s-1.7-3.7-3.7-3.7S118.4,112.5,118.4,114.6z
	 M118.4,123.1c0,2.1,1.7,3.7,3.7,3.7s3.7-1.7,3.7-3.7s-1.7-3.7-3.7-3.7S118.4,121.1,118.4,123.1z M118.4,131.6
	c0,2.1,1.7,3.7,3.7,3.7s3.7-1.7,3.7-3.7s-1.7-3.7-3.7-3.7S118.4,129.6,118.4,131.6z M118.4,140.2c0,2.1,1.7,3.7,3.7,3.7
	s3.7-1.7,3.7-3.7s-1.7-3.7-3.7-3.7S118.4,138.1,118.4,140.2z M118.4,148.7c0,2.1,1.7,3.7,3.7,3.7s3.7-1.7,3.7-3.7s-1.7-3.7-3.7-3.7
	S118.4,146.6,118.4,148.7z M118.4,174.3c0,2.1,1.7,3.7,3.7,3.7s3.7-1.7,3.7-3.7s-1.7-3.7-3.7-3.7S118.4,172.2,118.4,174.3z
	 M126.9,20.8c0,2.1,1.7,3.7,3.7,3.7s3.7-1.7,3.7-3.7s-1.7-3.7-3.7-3.7S126.9,18.7,126.9,20.8z M126.9,29.3c0,2.1,1.7,3.7,3.7,3.7
	s3.7-1.7,3.7-3.7s-1.7-3.7-3.7-3.7S126.9,27.3,126.9,29.3z M126.9,37.8c0,2.1,1.7,3.7,3.7,3.7s3.7-1.7,3.7-3.7s-1.7-3.7-3.7-3.7
	S126.9,35.8,126.9,37.8z M126.9,46.4c0,2.1,1.7,3.7,3.7,3.7s3.7-1.7,3.7-3.7s-1.7-3.7-3.7-3.7S126.9,44.3,126.9,46.4z M126.9,54.9
	c0,2.1,1.7,3.7,3.7,3.7s3.7-1.7,3.7-3.7s-1.7-3.7-3.7-3.7S126.9,52.8,126.9,54.9z M126.9,63.4c0,2.1,1.7,3.7,3.7,3.7
	s3.7-1.7,3.7-3.7s-1.7-3.7-3.7-3.7S126.9,61.4,126.9,63.4z M126.9,72c0,2.1,1.7,3.7,3.7,3.7s3.7-1.7,3.7-3.7s-1.7-3.7-3.7-3.7
	S126.9,69.9,126.9,72z M126.9,97.5c0,2.1,1.7,3.7,3.7,3.7s3.7-1.7,3.7-3.7s-1.7-3.7-3.7-3.7S126.9,95.5,126.9,97.5z M126.9,106.1
	c0,2.1,1.7,3.7,3.7,3.7s3.7-1.7,3.7-3.7s-1.7-3.7-3.7-3.7S126.9,104,126.9,106.1z M126.9,114.6c0,2.1,1.7,3.7,3.7,3.7
	s3.7-1.7,3.7-3.7s-1.7-3.7-3.7-3.7S126.9,112.5,126.9,114.6z M126.9,123.1c0,2.1,1.7,3.7,3.7,3.7s3.7-1.7,3.7-3.7s-1.7-3.7-3.7-3.7
	S126.9,121.1,126.9,123.1z M126.9,131.6c0,2.1,1.7,3.7,3.7,3.7s3.7-1.7,3.7-3.7s-1.7-3.7-3.7-3.7S126.9,129.6,126.9,131.6z
	 M126.9,140.2c0,2.1,1.7,3.7,3.7,3.7s3.7-1.7,3.7-3.7s-1.7-3.7-3.7-3.7S126.9,138.1,126.9,140.2z M126.9,148.7
	c0,2.1,1.7,3.7,3.7,3.7s3.7-1.7,3.7-3.7s-1.7-3.7-3.7-3.7S126.9,146.6,126.9,148.7z M126.9,165.8c0,2.1,1.7,3.7,3.7,3.7
	s3.7-1.7,3.7-3.7s-1.7-3.7-3.7-3.7S126.9,163.7,126.9,165.8z M126.9,174.3c0,2.1,1.7,3.7,3.7,3.7s3.7-1.7,3.7-3.7s-1.7-3.7-3.7-3.7
	S126.9,172.2,126.9,174.3z M126.9,182.8c0,2.1,1.7,3.7,3.7,3.7s3.7-1.7,3.7-3.7s-1.7-3.7-3.7-3.7S126.9,180.7,126.9,182.8z
	 M126.9,191.3c0,2.1,1.7,3.7,3.7,3.7s3.7-1.7,3.7-3.7s-1.7-3.7-3.7-3.7S126.9,189.3,126.9,191.3z M135.3,12.3c0,2.1,1.7,3.7,3.7,3.7
	s3.7-1.7,3.7-3.7s-1.7-3.7-3.7-3.7S135.3,10.2,135.3,12.3z M135.3,20.8c0,2.1,1.7,3.7,3.7,3.7s3.7-1.7,3.7-3.7s-1.7-3.7-3.7-3.7
	S135.3,18.7,135.3,20.8z M135.3,29.3c0,2.1,1.7,3.7,3.7,3.7s3.7-1.7,3.7-3.7s-1.7-3.7-3.7-3.7S135.3,27.3,135.3,29.3z M135.3,37.8
	c0,2.1,1.7,3.7,3.7,3.7s3.7-1.7,3.7-3.7s-1.7-3.7-3.7-3.7S135.3,35.8,135.3,37.8z M135.3,46.4c0,2.1,1.7,3.7,3.7,3.7
	s3.7-1.7,3.7-3.7s-1.7-3.7-3.7-3.7S135.3,44.3,135.3,46.4z M135.3,54.9c0,2.1,1.7,3.7,3.7,3.7s3.7-1.7,3.7-3.7s-1.7-3.7-3.7-3.7
	S135.3,52.8,135.3,54.9z M135.3,63.4c0,2.1,1.7,3.7,3.7,3.7s3.7-1.7,3.7-3.7s-1.7-3.7-3.7-3.7S135.3,61.4,135.3,63.4z M135.3,72
	c0,2.1,1.7,3.7,3.7,3.7s3.7-1.7,3.7-3.7s-1.7-3.7-3.7-3.7S135.3,69.9,135.3,72z M135.3,97.5c0,2.1,1.7,3.7,3.7,3.7s3.7-1.7,3.7-3.7
	s-1.7-3.7-3.7-3.7S135.3,95.5,135.3,97.5z M135.3,106.1c0,2.1,1.7,3.7,3.7,3.7s3.7-1.7,3.7-3.7s-1.7-3.7-3.7-3.7
	S135.3,104,135.3,106.1z M135.3,114.6c0,2.1,1.7,3.7,3.7,3.7s3.7-1.7,3.7-3.7s-1.7-3.7-3.7-3.7S135.3,112.5,135.3,114.6z
	 M135.3,123.1c0,2.1,1.7,3.7,3.7,3.7s3.7-1.7,3.7-3.7s-1.7-3.7-3.7-3.7S135.3,121.1,135.3,123.1z M135.3,131.6
	c0,2.1,1.7,3.7,3.7,3.7s3.7-1.7,3.7-3.7s-1.7-3.7-3.7-3.7S135.3,129.6,135.3,131.6z M135.3,140.2c0,2.1,1.7,3.7,3.7,3.7
	s3.7-1.7,3.7-3.7s-1.7-3.7-3.7-3.7S135.3,138.1,135.3,140.2z M135.3,148.7c0,2.1,1.7,3.7,3.7,3.7s3.7-1.7,3.7-3.7s-1.7-3.7-3.7-3.7
	S135.3,146.6,135.3,148.7z M135.3,157.2c0,2.1,1.7,3.7,3.7,3.7s3.7-1.7,3.7-3.7s-1.7-3.7-3.7-3.7S135.3,155.2,135.3,157.2z
	 M135.3,165.8c0,2.1,1.7,3.7,3.7,3.7s3.7-1.7,3.7-3.7s-1.7-3.7-3.7-3.7S135.3,163.7,135.3,165.8z M135.3,182.8
	c0,2.1,1.7,3.7,3.7,3.7s3.7-1.7,3.7-3.7s-1.7-3.7-3.7-3.7S135.3,180.7,135.3,182.8z M135.3,191.3c0,2.1,1.7,3.7,3.7,3.7
	s3.7-1.7,3.7-3.7s-1.7-3.7-3.7-3.7S135.3,189.3,135.3,191.3z M135.3,199.9c0,2.1,1.7,3.7,3.7,3.7s3.7-1.7,3.7-3.7s-1.7-3.7-3.7-3.7
	S135.3,197.8,135.3,199.9z M135.3,208.4c0,2.1,1.7,3.7,3.7,3.7s3.7-1.7,3.7-3.7s-1.7-3.7-3.7-3.7S135.3,206.3,135.3,208.4z
	 M135.3,216.9c0,2.1,1.7,3.7,3.7,3.7s3.7-1.7,3.7-3.7s-1.7-3.7-3.7-3.7S135.3,214.9,135.3,216.9z M143.8,12.3c0,2.1,1.7,3.7,3.7,3.7
	s3.7-1.7,3.7-3.7s-1.7-3.7-3.7-3.7S143.8,10.2,143.8,12.3z M143.8,20.8c0,2.1,1.7,3.7,3.7,3.7s3.7-1.7,3.7-3.7s-1.7-3.7-3.7-3.7
	S143.8,18.7,143.8,20.8z M143.8,46.4c0,2.1,1.7,3.7,3.7,3.7s3.7-1.7,3.7-3.7s-1.7-3.7-3.7-3.7S143.8,44.3,143.8,46.4z M143.8,54.9
	c0,2.1,1.7,3.7,3.7,3.7s3.7-1.7,3.7-3.7s-1.7-3.7-3.7-3.7S143.8,52.8,143.8,54.9z M143.8,72c0,2.1,1.7,3.7,3.7,3.7s3.7-1.7,3.7-3.7
	s-1.7-3.7-3.7-3.7S143.8,69.9,143.8,72z M143.8,80.5c0,2.1,1.7,3.7,3.7,3.7s3.7-1.7,3.7-3.7s-1.7-3.7-3.7-3.7S143.8,78.4,143.8,80.5
	z M143.8,89c0,2.1,1.7,3.7,3.7,3.7s3.7-1.7,3.7-3.7s-1.7-3.7-3.7-3.7S143.8,86.9,143.8,89z M143.8,97.5c0,2.1,1.7,3.7,3.7,3.7
	s3.7-1.7,3.7-3.7s-1.7-3.7-3.7-3.7S143.8,95.5,143.8,97.5z M143.8,106.1c0,2.1,1.7,3.7,3.7,3.7s3.7-1.7,3.7-3.7s-1.7-3.7-3.7-3.7
	S143.8,104,143.8,106.1z M143.8,114.6c0,2.1,1.7,3.7,3.7,3.7s3.7-1.7,3.7-3.7s-1.7-3.7-3.7-3.7S143.8,112.5,143.8,114.6z
	 M143.8,123.1c0,2.1,1.7,3.7,3.7,3.7s3.7-1.7,3.7-3.7s-1.7-3.7-3.7-3.7S143.8,121.1,143.8,123.1z M143.8,131.6
	c0,2.1,1.7,3.7,3.7,3.7s3.7-1.7,3.7-3.7s-1.7-3.7-3.7-3.7S143.8,129.6,143.8,131.6z M143.8,140.2c0,2.1,1.7,3.7,3.7,3.7
	s3.7-1.7,3.7-3.7s-1.7-3.7-3.7-3.7S143.8,138.1,143.8,140.2z M143.8,174.3c0,2.1,1.7,3.7,3.7,3.7s3.7-1.7,3.7-3.7s-1.7-3.7-3.7-3.7
	S143.8,172.2,143.8,174.3z M143.8,191.3c0,2.1,1.7,3.7,3.7,3.7s3.7-1.7,3.7-3.7s-1.7-3.7-3.7-3.7S143.8,189.3,143.8,191.3z
	 M143.8,199.9c0,2.1,1.7,3.7,3.7,3.7s3.7-1.7,3.7-3.7s-1.7-3.7-3.7-3.7S143.8,197.8,143.8,199.9z M143.8,208.4
	c0,2.1,1.7,3.7,3.7,3.7s3.7-1.7,3.7-3.7s-1.7-3.7-3.7-3.7S143.8,206.3,143.8,208.4z M143.8,216.9c0,2.1,1.7,3.7,3.7,3.7
	s3.7-1.7,3.7-3.7s-1.7-3.7-3.7-3.7S143.8,214.9,143.8,216.9z M143.8,225.4c0,2.1,1.7,3.7,3.7,3.7s3.7-1.7,3.7-3.7s-1.7-3.7-3.7-3.7
	S143.8,223.4,143.8,225.4z M143.8,234c0,2.1,1.7,3.7,3.7,3.7s3.7-1.7,3.7-3.7s-1.7-3.7-3.7-3.7S143.8,231.9,143.8,234z M152.3,12.3
	c0,2.1,1.7,3.7,3.7,3.7s3.7-1.7,3.7-3.7s-1.7-3.7-3.7-3.7S152.3,10.2,152.3,12.3z M152.3,20.8c0,2.1,1.7,3.7,3.7,3.7
	s3.7-1.7,3.7-3.7s-1.7-3.7-3.7-3.7S152.3,18.7,152.3,20.8z M152.3,54.9c0,2.1,1.7,3.7,3.7,3.7s3.7-1.7,3.7-3.7s-1.7-3.7-3.7-3.7
	S152.3,52.8,152.3,54.9z M152.3,63.4c0,2.1,1.7,3.7,3.7,3.7s3.7-1.7,3.7-3.7s-1.7-3.7-3.7-3.7S152.3,61.4,152.3,63.4z M152.3,72
	c0,2.1,1.7,3.7,3.7,3.7s3.7-1.7,3.7-3.7s-1.7-3.7-3.7-3.7S152.3,69.9,152.3,72z M152.3,80.5c0,2.1,1.7,3.7,3.7,3.7s3.7-1.7,3.7-3.7
	s-1.7-3.7-3.7-3.7S152.3,78.4,152.3,80.5z M152.3,89c0,2.1,1.7,3.7,3.7,3.7s3.7-1.7,3.7-3.7s-1.7-3.7-3.7-3.7S152.3,86.9,152.3,89z
	 M152.3,97.5c0,2.1,1.7,3.7,3.7,3.7s3.7-1.7,3.7-3.7s-1.7-3.7-3.7-3.7S152.3,95.5,152.3,97.5z M152.3,106.1c0,2.1,1.7,3.7,3.7,3.7
	s3.7-1.7,3.7-3.7s-1.7-3.7-3.7-3.7S152.3,104,152.3,106.1z M152.3,114.6c0,2.1,1.7,3.7,3.7,3.7s3.7-1.7,3.7-3.7s-1.7-3.7-3.7-3.7
	S152.3,112.5,152.3,114.6z M152.3,123.1c0,2.1,1.7,3.7,3.7,3.7s3.7-1.7,3.7-3.7s-1.7-3.7-3.7-3.7S152.3,121.1,152.3,123.1z
	 M152.3,131.6c0,2.1,1.7,3.7,3.7,3.7s3.7-1.7,3.7-3.7s-1.7-3.7-3.7-3.7S152.3,129.6,152.3,131.6z M152.3,174.3
	c0,2.1,1.7,3.7,3.7,3.7s3.7-1.7,3.7-3.7s-1.7-3.7-3.7-3.7S152.3,172.2,152.3,174.3z M152.3,191.3c0,2.1,1.7,3.7,3.7,3.7
	s3.7-1.7,3.7-3.7s-1.7-3.7-3.7-3.7S152.3,189.3,152.3,191.3z M152.3,199.9c0,2.1,1.7,3.7,3.7,3.7s3.7-1.7,3.7-3.7s-1.7-3.7-3.7-3.7
	S152.3,197.8,152.3,199.9z M152.3,208.4c0,2.1,1.7,3.7,3.7,3.7s3.7-1.7,3.7-3.7s-1.7-3.7-3.7-3.7S152.3,206.3,152.3,208.4z
	 M152.3,216.9c0,2.1,1.7,3.7,3.7,3.7s3.7-1.7,3.7-3.7s-1.7-3.7-3.7-3.7S152.3,214.9,152.3,216.9z M152.3,225.4
	c0,2.1,1.7,3.7,3.7,3.7s3.7-1.7,3.7-3.7s-1.7-3.7-3.7-3.7S152.3,223.4,152.3,225.4z M152.3,234c0,2.1,1.7,3.7,3.7,3.7
	s3.7-1.7,3.7-3.7s-1.7-3.7-3.7-3.7S152.3,231.9,152.3,234z M152.3,242.5c0,2.1,1.7,3.7,3.7,3.7s3.7-1.7,3.7-3.7s-1.7-3.7-3.7-3.7
	S152.3,240.4,152.3,242.5z M152.3,251c0,2.1,1.7,3.7,3.7,3.7s3.7-1.7,3.7-3.7s-1.7-3.7-3.7-3.7S152.3,249,152.3,251z M152.3,259.6
	c0,2.1,1.7,3.7,3.7,3.7s3.7-1.7,3.7-3.7s-1.7-3.7-3.7-3.7S152.3,257.5,152.3,259.6z M152.3,268.1c0,2.1,1.7,3.7,3.7,3.7
	s3.7-1.7,3.7-3.7s-1.7-3.7-3.7-3.7S152.3,266,152.3,268.1z M152.3,276.6c0,2.1,1.7,3.7,3.7,3.7s3.7-1.7,3.7-3.7s-1.7-3.7-3.7-3.7
	S152.3,274.5,152.3,276.6z M152.3,285.1c0,2.1,1.7,3.7,3.7,3.7s3.7-1.7,3.7-3.7s-1.7-3.7-3.7-3.7S152.3,283.1,152.3,285.1z
	 M152.3,293.7c0,2.1,1.7,3.7,3.7,3.7s3.7-1.7,3.7-3.7s-1.7-3.7-3.7-3.7S152.3,291.6,152.3,293.7z M152.3,302.2
	c0,2.1,1.7,3.7,3.7,3.7s3.7-1.7,3.7-3.7s-1.7-3.7-3.7-3.7S152.3,300.1,152.3,302.2z M152.3,310.7c0,2.1,1.7,3.7,3.7,3.7
	s3.7-1.7,3.7-3.7s-1.7-3.7-3.7-3.7S152.3,308.7,152.3,310.7z M160.7,12.3c0,2.1,1.7,3.7,3.7,3.7s3.7-1.7,3.7-3.7s-1.7-3.7-3.7-3.7
	S160.7,10.2,160.7,12.3z M160.7,29.3c0,2.1,1.7,3.7,3.7,3.7s3.7-1.7,3.7-3.7s-1.7-3.7-3.7-3.7S160.7,27.3,160.7,29.3z M160.7,37.8
	c0,2.1,1.7,3.7,3.7,3.7s3.7-1.7,3.7-3.7s-1.7-3.7-3.7-3.7S160.7,35.8,160.7,37.8z M160.7,63.4c0,2.1,1.7,3.7,3.7,3.7
	s3.7-1.7,3.7-3.7s-1.7-3.7-3.7-3.7S160.7,61.4,160.7,63.4z M160.7,72c0,2.1,1.7,3.7,3.7,3.7s3.7-1.7,3.7-3.7s-1.7-3.7-3.7-3.7
	S160.7,69.9,160.7,72z M160.7,80.5c0,2.1,1.7,3.7,3.7,3.7s3.7-1.7,3.7-3.7s-1.7-3.7-3.7-3.7S160.7,78.4,160.7,80.5z M160.7,89
	c0,2.1,1.7,3.7,3.7,3.7s3.7-1.7,3.7-3.7s-1.7-3.7-3.7-3.7S160.7,86.9,160.7,89z M160.7,97.5c0,2.1,1.7,3.7,3.7,3.7s3.7-1.7,3.7-3.7
	s-1.7-3.7-3.7-3.7S160.7,95.5,160.7,97.5z M160.7,106.1c0,2.1,1.7,3.7,3.7,3.7s3.7-1.7,3.7-3.7s-1.7-3.7-3.7-3.7
	S160.7,104,160.7,106.1z M160.7,114.6c0,2.1,1.7,3.7,3.7,3.7s3.7-1.7,3.7-3.7s-1.7-3.7-3.7-3.7S160.7,112.5,160.7,114.6z
	 M160.7,123.1c0,2.1,1.7,3.7,3.7,3.7s3.7-1.7,3.7-3.7s-1.7-3.7-3.7-3.7S160.7,121.1,160.7,123.1z M160.7,191.3
	c0,2.1,1.7,3.7,3.7,3.7s3.7-1.7,3.7-3.7s-1.7-3.7-3.7-3.7S160.7,189.3,160.7,191.3z M160.7,199.9c0,2.1,1.7,3.7,3.7,3.7
	s3.7-1.7,3.7-3.7s-1.7-3.7-3.7-3.7S160.7,197.8,160.7,199.9z M160.7,208.4c0,2.1,1.7,3.7,3.7,3.7s3.7-1.7,3.7-3.7s-1.7-3.7-3.7-3.7
	S160.7,206.3,160.7,208.4z M160.7,216.9c0,2.1,1.7,3.7,3.7,3.7s3.7-1.7,3.7-3.7s-1.7-3.7-3.7-3.7S160.7,214.9,160.7,216.9z
	 M160.7,225.4c0,2.1,1.7,3.7,3.7,3.7s3.7-1.7,3.7-3.7s-1.7-3.7-3.7-3.7S160.7,223.4,160.7,225.4z M160.7,234c0,2.1,1.7,3.7,3.7,3.7
	s3.7-1.7,3.7-3.7s-1.7-3.7-3.7-3.7S160.7,231.9,160.7,234z M160.7,242.5c0,2.1,1.7,3.7,3.7,3.7s3.7-1.7,3.7-3.7s-1.7-3.7-3.7-3.7
	S160.7,240.4,160.7,242.5z M160.7,251c0,2.1,1.7,3.7,3.7,3.7s3.7-1.7,3.7-3.7s-1.7-3.7-3.7-3.7S160.7,249,160.7,251z M160.7,259.6
	c0,2.1,1.7,3.7,3.7,3.7s3.7-1.7,3.7-3.7s-1.7-3.7-3.7-3.7S160.7,257.5,160.7,259.6z M160.7,268.1c0,2.1,1.7,3.7,3.7,3.7
	s3.7-1.7,3.7-3.7s-1.7-3.7-3.7-3.7S160.7,266,160.7,268.1z M160.7,276.6c0,2.1,1.7,3.7,3.7,3.7s3.7-1.7,3.7-3.7s-1.7-3.7-3.7-3.7
	S160.7,274.5,160.7,276.6z M160.7,285.1c0,2.1,1.7,3.7,3.7,3.7s3.7-1.7,3.7-3.7s-1.7-3.7-3.7-3.7S160.7,283.1,160.7,285.1z
	 M160.7,293.7c0,2.1,1.7,3.7,3.7,3.7s3.7-1.7,3.7-3.7s-1.7-3.7-3.7-3.7S160.7,291.6,160.7,293.7z M160.7,302.2
	c0,2.1,1.7,3.7,3.7,3.7s3.7-1.7,3.7-3.7s-1.7-3.7-3.7-3.7S160.7,300.1,160.7,302.2z M160.7,310.7c0,2.1,1.7,3.7,3.7,3.7
	s3.7-1.7,3.7-3.7s-1.7-3.7-3.7-3.7S160.7,308.7,160.7,310.7z M160.7,319.2c0,2.1,1.7,3.7,3.7,3.7s3.7-1.7,3.7-3.7s-1.7-3.7-3.7-3.7
	S160.7,317.2,160.7,319.2z M169.2,20.8c0,2.1,1.7,3.7,3.7,3.7s3.7-1.7,3.7-3.7s-1.7-3.7-3.7-3.7S169.2,18.7,169.2,20.8z M169.2,29.3
	c0,2.1,1.7,3.7,3.7,3.7s3.7-1.7,3.7-3.7s-1.7-3.7-3.7-3.7S169.2,27.3,169.2,29.3z M169.2,37.8c0,2.1,1.7,3.7,3.7,3.7
	s3.7-1.7,3.7-3.7s-1.7-3.7-3.7-3.7S169.2,35.8,169.2,37.8z M169.2,97.5c0,2.1,1.7,3.7,3.7,3.7s3.7-1.7,3.7-3.7s-1.7-3.7-3.7-3.7
	S169.2,95.5,169.2,97.5z M169.2,106.1c0,2.1,1.7,3.7,3.7,3.7s3.7-1.7,3.7-3.7s-1.7-3.7-3.7-3.7S169.2,104,169.2,106.1z M169.2,114.6
	c0,2.1,1.7,3.7,3.7,3.7s3.7-1.7,3.7-3.7s-1.7-3.7-3.7-3.7S169.2,112.5,169.2,114.6z M169.2,123.1c0,2.1,1.7,3.7,3.7,3.7
	s3.7-1.7,3.7-3.7s-1.7-3.7-3.7-3.7S169.2,121.1,169.2,123.1z M169.2,191.3c0,2.1,1.7,3.7,3.7,3.7s3.7-1.7,3.7-3.7s-1.7-3.7-3.7-3.7
	S169.2,189.3,169.2,191.3z M169.2,199.9c0,2.1,1.7,3.7,3.7,3.7s3.7-1.7,3.7-3.7s-1.7-3.7-3.7-3.7S169.2,197.8,169.2,199.9z
	 M169.2,208.4c0,2.1,1.7,3.7,3.7,3.7s3.7-1.7,3.7-3.7s-1.7-3.7-3.7-3.7S169.2,206.3,169.2,208.4z M169.2,216.9
	c0,2.1,1.7,3.7,3.7,3.7s3.7-1.7,3.7-3.7s-1.7-3.7-3.7-3.7S169.2,214.9,169.2,216.9z M169.2,225.4c0,2.1,1.7,3.7,3.7,3.7
	s3.7-1.7,3.7-3.7s-1.7-3.7-3.7-3.7S169.2,223.4,169.2,225.4z M169.2,234c0,2.1,1.7,3.7,3.7,3.7s3.7-1.7,3.7-3.7s-1.7-3.7-3.7-3.7
	S169.2,231.9,169.2,234z M169.2,242.5c0,2.1,1.7,3.7,3.7,3.7s3.7-1.7,3.7-3.7s-1.7-3.7-3.7-3.7S169.2,240.4,169.2,242.5z M169.2,251
	c0,2.1,1.7,3.7,3.7,3.7s3.7-1.7,3.7-3.7s-1.7-3.7-3.7-3.7S169.2,249,169.2,251z M169.2,259.6c0,2.1,1.7,3.7,3.7,3.7s3.7-1.7,3.7-3.7
	s-1.7-3.7-3.7-3.7S169.2,257.5,169.2,259.6z M169.2,268.1c0,2.1,1.7,3.7,3.7,3.7s3.7-1.7,3.7-3.7s-1.7-3.7-3.7-3.7
	S169.2,266,169.2,268.1z M169.2,276.6c0,2.1,1.7,3.7,3.7,3.7s3.7-1.7,3.7-3.7s-1.7-3.7-3.7-3.7S169.2,274.5,169.2,276.6z
	 M169.2,310.7c0,2.1,1.7,3.7,3.7,3.7s3.7-1.7,3.7-3.7s-1.7-3.7-3.7-3.7S169.2,308.7,169.2,310.7z M177.6,12.3c0,2.1,1.7,3.7,3.7,3.7
	s3.7-1.7,3.7-3.7s-1.7-3.7-3.7-3.7S177.6,10.2,177.6,12.3z M177.6,20.8c0,2.1,1.7,3.7,3.7,3.7s3.7-1.7,3.7-3.7s-1.7-3.7-3.7-3.7
	S177.6,18.7,177.6,20.8z M177.6,29.3c0,2.1,1.7,3.7,3.7,3.7s3.7-1.7,3.7-3.7s-1.7-3.7-3.7-3.7S177.6,27.3,177.6,29.3z M177.6,37.8
	c0,2.1,1.7,3.7,3.7,3.7s3.7-1.7,3.7-3.7s-1.7-3.7-3.7-3.7S177.6,35.8,177.6,37.8z M177.6,46.4c0,2.1,1.7,3.7,3.7,3.7
	s3.7-1.7,3.7-3.7s-1.7-3.7-3.7-3.7S177.6,44.3,177.6,46.4z M177.6,54.9c0,2.1,1.7,3.7,3.7,3.7s3.7-1.7,3.7-3.7s-1.7-3.7-3.7-3.7
	S177.6,52.8,177.6,54.9z M177.6,106.1c0,2.1,1.7,3.7,3.7,3.7s3.7-1.7,3.7-3.7s-1.7-3.7-3.7-3.7S177.6,104,177.6,106.1z M177.6,114.6
	c0,2.1,1.7,3.7,3.7,3.7s3.7-1.7,3.7-3.7s-1.7-3.7-3.7-3.7S177.6,112.5,177.6,114.6z M177.6,191.3c0,2.1,1.7,3.7,3.7,3.7
	s3.7-1.7,3.7-3.7s-1.7-3.7-3.7-3.7S177.6,189.3,177.6,191.3z M177.6,199.9c0,2.1,1.7,3.7,3.7,3.7s3.7-1.7,3.7-3.7s-1.7-3.7-3.7-3.7
	S177.6,197.8,177.6,199.9z M177.6,208.4c0,2.1,1.7,3.7,3.7,3.7s3.7-1.7,3.7-3.7s-1.7-3.7-3.7-3.7S177.6,206.3,177.6,208.4z
	 M177.6,216.9c0,2.1,1.7,3.7,3.7,3.7s3.7-1.7,3.7-3.7s-1.7-3.7-3.7-3.7S177.6,214.9,177.6,216.9z M177.6,225.4
	c0,2.1,1.7,3.7,3.7,3.7s3.7-1.7,3.7-3.7s-1.7-3.7-3.7-3.7S177.6,223.4,177.6,225.4z M177.6,234c0,2.1,1.7,3.7,3.7,3.7
	s3.7-1.7,3.7-3.7s-1.7-3.7-3.7-3.7S177.6,231.9,177.6,234z M177.6,242.5c0,2.1,1.7,3.7,3.7,3.7s3.7-1.7,3.7-3.7s-1.7-3.7-3.7-3.7
	S177.6,240.4,177.6,242.5z M177.6,251c0,2.1,1.7,3.7,3.7,3.7s3.7-1.7,3.7-3.7s-1.7-3.7-3.7-3.7S177.6,249,177.6,251z M177.6,259.6
	c0,2.1,1.7,3.7,3.7,3.7s3.7-1.7,3.7-3.7s-1.7-3.7-3.7-3.7S177.6,257.5,177.6,259.6z M177.6,268.1c0,2.1,1.7,3.7,3.7,3.7
	s3.7-1.7,3.7-3.7s-1.7-3.7-3.7-3.7S177.6,266,177.6,268.1z M186.1,12.3c0,2.1,1.7,3.7,3.7,3.7s3.7-1.7,3.7-3.7s-1.7-3.7-3.7-3.7
	S186.1,10.2,186.1,12.3z M186.1,20.8c0,2.1,1.7,3.7,3.7,3.7s3.7-1.7,3.7-3.7s-1.7-3.7-3.7-3.7S186.1,18.7,186.1,20.8z M186.1,29.3
	c0,2.1,1.7,3.7,3.7,3.7s3.7-1.7,3.7-3.7s-1.7-3.7-3.7-3.7S186.1,27.3,186.1,29.3z M186.1,37.8c0,2.1,1.7,3.7,3.7,3.7
	s3.7-1.7,3.7-3.7s-1.7-3.7-3.7-3.7S186.1,35.8,186.1,37.8z M186.1,46.4c0,2.1,1.7,3.7,3.7,3.7s3.7-1.7,3.7-3.7s-1.7-3.7-3.7-3.7
	S186.1,44.3,186.1,46.4z M186.1,54.9c0,2.1,1.7,3.7,3.7,3.7s3.7-1.7,3.7-3.7s-1.7-3.7-3.7-3.7S186.1,52.8,186.1,54.9z M186.1,63.4
	c0,2.1,1.7,3.7,3.7,3.7s3.7-1.7,3.7-3.7s-1.7-3.7-3.7-3.7S186.1,61.4,186.1,63.4z M186.1,72c0,2.1,1.7,3.7,3.7,3.7s3.7-1.7,3.7-3.7
	s-1.7-3.7-3.7-3.7S186.1,69.9,186.1,72z M186.1,80.5c0,2.1,1.7,3.7,3.7,3.7s3.7-1.7,3.7-3.7s-1.7-3.7-3.7-3.7S186.1,78.4,186.1,80.5
	z M186.1,199.9c0,2.1,1.7,3.7,3.7,3.7s3.7-1.7,3.7-3.7s-1.7-3.7-3.7-3.7S186.1,197.8,186.1,199.9z M186.1,208.4
	c0,2.1,1.7,3.7,3.7,3.7s3.7-1.7,3.7-3.7s-1.7-3.7-3.7-3.7S186.1,206.3,186.1,208.4z M186.1,216.9c0,2.1,1.7,3.7,3.7,3.7
	s3.7-1.7,3.7-3.7s-1.7-3.7-3.7-3.7S186.1,214.9,186.1,216.9z M186.1,225.4c0,2.1,1.7,3.7,3.7,3.7s3.7-1.7,3.7-3.7s-1.7-3.7-3.7-3.7
	S186.1,223.4,186.1,225.4z M186.1,234c0,2.1,1.7,3.7,3.7,3.7s3.7-1.7,3.7-3.7s-1.7-3.7-3.7-3.7S186.1,231.9,186.1,234z M186.1,242.5
	c0,2.1,1.7,3.7,3.7,3.7s3.7-1.7,3.7-3.7s-1.7-3.7-3.7-3.7S186.1,240.4,186.1,242.5z M186.1,251c0,2.1,1.7,3.7,3.7,3.7
	s3.7-1.7,3.7-3.7s-1.7-3.7-3.7-3.7S186.1,249,186.1,251z M186.1,259.6c0,2.1,1.7,3.7,3.7,3.7s3.7-1.7,3.7-3.7s-1.7-3.7-3.7-3.7
	S186.1,257.5,186.1,259.6z M194.6,12.3c0,2.1,1.7,3.7,3.7,3.7s3.7-1.7,3.7-3.7s-1.7-3.7-3.7-3.7S194.6,10.2,194.6,12.3z M194.6,20.8
	c0,2.1,1.7,3.7,3.7,3.7s3.7-1.7,3.7-3.7s-1.7-3.7-3.7-3.7S194.6,18.7,194.6,20.8z M194.6,29.3c0,2.1,1.7,3.7,3.7,3.7
	s3.7-1.7,3.7-3.7s-1.7-3.7-3.7-3.7S194.6,27.3,194.6,29.3z M194.6,37.8c0,2.1,1.7,3.7,3.7,3.7s3.7-1.7,3.7-3.7s-1.7-3.7-3.7-3.7
	S194.6,35.8,194.6,37.8z M194.6,46.4c0,2.1,1.7,3.7,3.7,3.7s3.7-1.7,3.7-3.7s-1.7-3.7-3.7-3.7S194.6,44.3,194.6,46.4z M194.6,54.9
	c0,2.1,1.7,3.7,3.7,3.7s3.7-1.7,3.7-3.7s-1.7-3.7-3.7-3.7S194.6,52.8,194.6,54.9z M194.6,63.4c0,2.1,1.7,3.7,3.7,3.7
	s3.7-1.7,3.7-3.7s-1.7-3.7-3.7-3.7S194.6,61.4,194.6,63.4z M194.6,72c0,2.1,1.7,3.7,3.7,3.7S202,74,202,72s-1.7-3.7-3.7-3.7
	S194.6,69.9,194.6,72z M194.6,80.5c0,2.1,1.7,3.7,3.7,3.7s3.7-1.7,3.7-3.7s-1.7-3.7-3.7-3.7S194.6,78.4,194.6,80.5z M194.6,89
	c0,2.1,1.7,3.7,3.7,3.7s3.7-1.7,3.7-3.7s-1.7-3.7-3.7-3.7S194.6,86.9,194.6,89z M194.6,208.4c0,2.1,1.7,3.7,3.7,3.7s3.7-1.7,3.7-3.7
	s-1.7-3.7-3.7-3.7S194.6,206.3,194.6,208.4z M194.6,216.9c0,2.1,1.7,3.7,3.7,3.7s3.7-1.7,3.7-3.7s-1.7-3.7-3.7-3.7
	S194.6,214.9,194.6,216.9z M194.6,225.4c0,2.1,1.7,3.7,3.7,3.7s3.7-1.7,3.7-3.7s-1.7-3.7-3.7-3.7S194.6,223.4,194.6,225.4z
	 M194.6,234c0,2.1,1.7,3.7,3.7,3.7s3.7-1.7,3.7-3.7s-1.7-3.7-3.7-3.7S194.6,231.9,194.6,234z M194.6,242.5c0,2.1,1.7,3.7,3.7,3.7
	s3.7-1.7,3.7-3.7s-1.7-3.7-3.7-3.7S194.6,240.4,194.6,242.5z M194.6,251c0,2.1,1.7,3.7,3.7,3.7s3.7-1.7,3.7-3.7s-1.7-3.7-3.7-3.7
	S194.6,249,194.6,251z M203,3.7c0,2.1,1.7,3.7,3.7,3.7s3.7-1.7,3.7-3.7S208.8,0,206.8,0S203,1.7,203,3.7z M203,12.3
	c0,2.1,1.7,3.7,3.7,3.7s3.7-1.7,3.7-3.7s-1.7-3.7-3.7-3.7S203,10.2,203,12.3z M203,20.8c0,2.1,1.7,3.7,3.7,3.7s3.7-1.7,3.7-3.7
	s-1.7-3.7-3.7-3.7S203,18.7,203,20.8z M203,29.3c0,2.1,1.7,3.7,3.7,3.7s3.7-1.7,3.7-3.7s-1.7-3.7-3.7-3.7S203,27.3,203,29.3z
	 M203,37.8c0,2.1,1.7,3.7,3.7,3.7s3.7-1.7,3.7-3.7s-1.7-3.7-3.7-3.7S203,35.8,203,37.8z M203,46.4c0,2.1,1.7,3.7,3.7,3.7
	s3.7-1.7,3.7-3.7s-1.7-3.7-3.7-3.7S203,44.3,203,46.4z M203,54.9c0,2.1,1.7,3.7,3.7,3.7s3.7-1.7,3.7-3.7s-1.7-3.7-3.7-3.7
	S203,52.8,203,54.9z M203,63.4c0,2.1,1.7,3.7,3.7,3.7s3.7-1.7,3.7-3.7s-1.7-3.7-3.7-3.7S203,61.4,203,63.4z M203,72
	c0,2.1,1.7,3.7,3.7,3.7s3.7-1.7,3.7-3.7s-1.7-3.7-3.7-3.7S203,69.9,203,72z M203,216.9c0,2.1,1.7,3.7,3.7,3.7s3.7-1.7,3.7-3.7
	s-1.7-3.7-3.7-3.7S203,214.9,203,216.9z M203,225.4c0,2.1,1.7,3.7,3.7,3.7s3.7-1.7,3.7-3.7s-1.7-3.7-3.7-3.7S203,223.4,203,225.4z
	 M203,234c0,2.1,1.7,3.7,3.7,3.7s3.7-1.7,3.7-3.7s-1.7-3.7-3.7-3.7S203,231.9,203,234z M203,242.5c0,2.1,1.7,3.7,3.7,3.7
	s3.7-1.7,3.7-3.7s-1.7-3.7-3.7-3.7S203,240.4,203,242.5z M211.5,3.7c0,2.1,1.7,3.7,3.7,3.7s3.7-1.7,3.7-3.7S217.3,0,215.2,0
	S211.5,1.7,211.5,3.7z M211.5,12.3c0,2.1,1.7,3.7,3.7,3.7s3.7-1.7,3.7-3.7s-1.7-3.7-3.7-3.7S211.5,10.2,211.5,12.3z M211.5,20.8
	c0,2.1,1.7,3.7,3.7,3.7s3.7-1.7,3.7-3.7s-1.7-3.7-3.7-3.7S211.5,18.7,211.5,20.8z M211.5,29.3c0,2.1,1.7,3.7,3.7,3.7
	s3.7-1.7,3.7-3.7s-1.7-3.7-3.7-3.7S211.5,27.3,211.5,29.3z M211.5,37.8c0,2.1,1.7,3.7,3.7,3.7s3.7-1.7,3.7-3.7s-1.7-3.7-3.7-3.7
	S211.5,35.8,211.5,37.8z M211.5,46.4c0,2.1,1.7,3.7,3.7,3.7s3.7-1.7,3.7-3.7s-1.7-3.7-3.7-3.7S211.5,44.3,211.5,46.4z M211.5,54.9
	c0,2.1,1.7,3.7,3.7,3.7s3.7-1.7,3.7-3.7s-1.7-3.7-3.7-3.7S211.5,52.8,211.5,54.9z M211.5,63.4c0,2.1,1.7,3.7,3.7,3.7
	s3.7-1.7,3.7-3.7s-1.7-3.7-3.7-3.7S211.5,61.4,211.5,63.4z M211.5,216.9c0,2.1,1.7,3.7,3.7,3.7s3.7-1.7,3.7-3.7s-1.7-3.7-3.7-3.7
	S211.5,214.9,211.5,216.9z M211.5,225.4c0,2.1,1.7,3.7,3.7,3.7s3.7-1.7,3.7-3.7s-1.7-3.7-3.7-3.7S211.5,223.4,211.5,225.4z
	 M219.9,3.7c0,2.1,1.7,3.7,3.7,3.7s3.7-1.7,3.7-3.7S225.7,0,223.7,0S219.9,1.7,219.9,3.7z M219.9,12.3c0,2.1,1.7,3.7,3.7,3.7
	s3.7-1.7,3.7-3.7s-1.7-3.7-3.7-3.7S219.9,10.2,219.9,12.3z M219.9,20.8c0,2.1,1.7,3.7,3.7,3.7s3.7-1.7,3.7-3.7s-1.7-3.7-3.7-3.7
	S219.9,18.7,219.9,20.8z M219.9,29.3c0,2.1,1.7,3.7,3.7,3.7s3.7-1.7,3.7-3.7s-1.7-3.7-3.7-3.7S219.9,27.3,219.9,29.3z M219.9,37.8
	c0,2.1,1.7,3.7,3.7,3.7s3.7-1.7,3.7-3.7s-1.7-3.7-3.7-3.7S219.9,35.8,219.9,37.8z M219.9,46.4c0,2.1,1.7,3.7,3.7,3.7
	s3.7-1.7,3.7-3.7s-1.7-3.7-3.7-3.7S219.9,44.3,219.9,46.4z M219.9,54.9c0,2.1,1.7,3.7,3.7,3.7s3.7-1.7,3.7-3.7s-1.7-3.7-3.7-3.7
	S219.9,52.8,219.9,54.9z M219.9,63.4c0,2.1,1.7,3.7,3.7,3.7s3.7-1.7,3.7-3.7s-1.7-3.7-3.7-3.7S219.9,61.4,219.9,63.4z M228.4,3.7
	c0,2.1,1.7,3.7,3.7,3.7s3.7-1.7,3.7-3.7S234.2,0,232.1,0S228.4,1.7,228.4,3.7z M228.4,12.3c0,2.1,1.7,3.7,3.7,3.7s3.7-1.7,3.7-3.7
	s-1.7-3.7-3.7-3.7S228.4,10.2,228.4,12.3z M228.4,20.8c0,2.1,1.7,3.7,3.7,3.7s3.7-1.7,3.7-3.7s-1.7-3.7-3.7-3.7
	S228.4,18.7,228.4,20.8z M228.4,29.3c0,2.1,1.7,3.7,3.7,3.7s3.7-1.7,3.7-3.7s-1.7-3.7-3.7-3.7S228.4,27.3,228.4,29.3z M228.4,37.8
	c0,2.1,1.7,3.7,3.7,3.7s3.7-1.7,3.7-3.7s-1.7-3.7-3.7-3.7S228.4,35.8,228.4,37.8z M228.4,46.4c0,2.1,1.7,3.7,3.7,3.7
	s3.7-1.7,3.7-3.7s-1.7-3.7-3.7-3.7S228.4,44.3,228.4,46.4z M228.4,54.9c0,2.1,1.7,3.7,3.7,3.7s3.7-1.7,3.7-3.7s-1.7-3.7-3.7-3.7
	S228.4,52.8,228.4,54.9z M228.4,72c0,2.1,1.7,3.7,3.7,3.7s3.7-1.7,3.7-3.7s-1.7-3.7-3.7-3.7S228.4,69.9,228.4,72z M236.8,12.3
	c0,2.1,1.7,3.7,3.7,3.7s3.7-1.7,3.7-3.7s-1.7-3.7-3.7-3.7S236.8,10.2,236.8,12.3z M236.8,20.8c0,2.1,1.7,3.7,3.7,3.7
	s3.7-1.7,3.7-3.7s-1.7-3.7-3.7-3.7S236.8,18.7,236.8,20.8z M236.8,29.3c0,2.1,1.7,3.7,3.7,3.7s3.7-1.7,3.7-3.7s-1.7-3.7-3.7-3.7
	S236.8,27.3,236.8,29.3z M236.8,37.8c0,2.1,1.7,3.7,3.7,3.7s3.7-1.7,3.7-3.7s-1.7-3.7-3.7-3.7S236.8,35.8,236.8,37.8z M236.8,46.4
	c0,2.1,1.7,3.7,3.7,3.7s3.7-1.7,3.7-3.7s-1.7-3.7-3.7-3.7S236.8,44.3,236.8,46.4z M236.8,72c0,2.1,1.7,3.7,3.7,3.7s3.7-1.7,3.7-3.7
	s-1.7-3.7-3.7-3.7S236.8,69.9,236.8,72z M236.8,165.8c0,2.1,1.7,3.7,3.7,3.7s3.7-1.7,3.7-3.7s-1.7-3.7-3.7-3.7
	S236.8,163.7,236.8,165.8z M236.8,174.3c0,2.1,1.7,3.7,3.7,3.7s3.7-1.7,3.7-3.7s-1.7-3.7-3.7-3.7S236.8,172.2,236.8,174.3z
	 M236.8,182.8c0,2.1,1.7,3.7,3.7,3.7s3.7-1.7,3.7-3.7s-1.7-3.7-3.7-3.7S236.8,180.7,236.8,182.8z M245.3,12.3c0,2.1,1.7,3.7,3.7,3.7
	s3.7-1.7,3.7-3.7s-1.7-3.7-3.7-3.7S245.3,10.2,245.3,12.3z M245.3,157.2c0,2.1,1.7,3.7,3.7,3.7s3.7-1.7,3.7-3.7s-1.7-3.7-3.7-3.7
	S245.3,155.2,245.3,157.2z M245.3,165.8c0,2.1,1.7,3.7,3.7,3.7s3.7-1.7,3.7-3.7s-1.7-3.7-3.7-3.7S245.3,163.7,245.3,165.8z
	 M245.3,174.3c0,2.1,1.7,3.7,3.7,3.7s3.7-1.7,3.7-3.7s-1.7-3.7-3.7-3.7S245.3,172.2,245.3,174.3z M245.3,182.8
	c0,2.1,1.7,3.7,3.7,3.7s3.7-1.7,3.7-3.7s-1.7-3.7-3.7-3.7S245.3,180.7,245.3,182.8z M245.3,191.3c0,2.1,1.7,3.7,3.7,3.7
	s3.7-1.7,3.7-3.7s-1.7-3.7-3.7-3.7S245.3,189.3,245.3,191.3z M253.8,97.5c0,2.1,1.7,3.7,3.7,3.7s3.7-1.7,3.7-3.7s-1.7-3.7-3.7-3.7
	S253.8,95.5,253.8,97.5z M253.8,106.1c0,2.1,1.7,3.7,3.7,3.7s3.7-1.7,3.7-3.7s-1.7-3.7-3.7-3.7S253.8,104,253.8,106.1z M253.8,131.6
	c0,2.1,1.7,3.7,3.7,3.7s3.7-1.7,3.7-3.7s-1.7-3.7-3.7-3.7S253.8,129.6,253.8,131.6z M253.8,140.2c0,2.1,1.7,3.7,3.7,3.7
	s3.7-1.7,3.7-3.7s-1.7-3.7-3.7-3.7S253.8,138.1,253.8,140.2z M253.8,148.7c0,2.1,1.7,3.7,3.7,3.7s3.7-1.7,3.7-3.7s-1.7-3.7-3.7-3.7
	S253.8,146.6,253.8,148.7z M253.8,157.2c0,2.1,1.7,3.7,3.7,3.7s3.7-1.7,3.7-3.7s-1.7-3.7-3.7-3.7S253.8,155.2,253.8,157.2z
	 M253.8,165.8c0,2.1,1.7,3.7,3.7,3.7s3.7-1.7,3.7-3.7s-1.7-3.7-3.7-3.7S253.8,163.7,253.8,165.8z M253.8,174.3
	c0,2.1,1.7,3.7,3.7,3.7s3.7-1.7,3.7-3.7s-1.7-3.7-3.7-3.7S253.8,172.2,253.8,174.3z M253.8,182.8c0,2.1,1.7,3.7,3.7,3.7
	s3.7-1.7,3.7-3.7s-1.7-3.7-3.7-3.7S253.8,180.7,253.8,182.8z M253.8,191.3c0,2.1,1.7,3.7,3.7,3.7s3.7-1.7,3.7-3.7s-1.7-3.7-3.7-3.7
	S253.8,189.3,253.8,191.3z M253.8,199.9c0,2.1,1.7,3.7,3.7,3.7s3.7-1.7,3.7-3.7s-1.7-3.7-3.7-3.7S253.8,197.8,253.8,199.9z
	 M262.2,89c0,2.1,1.7,3.7,3.7,3.7s3.7-1.7,3.7-3.7s-1.7-3.7-3.7-3.7S262.2,86.9,262.2,89z M262.2,97.5c0,2.1,1.7,3.7,3.7,3.7
	s3.7-1.7,3.7-3.7s-1.7-3.7-3.7-3.7S262.2,95.5,262.2,97.5z M262.2,106.1c0,2.1,1.7,3.7,3.7,3.7s3.7-1.7,3.7-3.7s-1.7-3.7-3.7-3.7
	S262.2,104,262.2,106.1z M262.2,114.6c0,2.1,1.7,3.7,3.7,3.7s3.7-1.7,3.7-3.7s-1.7-3.7-3.7-3.7S262.2,112.5,262.2,114.6z
	 M262.2,123.1c0,2.1,1.7,3.7,3.7,3.7s3.7-1.7,3.7-3.7s-1.7-3.7-3.7-3.7S262.2,121.1,262.2,123.1z M262.2,131.6
	c0,2.1,1.7,3.7,3.7,3.7s3.7-1.7,3.7-3.7s-1.7-3.7-3.7-3.7S262.2,129.6,262.2,131.6z M262.2,140.2c0,2.1,1.7,3.7,3.7,3.7
	s3.7-1.7,3.7-3.7s-1.7-3.7-3.7-3.7S262.2,138.1,262.2,140.2z M262.2,148.7c0,2.1,1.7,3.7,3.7,3.7s3.7-1.7,3.7-3.7S268,145,266,145
	S262.2,146.6,262.2,148.7z M262.2,157.2c0,2.1,1.7,3.7,3.7,3.7s3.7-1.7,3.7-3.7s-1.7-3.7-3.7-3.7S262.2,155.2,262.2,157.2z
	 M262.2,165.8c0,2.1,1.7,3.7,3.7,3.7s3.7-1.7,3.7-3.7S268,162,266,162S262.2,163.7,262.2,165.8z M262.2,174.3c0,2.1,1.7,3.7,3.7,3.7
	s3.7-1.7,3.7-3.7s-1.7-3.7-3.7-3.7S262.2,172.2,262.2,174.3z M262.2,182.8c0,2.1,1.7,3.7,3.7,3.7s3.7-1.7,3.7-3.7s-1.7-3.7-3.7-3.7
	S262.2,180.7,262.2,182.8z M262.2,191.3c0,2.1,1.7,3.7,3.7,3.7s3.7-1.7,3.7-3.7s-1.7-3.7-3.7-3.7S262.2,189.3,262.2,191.3z
	 M262.2,199.9c0,2.1,1.7,3.7,3.7,3.7s3.7-1.7,3.7-3.7s-1.7-3.7-3.7-3.7S262.2,197.8,262.2,199.9z M270.7,106.1
	c0,2.1,1.7,3.7,3.7,3.7s3.7-1.7,3.7-3.7s-1.7-3.7-3.7-3.7S270.7,104,270.7,106.1z M270.7,114.6c0,2.1,1.7,3.7,3.7,3.7
	s3.7-1.7,3.7-3.7s-1.7-3.7-3.7-3.7S270.7,112.5,270.7,114.6z M270.7,123.1c0,2.1,1.7,3.7,3.7,3.7s3.7-1.7,3.7-3.7s-1.7-3.7-3.7-3.7
	S270.7,121.1,270.7,123.1z M270.7,131.6c0,2.1,1.7,3.7,3.7,3.7s3.7-1.7,3.7-3.7s-1.7-3.7-3.7-3.7S270.7,129.6,270.7,131.6z
	 M270.7,140.2c0,2.1,1.7,3.7,3.7,3.7s3.7-1.7,3.7-3.7s-1.7-3.7-3.7-3.7S270.7,138.1,270.7,140.2z M270.7,148.7
	c0,2.1,1.7,3.7,3.7,3.7s3.7-1.7,3.7-3.7s-1.7-3.7-3.7-3.7S270.7,146.6,270.7,148.7z M270.7,157.2c0,2.1,1.7,3.7,3.7,3.7
	s3.7-1.7,3.7-3.7s-1.7-3.7-3.7-3.7S270.7,155.2,270.7,157.2z M270.7,165.8c0,2.1,1.7,3.7,3.7,3.7s3.7-1.7,3.7-3.7s-1.7-3.7-3.7-3.7
	S270.7,163.7,270.7,165.8z M270.7,174.3c0,2.1,1.7,3.7,3.7,3.7s3.7-1.7,3.7-3.7s-1.7-3.7-3.7-3.7S270.7,172.2,270.7,174.3z
	 M270.7,182.8c0,2.1,1.7,3.7,3.7,3.7s3.7-1.7,3.7-3.7s-1.7-3.7-3.7-3.7S270.7,180.7,270.7,182.8z M270.7,191.3
	c0,2.1,1.7,3.7,3.7,3.7s3.7-1.7,3.7-3.7s-1.7-3.7-3.7-3.7S270.7,189.3,270.7,191.3z M270.7,199.9c0,2.1,1.7,3.7,3.7,3.7
	s3.7-1.7,3.7-3.7s-1.7-3.7-3.7-3.7S270.7,197.8,270.7,199.9z M279.2,80.5c0,2.1,1.7,3.7,3.7,3.7s3.7-1.7,3.7-3.7s-1.7-3.7-3.7-3.7
	S279.2,78.4,279.2,80.5z M279.2,89c0,2.1,1.7,3.7,3.7,3.7s3.7-1.7,3.7-3.7s-1.7-3.7-3.7-3.7S279.2,86.9,279.2,89z M279.2,106.1
	c0,2.1,1.7,3.7,3.7,3.7s3.7-1.7,3.7-3.7s-1.7-3.7-3.7-3.7S279.2,104,279.2,106.1z M279.2,114.6c0,2.1,1.7,3.7,3.7,3.7
	s3.7-1.7,3.7-3.7s-1.7-3.7-3.7-3.7S279.2,112.5,279.2,114.6z M279.2,123.1c0,2.1,1.7,3.7,3.7,3.7s3.7-1.7,3.7-3.7s-1.7-3.7-3.7-3.7
	S279.2,121.1,279.2,123.1z M279.2,140.2c0,2.1,1.7,3.7,3.7,3.7s3.7-1.7,3.7-3.7s-1.7-3.7-3.7-3.7S279.2,138.1,279.2,140.2z
	 M279.2,148.7c0,2.1,1.7,3.7,3.7,3.7s3.7-1.7,3.7-3.7s-1.7-3.7-3.7-3.7S279.2,146.6,279.2,148.7z M279.2,157.2
	c0,2.1,1.7,3.7,3.7,3.7s3.7-1.7,3.7-3.7s-1.7-3.7-3.7-3.7S279.2,155.2,279.2,157.2z M279.2,165.8c0,2.1,1.7,3.7,3.7,3.7
	s3.7-1.7,3.7-3.7s-1.7-3.7-3.7-3.7S279.2,163.7,279.2,165.8z M279.2,174.3c0,2.1,1.7,3.7,3.7,3.7s3.7-1.7,3.7-3.7s-1.7-3.7-3.7-3.7
	S279.2,172.2,279.2,174.3z M279.2,182.8c0,2.1,1.7,3.7,3.7,3.7s3.7-1.7,3.7-3.7s-1.7-3.7-3.7-3.7S279.2,180.7,279.2,182.8z
	 M279.2,191.3c0,2.1,1.7,3.7,3.7,3.7s3.7-1.7,3.7-3.7s-1.7-3.7-3.7-3.7S279.2,189.3,279.2,191.3z M279.2,199.9
	c0,2.1,1.7,3.7,3.7,3.7s3.7-1.7,3.7-3.7s-1.7-3.7-3.7-3.7S279.2,197.8,279.2,199.9z M279.2,208.4c0,2.1,1.7,3.7,3.7,3.7
	s3.7-1.7,3.7-3.7s-1.7-3.7-3.7-3.7S279.2,206.3,279.2,208.4z M287.6,20.8c0,2.1,1.7,3.7,3.7,3.7s3.7-1.7,3.7-3.7s-1.7-3.7-3.7-3.7
	S287.6,18.7,287.6,20.8z M287.6,29.3c0,2.1,1.7,3.7,3.7,3.7s3.7-1.7,3.7-3.7s-1.7-3.7-3.7-3.7S287.6,27.3,287.6,29.3z M287.6,63.4
	c0,2.1,1.7,3.7,3.7,3.7s3.7-1.7,3.7-3.7s-1.7-3.7-3.7-3.7S287.6,61.4,287.6,63.4z M287.6,72c0,2.1,1.7,3.7,3.7,3.7s3.7-1.7,3.7-3.7
	s-1.7-3.7-3.7-3.7S287.6,69.9,287.6,72z M287.6,80.5c0,2.1,1.7,3.7,3.7,3.7s3.7-1.7,3.7-3.7s-1.7-3.7-3.7-3.7S287.6,78.4,287.6,80.5
	z M287.6,89c0,2.1,1.7,3.7,3.7,3.7s3.7-1.7,3.7-3.7s-1.7-3.7-3.7-3.7S287.6,86.9,287.6,89z M287.6,97.5c0,2.1,1.7,3.7,3.7,3.7
	s3.7-1.7,3.7-3.7s-1.7-3.7-3.7-3.7S287.6,95.5,287.6,97.5z M287.6,106.1c0,2.1,1.7,3.7,3.7,3.7s3.7-1.7,3.7-3.7s-1.7-3.7-3.7-3.7
	S287.6,104,287.6,106.1z M287.6,114.6c0,2.1,1.7,3.7,3.7,3.7s3.7-1.7,3.7-3.7s-1.7-3.7-3.7-3.7S287.6,112.5,287.6,114.6z
	 M287.6,123.1c0,2.1,1.7,3.7,3.7,3.7s3.7-1.7,3.7-3.7s-1.7-3.7-3.7-3.7S287.6,121.1,287.6,123.1z M287.6,131.6
	c0,2.1,1.7,3.7,3.7,3.7s3.7-1.7,3.7-3.7s-1.7-3.7-3.7-3.7S287.6,129.6,287.6,131.6z M287.6,148.7c0,2.1,1.7,3.7,3.7,3.7
	s3.7-1.7,3.7-3.7s-1.7-3.7-3.7-3.7S287.6,146.6,287.6,148.7z M287.6,157.2c0,2.1,1.7,3.7,3.7,3.7s3.7-1.7,3.7-3.7s-1.7-3.7-3.7-3.7
	S287.6,155.2,287.6,157.2z M287.6,165.8c0,2.1,1.7,3.7,3.7,3.7s3.7-1.7,3.7-3.7s-1.7-3.7-3.7-3.7S287.6,163.7,287.6,165.8z
	 M287.6,174.3c0,2.1,1.7,3.7,3.7,3.7s3.7-1.7,3.7-3.7s-1.7-3.7-3.7-3.7S287.6,172.2,287.6,174.3z M287.6,182.8
	c0,2.1,1.7,3.7,3.7,3.7s3.7-1.7,3.7-3.7s-1.7-3.7-3.7-3.7S287.6,180.7,287.6,182.8z M287.6,191.3c0,2.1,1.7,3.7,3.7,3.7
	s3.7-1.7,3.7-3.7s-1.7-3.7-3.7-3.7S287.6,189.3,287.6,191.3z M287.6,199.9c0,2.1,1.7,3.7,3.7,3.7s3.7-1.7,3.7-3.7s-1.7-3.7-3.7-3.7
	S287.6,197.8,287.6,199.9z M287.6,208.4c0,2.1,1.7,3.7,3.7,3.7s3.7-1.7,3.7-3.7s-1.7-3.7-3.7-3.7S287.6,206.3,287.6,208.4z
	 M287.6,216.9c0,2.1,1.7,3.7,3.7,3.7s3.7-1.7,3.7-3.7s-1.7-3.7-3.7-3.7S287.6,214.9,287.6,216.9z M287.6,225.4
	c0,2.1,1.7,3.7,3.7,3.7s3.7-1.7,3.7-3.7s-1.7-3.7-3.7-3.7S287.6,223.4,287.6,225.4z M287.6,234c0,2.1,1.7,3.7,3.7,3.7
	s3.7-1.7,3.7-3.7s-1.7-3.7-3.7-3.7S287.6,231.9,287.6,234z M287.6,242.5c0,2.1,1.7,3.7,3.7,3.7s3.7-1.7,3.7-3.7s-1.7-3.7-3.7-3.7
	S287.6,240.4,287.6,242.5z M287.6,251c0,2.1,1.7,3.7,3.7,3.7s3.7-1.7,3.7-3.7s-1.7-3.7-3.7-3.7S287.6,249,287.6,251z M296.1,20.8
	c0,2.1,1.7,3.7,3.7,3.7s3.7-1.7,3.7-3.7s-1.7-3.7-3.7-3.7S296.1,18.7,296.1,20.8z M296.1,29.3c0,2.1,1.7,3.7,3.7,3.7
	s3.7-1.7,3.7-3.7s-1.7-3.7-3.7-3.7S296.1,27.3,296.1,29.3z M296.1,54.9c0,2.1,1.7,3.7,3.7,3.7s3.7-1.7,3.7-3.7s-1.7-3.7-3.7-3.7
	S296.1,52.8,296.1,54.9z M296.1,63.4c0,2.1,1.7,3.7,3.7,3.7s3.7-1.7,3.7-3.7s-1.7-3.7-3.7-3.7S296.1,61.4,296.1,63.4z M296.1,72
	c0,2.1,1.7,3.7,3.7,3.7s3.7-1.7,3.7-3.7s-1.7-3.7-3.7-3.7S296.1,69.9,296.1,72z M296.1,97.5c0,2.1,1.7,3.7,3.7,3.7s3.7-1.7,3.7-3.7
	s-1.7-3.7-3.7-3.7S296.1,95.5,296.1,97.5z M296.1,106.1c0,2.1,1.7,3.7,3.7,3.7s3.7-1.7,3.7-3.7s-1.7-3.7-3.7-3.7
	S296.1,104,296.1,106.1z M296.1,114.6c0,2.1,1.7,3.7,3.7,3.7s3.7-1.7,3.7-3.7s-1.7-3.7-3.7-3.7S296.1,112.5,296.1,114.6z
	 M296.1,123.1c0,2.1,1.7,3.7,3.7,3.7s3.7-1.7,3.7-3.7s-1.7-3.7-3.7-3.7S296.1,121.1,296.1,123.1z M296.1,131.6
	c0,2.1,1.7,3.7,3.7,3.7s3.7-1.7,3.7-3.7s-1.7-3.7-3.7-3.7S296.1,129.6,296.1,131.6z M296.1,148.7c0,2.1,1.7,3.7,3.7,3.7
	s3.7-1.7,3.7-3.7s-1.7-3.7-3.7-3.7S296.1,146.6,296.1,148.7z M296.1,157.2c0,2.1,1.7,3.7,3.7,3.7s3.7-1.7,3.7-3.7s-1.7-3.7-3.7-3.7
	S296.1,155.2,296.1,157.2z M296.1,165.8c0,2.1,1.7,3.7,3.7,3.7s3.7-1.7,3.7-3.7s-1.7-3.7-3.7-3.7S296.1,163.7,296.1,165.8z
	 M296.1,174.3c0,2.1,1.7,3.7,3.7,3.7s3.7-1.7,3.7-3.7s-1.7-3.7-3.7-3.7S296.1,172.2,296.1,174.3z M296.1,182.8
	c0,2.1,1.7,3.7,3.7,3.7s3.7-1.7,3.7-3.7s-1.7-3.7-3.7-3.7S296.1,180.7,296.1,182.8z M296.1,191.3c0,2.1,1.7,3.7,3.7,3.7
	s3.7-1.7,3.7-3.7s-1.7-3.7-3.7-3.7S296.1,189.3,296.1,191.3z M296.1,199.9c0,2.1,1.7,3.7,3.7,3.7s3.7-1.7,3.7-3.7s-1.7-3.7-3.7-3.7
	S296.1,197.8,296.1,199.9z M296.1,208.4c0,2.1,1.7,3.7,3.7,3.7s3.7-1.7,3.7-3.7s-1.7-3.7-3.7-3.7S296.1,206.3,296.1,208.4z
	 M296.1,216.9c0,2.1,1.7,3.7,3.7,3.7s3.7-1.7,3.7-3.7s-1.7-3.7-3.7-3.7S296.1,214.9,296.1,216.9z M296.1,225.4
	c0,2.1,1.7,3.7,3.7,3.7s3.7-1.7,3.7-3.7s-1.7-3.7-3.7-3.7S296.1,223.4,296.1,225.4z M296.1,234c0,2.1,1.7,3.7,3.7,3.7
	s3.7-1.7,3.7-3.7s-1.7-3.7-3.7-3.7S296.1,231.9,296.1,234z M296.1,242.5c0,2.1,1.7,3.7,3.7,3.7s3.7-1.7,3.7-3.7s-1.7-3.7-3.7-3.7
	S296.1,240.4,296.1,242.5z M296.1,251c0,2.1,1.7,3.7,3.7,3.7s3.7-1.7,3.7-3.7s-1.7-3.7-3.7-3.7S296.1,249,296.1,251z M296.1,259.6
	c0,2.1,1.7,3.7,3.7,3.7s3.7-1.7,3.7-3.7s-1.7-3.7-3.7-3.7S296.1,257.5,296.1,259.6z M296.1,268.1c0,2.1,1.7,3.7,3.7,3.7
	s3.7-1.7,3.7-3.7s-1.7-3.7-3.7-3.7S296.1,266,296.1,268.1z M304.5,20.8c0,2.1,1.7,3.7,3.7,3.7s3.7-1.7,3.7-3.7s-1.7-3.7-3.7-3.7
	S304.5,18.7,304.5,20.8z M304.5,29.3c0,2.1,1.7,3.7,3.7,3.7s3.7-1.7,3.7-3.7s-1.7-3.7-3.7-3.7S304.5,27.3,304.5,29.3z M304.5,54.9
	c0,2.1,1.7,3.7,3.7,3.7s3.7-1.7,3.7-3.7s-1.7-3.7-3.7-3.7S304.5,52.8,304.5,54.9z M304.5,63.4c0,2.1,1.7,3.7,3.7,3.7
	s3.7-1.7,3.7-3.7s-1.7-3.7-3.7-3.7S304.5,61.4,304.5,63.4z M304.5,72c0,2.1,1.7,3.7,3.7,3.7S312,74,312,72s-1.7-3.7-3.7-3.7
	S304.5,69.9,304.5,72z M304.5,80.5c0,2.1,1.7,3.7,3.7,3.7s3.7-1.7,3.7-3.7s-1.7-3.7-3.7-3.7S304.5,78.4,304.5,80.5z M304.5,89
	c0,2.1,1.7,3.7,3.7,3.7s3.7-1.7,3.7-3.7s-1.7-3.7-3.7-3.7S304.5,86.9,304.5,89z M304.5,97.5c0,2.1,1.7,3.7,3.7,3.7s3.7-1.7,3.7-3.7
	s-1.7-3.7-3.7-3.7S304.5,95.5,304.5,97.5z M304.5,106.1c0,2.1,1.7,3.7,3.7,3.7s3.7-1.7,3.7-3.7s-1.7-3.7-3.7-3.7
	S304.5,104,304.5,106.1z M304.5,114.6c0,2.1,1.7,3.7,3.7,3.7s3.7-1.7,3.7-3.7s-1.7-3.7-3.7-3.7S304.5,112.5,304.5,114.6z
	 M304.5,123.1c0,2.1,1.7,3.7,3.7,3.7s3.7-1.7,3.7-3.7s-1.7-3.7-3.7-3.7S304.5,121.1,304.5,123.1z M304.5,131.6
	c0,2.1,1.7,3.7,3.7,3.7s3.7-1.7,3.7-3.7s-1.7-3.7-3.7-3.7S304.5,129.6,304.5,131.6z M304.5,148.7c0,2.1,1.7,3.7,3.7,3.7
	s3.7-1.7,3.7-3.7s-1.7-3.7-3.7-3.7S304.5,146.6,304.5,148.7z M304.5,157.2c0,2.1,1.7,3.7,3.7,3.7s3.7-1.7,3.7-3.7s-1.7-3.7-3.7-3.7
	S304.5,155.2,304.5,157.2z M304.5,165.8c0,2.1,1.7,3.7,3.7,3.7s3.7-1.7,3.7-3.7s-1.7-3.7-3.7-3.7S304.5,163.7,304.5,165.8z
	 M304.5,174.3c0,2.1,1.7,3.7,3.7,3.7s3.7-1.7,3.7-3.7s-1.7-3.7-3.7-3.7S304.5,172.2,304.5,174.3z M304.5,182.8
	c0,2.1,1.7,3.7,3.7,3.7s3.7-1.7,3.7-3.7s-1.7-3.7-3.7-3.7S304.5,180.7,304.5,182.8z M304.5,191.3c0,2.1,1.7,3.7,3.7,3.7
	s3.7-1.7,3.7-3.7s-1.7-3.7-3.7-3.7S304.5,189.3,304.5,191.3z M304.5,199.9c0,2.1,1.7,3.7,3.7,3.7s3.7-1.7,3.7-3.7s-1.7-3.7-3.7-3.7
	S304.5,197.8,304.5,199.9z M304.5,208.4c0,2.1,1.7,3.7,3.7,3.7s3.7-1.7,3.7-3.7s-1.7-3.7-3.7-3.7S304.5,206.3,304.5,208.4z
	 M304.5,216.9c0,2.1,1.7,3.7,3.7,3.7s3.7-1.7,3.7-3.7s-1.7-3.7-3.7-3.7S304.5,214.9,304.5,216.9z M304.5,225.4
	c0,2.1,1.7,3.7,3.7,3.7s3.7-1.7,3.7-3.7s-1.7-3.7-3.7-3.7S304.5,223.4,304.5,225.4z M304.5,234c0,2.1,1.7,3.7,3.7,3.7
	s3.7-1.7,3.7-3.7s-1.7-3.7-3.7-3.7S304.5,231.9,304.5,234z M304.5,242.5c0,2.1,1.7,3.7,3.7,3.7s3.7-1.7,3.7-3.7s-1.7-3.7-3.7-3.7
	S304.5,240.4,304.5,242.5z M304.5,251c0,2.1,1.7,3.7,3.7,3.7s3.7-1.7,3.7-3.7s-1.7-3.7-3.7-3.7S304.5,249,304.5,251z M304.5,259.6
	c0,2.1,1.7,3.7,3.7,3.7s3.7-1.7,3.7-3.7s-1.7-3.7-3.7-3.7S304.5,257.5,304.5,259.6z M304.5,268.1c0,2.1,1.7,3.7,3.7,3.7
	s3.7-1.7,3.7-3.7s-1.7-3.7-3.7-3.7S304.5,266,304.5,268.1z M313,20.8c0,2.1,1.7,3.7,3.7,3.7s3.7-1.7,3.7-3.7s-1.7-3.7-3.7-3.7
	S313,18.7,313,20.8z M313,29.3c0,2.1,1.7,3.7,3.7,3.7s3.7-1.7,3.7-3.7s-1.7-3.7-3.7-3.7S313,27.3,313,29.3z M313,54.9
	c0,2.1,1.7,3.7,3.7,3.7s3.7-1.7,3.7-3.7s-1.7-3.7-3.7-3.7S313,52.8,313,54.9z M313,63.4c0,2.1,1.7,3.7,3.7,3.7s3.7-1.7,3.7-3.7
	s-1.7-3.7-3.7-3.7S313,61.4,313,63.4z M313,72c0,2.1,1.7,3.7,3.7,3.7s3.7-1.7,3.7-3.7s-1.7-3.7-3.7-3.7S313,69.9,313,72z M313,80.5
	c0,2.1,1.7,3.7,3.7,3.7s3.7-1.7,3.7-3.7s-1.7-3.7-3.7-3.7S313,78.4,313,80.5z M313,89c0,2.1,1.7,3.7,3.7,3.7s3.7-1.7,3.7-3.7
	s-1.7-3.7-3.7-3.7S313,86.9,313,89z M313,97.5c0,2.1,1.7,3.7,3.7,3.7s3.7-1.7,3.7-3.7s-1.7-3.7-3.7-3.7S313,95.5,313,97.5z
	 M313,106.1c0,2.1,1.7,3.7,3.7,3.7s3.7-1.7,3.7-3.7s-1.7-3.7-3.7-3.7S313,104,313,106.1z M313,114.6c0,2.1,1.7,3.7,3.7,3.7
	s3.7-1.7,3.7-3.7s-1.7-3.7-3.7-3.7S313,112.5,313,114.6z M313,131.6c0,2.1,1.7,3.7,3.7,3.7s3.7-1.7,3.7-3.7s-1.7-3.7-3.7-3.7
	S313,129.6,313,131.6z M313,148.7c0,2.1,1.7,3.7,3.7,3.7s3.7-1.7,3.7-3.7s-1.7-3.7-3.7-3.7S313,146.6,313,148.7z M313,157.2
	c0,2.1,1.7,3.7,3.7,3.7s3.7-1.7,3.7-3.7s-1.7-3.7-3.7-3.7S313,155.2,313,157.2z M313,165.8c0,2.1,1.7,3.7,3.7,3.7s3.7-1.7,3.7-3.7
	s-1.7-3.7-3.7-3.7S313,163.7,313,165.8z M313,174.3c0,2.1,1.7,3.7,3.7,3.7s3.7-1.7,3.7-3.7s-1.7-3.7-3.7-3.7S313,172.2,313,174.3z
	 M313,182.8c0,2.1,1.7,3.7,3.7,3.7s3.7-1.7,3.7-3.7s-1.7-3.7-3.7-3.7S313,180.7,313,182.8z M313,191.3c0,2.1,1.7,3.7,3.7,3.7
	s3.7-1.7,3.7-3.7s-1.7-3.7-3.7-3.7S313,189.3,313,191.3z M313,199.9c0,2.1,1.7,3.7,3.7,3.7s3.7-1.7,3.7-3.7s-1.7-3.7-3.7-3.7
	S313,197.8,313,199.9z M313,208.4c0,2.1,1.7,3.7,3.7,3.7s3.7-1.7,3.7-3.7s-1.7-3.7-3.7-3.7S313,206.3,313,208.4z M313,216.9
	c0,2.1,1.7,3.7,3.7,3.7s3.7-1.7,3.7-3.7s-1.7-3.7-3.7-3.7S313,214.9,313,216.9z M313,225.4c0,2.1,1.7,3.7,3.7,3.7s3.7-1.7,3.7-3.7
	s-1.7-3.7-3.7-3.7S313,223.4,313,225.4z M313,234c0,2.1,1.7,3.7,3.7,3.7s3.7-1.7,3.7-3.7s-1.7-3.7-3.7-3.7S313,231.9,313,234z
	 M313,242.5c0,2.1,1.7,3.7,3.7,3.7s3.7-1.7,3.7-3.7s-1.7-3.7-3.7-3.7S313,240.4,313,242.5z M313,251c0,2.1,1.7,3.7,3.7,3.7
	s3.7-1.7,3.7-3.7s-1.7-3.7-3.7-3.7S313,249,313,251z M313,259.6c0,2.1,1.7,3.7,3.7,3.7s3.7-1.7,3.7-3.7s-1.7-3.7-3.7-3.7
	S313,257.5,313,259.6z M321.4,63.4c0,2.1,1.7,3.7,3.7,3.7s3.7-1.7,3.7-3.7s-1.7-3.7-3.7-3.7S321.4,61.4,321.4,63.4z M321.4,72
	c0,2.1,1.7,3.7,3.7,3.7s3.7-1.7,3.7-3.7s-1.7-3.7-3.7-3.7S321.4,69.9,321.4,72z M321.4,80.5c0,2.1,1.7,3.7,3.7,3.7s3.7-1.7,3.7-3.7
	s-1.7-3.7-3.7-3.7S321.4,78.4,321.4,80.5z M321.4,89c0,2.1,1.7,3.7,3.7,3.7s3.7-1.7,3.7-3.7s-1.7-3.7-3.7-3.7S321.4,86.9,321.4,89z
	 M321.4,97.5c0,2.1,1.7,3.7,3.7,3.7s3.7-1.7,3.7-3.7s-1.7-3.7-3.7-3.7S321.4,95.5,321.4,97.5z M321.4,106.1c0,2.1,1.7,3.7,3.7,3.7
	s3.7-1.7,3.7-3.7s-1.7-3.7-3.7-3.7S321.4,104,321.4,106.1z M321.4,114.6c0,2.1,1.7,3.7,3.7,3.7s3.7-1.7,3.7-3.7s-1.7-3.7-3.7-3.7
	S321.4,112.5,321.4,114.6z M321.4,131.6c0,2.1,1.7,3.7,3.7,3.7s3.7-1.7,3.7-3.7s-1.7-3.7-3.7-3.7S321.4,129.6,321.4,131.6z
	 M321.4,140.2c0,2.1,1.7,3.7,3.7,3.7s3.7-1.7,3.7-3.7s-1.7-3.7-3.7-3.7S321.4,138.1,321.4,140.2z M321.4,148.7
	c0,2.1,1.7,3.7,3.7,3.7s3.7-1.7,3.7-3.7s-1.7-3.7-3.7-3.7S321.4,146.6,321.4,148.7z M321.4,157.2c0,2.1,1.7,3.7,3.7,3.7
	s3.7-1.7,3.7-3.7s-1.7-3.7-3.7-3.7S321.4,155.2,321.4,157.2z M321.4,165.8c0,2.1,1.7,3.7,3.7,3.7s3.7-1.7,3.7-3.7s-1.7-3.7-3.7-3.7
	S321.4,163.7,321.4,165.8z M321.4,174.3c0,2.1,1.7,3.7,3.7,3.7s3.7-1.7,3.7-3.7s-1.7-3.7-3.7-3.7S321.4,172.2,321.4,174.3z
	 M321.4,182.8c0,2.1,1.7,3.7,3.7,3.7s3.7-1.7,3.7-3.7s-1.7-3.7-3.7-3.7S321.4,180.7,321.4,182.8z M321.4,191.3
	c0,2.1,1.7,3.7,3.7,3.7s3.7-1.7,3.7-3.7s-1.7-3.7-3.7-3.7S321.4,189.3,321.4,191.3z M321.4,199.9c0,2.1,1.7,3.7,3.7,3.7
	s3.7-1.7,3.7-3.7s-1.7-3.7-3.7-3.7S321.4,197.8,321.4,199.9z M321.4,208.4c0,2.1,1.7,3.7,3.7,3.7s3.7-1.7,3.7-3.7s-1.7-3.7-3.7-3.7
	S321.4,206.3,321.4,208.4z M321.4,216.9c0,2.1,1.7,3.7,3.7,3.7s3.7-1.7,3.7-3.7s-1.7-3.7-3.7-3.7S321.4,214.9,321.4,216.9z
	 M321.4,225.4c0,2.1,1.7,3.7,3.7,3.7s3.7-1.7,3.7-3.7s-1.7-3.7-3.7-3.7S321.4,223.4,321.4,225.4z M321.4,234c0,2.1,1.7,3.7,3.7,3.7
	s3.7-1.7,3.7-3.7s-1.7-3.7-3.7-3.7S321.4,231.9,321.4,234z M321.4,242.5c0,2.1,1.7,3.7,3.7,3.7s3.7-1.7,3.7-3.7s-1.7-3.7-3.7-3.7
	S321.4,240.4,321.4,242.5z M321.4,251c0,2.1,1.7,3.7,3.7,3.7s3.7-1.7,3.7-3.7s-1.7-3.7-3.7-3.7S321.4,249,321.4,251z M329.9,63.4
	c0,2.1,1.7,3.7,3.7,3.7s3.7-1.7,3.7-3.7s-1.7-3.7-3.7-3.7S329.9,61.4,329.9,63.4z M329.9,72c0,2.1,1.7,3.7,3.7,3.7s3.7-1.7,3.7-3.7
	s-1.7-3.7-3.7-3.7S329.9,69.9,329.9,72z M329.9,80.5c0,2.1,1.7,3.7,3.7,3.7s3.7-1.7,3.7-3.7s-1.7-3.7-3.7-3.7S329.9,78.4,329.9,80.5
	z M329.9,89c0,2.1,1.7,3.7,3.7,3.7s3.7-1.7,3.7-3.7s-1.7-3.7-3.7-3.7S329.9,86.9,329.9,89z M329.9,97.5c0,2.1,1.7,3.7,3.7,3.7
	s3.7-1.7,3.7-3.7s-1.7-3.7-3.7-3.7S329.9,95.5,329.9,97.5z M329.9,106.1c0,2.1,1.7,3.7,3.7,3.7s3.7-1.7,3.7-3.7s-1.7-3.7-3.7-3.7
	S329.9,104,329.9,106.1z M329.9,114.6c0,2.1,1.7,3.7,3.7,3.7s3.7-1.7,3.7-3.7s-1.7-3.7-3.7-3.7S329.9,112.5,329.9,114.6z
	 M329.9,123.1c0,2.1,1.7,3.7,3.7,3.7s3.7-1.7,3.7-3.7s-1.7-3.7-3.7-3.7S329.9,121.1,329.9,123.1z M329.9,131.6
	c0,2.1,1.7,3.7,3.7,3.7s3.7-1.7,3.7-3.7s-1.7-3.7-3.7-3.7S329.9,129.6,329.9,131.6z M329.9,140.2c0,2.1,1.7,3.7,3.7,3.7
	s3.7-1.7,3.7-3.7s-1.7-3.7-3.7-3.7S329.9,138.1,329.9,140.2z M329.9,148.7c0,2.1,1.7,3.7,3.7,3.7s3.7-1.7,3.7-3.7s-1.7-3.7-3.7-3.7
	S329.9,146.6,329.9,148.7z M329.9,157.2c0,2.1,1.7,3.7,3.7,3.7s3.7-1.7,3.7-3.7s-1.7-3.7-3.7-3.7S329.9,155.2,329.9,157.2z
	 M329.9,165.8c0,2.1,1.7,3.7,3.7,3.7s3.7-1.7,3.7-3.7s-1.7-3.7-3.7-3.7S329.9,163.7,329.9,165.8z M329.9,174.3
	c0,2.1,1.7,3.7,3.7,3.7s3.7-1.7,3.7-3.7s-1.7-3.7-3.7-3.7S329.9,172.2,329.9,174.3z M329.9,182.8c0,2.1,1.7,3.7,3.7,3.7
	s3.7-1.7,3.7-3.7s-1.7-3.7-3.7-3.7S329.9,180.7,329.9,182.8z M329.9,191.3c0,2.1,1.7,3.7,3.7,3.7s3.7-1.7,3.7-3.7s-1.7-3.7-3.7-3.7
	S329.9,189.3,329.9,191.3z M329.9,199.9c0,2.1,1.7,3.7,3.7,3.7s3.7-1.7,3.7-3.7s-1.7-3.7-3.7-3.7S329.9,197.8,329.9,199.9z
	 M329.9,208.4c0,2.1,1.7,3.7,3.7,3.7s3.7-1.7,3.7-3.7s-1.7-3.7-3.7-3.7S329.9,206.3,329.9,208.4z M329.9,216.9
	c0,2.1,1.7,3.7,3.7,3.7s3.7-1.7,3.7-3.7s-1.7-3.7-3.7-3.7S329.9,214.9,329.9,216.9z M329.9,225.4c0,2.1,1.7,3.7,3.7,3.7
	s3.7-1.7,3.7-3.7s-1.7-3.7-3.7-3.7S329.9,223.4,329.9,225.4z M329.9,234c0,2.1,1.7,3.7,3.7,3.7s3.7-1.7,3.7-3.7s-1.7-3.7-3.7-3.7
	S329.9,231.9,329.9,234z M338.4,72c0,2.1,1.7,3.7,3.7,3.7s3.7-1.7,3.7-3.7s-1.7-3.7-3.7-3.7S338.4,69.9,338.4,72z M338.4,80.5
	c0,2.1,1.7,3.7,3.7,3.7s3.7-1.7,3.7-3.7s-1.7-3.7-3.7-3.7S338.4,78.4,338.4,80.5z M338.4,89c0,2.1,1.7,3.7,3.7,3.7s3.7-1.7,3.7-3.7
	s-1.7-3.7-3.7-3.7S338.4,86.9,338.4,89z M338.4,97.5c0,2.1,1.7,3.7,3.7,3.7s3.7-1.7,3.7-3.7s-1.7-3.7-3.7-3.7S338.4,95.5,338.4,97.5
	z M338.4,106.1c0,2.1,1.7,3.7,3.7,3.7s3.7-1.7,3.7-3.7s-1.7-3.7-3.7-3.7S338.4,104,338.4,106.1z M338.4,114.6c0,2.1,1.7,3.7,3.7,3.7
	s3.7-1.7,3.7-3.7s-1.7-3.7-3.7-3.7S338.4,112.5,338.4,114.6z M338.4,123.1c0,2.1,1.7,3.7,3.7,3.7s3.7-1.7,3.7-3.7s-1.7-3.7-3.7-3.7
	S338.4,121.1,338.4,123.1z M338.4,131.6c0,2.1,1.7,3.7,3.7,3.7s3.7-1.7,3.7-3.7s-1.7-3.7-3.7-3.7S338.4,129.6,338.4,131.6z
	 M338.4,140.2c0,2.1,1.7,3.7,3.7,3.7s3.7-1.7,3.7-3.7s-1.7-3.7-3.7-3.7S338.4,138.1,338.4,140.2z M338.4,148.7
	c0,2.1,1.7,3.7,3.7,3.7s3.7-1.7,3.7-3.7s-1.7-3.7-3.7-3.7S338.4,146.6,338.4,148.7z M338.4,157.2c0,2.1,1.7,3.7,3.7,3.7
	s3.7-1.7,3.7-3.7s-1.7-3.7-3.7-3.7S338.4,155.2,338.4,157.2z M338.4,165.8c0,2.1,1.7,3.7,3.7,3.7s3.7-1.7,3.7-3.7s-1.7-3.7-3.7-3.7
	S338.4,163.7,338.4,165.8z M338.4,174.3c0,2.1,1.7,3.7,3.7,3.7s3.7-1.7,3.7-3.7s-1.7-3.7-3.7-3.7S338.4,172.2,338.4,174.3z
	 M338.4,182.8c0,2.1,1.7,3.7,3.7,3.7s3.7-1.7,3.7-3.7s-1.7-3.7-3.7-3.7S338.4,180.7,338.4,182.8z M338.4,191.3
	c0,2.1,1.7,3.7,3.7,3.7s3.7-1.7,3.7-3.7s-1.7-3.7-3.7-3.7S338.4,189.3,338.4,191.3z M338.4,199.9c0,2.1,1.7,3.7,3.7,3.7
	s3.7-1.7,3.7-3.7s-1.7-3.7-3.7-3.7S338.4,197.8,338.4,199.9z M338.4,234c0,2.1,1.7,3.7,3.7,3.7s3.7-1.7,3.7-3.7s-1.7-3.7-3.7-3.7
	S338.4,231.9,338.4,234z M338.4,242.5c0,2.1,1.7,3.7,3.7,3.7s3.7-1.7,3.7-3.7s-1.7-3.7-3.7-3.7S338.4,240.4,338.4,242.5z M338.4,251
	c0,2.1,1.7,3.7,3.7,3.7s3.7-1.7,3.7-3.7s-1.7-3.7-3.7-3.7S338.4,249,338.4,251z M346.8,20.8c0,2.1,1.7,3.7,3.7,3.7s3.7-1.7,3.7-3.7
	s-1.7-3.7-3.7-3.7S346.8,18.7,346.8,20.8z M346.8,63.4c0,2.1,1.7,3.7,3.7,3.7s3.7-1.7,3.7-3.7s-1.7-3.7-3.7-3.7
	S346.8,61.4,346.8,63.4z M346.8,72c0,2.1,1.7,3.7,3.7,3.7s3.7-1.7,3.7-3.7s-1.7-3.7-3.7-3.7S346.8,69.9,346.8,72z M346.8,80.5
	c0,2.1,1.7,3.7,3.7,3.7s3.7-1.7,3.7-3.7s-1.7-3.7-3.7-3.7S346.8,78.4,346.8,80.5z M346.8,89c0,2.1,1.7,3.7,3.7,3.7s3.7-1.7,3.7-3.7
	s-1.7-3.7-3.7-3.7S346.8,86.9,346.8,89z M346.8,97.5c0,2.1,1.7,3.7,3.7,3.7s3.7-1.7,3.7-3.7s-1.7-3.7-3.7-3.7S346.8,95.5,346.8,97.5
	z M346.8,106.1c0,2.1,1.7,3.7,3.7,3.7s3.7-1.7,3.7-3.7s-1.7-3.7-3.7-3.7S346.8,104,346.8,106.1z M346.8,114.6c0,2.1,1.7,3.7,3.7,3.7
	s3.7-1.7,3.7-3.7s-1.7-3.7-3.7-3.7S346.8,112.5,346.8,114.6z M346.8,140.2c0,2.1,1.7,3.7,3.7,3.7s3.7-1.7,3.7-3.7s-1.7-3.7-3.7-3.7
	S346.8,138.1,346.8,140.2z M346.8,148.7c0,2.1,1.7,3.7,3.7,3.7s3.7-1.7,3.7-3.7s-1.7-3.7-3.7-3.7S346.8,146.6,346.8,148.7z
	 M346.8,157.2c0,2.1,1.7,3.7,3.7,3.7s3.7-1.7,3.7-3.7s-1.7-3.7-3.7-3.7S346.8,155.2,346.8,157.2z M346.8,165.8
	c0,2.1,1.7,3.7,3.7,3.7s3.7-1.7,3.7-3.7s-1.7-3.7-3.7-3.7S346.8,163.7,346.8,165.8z M346.8,174.3c0,2.1,1.7,3.7,3.7,3.7
	s3.7-1.7,3.7-3.7s-1.7-3.7-3.7-3.7S346.8,172.2,346.8,174.3z M346.8,191.3c0,2.1,1.7,3.7,3.7,3.7s3.7-1.7,3.7-3.7s-1.7-3.7-3.7-3.7
	S346.8,189.3,346.8,191.3z M355.3,20.8c0,2.1,1.7,3.7,3.7,3.7s3.7-1.7,3.7-3.7s-1.7-3.7-3.7-3.7S355.3,18.7,355.3,20.8z M355.3,37.8
	c0,2.1,1.7,3.7,3.7,3.7s3.7-1.7,3.7-3.7s-1.7-3.7-3.7-3.7S355.3,35.8,355.3,37.8z M355.3,46.4c0,2.1,1.7,3.7,3.7,3.7
	s3.7-1.7,3.7-3.7s-1.7-3.7-3.7-3.7S355.3,44.3,355.3,46.4z M355.3,63.4c0,2.1,1.7,3.7,3.7,3.7s3.7-1.7,3.7-3.7s-1.7-3.7-3.7-3.7
	S355.3,61.4,355.3,63.4z M355.3,72c0,2.1,1.7,3.7,3.7,3.7s3.7-1.7,3.7-3.7s-1.7-3.7-3.7-3.7S355.3,69.9,355.3,72z M355.3,80.5
	c0,2.1,1.7,3.7,3.7,3.7s3.7-1.7,3.7-3.7s-1.7-3.7-3.7-3.7S355.3,78.4,355.3,80.5z M355.3,89c0,2.1,1.7,3.7,3.7,3.7s3.7-1.7,3.7-3.7
	s-1.7-3.7-3.7-3.7S355.3,86.9,355.3,89z M355.3,97.5c0,2.1,1.7,3.7,3.7,3.7s3.7-1.7,3.7-3.7s-1.7-3.7-3.7-3.7S355.3,95.5,355.3,97.5
	z M355.3,106.1c0,2.1,1.7,3.7,3.7,3.7s3.7-1.7,3.7-3.7s-1.7-3.7-3.7-3.7S355.3,104,355.3,106.1z M355.3,114.6c0,2.1,1.7,3.7,3.7,3.7
	s3.7-1.7,3.7-3.7s-1.7-3.7-3.7-3.7S355.3,112.5,355.3,114.6z M355.3,123.1c0,2.1,1.7,3.7,3.7,3.7s3.7-1.7,3.7-3.7s-1.7-3.7-3.7-3.7
	S355.3,121.1,355.3,123.1z M355.3,131.6c0,2.1,1.7,3.7,3.7,3.7s3.7-1.7,3.7-3.7s-1.7-3.7-3.7-3.7S355.3,129.6,355.3,131.6z
	 M355.3,140.2c0,2.1,1.7,3.7,3.7,3.7s3.7-1.7,3.7-3.7s-1.7-3.7-3.7-3.7S355.3,138.1,355.3,140.2z M355.3,148.7
	c0,2.1,1.7,3.7,3.7,3.7s3.7-1.7,3.7-3.7s-1.7-3.7-3.7-3.7S355.3,146.6,355.3,148.7z M355.3,157.2c0,2.1,1.7,3.7,3.7,3.7
	s3.7-1.7,3.7-3.7s-1.7-3.7-3.7-3.7S355.3,155.2,355.3,157.2z M355.3,165.8c0,2.1,1.7,3.7,3.7,3.7s3.7-1.7,3.7-3.7s-1.7-3.7-3.7-3.7
	S355.3,163.7,355.3,165.8z M355.3,174.3c0,2.1,1.7,3.7,3.7,3.7s3.7-1.7,3.7-3.7s-1.7-3.7-3.7-3.7S355.3,172.2,355.3,174.3z
	 M363.7,20.8c0,2.1,1.7,3.7,3.7,3.7s3.7-1.7,3.7-3.7s-1.7-3.7-3.7-3.7S363.7,18.7,363.7,20.8z M363.7,37.8c0,2.1,1.7,3.7,3.7,3.7
	s3.7-1.7,3.7-3.7s-1.7-3.7-3.7-3.7S363.7,35.8,363.7,37.8z M363.7,54.9c0,2.1,1.7,3.7,3.7,3.7s3.7-1.7,3.7-3.7s-1.7-3.7-3.7-3.7
	S363.7,52.8,363.7,54.9z M363.7,63.4c0,2.1,1.7,3.7,3.7,3.7s3.7-1.7,3.7-3.7s-1.7-3.7-3.7-3.7S363.7,61.4,363.7,63.4z M363.7,72
	c0,2.1,1.7,3.7,3.7,3.7s3.7-1.7,3.7-3.7s-1.7-3.7-3.7-3.7S363.7,69.9,363.7,72z M363.7,80.5c0,2.1,1.7,3.7,3.7,3.7s3.7-1.7,3.7-3.7
	s-1.7-3.7-3.7-3.7S363.7,78.4,363.7,80.5z M363.7,89c0,2.1,1.7,3.7,3.7,3.7s3.7-1.7,3.7-3.7s-1.7-3.7-3.7-3.7S363.7,86.9,363.7,89z
	 M363.7,97.5c0,2.1,1.7,3.7,3.7,3.7s3.7-1.7,3.7-3.7s-1.7-3.7-3.7-3.7S363.7,95.5,363.7,97.5z M363.7,106.1c0,2.1,1.7,3.7,3.7,3.7
	s3.7-1.7,3.7-3.7s-1.7-3.7-3.7-3.7S363.7,104,363.7,106.1z M363.7,114.6c0,2.1,1.7,3.7,3.7,3.7s3.7-1.7,3.7-3.7s-1.7-3.7-3.7-3.7
	S363.7,112.5,363.7,114.6z M363.7,123.1c0,2.1,1.7,3.7,3.7,3.7s3.7-1.7,3.7-3.7s-1.7-3.7-3.7-3.7S363.7,121.1,363.7,123.1z
	 M363.7,131.6c0,2.1,1.7,3.7,3.7,3.7s3.7-1.7,3.7-3.7s-1.7-3.7-3.7-3.7S363.7,129.6,363.7,131.6z M363.7,140.2
	c0,2.1,1.7,3.7,3.7,3.7s3.7-1.7,3.7-3.7s-1.7-3.7-3.7-3.7S363.7,138.1,363.7,140.2z M363.7,148.7c0,2.1,1.7,3.7,3.7,3.7
	s3.7-1.7,3.7-3.7s-1.7-3.7-3.7-3.7S363.7,146.6,363.7,148.7z M363.7,157.2c0,2.1,1.7,3.7,3.7,3.7s3.7-1.7,3.7-3.7s-1.7-3.7-3.7-3.7
	S363.7,155.2,363.7,157.2z M372.2,37.8c0,2.1,1.7,3.7,3.7,3.7s3.7-1.7,3.7-3.7s-1.7-3.7-3.7-3.7S372.2,35.8,372.2,37.8z M372.2,54.9
	c0,2.1,1.7,3.7,3.7,3.7s3.7-1.7,3.7-3.7s-1.7-3.7-3.7-3.7S372.2,52.8,372.2,54.9z M372.2,63.4c0,2.1,1.7,3.7,3.7,3.7
	s3.7-1.7,3.7-3.7s-1.7-3.7-3.7-3.7S372.2,61.4,372.2,63.4z M372.2,72c0,2.1,1.7,3.7,3.7,3.7s3.7-1.7,3.7-3.7s-1.7-3.7-3.7-3.7
	S372.2,69.9,372.2,72z M372.2,80.5c0,2.1,1.7,3.7,3.7,3.7s3.7-1.7,3.7-3.7s-1.7-3.7-3.7-3.7S372.2,78.4,372.2,80.5z M372.2,89
	c0,2.1,1.7,3.7,3.7,3.7s3.7-1.7,3.7-3.7s-1.7-3.7-3.7-3.7S372.2,86.9,372.2,89z M372.2,97.5c0,2.1,1.7,3.7,3.7,3.7s3.7-1.7,3.7-3.7
	s-1.7-3.7-3.7-3.7S372.2,95.5,372.2,97.5z M372.2,106.1c0,2.1,1.7,3.7,3.7,3.7s3.7-1.7,3.7-3.7s-1.7-3.7-3.7-3.7
	S372.2,104,372.2,106.1z M372.2,114.6c0,2.1,1.7,3.7,3.7,3.7s3.7-1.7,3.7-3.7s-1.7-3.7-3.7-3.7S372.2,112.5,372.2,114.6z
	 M372.2,123.1c0,2.1,1.7,3.7,3.7,3.7s3.7-1.7,3.7-3.7s-1.7-3.7-3.7-3.7S372.2,121.1,372.2,123.1z M372.2,131.6
	c0,2.1,1.7,3.7,3.7,3.7s3.7-1.7,3.7-3.7s-1.7-3.7-3.7-3.7S372.2,129.6,372.2,131.6z M372.2,140.2c0,2.1,1.7,3.7,3.7,3.7
	s3.7-1.7,3.7-3.7s-1.7-3.7-3.7-3.7S372.2,138.1,372.2,140.2z M372.2,148.7c0,2.1,1.7,3.7,3.7,3.7s3.7-1.7,3.7-3.7s-1.7-3.7-3.7-3.7
	S372.2,146.6,372.2,148.7z M372.2,157.2c0,2.1,1.7,3.7,3.7,3.7s3.7-1.7,3.7-3.7s-1.7-3.7-3.7-3.7S372.2,155.2,372.2,157.2z
	 M380.7,46.4c0,2.1,1.7,3.7,3.7,3.7s3.7-1.7,3.7-3.7s-1.7-3.7-3.7-3.7S380.7,44.3,380.7,46.4z M380.7,54.9c0,2.1,1.7,3.7,3.7,3.7
	s3.7-1.7,3.7-3.7s-1.7-3.7-3.7-3.7S380.7,52.8,380.7,54.9z M380.7,63.4c0,2.1,1.7,3.7,3.7,3.7s3.7-1.7,3.7-3.7s-1.7-3.7-3.7-3.7
	S380.7,61.4,380.7,63.4z M380.7,72c0,2.1,1.7,3.7,3.7,3.7s3.7-1.7,3.7-3.7s-1.7-3.7-3.7-3.7S380.7,69.9,380.7,72z M380.7,80.5
	c0,2.1,1.7,3.7,3.7,3.7s3.7-1.7,3.7-3.7s-1.7-3.7-3.7-3.7S380.7,78.4,380.7,80.5z M380.7,89c0,2.1,1.7,3.7,3.7,3.7s3.7-1.7,3.7-3.7
	s-1.7-3.7-3.7-3.7S380.7,86.9,380.7,89z M380.7,97.5c0,2.1,1.7,3.7,3.7,3.7s3.7-1.7,3.7-3.7s-1.7-3.7-3.7-3.7S380.7,95.5,380.7,97.5
	z M380.7,106.1c0,2.1,1.7,3.7,3.7,3.7s3.7-1.7,3.7-3.7s-1.7-3.7-3.7-3.7S380.7,104,380.7,106.1z M380.7,114.6c0,2.1,1.7,3.7,3.7,3.7
	s3.7-1.7,3.7-3.7s-1.7-3.7-3.7-3.7S380.7,112.5,380.7,114.6z M380.7,123.1c0,2.1,1.7,3.7,3.7,3.7s3.7-1.7,3.7-3.7s-1.7-3.7-3.7-3.7
	S380.7,121.1,380.7,123.1z M380.7,131.6c0,2.1,1.7,3.7,3.7,3.7s3.7-1.7,3.7-3.7s-1.7-3.7-3.7-3.7S380.7,129.6,380.7,131.6z
	 M380.7,140.2c0,2.1,1.7,3.7,3.7,3.7s3.7-1.7,3.7-3.7s-1.7-3.7-3.7-3.7S380.7,138.1,380.7,140.2z M380.7,148.7
	c0,2.1,1.7,3.7,3.7,3.7s3.7-1.7,3.7-3.7s-1.7-3.7-3.7-3.7S380.7,146.6,380.7,148.7z M380.7,157.2c0,2.1,1.7,3.7,3.7,3.7
	s3.7-1.7,3.7-3.7s-1.7-3.7-3.7-3.7S380.7,155.2,380.7,157.2z M380.7,165.8c0,2.1,1.7,3.7,3.7,3.7s3.7-1.7,3.7-3.7s-1.7-3.7-3.7-3.7
	S380.7,163.7,380.7,165.8z M380.7,174.3c0,2.1,1.7,3.7,3.7,3.7s3.7-1.7,3.7-3.7s-1.7-3.7-3.7-3.7S380.7,172.2,380.7,174.3z
	 M389.1,46.4c0,2.1,1.7,3.7,3.7,3.7s3.7-1.7,3.7-3.7s-1.7-3.7-3.7-3.7S389.1,44.3,389.1,46.4z M389.1,54.9c0,2.1,1.7,3.7,3.7,3.7
	s3.7-1.7,3.7-3.7s-1.7-3.7-3.7-3.7S389.1,52.8,389.1,54.9z M389.1,63.4c0,2.1,1.7,3.7,3.7,3.7s3.7-1.7,3.7-3.7s-1.7-3.7-3.7-3.7
	S389.1,61.4,389.1,63.4z M389.1,72c0,2.1,1.7,3.7,3.7,3.7s3.7-1.7,3.7-3.7s-1.7-3.7-3.7-3.7S389.1,69.9,389.1,72z M389.1,80.5
	c0,2.1,1.7,3.7,3.7,3.7s3.7-1.7,3.7-3.7s-1.7-3.7-3.7-3.7S389.1,78.4,389.1,80.5z M389.1,89c0,2.1,1.7,3.7,3.7,3.7s3.7-1.7,3.7-3.7
	s-1.7-3.7-3.7-3.7S389.1,86.9,389.1,89z M389.1,97.5c0,2.1,1.7,3.7,3.7,3.7s3.7-1.7,3.7-3.7s-1.7-3.7-3.7-3.7S389.1,95.5,389.1,97.5
	z M389.1,106.1c0,2.1,1.7,3.7,3.7,3.7s3.7-1.7,3.7-3.7s-1.7-3.7-3.7-3.7S389.1,104,389.1,106.1z M389.1,114.6c0,2.1,1.7,3.7,3.7,3.7
	s3.7-1.7,3.7-3.7s-1.7-3.7-3.7-3.7S389.1,112.5,389.1,114.6z M389.1,123.1c0,2.1,1.7,3.7,3.7,3.7s3.7-1.7,3.7-3.7s-1.7-3.7-3.7-3.7
	S389.1,121.1,389.1,123.1z M389.1,131.6c0,2.1,1.7,3.7,3.7,3.7s3.7-1.7,3.7-3.7s-1.7-3.7-3.7-3.7S389.1,129.6,389.1,131.6z
	 M389.1,140.2c0,2.1,1.7,3.7,3.7,3.7s3.7-1.7,3.7-3.7s-1.7-3.7-3.7-3.7S389.1,138.1,389.1,140.2z M389.1,148.7
	c0,2.1,1.7,3.7,3.7,3.7s3.7-1.7,3.7-3.7s-1.7-3.7-3.7-3.7S389.1,146.6,389.1,148.7z M389.1,157.2c0,2.1,1.7,3.7,3.7,3.7
	s3.7-1.7,3.7-3.7s-1.7-3.7-3.7-3.7S389.1,155.2,389.1,157.2z M389.1,165.8c0,2.1,1.7,3.7,3.7,3.7s3.7-1.7,3.7-3.7s-1.7-3.7-3.7-3.7
	S389.1,163.7,389.1,165.8z M389.1,174.3c0,2.1,1.7,3.7,3.7,3.7s3.7-1.7,3.7-3.7s-1.7-3.7-3.7-3.7S389.1,172.2,389.1,174.3z
	 M389.1,182.8c0,2.1,1.7,3.7,3.7,3.7s3.7-1.7,3.7-3.7s-1.7-3.7-3.7-3.7S389.1,180.7,389.1,182.8z M389.1,191.3
	c0,2.1,1.7,3.7,3.7,3.7s3.7-1.7,3.7-3.7s-1.7-3.7-3.7-3.7S389.1,189.3,389.1,191.3z M397.6,46.4c0,2.1,1.7,3.7,3.7,3.7
	s3.7-1.7,3.7-3.7s-1.7-3.7-3.7-3.7S397.6,44.3,397.6,46.4z M397.6,54.9c0,2.1,1.7,3.7,3.7,3.7s3.7-1.7,3.7-3.7s-1.7-3.7-3.7-3.7
	S397.6,52.8,397.6,54.9z M397.6,63.4c0,2.1,1.7,3.7,3.7,3.7s3.7-1.7,3.7-3.7s-1.7-3.7-3.7-3.7S397.6,61.4,397.6,63.4z M397.6,72
	c0,2.1,1.7,3.7,3.7,3.7S405,74,405,72s-1.7-3.7-3.7-3.7S397.6,69.9,397.6,72z M397.6,80.5c0,2.1,1.7,3.7,3.7,3.7s3.7-1.7,3.7-3.7
	s-1.7-3.7-3.7-3.7S397.6,78.4,397.6,80.5z M397.6,89c0,2.1,1.7,3.7,3.7,3.7s3.7-1.7,3.7-3.7s-1.7-3.7-3.7-3.7S397.6,86.9,397.6,89z
	 M397.6,97.5c0,2.1,1.7,3.7,3.7,3.7s3.7-1.7,3.7-3.7s-1.7-3.7-3.7-3.7S397.6,95.5,397.6,97.5z M397.6,106.1c0,2.1,1.7,3.7,3.7,3.7
	s3.7-1.7,3.7-3.7s-1.7-3.7-3.7-3.7S397.6,104,397.6,106.1z M397.6,114.6c0,2.1,1.7,3.7,3.7,3.7s3.7-1.7,3.7-3.7s-1.7-3.7-3.7-3.7
	S397.6,112.5,397.6,114.6z M397.6,123.1c0,2.1,1.7,3.7,3.7,3.7s3.7-1.7,3.7-3.7s-1.7-3.7-3.7-3.7S397.6,121.1,397.6,123.1z
	 M397.6,131.6c0,2.1,1.7,3.7,3.7,3.7s3.7-1.7,3.7-3.7s-1.7-3.7-3.7-3.7S397.6,129.6,397.6,131.6z M397.6,140.2
	c0,2.1,1.7,3.7,3.7,3.7s3.7-1.7,3.7-3.7s-1.7-3.7-3.7-3.7S397.6,138.1,397.6,140.2z M397.6,148.7c0,2.1,1.7,3.7,3.7,3.7
	s3.7-1.7,3.7-3.7s-1.7-3.7-3.7-3.7S397.6,146.6,397.6,148.7z M397.6,157.2c0,2.1,1.7,3.7,3.7,3.7s3.7-1.7,3.7-3.7s-1.7-3.7-3.7-3.7
	S397.6,155.2,397.6,157.2z M397.6,165.8c0,2.1,1.7,3.7,3.7,3.7s3.7-1.7,3.7-3.7s-1.7-3.7-3.7-3.7S397.6,163.7,397.6,165.8z
	 M397.6,174.3c0,2.1,1.7,3.7,3.7,3.7s3.7-1.7,3.7-3.7s-1.7-3.7-3.7-3.7S397.6,172.2,397.6,174.3z M397.6,199.9
	c0,2.1,1.7,3.7,3.7,3.7s3.7-1.7,3.7-3.7s-1.7-3.7-3.7-3.7S397.6,197.8,397.6,199.9z M406,37.8c0,2.1,1.7,3.7,3.7,3.7
	s3.7-1.7,3.7-3.7s-1.7-3.7-3.7-3.7S406,35.8,406,37.8z M406,46.4c0,2.1,1.7,3.7,3.7,3.7s3.7-1.7,3.7-3.7s-1.7-3.7-3.7-3.7
	S406,44.3,406,46.4z M406,54.9c0,2.1,1.7,3.7,3.7,3.7s3.7-1.7,3.7-3.7s-1.7-3.7-3.7-3.7S406,52.8,406,54.9z M406,63.4
	c0,2.1,1.7,3.7,3.7,3.7s3.7-1.7,3.7-3.7s-1.7-3.7-3.7-3.7S406,61.4,406,63.4z M406,72c0,2.1,1.7,3.7,3.7,3.7s3.7-1.7,3.7-3.7
	s-1.7-3.7-3.7-3.7S406,69.9,406,72z M406,80.5c0,2.1,1.7,3.7,3.7,3.7s3.7-1.7,3.7-3.7s-1.7-3.7-3.7-3.7S406,78.4,406,80.5z M406,89
	c0,2.1,1.7,3.7,3.7,3.7s3.7-1.7,3.7-3.7s-1.7-3.7-3.7-3.7S406,86.9,406,89z M406,97.5c0,2.1,1.7,3.7,3.7,3.7s3.7-1.7,3.7-3.7
	s-1.7-3.7-3.7-3.7S406,95.5,406,97.5z M406,106.1c0,2.1,1.7,3.7,3.7,3.7s3.7-1.7,3.7-3.7s-1.7-3.7-3.7-3.7S406,104,406,106.1z
	 M406,114.6c0,2.1,1.7,3.7,3.7,3.7s3.7-1.7,3.7-3.7s-1.7-3.7-3.7-3.7S406,112.5,406,114.6z M406,123.1c0,2.1,1.7,3.7,3.7,3.7
	s3.7-1.7,3.7-3.7s-1.7-3.7-3.7-3.7S406,121.1,406,123.1z M406,131.6c0,2.1,1.7,3.7,3.7,3.7s3.7-1.7,3.7-3.7s-1.7-3.7-3.7-3.7
	S406,129.6,406,131.6z M406,140.2c0,2.1,1.7,3.7,3.7,3.7s3.7-1.7,3.7-3.7s-1.7-3.7-3.7-3.7S406,138.1,406,140.2z M406,148.7
	c0,2.1,1.7,3.7,3.7,3.7s3.7-1.7,3.7-3.7s-1.7-3.7-3.7-3.7S406,146.6,406,148.7z M406,157.2c0,2.1,1.7,3.7,3.7,3.7s3.7-1.7,3.7-3.7
	s-1.7-3.7-3.7-3.7S406,155.2,406,157.2z M406,165.8c0,2.1,1.7,3.7,3.7,3.7s3.7-1.7,3.7-3.7s-1.7-3.7-3.7-3.7S406,163.7,406,165.8z
	 M414.5,20.8c0,2.1,1.7,3.7,3.7,3.7s3.7-1.7,3.7-3.7s-1.7-3.7-3.7-3.7S414.5,18.7,414.5,20.8z M414.5,37.8c0,2.1,1.7,3.7,3.7,3.7
	s3.7-1.7,3.7-3.7s-1.7-3.7-3.7-3.7S414.5,35.8,414.5,37.8z M414.5,46.4c0,2.1,1.7,3.7,3.7,3.7s3.7-1.7,3.7-3.7s-1.7-3.7-3.7-3.7
	S414.5,44.3,414.5,46.4z M414.5,54.9c0,2.1,1.7,3.7,3.7,3.7s3.7-1.7,3.7-3.7s-1.7-3.7-3.7-3.7S414.5,52.8,414.5,54.9z M414.5,63.4
	c0,2.1,1.7,3.7,3.7,3.7s3.7-1.7,3.7-3.7s-1.7-3.7-3.7-3.7S414.5,61.4,414.5,63.4z M414.5,72c0,2.1,1.7,3.7,3.7,3.7S422,74,422,72
	s-1.7-3.7-3.7-3.7S414.5,69.9,414.5,72z M414.5,80.5c0,2.1,1.7,3.7,3.7,3.7s3.7-1.7,3.7-3.7s-1.7-3.7-3.7-3.7S414.5,78.4,414.5,80.5
	z M414.5,89c0,2.1,1.7,3.7,3.7,3.7s3.7-1.7,3.7-3.7s-1.7-3.7-3.7-3.7S414.5,86.9,414.5,89z M414.5,97.5c0,2.1,1.7,3.7,3.7,3.7
	s3.7-1.7,3.7-3.7s-1.7-3.7-3.7-3.7S414.5,95.5,414.5,97.5z M414.5,106.1c0,2.1,1.7,3.7,3.7,3.7s3.7-1.7,3.7-3.7s-1.7-3.7-3.7-3.7
	S414.5,104,414.5,106.1z M414.5,114.6c0,2.1,1.7,3.7,3.7,3.7s3.7-1.7,3.7-3.7s-1.7-3.7-3.7-3.7S414.5,112.5,414.5,114.6z
	 M414.5,123.1c0,2.1,1.7,3.7,3.7,3.7s3.7-1.7,3.7-3.7s-1.7-3.7-3.7-3.7S414.5,121.1,414.5,123.1z M414.5,131.6
	c0,2.1,1.7,3.7,3.7,3.7s3.7-1.7,3.7-3.7s-1.7-3.7-3.7-3.7S414.5,129.6,414.5,131.6z M414.5,140.2c0,2.1,1.7,3.7,3.7,3.7
	s3.7-1.7,3.7-3.7s-1.7-3.7-3.7-3.7S414.5,138.1,414.5,140.2z M414.5,148.7c0,2.1,1.7,3.7,3.7,3.7s3.7-1.7,3.7-3.7s-1.7-3.7-3.7-3.7
	S414.5,146.6,414.5,148.7z M414.5,157.2c0,2.1,1.7,3.7,3.7,3.7s3.7-1.7,3.7-3.7s-1.7-3.7-3.7-3.7S414.5,155.2,414.5,157.2z
	 M414.5,165.8c0,2.1,1.7,3.7,3.7,3.7s3.7-1.7,3.7-3.7s-1.7-3.7-3.7-3.7S414.5,163.7,414.5,165.8z M414.5,174.3
	c0,2.1,1.7,3.7,3.7,3.7s3.7-1.7,3.7-3.7s-1.7-3.7-3.7-3.7S414.5,172.2,414.5,174.3z M423,20.8c0,2.1,1.7,3.7,3.7,3.7
	s3.7-1.7,3.7-3.7s-1.7-3.7-3.7-3.7S423,18.7,423,20.8z M423,29.3c0,2.1,1.7,3.7,3.7,3.7s3.7-1.7,3.7-3.7s-1.7-3.7-3.7-3.7
	S423,27.3,423,29.3z M423,37.8c0,2.1,1.7,3.7,3.7,3.7s3.7-1.7,3.7-3.7s-1.7-3.7-3.7-3.7S423,35.8,423,37.8z M423,46.4
	c0,2.1,1.7,3.7,3.7,3.7s3.7-1.7,3.7-3.7s-1.7-3.7-3.7-3.7S423,44.3,423,46.4z M423,54.9c0,2.1,1.7,3.7,3.7,3.7s3.7-1.7,3.7-3.7
	s-1.7-3.7-3.7-3.7S423,52.8,423,54.9z M423,63.4c0,2.1,1.7,3.7,3.7,3.7s3.7-1.7,3.7-3.7s-1.7-3.7-3.7-3.7S423,61.4,423,63.4z
	 M423,72c0,2.1,1.7,3.7,3.7,3.7s3.7-1.7,3.7-3.7s-1.7-3.7-3.7-3.7S423,69.9,423,72z M423,80.5c0,2.1,1.7,3.7,3.7,3.7
	s3.7-1.7,3.7-3.7s-1.7-3.7-3.7-3.7S423,78.4,423,80.5z M423,89c0,2.1,1.7,3.7,3.7,3.7s3.7-1.7,3.7-3.7s-1.7-3.7-3.7-3.7
	S423,86.9,423,89z M423,97.5c0,2.1,1.7,3.7,3.7,3.7s3.7-1.7,3.7-3.7s-1.7-3.7-3.7-3.7S423,95.5,423,97.5z M423,106.1
	c0,2.1,1.7,3.7,3.7,3.7s3.7-1.7,3.7-3.7s-1.7-3.7-3.7-3.7S423,104,423,106.1z M423,114.6c0,2.1,1.7,3.7,3.7,3.7s3.7-1.7,3.7-3.7
	s-1.7-3.7-3.7-3.7S423,112.5,423,114.6z M423,123.1c0,2.1,1.7,3.7,3.7,3.7s3.7-1.7,3.7-3.7s-1.7-3.7-3.7-3.7S423,121.1,423,123.1z
	 M423,131.6c0,2.1,1.7,3.7,3.7,3.7s3.7-1.7,3.7-3.7s-1.7-3.7-3.7-3.7S423,129.6,423,131.6z M423,140.2c0,2.1,1.7,3.7,3.7,3.7
	s3.7-1.7,3.7-3.7s-1.7-3.7-3.7-3.7S423,138.1,423,140.2z M423,148.7c0,2.1,1.7,3.7,3.7,3.7s3.7-1.7,3.7-3.7s-1.7-3.7-3.7-3.7
	S423,146.6,423,148.7z M423,157.2c0,2.1,1.7,3.7,3.7,3.7s3.7-1.7,3.7-3.7s-1.7-3.7-3.7-3.7S423,155.2,423,157.2z M423,165.8
	c0,2.1,1.7,3.7,3.7,3.7s3.7-1.7,3.7-3.7s-1.7-3.7-3.7-3.7S423,163.7,423,165.8z M423,174.3c0,2.1,1.7,3.7,3.7,3.7s3.7-1.7,3.7-3.7
	s-1.7-3.7-3.7-3.7S423,172.2,423,174.3z M423,182.8c0,2.1,1.7,3.7,3.7,3.7s3.7-1.7,3.7-3.7s-1.7-3.7-3.7-3.7S423,180.7,423,182.8z
	 M423,199.9c0,2.1,1.7,3.7,3.7,3.7s3.7-1.7,3.7-3.7s-1.7-3.7-3.7-3.7S423,197.8,423,199.9z M423,208.4c0,2.1,1.7,3.7,3.7,3.7
	s3.7-1.7,3.7-3.7s-1.7-3.7-3.7-3.7S423,206.3,423,208.4z M431.4,29.3c0,2.1,1.7,3.7,3.7,3.7s3.7-1.7,3.7-3.7s-1.7-3.7-3.7-3.7
	S431.4,27.3,431.4,29.3z M431.4,37.8c0,2.1,1.7,3.7,3.7,3.7s3.7-1.7,3.7-3.7s-1.7-3.7-3.7-3.7S431.4,35.8,431.4,37.8z M431.4,46.4
	c0,2.1,1.7,3.7,3.7,3.7s3.7-1.7,3.7-3.7s-1.7-3.7-3.7-3.7S431.4,44.3,431.4,46.4z M431.4,54.9c0,2.1,1.7,3.7,3.7,3.7
	s3.7-1.7,3.7-3.7s-1.7-3.7-3.7-3.7S431.4,52.8,431.4,54.9z M431.4,63.4c0,2.1,1.7,3.7,3.7,3.7s3.7-1.7,3.7-3.7s-1.7-3.7-3.7-3.7
	S431.4,61.4,431.4,63.4z M431.4,72c0,2.1,1.7,3.7,3.7,3.7s3.7-1.7,3.7-3.7s-1.7-3.7-3.7-3.7S431.4,69.9,431.4,72z M431.4,80.5
	c0,2.1,1.7,3.7,3.7,3.7s3.7-1.7,3.7-3.7s-1.7-3.7-3.7-3.7S431.4,78.4,431.4,80.5z M431.4,89c0,2.1,1.7,3.7,3.7,3.7s3.7-1.7,3.7-3.7
	s-1.7-3.7-3.7-3.7S431.4,86.9,431.4,89z M431.4,97.5c0,2.1,1.7,3.7,3.7,3.7s3.7-1.7,3.7-3.7s-1.7-3.7-3.7-3.7S431.4,95.5,431.4,97.5
	z M431.4,106.1c0,2.1,1.7,3.7,3.7,3.7s3.7-1.7,3.7-3.7s-1.7-3.7-3.7-3.7S431.4,104,431.4,106.1z M431.4,114.6c0,2.1,1.7,3.7,3.7,3.7
	s3.7-1.7,3.7-3.7s-1.7-3.7-3.7-3.7S431.4,112.5,431.4,114.6z M431.4,123.1c0,2.1,1.7,3.7,3.7,3.7s3.7-1.7,3.7-3.7s-1.7-3.7-3.7-3.7
	S431.4,121.1,431.4,123.1z M431.4,131.6c0,2.1,1.7,3.7,3.7,3.7s3.7-1.7,3.7-3.7s-1.7-3.7-3.7-3.7S431.4,129.6,431.4,131.6z
	 M431.4,140.2c0,2.1,1.7,3.7,3.7,3.7s3.7-1.7,3.7-3.7s-1.7-3.7-3.7-3.7S431.4,138.1,431.4,140.2z M431.4,148.7
	c0,2.1,1.7,3.7,3.7,3.7s3.7-1.7,3.7-3.7s-1.7-3.7-3.7-3.7S431.4,146.6,431.4,148.7z M431.4,157.2c0,2.1,1.7,3.7,3.7,3.7
	s3.7-1.7,3.7-3.7s-1.7-3.7-3.7-3.7S431.4,155.2,431.4,157.2z M431.4,165.8c0,2.1,1.7,3.7,3.7,3.7s3.7-1.7,3.7-3.7s-1.7-3.7-3.7-3.7
	S431.4,163.7,431.4,165.8z M431.4,174.3c0,2.1,1.7,3.7,3.7,3.7s3.7-1.7,3.7-3.7s-1.7-3.7-3.7-3.7S431.4,172.2,431.4,174.3z
	 M431.4,182.8c0,2.1,1.7,3.7,3.7,3.7s3.7-1.7,3.7-3.7s-1.7-3.7-3.7-3.7S431.4,180.7,431.4,182.8z M431.4,191.3
	c0,2.1,1.7,3.7,3.7,3.7s3.7-1.7,3.7-3.7s-1.7-3.7-3.7-3.7S431.4,189.3,431.4,191.3z M431.4,208.4c0,2.1,1.7,3.7,3.7,3.7
	s3.7-1.7,3.7-3.7s-1.7-3.7-3.7-3.7S431.4,206.3,431.4,208.4z M431.4,216.9c0,2.1,1.7,3.7,3.7,3.7s3.7-1.7,3.7-3.7s-1.7-3.7-3.7-3.7
	S431.4,214.9,431.4,216.9z M439.9,37.8c0,2.1,1.7,3.7,3.7,3.7s3.7-1.7,3.7-3.7s-1.7-3.7-3.7-3.7S439.9,35.8,439.9,37.8z M439.9,46.4
	c0,2.1,1.7,3.7,3.7,3.7s3.7-1.7,3.7-3.7s-1.7-3.7-3.7-3.7S439.9,44.3,439.9,46.4z M439.9,54.9c0,2.1,1.7,3.7,3.7,3.7
	s3.7-1.7,3.7-3.7s-1.7-3.7-3.7-3.7S439.9,52.8,439.9,54.9z M439.9,63.4c0,2.1,1.7,3.7,3.7,3.7s3.7-1.7,3.7-3.7s-1.7-3.7-3.7-3.7
	S439.9,61.4,439.9,63.4z M439.9,72c0,2.1,1.7,3.7,3.7,3.7s3.7-1.7,3.7-3.7s-1.7-3.7-3.7-3.7S439.9,69.9,439.9,72z M439.9,80.5
	c0,2.1,1.7,3.7,3.7,3.7s3.7-1.7,3.7-3.7s-1.7-3.7-3.7-3.7S439.9,78.4,439.9,80.5z M439.9,89c0,2.1,1.7,3.7,3.7,3.7s3.7-1.7,3.7-3.7
	s-1.7-3.7-3.7-3.7S439.9,86.9,439.9,89z M439.9,97.5c0,2.1,1.7,3.7,3.7,3.7s3.7-1.7,3.7-3.7s-1.7-3.7-3.7-3.7S439.9,95.5,439.9,97.5
	z M439.9,106.1c0,2.1,1.7,3.7,3.7,3.7s3.7-1.7,3.7-3.7s-1.7-3.7-3.7-3.7S439.9,104,439.9,106.1z M439.9,114.6c0,2.1,1.7,3.7,3.7,3.7
	s3.7-1.7,3.7-3.7s-1.7-3.7-3.7-3.7S439.9,112.5,439.9,114.6z M439.9,123.1c0,2.1,1.7,3.7,3.7,3.7s3.7-1.7,3.7-3.7s-1.7-3.7-3.7-3.7
	S439.9,121.1,439.9,123.1z M439.9,131.6c0,2.1,1.7,3.7,3.7,3.7s3.7-1.7,3.7-3.7s-1.7-3.7-3.7-3.7S439.9,129.6,439.9,131.6z
	 M439.9,140.2c0,2.1,1.7,3.7,3.7,3.7s3.7-1.7,3.7-3.7s-1.7-3.7-3.7-3.7S439.9,138.1,439.9,140.2z M439.9,148.7
	c0,2.1,1.7,3.7,3.7,3.7s3.7-1.7,3.7-3.7s-1.7-3.7-3.7-3.7S439.9,146.6,439.9,148.7z M439.9,157.2c0,2.1,1.7,3.7,3.7,3.7
	s3.7-1.7,3.7-3.7s-1.7-3.7-3.7-3.7S439.9,155.2,439.9,157.2z M439.9,165.8c0,2.1,1.7,3.7,3.7,3.7s3.7-1.7,3.7-3.7s-1.7-3.7-3.7-3.7
	S439.9,163.7,439.9,165.8z M439.9,182.8c0,2.1,1.7,3.7,3.7,3.7s3.7-1.7,3.7-3.7s-1.7-3.7-3.7-3.7S439.9,180.7,439.9,182.8z
	 M439.9,208.4c0,2.1,1.7,3.7,3.7,3.7s3.7-1.7,3.7-3.7s-1.7-3.7-3.7-3.7S439.9,206.3,439.9,208.4z M439.9,216.9
	c0,2.1,1.7,3.7,3.7,3.7s3.7-1.7,3.7-3.7s-1.7-3.7-3.7-3.7S439.9,214.9,439.9,216.9z M448.3,37.8c0,2.1,1.7,3.7,3.7,3.7
	s3.7-1.7,3.7-3.7s-1.7-3.7-3.7-3.7S448.3,35.8,448.3,37.8z M448.3,46.4c0,2.1,1.7,3.7,3.7,3.7s3.7-1.7,3.7-3.7s-1.7-3.7-3.7-3.7
	S448.3,44.3,448.3,46.4z M448.3,54.9c0,2.1,1.7,3.7,3.7,3.7s3.7-1.7,3.7-3.7s-1.7-3.7-3.7-3.7S448.3,52.8,448.3,54.9z M448.3,63.4
	c0,2.1,1.7,3.7,3.7,3.7s3.7-1.7,3.7-3.7s-1.7-3.7-3.7-3.7S448.3,61.4,448.3,63.4z M448.3,72c0,2.1,1.7,3.7,3.7,3.7s3.7-1.7,3.7-3.7
	s-1.7-3.7-3.7-3.7S448.3,69.9,448.3,72z M448.3,80.5c0,2.1,1.7,3.7,3.7,3.7s3.7-1.7,3.7-3.7s-1.7-3.7-3.7-3.7S448.3,78.4,448.3,80.5
	z M448.3,89c0,2.1,1.7,3.7,3.7,3.7s3.7-1.7,3.7-3.7s-1.7-3.7-3.7-3.7S448.3,86.9,448.3,89z M448.3,97.5c0,2.1,1.7,3.7,3.7,3.7
	s3.7-1.7,3.7-3.7s-1.7-3.7-3.7-3.7S448.3,95.5,448.3,97.5z M448.3,106.1c0,2.1,1.7,3.7,3.7,3.7s3.7-1.7,3.7-3.7s-1.7-3.7-3.7-3.7
	S448.3,104,448.3,106.1z M448.3,114.6c0,2.1,1.7,3.7,3.7,3.7s3.7-1.7,3.7-3.7s-1.7-3.7-3.7-3.7S448.3,112.5,448.3,114.6z
	 M448.3,123.1c0,2.1,1.7,3.7,3.7,3.7s3.7-1.7,3.7-3.7s-1.7-3.7-3.7-3.7S448.3,121.1,448.3,123.1z M448.3,131.6
	c0,2.1,1.7,3.7,3.7,3.7s3.7-1.7,3.7-3.7s-1.7-3.7-3.7-3.7S448.3,129.6,448.3,131.6z M448.3,140.2c0,2.1,1.7,3.7,3.7,3.7
	s3.7-1.7,3.7-3.7s-1.7-3.7-3.7-3.7S448.3,138.1,448.3,140.2z M448.3,148.7c0,2.1,1.7,3.7,3.7,3.7s3.7-1.7,3.7-3.7s-1.7-3.7-3.7-3.7
	S448.3,146.6,448.3,148.7z M448.3,157.2c0,2.1,1.7,3.7,3.7,3.7s3.7-1.7,3.7-3.7s-1.7-3.7-3.7-3.7S448.3,155.2,448.3,157.2z
	 M448.3,165.8c0,2.1,1.7,3.7,3.7,3.7s3.7-1.7,3.7-3.7s-1.7-3.7-3.7-3.7S448.3,163.7,448.3,165.8z M448.3,199.9
	c0,2.1,1.7,3.7,3.7,3.7s3.7-1.7,3.7-3.7s-1.7-3.7-3.7-3.7S448.3,197.8,448.3,199.9z M448.3,208.4c0,2.1,1.7,3.7,3.7,3.7
	s3.7-1.7,3.7-3.7s-1.7-3.7-3.7-3.7S448.3,206.3,448.3,208.4z M448.3,225.4c0,2.1,1.7,3.7,3.7,3.7s3.7-1.7,3.7-3.7s-1.7-3.7-3.7-3.7
	S448.3,223.4,448.3,225.4z M448.3,251c0,2.1,1.7,3.7,3.7,3.7s3.7-1.7,3.7-3.7s-1.7-3.7-3.7-3.7S448.3,249,448.3,251z M448.3,259.6
	c0,2.1,1.7,3.7,3.7,3.7s3.7-1.7,3.7-3.7s-1.7-3.7-3.7-3.7S448.3,257.5,448.3,259.6z M448.3,268.1c0,2.1,1.7,3.7,3.7,3.7
	s3.7-1.7,3.7-3.7s-1.7-3.7-3.7-3.7S448.3,266,448.3,268.1z M456.8,46.4c0,2.1,1.7,3.7,3.7,3.7s3.7-1.7,3.7-3.7s-1.7-3.7-3.7-3.7
	S456.8,44.3,456.8,46.4z M456.8,54.9c0,2.1,1.7,3.7,3.7,3.7s3.7-1.7,3.7-3.7s-1.7-3.7-3.7-3.7S456.8,52.8,456.8,54.9z M456.8,63.4
	c0,2.1,1.7,3.7,3.7,3.7s3.7-1.7,3.7-3.7s-1.7-3.7-3.7-3.7S456.8,61.4,456.8,63.4z M456.8,72c0,2.1,1.7,3.7,3.7,3.7s3.7-1.7,3.7-3.7
	s-1.7-3.7-3.7-3.7S456.8,69.9,456.8,72z M456.8,80.5c0,2.1,1.7,3.7,3.7,3.7s3.7-1.7,3.7-3.7s-1.7-3.7-3.7-3.7S456.8,78.4,456.8,80.5
	z M456.8,89c0,2.1,1.7,3.7,3.7,3.7s3.7-1.7,3.7-3.7s-1.7-3.7-3.7-3.7S456.8,86.9,456.8,89z M456.8,97.5c0,2.1,1.7,3.7,3.7,3.7
	s3.7-1.7,3.7-3.7s-1.7-3.7-3.7-3.7S456.8,95.5,456.8,97.5z M456.8,106.1c0,2.1,1.7,3.7,3.7,3.7s3.7-1.7,3.7-3.7s-1.7-3.7-3.7-3.7
	S456.8,104,456.8,106.1z M456.8,114.6c0,2.1,1.7,3.7,3.7,3.7s3.7-1.7,3.7-3.7s-1.7-3.7-3.7-3.7S456.8,112.5,456.8,114.6z
	 M456.8,123.1c0,2.1,1.7,3.7,3.7,3.7s3.7-1.7,3.7-3.7s-1.7-3.7-3.7-3.7S456.8,121.1,456.8,123.1z M456.8,131.6
	c0,2.1,1.7,3.7,3.7,3.7s3.7-1.7,3.7-3.7s-1.7-3.7-3.7-3.7S456.8,129.6,456.8,131.6z M456.8,140.2c0,2.1,1.7,3.7,3.7,3.7
	s3.7-1.7,3.7-3.7s-1.7-3.7-3.7-3.7S456.8,138.1,456.8,140.2z M456.8,148.7c0,2.1,1.7,3.7,3.7,3.7s3.7-1.7,3.7-3.7s-1.7-3.7-3.7-3.7
	S456.8,146.6,456.8,148.7z M456.8,157.2c0,2.1,1.7,3.7,3.7,3.7s3.7-1.7,3.7-3.7s-1.7-3.7-3.7-3.7S456.8,155.2,456.8,157.2z
	 M456.8,165.8c0,2.1,1.7,3.7,3.7,3.7s3.7-1.7,3.7-3.7s-1.7-3.7-3.7-3.7S456.8,163.7,456.8,165.8z M456.8,174.3
	c0,2.1,1.7,3.7,3.7,3.7s3.7-1.7,3.7-3.7s-1.7-3.7-3.7-3.7S456.8,172.2,456.8,174.3z M456.8,182.8c0,2.1,1.7,3.7,3.7,3.7
	s3.7-1.7,3.7-3.7s-1.7-3.7-3.7-3.7S456.8,180.7,456.8,182.8z M456.8,191.3c0,2.1,1.7,3.7,3.7,3.7s3.7-1.7,3.7-3.7s-1.7-3.7-3.7-3.7
	S456.8,189.3,456.8,191.3z M456.8,208.4c0,2.1,1.7,3.7,3.7,3.7s3.7-1.7,3.7-3.7s-1.7-3.7-3.7-3.7S456.8,206.3,456.8,208.4z
	 M456.8,216.9c0,2.1,1.7,3.7,3.7,3.7s3.7-1.7,3.7-3.7s-1.7-3.7-3.7-3.7S456.8,214.9,456.8,216.9z M456.8,242.5
	c0,2.1,1.7,3.7,3.7,3.7s3.7-1.7,3.7-3.7s-1.7-3.7-3.7-3.7S456.8,240.4,456.8,242.5z M456.8,251c0,2.1,1.7,3.7,3.7,3.7
	s3.7-1.7,3.7-3.7s-1.7-3.7-3.7-3.7S456.8,249,456.8,251z M456.8,259.6c0,2.1,1.7,3.7,3.7,3.7s3.7-1.7,3.7-3.7s-1.7-3.7-3.7-3.7
	S456.8,257.5,456.8,259.6z M456.8,268.1c0,2.1,1.7,3.7,3.7,3.7s3.7-1.7,3.7-3.7s-1.7-3.7-3.7-3.7S456.8,266,456.8,268.1z
	 M465.2,46.4c0,2.1,1.7,3.7,3.7,3.7s3.7-1.7,3.7-3.7s-1.7-3.7-3.7-3.7S465.2,44.3,465.2,46.4z M465.2,54.9c0,2.1,1.7,3.7,3.7,3.7
	s3.7-1.7,3.7-3.7s-1.7-3.7-3.7-3.7S465.2,52.8,465.2,54.9z M465.2,63.4c0,2.1,1.7,3.7,3.7,3.7s3.7-1.7,3.7-3.7s-1.7-3.7-3.7-3.7
	S465.2,61.4,465.2,63.4z M465.2,72c0,2.1,1.7,3.7,3.7,3.7s3.7-1.7,3.7-3.7s-1.7-3.7-3.7-3.7S465.2,69.9,465.2,72z M465.2,80.5
	c0,2.1,1.7,3.7,3.7,3.7s3.7-1.7,3.7-3.7s-1.7-3.7-3.7-3.7S465.2,78.4,465.2,80.5z M465.2,89c0,2.1,1.7,3.7,3.7,3.7s3.7-1.7,3.7-3.7
	s-1.7-3.7-3.7-3.7S465.2,86.9,465.2,89z M465.2,97.5c0,2.1,1.7,3.7,3.7,3.7s3.7-1.7,3.7-3.7s-1.7-3.7-3.7-3.7S465.2,95.5,465.2,97.5
	z M465.2,106.1c0,2.1,1.7,3.7,3.7,3.7s3.7-1.7,3.7-3.7s-1.7-3.7-3.7-3.7S465.2,104,465.2,106.1z M465.2,114.6c0,2.1,1.7,3.7,3.7,3.7
	s3.7-1.7,3.7-3.7s-1.7-3.7-3.7-3.7S465.2,112.5,465.2,114.6z M465.2,123.1c0,2.1,1.7,3.7,3.7,3.7s3.7-1.7,3.7-3.7s-1.7-3.7-3.7-3.7
	S465.2,121.1,465.2,123.1z M465.2,131.6c0,2.1,1.7,3.7,3.7,3.7s3.7-1.7,3.7-3.7s-1.7-3.7-3.7-3.7S465.2,129.6,465.2,131.6z
	 M465.2,140.2c0,2.1,1.7,3.7,3.7,3.7s3.7-1.7,3.7-3.7s-1.7-3.7-3.7-3.7S465.2,138.1,465.2,140.2z M465.2,182.8
	c0,2.1,1.7,3.7,3.7,3.7s3.7-1.7,3.7-3.7s-1.7-3.7-3.7-3.7S465.2,180.7,465.2,182.8z M465.2,191.3c0,2.1,1.7,3.7,3.7,3.7
	s3.7-1.7,3.7-3.7s-1.7-3.7-3.7-3.7S465.2,189.3,465.2,191.3z M465.2,199.9c0,2.1,1.7,3.7,3.7,3.7s3.7-1.7,3.7-3.7s-1.7-3.7-3.7-3.7
	S465.2,197.8,465.2,199.9z M465.2,208.4c0,2.1,1.7,3.7,3.7,3.7s3.7-1.7,3.7-3.7s-1.7-3.7-3.7-3.7S465.2,206.3,465.2,208.4z
	 M465.2,234c0,2.1,1.7,3.7,3.7,3.7s3.7-1.7,3.7-3.7s-1.7-3.7-3.7-3.7S465.2,231.9,465.2,234z M465.2,242.5c0,2.1,1.7,3.7,3.7,3.7
	s3.7-1.7,3.7-3.7s-1.7-3.7-3.7-3.7S465.2,240.4,465.2,242.5z M465.2,251c0,2.1,1.7,3.7,3.7,3.7s3.7-1.7,3.7-3.7s-1.7-3.7-3.7-3.7
	S465.2,249,465.2,251z M465.2,259.6c0,2.1,1.7,3.7,3.7,3.7s3.7-1.7,3.7-3.7s-1.7-3.7-3.7-3.7S465.2,257.5,465.2,259.6z M465.2,268.1
	c0,2.1,1.7,3.7,3.7,3.7s3.7-1.7,3.7-3.7s-1.7-3.7-3.7-3.7S465.2,266,465.2,268.1z M473.7,54.9c0,2.1,1.7,3.7,3.7,3.7
	s3.7-1.7,3.7-3.7s-1.7-3.7-3.7-3.7S473.7,52.8,473.7,54.9z M473.7,63.4c0,2.1,1.7,3.7,3.7,3.7s3.7-1.7,3.7-3.7s-1.7-3.7-3.7-3.7
	S473.7,61.4,473.7,63.4z M473.7,72c0,2.1,1.7,3.7,3.7,3.7s3.7-1.7,3.7-3.7s-1.7-3.7-3.7-3.7S473.7,69.9,473.7,72z M473.7,80.5
	c0,2.1,1.7,3.7,3.7,3.7s3.7-1.7,3.7-3.7s-1.7-3.7-3.7-3.7S473.7,78.4,473.7,80.5z M473.7,89c0,2.1,1.7,3.7,3.7,3.7s3.7-1.7,3.7-3.7
	s-1.7-3.7-3.7-3.7S473.7,86.9,473.7,89z M473.7,97.5c0,2.1,1.7,3.7,3.7,3.7s3.7-1.7,3.7-3.7s-1.7-3.7-3.7-3.7S473.7,95.5,473.7,97.5
	z M473.7,106.1c0,2.1,1.7,3.7,3.7,3.7s3.7-1.7,3.7-3.7s-1.7-3.7-3.7-3.7S473.7,104,473.7,106.1z M473.7,114.6c0,2.1,1.7,3.7,3.7,3.7
	s3.7-1.7,3.7-3.7s-1.7-3.7-3.7-3.7S473.7,112.5,473.7,114.6z M473.7,123.1c0,2.1,1.7,3.7,3.7,3.7s3.7-1.7,3.7-3.7s-1.7-3.7-3.7-3.7
	S473.7,121.1,473.7,123.1z M473.7,140.2c0,2.1,1.7,3.7,3.7,3.7s3.7-1.7,3.7-3.7s-1.7-3.7-3.7-3.7S473.7,138.1,473.7,140.2z
	 M473.7,148.7c0,2.1,1.7,3.7,3.7,3.7s3.7-1.7,3.7-3.7s-1.7-3.7-3.7-3.7S473.7,146.6,473.7,148.7z M473.7,208.4
	c0,2.1,1.7,3.7,3.7,3.7s3.7-1.7,3.7-3.7s-1.7-3.7-3.7-3.7S473.7,206.3,473.7,208.4z M473.7,225.4c0,2.1,1.7,3.7,3.7,3.7
	s3.7-1.7,3.7-3.7s-1.7-3.7-3.7-3.7S473.7,223.4,473.7,225.4z M473.7,234c0,2.1,1.7,3.7,3.7,3.7s3.7-1.7,3.7-3.7s-1.7-3.7-3.7-3.7
	S473.7,231.9,473.7,234z M473.7,242.5c0,2.1,1.7,3.7,3.7,3.7s3.7-1.7,3.7-3.7s-1.7-3.7-3.7-3.7S473.7,240.4,473.7,242.5z M473.7,251
	c0,2.1,1.7,3.7,3.7,3.7s3.7-1.7,3.7-3.7s-1.7-3.7-3.7-3.7S473.7,249,473.7,251z M473.7,259.6c0,2.1,1.7,3.7,3.7,3.7s3.7-1.7,3.7-3.7
	s-1.7-3.7-3.7-3.7S473.7,257.5,473.7,259.6z M473.7,268.1c0,2.1,1.7,3.7,3.7,3.7s3.7-1.7,3.7-3.7s-1.7-3.7-3.7-3.7
	S473.7,266,473.7,268.1z M482.2,37.8c0,2.1,1.7,3.7,3.7,3.7s3.7-1.7,3.7-3.7s-1.7-3.7-3.7-3.7S482.2,35.8,482.2,37.8z M482.2,54.9
	c0,2.1,1.7,3.7,3.7,3.7s3.7-1.7,3.7-3.7s-1.7-3.7-3.7-3.7S482.2,52.8,482.2,54.9z M482.2,63.4c0,2.1,1.7,3.7,3.7,3.7
	s3.7-1.7,3.7-3.7s-1.7-3.7-3.7-3.7S482.2,61.4,482.2,63.4z M482.2,72c0,2.1,1.7,3.7,3.7,3.7s3.7-1.7,3.7-3.7s-1.7-3.7-3.7-3.7
	S482.2,69.9,482.2,72z M482.2,80.5c0,2.1,1.7,3.7,3.7,3.7s3.7-1.7,3.7-3.7s-1.7-3.7-3.7-3.7S482.2,78.4,482.2,80.5z M482.2,89
	c0,2.1,1.7,3.7,3.7,3.7s3.7-1.7,3.7-3.7s-1.7-3.7-3.7-3.7S482.2,86.9,482.2,89z M482.2,97.5c0,2.1,1.7,3.7,3.7,3.7s3.7-1.7,3.7-3.7
	s-1.7-3.7-3.7-3.7S482.2,95.5,482.2,97.5z M482.2,106.1c0,2.1,1.7,3.7,3.7,3.7s3.7-1.7,3.7-3.7s-1.7-3.7-3.7-3.7
	S482.2,104,482.2,106.1z M482.2,114.6c0,2.1,1.7,3.7,3.7,3.7s3.7-1.7,3.7-3.7s-1.7-3.7-3.7-3.7S482.2,112.5,482.2,114.6z
	 M482.2,123.1c0,2.1,1.7,3.7,3.7,3.7s3.7-1.7,3.7-3.7s-1.7-3.7-3.7-3.7S482.2,121.1,482.2,123.1z M482.2,140.2
	c0,2.1,1.7,3.7,3.7,3.7s3.7-1.7,3.7-3.7s-1.7-3.7-3.7-3.7S482.2,138.1,482.2,140.2z M482.2,208.4c0,2.1,1.7,3.7,3.7,3.7
	s3.7-1.7,3.7-3.7s-1.7-3.7-3.7-3.7S482.2,206.3,482.2,208.4z M482.2,216.9c0,2.1,1.7,3.7,3.7,3.7s3.7-1.7,3.7-3.7s-1.7-3.7-3.7-3.7
	S482.2,214.9,482.2,216.9z M482.2,234c0,2.1,1.7,3.7,3.7,3.7s3.7-1.7,3.7-3.7s-1.7-3.7-3.7-3.7S482.2,231.9,482.2,234z M482.2,242.5
	c0,2.1,1.7,3.7,3.7,3.7s3.7-1.7,3.7-3.7s-1.7-3.7-3.7-3.7S482.2,240.4,482.2,242.5z M482.2,251c0,2.1,1.7,3.7,3.7,3.7
	s3.7-1.7,3.7-3.7s-1.7-3.7-3.7-3.7S482.2,249,482.2,251z M482.2,259.6c0,2.1,1.7,3.7,3.7,3.7s3.7-1.7,3.7-3.7s-1.7-3.7-3.7-3.7
	S482.2,257.5,482.2,259.6z M482.2,268.1c0,2.1,1.7,3.7,3.7,3.7s3.7-1.7,3.7-3.7s-1.7-3.7-3.7-3.7S482.2,266,482.2,268.1z
	 M490.6,37.8c0,2.1,1.7,3.7,3.7,3.7s3.7-1.7,3.7-3.7s-1.7-3.7-3.7-3.7S490.6,35.8,490.6,37.8z M490.6,46.4c0,2.1,1.7,3.7,3.7,3.7
	s3.7-1.7,3.7-3.7s-1.7-3.7-3.7-3.7S490.6,44.3,490.6,46.4z M490.6,54.9c0,2.1,1.7,3.7,3.7,3.7s3.7-1.7,3.7-3.7s-1.7-3.7-3.7-3.7
	S490.6,52.8,490.6,54.9z M490.6,63.4c0,2.1,1.7,3.7,3.7,3.7s3.7-1.7,3.7-3.7s-1.7-3.7-3.7-3.7S490.6,61.4,490.6,63.4z M490.6,72
	c0,2.1,1.7,3.7,3.7,3.7s3.7-1.7,3.7-3.7s-1.7-3.7-3.7-3.7S490.6,69.9,490.6,72z M490.6,80.5c0,2.1,1.7,3.7,3.7,3.7s3.7-1.7,3.7-3.7
	s-1.7-3.7-3.7-3.7S490.6,78.4,490.6,80.5z M490.6,89c0,2.1,1.7,3.7,3.7,3.7s3.7-1.7,3.7-3.7s-1.7-3.7-3.7-3.7S490.6,86.9,490.6,89z
	 M490.6,97.5c0,2.1,1.7,3.7,3.7,3.7s3.7-1.7,3.7-3.7s-1.7-3.7-3.7-3.7S490.6,95.5,490.6,97.5z M490.6,106.1c0,2.1,1.7,3.7,3.7,3.7
	s3.7-1.7,3.7-3.7s-1.7-3.7-3.7-3.7S490.6,104,490.6,106.1z M490.6,114.6c0,2.1,1.7,3.7,3.7,3.7s3.7-1.7,3.7-3.7s-1.7-3.7-3.7-3.7
	S490.6,112.5,490.6,114.6z M490.6,123.1c0,2.1,1.7,3.7,3.7,3.7s3.7-1.7,3.7-3.7s-1.7-3.7-3.7-3.7S490.6,121.1,490.6,123.1z
	 M490.6,131.6c0,2.1,1.7,3.7,3.7,3.7s3.7-1.7,3.7-3.7s-1.7-3.7-3.7-3.7S490.6,129.6,490.6,131.6z M490.6,140.2
	c0,2.1,1.7,3.7,3.7,3.7s3.7-1.7,3.7-3.7s-1.7-3.7-3.7-3.7S490.6,138.1,490.6,140.2z M490.6,216.9c0,2.1,1.7,3.7,3.7,3.7
	s3.7-1.7,3.7-3.7s-1.7-3.7-3.7-3.7S490.6,214.9,490.6,216.9z M490.6,225.4c0,2.1,1.7,3.7,3.7,3.7s3.7-1.7,3.7-3.7s-1.7-3.7-3.7-3.7
	S490.6,223.4,490.6,225.4z M490.6,234c0,2.1,1.7,3.7,3.7,3.7s3.7-1.7,3.7-3.7s-1.7-3.7-3.7-3.7S490.6,231.9,490.6,234z M490.6,242.5
	c0,2.1,1.7,3.7,3.7,3.7s3.7-1.7,3.7-3.7s-1.7-3.7-3.7-3.7S490.6,240.4,490.6,242.5z M490.6,251c0,2.1,1.7,3.7,3.7,3.7
	s3.7-1.7,3.7-3.7s-1.7-3.7-3.7-3.7S490.6,249,490.6,251z M490.6,259.6c0,2.1,1.7,3.7,3.7,3.7s3.7-1.7,3.7-3.7s-1.7-3.7-3.7-3.7
	S490.6,257.5,490.6,259.6z M490.6,268.1c0,2.1,1.7,3.7,3.7,3.7s3.7-1.7,3.7-3.7s-1.7-3.7-3.7-3.7S490.6,266,490.6,268.1z
	 M490.6,276.6c0,2.1,1.7,3.7,3.7,3.7s3.7-1.7,3.7-3.7s-1.7-3.7-3.7-3.7S490.6,274.5,490.6,276.6z M499.1,37.8c0,2.1,1.7,3.7,3.7,3.7
	s3.7-1.7,3.7-3.7s-1.7-3.7-3.7-3.7S499.1,35.8,499.1,37.8z M499.1,54.9c0,2.1,1.7,3.7,3.7,3.7s3.7-1.7,3.7-3.7s-1.7-3.7-3.7-3.7
	S499.1,52.8,499.1,54.9z M499.1,63.4c0,2.1,1.7,3.7,3.7,3.7s3.7-1.7,3.7-3.7s-1.7-3.7-3.7-3.7S499.1,61.4,499.1,63.4z M499.1,72
	c0,2.1,1.7,3.7,3.7,3.7s3.7-1.7,3.7-3.7s-1.7-3.7-3.7-3.7S499.1,69.9,499.1,72z M499.1,80.5c0,2.1,1.7,3.7,3.7,3.7s3.7-1.7,3.7-3.7
	s-1.7-3.7-3.7-3.7S499.1,78.4,499.1,80.5z M499.1,89c0,2.1,1.7,3.7,3.7,3.7s3.7-1.7,3.7-3.7s-1.7-3.7-3.7-3.7S499.1,86.9,499.1,89z
	 M499.1,123.1c0,2.1,1.7,3.7,3.7,3.7s3.7-1.7,3.7-3.7s-1.7-3.7-3.7-3.7S499.1,121.1,499.1,123.1z M499.1,216.9
	c0,2.1,1.7,3.7,3.7,3.7s3.7-1.7,3.7-3.7s-1.7-3.7-3.7-3.7S499.1,214.9,499.1,216.9z M499.1,225.4c0,2.1,1.7,3.7,3.7,3.7
	s3.7-1.7,3.7-3.7s-1.7-3.7-3.7-3.7S499.1,223.4,499.1,225.4z M499.1,242.5c0,2.1,1.7,3.7,3.7,3.7s3.7-1.7,3.7-3.7s-1.7-3.7-3.7-3.7
	S499.1,240.4,499.1,242.5z M499.1,251c0,2.1,1.7,3.7,3.7,3.7s3.7-1.7,3.7-3.7s-1.7-3.7-3.7-3.7S499.1,249,499.1,251z M499.1,259.6
	c0,2.1,1.7,3.7,3.7,3.7s3.7-1.7,3.7-3.7s-1.7-3.7-3.7-3.7S499.1,257.5,499.1,259.6z M499.1,268.1c0,2.1,1.7,3.7,3.7,3.7
	s3.7-1.7,3.7-3.7s-1.7-3.7-3.7-3.7S499.1,266,499.1,268.1z M499.1,276.6c0,2.1,1.7,3.7,3.7,3.7s3.7-1.7,3.7-3.7s-1.7-3.7-3.7-3.7
	S499.1,274.5,499.1,276.6z M499.1,293.7c0,2.1,1.7,3.7,3.7,3.7s3.7-1.7,3.7-3.7s-1.7-3.7-3.7-3.7S499.1,291.6,499.1,293.7z
	 M507.5,54.9c0,2.1,1.7,3.7,3.7,3.7c2.1,0,3.7-1.7,3.7-3.7s-1.7-3.7-3.7-3.7C509.2,51.2,507.5,52.8,507.5,54.9z M507.5,63.4
	c0,2.1,1.7,3.7,3.7,3.7c2.1,0,3.7-1.7,3.7-3.7s-1.7-3.7-3.7-3.7C509.2,59.7,507.5,61.4,507.5,63.4z M507.5,72c0,2.1,1.7,3.7,3.7,3.7
	c2.1,0,3.7-1.7,3.7-3.7s-1.7-3.7-3.7-3.7C509.2,68.2,507.5,69.9,507.5,72z M507.5,80.5c0,2.1,1.7,3.7,3.7,3.7c2.1,0,3.7-1.7,3.7-3.7
	s-1.7-3.7-3.7-3.7C509.2,76.8,507.5,78.4,507.5,80.5z M507.5,216.9c0,2.1,1.7,3.7,3.7,3.7c2.1,0,3.7-1.7,3.7-3.7s-1.7-3.7-3.7-3.7
	C509.2,213.2,507.5,214.9,507.5,216.9z M507.5,251c0,2.1,1.7,3.7,3.7,3.7c2.1,0,3.7-1.7,3.7-3.7s-1.7-3.7-3.7-3.7
	C509.2,247.3,507.5,249,507.5,251z M507.5,259.6c0,2.1,1.7,3.7,3.7,3.7c2.1,0,3.7-1.7,3.7-3.7s-1.7-3.7-3.7-3.7
	C509.2,255.8,507.5,257.5,507.5,259.6z M507.5,268.1c0,2.1,1.7,3.7,3.7,3.7c2.1,0,3.7-1.7,3.7-3.7s-1.7-3.7-3.7-3.7
	C509.2,264.4,507.5,266,507.5,268.1z M507.5,276.6c0,2.1,1.7,3.7,3.7,3.7c2.1,0,3.7-1.7,3.7-3.7s-1.7-3.7-3.7-3.7
	C509.2,272.9,507.5,274.5,507.5,276.6z M516,54.9c0,2.1,1.7,3.7,3.7,3.7s3.7-1.7,3.7-3.7s-1.7-3.7-3.7-3.7S516,52.8,516,54.9z
	 M516,63.4c0,2.1,1.7,3.7,3.7,3.7s3.7-1.7,3.7-3.7s-1.7-3.7-3.7-3.7S516,61.4,516,63.4z M516,72c0,2.1,1.7,3.7,3.7,3.7
	s3.7-1.7,3.7-3.7s-1.7-3.7-3.7-3.7S516,69.9,516,72z M516,80.5c0,2.1,1.7,3.7,3.7,3.7s3.7-1.7,3.7-3.7s-1.7-3.7-3.7-3.7
	S516,78.4,516,80.5z M516,89c0,2.1,1.7,3.7,3.7,3.7s3.7-1.7,3.7-3.7s-1.7-3.7-3.7-3.7S516,86.9,516,89z M516,97.5
	c0,2.1,1.7,3.7,3.7,3.7s3.7-1.7,3.7-3.7s-1.7-3.7-3.7-3.7S516,95.5,516,97.5z M516,106.1c0,2.1,1.7,3.7,3.7,3.7s3.7-1.7,3.7-3.7
	s-1.7-3.7-3.7-3.7S516,104,516,106.1z M516,114.6c0,2.1,1.7,3.7,3.7,3.7s3.7-1.7,3.7-3.7s-1.7-3.7-3.7-3.7S516,112.5,516,114.6z
	 M516,216.9c0,2.1,1.7,3.7,3.7,3.7s3.7-1.7,3.7-3.7s-1.7-3.7-3.7-3.7S516,214.9,516,216.9z M524.5,63.4c0,2.1,1.7,3.7,3.7,3.7
	s3.7-1.7,3.7-3.7s-1.7-3.7-3.7-3.7S524.5,61.4,524.5,63.4z M524.5,72c0,2.1,1.7,3.7,3.7,3.7s3.7-1.7,3.7-3.7s-1.7-3.7-3.7-3.7
	S524.5,69.9,524.5,72z M524.5,80.5c0,2.1,1.7,3.7,3.7,3.7s3.7-1.7,3.7-3.7s-1.7-3.7-3.7-3.7S524.5,78.4,524.5,80.5z M524.5,89
	c0,2.1,1.7,3.7,3.7,3.7s3.7-1.7,3.7-3.7s-1.7-3.7-3.7-3.7S524.5,86.9,524.5,89z M524.5,97.5c0,2.1,1.7,3.7,3.7,3.7s3.7-1.7,3.7-3.7
	s-1.7-3.7-3.7-3.7S524.5,95.5,524.5,97.5z M524.5,225.4c0,2.1,1.7,3.7,3.7,3.7s3.7-1.7,3.7-3.7s-1.7-3.7-3.7-3.7
	S524.5,223.4,524.5,225.4z M532.9,54.9c0,2.1,1.7,3.7,3.7,3.7s3.7-1.7,3.7-3.7s-1.7-3.7-3.7-3.7S532.9,52.8,532.9,54.9z M532.9,63.4
	c0,2.1,1.7,3.7,3.7,3.7s3.7-1.7,3.7-3.7s-1.7-3.7-3.7-3.7S532.9,61.4,532.9,63.4z M532.9,72c0,2.1,1.7,3.7,3.7,3.7s3.7-1.7,3.7-3.7
	s-1.7-3.7-3.7-3.7S532.9,69.9,532.9,72z M532.9,80.5c0,2.1,1.7,3.7,3.7,3.7s3.7-1.7,3.7-3.7s-1.7-3.7-3.7-3.7S532.9,78.4,532.9,80.5
	z M532.9,293.7c0,2.1,1.7,3.7,3.7,3.7s3.7-1.7,3.7-3.7s-1.7-3.7-3.7-3.7S532.9,291.6,532.9,293.7z M541.4,54.9
	c0,2.1,1.7,3.7,3.7,3.7s3.7-1.7,3.7-3.7s-1.7-3.7-3.7-3.7S541.4,52.8,541.4,54.9z M541.4,63.4c0,2.1,1.7,3.7,3.7,3.7
	s3.7-1.7,3.7-3.7s-1.7-3.7-3.7-3.7S541.4,61.4,541.4,63.4z M541.4,72c0,2.1,1.7,3.7,3.7,3.7s3.7-1.7,3.7-3.7s-1.7-3.7-3.7-3.7
	S541.4,69.9,541.4,72z M541.4,80.5c0,2.1,1.7,3.7,3.7,3.7s3.7-1.7,3.7-3.7s-1.7-3.7-3.7-3.7S541.4,78.4,541.4,80.5z M541.4,276.6
	c0,2.1,1.7,3.7,3.7,3.7s3.7-1.7,3.7-3.7s-1.7-3.7-3.7-3.7S541.4,274.5,541.4,276.6z M541.4,285.1c0,2.1,1.7,3.7,3.7,3.7
	s3.7-1.7,3.7-3.7s-1.7-3.7-3.7-3.7S541.4,283.1,541.4,285.1z M549.8,54.9c0,2.1,1.7,3.7,3.7,3.7s3.7-1.7,3.7-3.7s-1.7-3.7-3.7-3.7
	S549.8,52.8,549.8,54.9z M549.8,63.4c0,2.1,1.7,3.7,3.7,3.7s3.7-1.7,3.7-3.7s-1.7-3.7-3.7-3.7S549.8,61.4,549.8,63.4z M549.8,72
	c0,2.1,1.7,3.7,3.7,3.7s3.7-1.7,3.7-3.7s-1.7-3.7-3.7-3.7S549.8,69.9,549.8,72z M549.8,276.6c0,2.1,1.7,3.7,3.7,3.7s3.7-1.7,3.7-3.7
	s-1.7-3.7-3.7-3.7S549.8,274.5,549.8,276.6z M558.3,63.4c0,2.1,1.7,3.7,3.7,3.7s3.7-1.7,3.7-3.7s-1.7-3.7-3.7-3.7
	S558.3,61.4,558.3,63.4z M558.3,72c0,2.1,1.7,3.7,3.7,3.7s3.7-1.7,3.7-3.7s-1.7-3.7-3.7-3.7S558.3,69.9,558.3,72z M566.8,72
	c0,2.1,1.7,3.7,3.7,3.7s3.7-1.7,3.7-3.7s-1.7-3.7-3.7-3.7S566.8,69.9,566.8,72z M566.8,80.5c0,2.1,1.7,3.7,3.7,3.7s3.7-1.7,3.7-3.7
	s-1.7-3.7-3.7-3.7S566.8,78.4,566.8,80.5z"/>
</svg>
