<?xml version="1.0" encoding="UTF-8" standalone="no"?>
<svg width="38px" height="38px" viewBox="0 0 38 38" version="1.1" xmlns="http://www.w3.org/2000/svg" xmlns:xlink="http://www.w3.org/1999/xlink">
    <!-- Generator: Sketch 39.1 (31720) - http://www.bohemiancoding.com/sketch -->
    <title>Fill 3</title>
    <desc>Created with Sketch.</desc>
    <defs></defs>
    <g id="Page-1" stroke="none" stroke-width="1" fill="none" fill-rule="evenodd">
        <g id="Homepage" transform="translate(-1256.000000, -6116.000000)" fill="#2D3033">
            <g id="Group-15-Copy" transform="translate(1256.000000, 6116.000000)">
                <path d="M21.5637012,17.5854077 C22.9689185,17.6252897 23.9459825,18.5699666 23.7465294,19.6946393 C23.5469255,20.8197634 22.2466359,21.6995756 20.8412678,21.6601451 C19.4352967,21.6199621 18.4583835,20.6760377 18.6578366,19.551064 C18.8572897,18.4256389 20.1578809,17.5468802 21.5637012,17.5854077 M37.2214494,24.2133462 C35.3926015,31.0276014 29.7135395,36.2565091 22.7025288,37.6535834 C21.0472036,37.9828733 18.6667314,38.0913825 16.9871341,37.9184601 C7.44338532,36.9331487 0,28.8814978 0,19.0926467 C0,14.6977997 1.50079802,10.653764 4.01785717,7.44077898 C-0.0420615418,16.056196 2.9382776,26.9182494 13.3323027,26.9769437 C12.8129406,30.6965054 16.9084383,29.7476146 18.0062596,33.5987118 L18.3213443,34.957409 C16.9643696,36.4950486 18.558487,37.7476447 20.1542627,37.0859044 C21.2240429,36.6435903 21.4161089,34.8433314 19.8920941,34.5251784 C19.4826348,33.6962346 19.320419,33.1857448 19.0879498,32.1823737 C18.6374843,30.2352286 19.3749934,28.578244 21.9029072,29.5662643 C23.1397276,30.0504169 24.2340815,30.6823586 25.4054728,31.2345363 C25.4467805,31.8028173 25.7971426,32.3036752 26.3924868,32.5363453 C27.3255294,32.9010023 28.7173292,32.5486862 29.2394049,31.6469013 C29.7619329,30.7439124 29.218148,29.633537 28.2852562,29.26888 C27.736647,29.0548716 27.1018042,29.1173284 26.5666125,29.389429 C25.3089875,28.9775156 23.9799031,28.6385938 22.7783601,28.168588 C20.0283795,27.0925263 20.8400618,25.5830298 23.0987213,25.404238 C24.3361448,25.3065647 25.5865334,25.1647955 26.679832,24.8710231 C27.4455329,25.4162779 28.946331,25.2370346 29.511825,24.2601511 C30.0339007,23.3583662 29.7114289,22.3319688 28.7789893,21.9673118 C27.290252,21.424766 26.2688651,22.6585498 26.2976599,23.3899708 C22.3224673,26.1163953 8.52417096,23.866448 8.59261519,20.5130482 C8.81649114,17.8919724 11.6798419,15.3297415 15.4385457,13.3687506 C15.9779586,11.8896548 18.3169723,10.9511483 19.3927829,11.8466123 C23.2687766,10.5625621 28.3562633,10.4174819 30.7184938,12.8874575 C32.731719,13.2805587 38.9245649,17.8678927 37.2214494,24.2133462 M18.9310105,0 C29.4071988,0 37.8991075,8.47801222 37.8991075,18.9352256 C34.6259959,5.46925323 19.8409871,3.51939921 13.0974214,7.00523734 C8.70447778,9.27625441 3.56799466,16.4882762 7.6870106,24.3326912 C2.48931964,21.3484634 0.784998023,7.54055925 10.0821063,2.18327665 C12.6695696,0.690786504 15.7350871,0 18.9310105,0" id="Fill-3"></path>
            </g>
        </g>
    </g>
</svg>