<svg class="svg-icon" xmlns="http://www.w3.org/2000/svg" viewBox="0 0 60 60"><path d="M29.2 26.1c0.1 1.4 2.1 2.6 4.4 2.6 2.4 0 4.4-1.2 4.4-2.8 0-2.3-3.7-2.6-4.4-2.8 -0.8-0.1-4.4-0.5-4.4-2.8 0-1.5 2-2.8 4.4-2.8 2.4 0 4.3 1.1 4.4 2.6"/><line x1="33.6" y1="15.4" x2="33.6" y2="30.9"/><path d="M54.2 11.9c0 0-10.5-4.7-21.3 0 -10.3 4.5-20 0-20 0v23.3c0 0 9.7 4.5 20 0 10.7-4.7 21.3 0 21.3 0V11.9z"/><path d="M9.4 18.4v23.3c0 0 9.7 4.5 20 0 10.7-4.7 21.3 0 21.3 0V38"/><path d="M5.8 25v23.3c0 0 9.7 4.5 20 0 10.7-4.7 21.3 0 21.3 0v-3.6"/></svg>
