<svg class="svg-icon" xmlns="http://www.w3.org/2000/svg" viewBox="0 0 60 60"><path d="M24.3 22.5c0 3.1 2.4 5.9 5.6 6 3.2 0.1 5.9-2.5 5.9-5.7"/><rect x="20.7" y="33.6" width="24.9" height="12.2"/><polygon points=" 34 9.3 26 9.3 24.3 22.5 35.7 22.5"/><path d="M35.7 22.5c0 3.1 2.4 5.9 5.6 6 3.2 0.1 5.9-2.5 5.9-5.7"/><polyline points=" 35.7 22.5 47.1 22.5 41.8 9.3 34 9.3"/><path d="M47.1 22.5c0 3.1 2.4 5.9 5.6 6 3.2 0.1 5.9-2.5 5.9-5.7"/><polyline points=" 47.1 22.5 58.6 22.5 49.8 9.3 42 9.3 "/><path d="M24.3 22.5c0 3.1-2.4 5.9-5.6 6 -3.2 0.1-5.9-2.5-5.9-5.7"/><polyline points=" 24.3 22.5 12.9 22.5 18.2 9.3 26 9.3 "/><path d="M12.9 22.5c0 3.1-2.4 5.9-5.6 6 -3.2 0.1-5.9-2.5-5.9-5.7"/><polyline points=" 12.9 22.5 1.4 22.5 10.2 9.3 18 9.3"/><polyline points=" 8.4 32.3 8.4 50.7 51.6 50.7 51.6 32.3"/></svg>
